G04 #@! TF.GenerationSoftware,KiCad,Pcbnew,5.0.2+dfsg1-1*
G04 #@! TF.CreationDate,2021-02-26T15:03:44+01:00*
G04 #@! TF.ProjectId,KiCAD_Board,4b694341-445f-4426-9f61-72642e6b6963,rev?*
G04 #@! TF.SameCoordinates,Original*
G04 #@! TF.FileFunction,Soldermask,Bot*
G04 #@! TF.FilePolarity,Negative*
%FSLAX46Y46*%
G04 Gerber Fmt 4.6, Leading zero omitted, Abs format (unit mm)*
G04 Created by KiCad (PCBNEW 5.0.2+dfsg1-1) date Fri 26 Feb 2021 15:03:44 CET*
%MOMM*%
%LPD*%
G01*
G04 APERTURE LIST*
%ADD10C,0.100000*%
G04 APERTURE END LIST*
D10*
G36*
X155177442Y-127375518D02*
X155243627Y-127382037D01*
X155356853Y-127416384D01*
X155413467Y-127433557D01*
X155552087Y-127507652D01*
X155569991Y-127517222D01*
X155605729Y-127546552D01*
X155707186Y-127629814D01*
X155790448Y-127731271D01*
X155819778Y-127767009D01*
X155819779Y-127767011D01*
X155903443Y-127923533D01*
X155903443Y-127923534D01*
X155954963Y-128093373D01*
X155972359Y-128270000D01*
X155954963Y-128446627D01*
X155920616Y-128559853D01*
X155903443Y-128616467D01*
X155829348Y-128755087D01*
X155819778Y-128772991D01*
X155790448Y-128808729D01*
X155707186Y-128910186D01*
X155605729Y-128993448D01*
X155569991Y-129022778D01*
X155569989Y-129022779D01*
X155413467Y-129106443D01*
X155356853Y-129123616D01*
X155243627Y-129157963D01*
X155177442Y-129164482D01*
X155111260Y-129171000D01*
X155022740Y-129171000D01*
X154956558Y-129164482D01*
X154890373Y-129157963D01*
X154777147Y-129123616D01*
X154720533Y-129106443D01*
X154564011Y-129022779D01*
X154564009Y-129022778D01*
X154528271Y-128993448D01*
X154426814Y-128910186D01*
X154343552Y-128808729D01*
X154314222Y-128772991D01*
X154304652Y-128755087D01*
X154230557Y-128616467D01*
X154213384Y-128559853D01*
X154179037Y-128446627D01*
X154161641Y-128270000D01*
X154179037Y-128093373D01*
X154230557Y-127923534D01*
X154230557Y-127923533D01*
X154314221Y-127767011D01*
X154314222Y-127767009D01*
X154343552Y-127731271D01*
X154426814Y-127629814D01*
X154528271Y-127546552D01*
X154564009Y-127517222D01*
X154581913Y-127507652D01*
X154720533Y-127433557D01*
X154777147Y-127416384D01*
X154890373Y-127382037D01*
X154956558Y-127375518D01*
X155022740Y-127369000D01*
X155111260Y-127369000D01*
X155177442Y-127375518D01*
X155177442Y-127375518D01*
G37*
G36*
X153428000Y-129171000D02*
X151626000Y-129171000D01*
X151626000Y-127369000D01*
X153428000Y-127369000D01*
X153428000Y-129171000D01*
X153428000Y-129171000D01*
G37*
G36*
X143735527Y-124345736D02*
X143835410Y-124365604D01*
X144117674Y-124482521D01*
X144371705Y-124652259D01*
X144587741Y-124868295D01*
X144757479Y-125122326D01*
X144865674Y-125383533D01*
X144874396Y-125404591D01*
X144934000Y-125704238D01*
X144934000Y-126009762D01*
X144920731Y-126076467D01*
X144874396Y-126309410D01*
X144757479Y-126591674D01*
X144587741Y-126845705D01*
X144371705Y-127061741D01*
X144117674Y-127231479D01*
X143835410Y-127348396D01*
X143735527Y-127368264D01*
X143535762Y-127408000D01*
X143230238Y-127408000D01*
X143030473Y-127368264D01*
X142930590Y-127348396D01*
X142648326Y-127231479D01*
X142394295Y-127061741D01*
X142178259Y-126845705D01*
X142008521Y-126591674D01*
X141891604Y-126309410D01*
X141845269Y-126076467D01*
X141832000Y-126009762D01*
X141832000Y-125704238D01*
X141891604Y-125404591D01*
X141900326Y-125383533D01*
X142008521Y-125122326D01*
X142178259Y-124868295D01*
X142394295Y-124652259D01*
X142648326Y-124482521D01*
X142930590Y-124365604D01*
X143030473Y-124345736D01*
X143230238Y-124306000D01*
X143535762Y-124306000D01*
X143735527Y-124345736D01*
X143735527Y-124345736D01*
G37*
G36*
X139854000Y-127408000D02*
X136752000Y-127408000D01*
X136752000Y-124306000D01*
X139854000Y-124306000D01*
X139854000Y-127408000D01*
X139854000Y-127408000D01*
G37*
G36*
X162920643Y-125781781D02*
X163066415Y-125842162D01*
X163197611Y-125929824D01*
X163309176Y-126041389D01*
X163396838Y-126172585D01*
X163457219Y-126318357D01*
X163488000Y-126473107D01*
X163488000Y-126630893D01*
X163457219Y-126785643D01*
X163396838Y-126931415D01*
X163309176Y-127062611D01*
X163197611Y-127174176D01*
X163066415Y-127261838D01*
X162920643Y-127322219D01*
X162765893Y-127353000D01*
X162608107Y-127353000D01*
X162453357Y-127322219D01*
X162307585Y-127261838D01*
X162176389Y-127174176D01*
X162064824Y-127062611D01*
X161977162Y-126931415D01*
X161916781Y-126785643D01*
X161886000Y-126630893D01*
X161886000Y-126473107D01*
X161916781Y-126318357D01*
X161977162Y-126172585D01*
X162064824Y-126041389D01*
X162176389Y-125929824D01*
X162307585Y-125842162D01*
X162453357Y-125781781D01*
X162608107Y-125751000D01*
X162765893Y-125751000D01*
X162920643Y-125781781D01*
X162920643Y-125781781D01*
G37*
G36*
X155177443Y-124835519D02*
X155243627Y-124842037D01*
X155330188Y-124868295D01*
X155413467Y-124893557D01*
X155552087Y-124967652D01*
X155569991Y-124977222D01*
X155605729Y-125006552D01*
X155707186Y-125089814D01*
X155790448Y-125191271D01*
X155819778Y-125227009D01*
X155819779Y-125227011D01*
X155903443Y-125383533D01*
X155903443Y-125383534D01*
X155954963Y-125553373D01*
X155972359Y-125730000D01*
X155954963Y-125906627D01*
X155947926Y-125929824D01*
X155903443Y-126076467D01*
X155852066Y-126172585D01*
X155819778Y-126232991D01*
X155790448Y-126268729D01*
X155707186Y-126370186D01*
X155605729Y-126453448D01*
X155569991Y-126482778D01*
X155569989Y-126482779D01*
X155413467Y-126566443D01*
X155356853Y-126583616D01*
X155243627Y-126617963D01*
X155177442Y-126624482D01*
X155111260Y-126631000D01*
X155022740Y-126631000D01*
X154956558Y-126624482D01*
X154890373Y-126617963D01*
X154777147Y-126583616D01*
X154720533Y-126566443D01*
X154564011Y-126482779D01*
X154564009Y-126482778D01*
X154528271Y-126453448D01*
X154426814Y-126370186D01*
X154343552Y-126268729D01*
X154314222Y-126232991D01*
X154281934Y-126172585D01*
X154230557Y-126076467D01*
X154186074Y-125929824D01*
X154179037Y-125906627D01*
X154161641Y-125730000D01*
X154179037Y-125553373D01*
X154230557Y-125383534D01*
X154230557Y-125383533D01*
X154314221Y-125227011D01*
X154314222Y-125227009D01*
X154343552Y-125191271D01*
X154426814Y-125089814D01*
X154528271Y-125006552D01*
X154564009Y-124977222D01*
X154581913Y-124967652D01*
X154720533Y-124893557D01*
X154803812Y-124868295D01*
X154890373Y-124842037D01*
X154956557Y-124835519D01*
X155022740Y-124829000D01*
X155111260Y-124829000D01*
X155177443Y-124835519D01*
X155177443Y-124835519D01*
G37*
G36*
X152637443Y-124835519D02*
X152703627Y-124842037D01*
X152790188Y-124868295D01*
X152873467Y-124893557D01*
X153012087Y-124967652D01*
X153029991Y-124977222D01*
X153065729Y-125006552D01*
X153167186Y-125089814D01*
X153250448Y-125191271D01*
X153279778Y-125227009D01*
X153279779Y-125227011D01*
X153363443Y-125383533D01*
X153363443Y-125383534D01*
X153414963Y-125553373D01*
X153432359Y-125730000D01*
X153414963Y-125906627D01*
X153407926Y-125929824D01*
X153363443Y-126076467D01*
X153312066Y-126172585D01*
X153279778Y-126232991D01*
X153250448Y-126268729D01*
X153167186Y-126370186D01*
X153065729Y-126453448D01*
X153029991Y-126482778D01*
X153029989Y-126482779D01*
X152873467Y-126566443D01*
X152816853Y-126583616D01*
X152703627Y-126617963D01*
X152637442Y-126624482D01*
X152571260Y-126631000D01*
X152482740Y-126631000D01*
X152416558Y-126624482D01*
X152350373Y-126617963D01*
X152237147Y-126583616D01*
X152180533Y-126566443D01*
X152024011Y-126482779D01*
X152024009Y-126482778D01*
X151988271Y-126453448D01*
X151886814Y-126370186D01*
X151803552Y-126268729D01*
X151774222Y-126232991D01*
X151741934Y-126172585D01*
X151690557Y-126076467D01*
X151646074Y-125929824D01*
X151639037Y-125906627D01*
X151621641Y-125730000D01*
X151639037Y-125553373D01*
X151690557Y-125383534D01*
X151690557Y-125383533D01*
X151774221Y-125227011D01*
X151774222Y-125227009D01*
X151803552Y-125191271D01*
X151886814Y-125089814D01*
X151988271Y-125006552D01*
X152024009Y-124977222D01*
X152041913Y-124967652D01*
X152180533Y-124893557D01*
X152263812Y-124868295D01*
X152350373Y-124842037D01*
X152416557Y-124835519D01*
X152482740Y-124829000D01*
X152571260Y-124829000D01*
X152637443Y-124835519D01*
X152637443Y-124835519D01*
G37*
G36*
X162920643Y-123181781D02*
X163066415Y-123242162D01*
X163197611Y-123329824D01*
X163309176Y-123441389D01*
X163396838Y-123572585D01*
X163457219Y-123718357D01*
X163488000Y-123873107D01*
X163488000Y-124030893D01*
X163457219Y-124185643D01*
X163396838Y-124331415D01*
X163309176Y-124462611D01*
X163197611Y-124574176D01*
X163066415Y-124661838D01*
X162920643Y-124722219D01*
X162765893Y-124753000D01*
X162608107Y-124753000D01*
X162453357Y-124722219D01*
X162307585Y-124661838D01*
X162176389Y-124574176D01*
X162064824Y-124462611D01*
X161977162Y-124331415D01*
X161916781Y-124185643D01*
X161886000Y-124030893D01*
X161886000Y-123873107D01*
X161916781Y-123718357D01*
X161977162Y-123572585D01*
X162064824Y-123441389D01*
X162176389Y-123329824D01*
X162307585Y-123242162D01*
X162453357Y-123181781D01*
X162608107Y-123151000D01*
X162765893Y-123151000D01*
X162920643Y-123181781D01*
X162920643Y-123181781D01*
G37*
G36*
X152637443Y-122295519D02*
X152703627Y-122302037D01*
X152816853Y-122336384D01*
X152873467Y-122353557D01*
X153012087Y-122427652D01*
X153029991Y-122437222D01*
X153065729Y-122466552D01*
X153167186Y-122549814D01*
X153250448Y-122651271D01*
X153279778Y-122687009D01*
X153279779Y-122687011D01*
X153363443Y-122843533D01*
X153363443Y-122843534D01*
X153414963Y-123013373D01*
X153432359Y-123190000D01*
X153414963Y-123366627D01*
X153392284Y-123441389D01*
X153363443Y-123536467D01*
X153344137Y-123572585D01*
X153279778Y-123692991D01*
X153250448Y-123728729D01*
X153167186Y-123830186D01*
X153065729Y-123913448D01*
X153029991Y-123942778D01*
X153029989Y-123942779D01*
X152873467Y-124026443D01*
X152816853Y-124043616D01*
X152703627Y-124077963D01*
X152637442Y-124084482D01*
X152571260Y-124091000D01*
X152482740Y-124091000D01*
X152416558Y-124084482D01*
X152350373Y-124077963D01*
X152237147Y-124043616D01*
X152180533Y-124026443D01*
X152024011Y-123942779D01*
X152024009Y-123942778D01*
X151988271Y-123913448D01*
X151886814Y-123830186D01*
X151803552Y-123728729D01*
X151774222Y-123692991D01*
X151709863Y-123572585D01*
X151690557Y-123536467D01*
X151661716Y-123441389D01*
X151639037Y-123366627D01*
X151621641Y-123190000D01*
X151639037Y-123013373D01*
X151690557Y-122843534D01*
X151690557Y-122843533D01*
X151774221Y-122687011D01*
X151774222Y-122687009D01*
X151803552Y-122651271D01*
X151886814Y-122549814D01*
X151988271Y-122466552D01*
X152024009Y-122437222D01*
X152041913Y-122427652D01*
X152180533Y-122353557D01*
X152237147Y-122336384D01*
X152350373Y-122302037D01*
X152416557Y-122295519D01*
X152482740Y-122289000D01*
X152571260Y-122289000D01*
X152637443Y-122295519D01*
X152637443Y-122295519D01*
G37*
G36*
X155177443Y-122295519D02*
X155243627Y-122302037D01*
X155356853Y-122336384D01*
X155413467Y-122353557D01*
X155552087Y-122427652D01*
X155569991Y-122437222D01*
X155605729Y-122466552D01*
X155707186Y-122549814D01*
X155790448Y-122651271D01*
X155819778Y-122687009D01*
X155819779Y-122687011D01*
X155903443Y-122843533D01*
X155903443Y-122843534D01*
X155954963Y-123013373D01*
X155972359Y-123190000D01*
X155954963Y-123366627D01*
X155932284Y-123441389D01*
X155903443Y-123536467D01*
X155884137Y-123572585D01*
X155819778Y-123692991D01*
X155790448Y-123728729D01*
X155707186Y-123830186D01*
X155605729Y-123913448D01*
X155569991Y-123942778D01*
X155569989Y-123942779D01*
X155413467Y-124026443D01*
X155356853Y-124043616D01*
X155243627Y-124077963D01*
X155177442Y-124084482D01*
X155111260Y-124091000D01*
X155022740Y-124091000D01*
X154956558Y-124084482D01*
X154890373Y-124077963D01*
X154777147Y-124043616D01*
X154720533Y-124026443D01*
X154564011Y-123942779D01*
X154564009Y-123942778D01*
X154528271Y-123913448D01*
X154426814Y-123830186D01*
X154343552Y-123728729D01*
X154314222Y-123692991D01*
X154249863Y-123572585D01*
X154230557Y-123536467D01*
X154201716Y-123441389D01*
X154179037Y-123366627D01*
X154161641Y-123190000D01*
X154179037Y-123013373D01*
X154230557Y-122843534D01*
X154230557Y-122843533D01*
X154314221Y-122687011D01*
X154314222Y-122687009D01*
X154343552Y-122651271D01*
X154426814Y-122549814D01*
X154528271Y-122466552D01*
X154564009Y-122437222D01*
X154581913Y-122427652D01*
X154720533Y-122353557D01*
X154777147Y-122336384D01*
X154890373Y-122302037D01*
X154956557Y-122295519D01*
X155022740Y-122289000D01*
X155111260Y-122289000D01*
X155177443Y-122295519D01*
X155177443Y-122295519D01*
G37*
G36*
X163488000Y-122153000D02*
X161886000Y-122153000D01*
X161886000Y-120551000D01*
X163488000Y-120551000D01*
X163488000Y-122153000D01*
X163488000Y-122153000D01*
G37*
G36*
X141732000Y-114300000D02*
X133858000Y-114300000D01*
X133858000Y-96647000D01*
X141732000Y-96647000D01*
X141732000Y-114300000D01*
X141732000Y-114300000D01*
G37*
G36*
X131672987Y-108909885D02*
X131705013Y-108919600D01*
X131734530Y-108935377D01*
X131760395Y-108956605D01*
X131781623Y-108982470D01*
X131797400Y-109011987D01*
X131807115Y-109044013D01*
X131811000Y-109083456D01*
X131811000Y-113230544D01*
X131807115Y-113269987D01*
X131797400Y-113302013D01*
X131781623Y-113331530D01*
X131760395Y-113357395D01*
X131734530Y-113378623D01*
X131705013Y-113394400D01*
X131672987Y-113404115D01*
X131633544Y-113408000D01*
X129986456Y-113408000D01*
X129947013Y-113404115D01*
X129914987Y-113394400D01*
X129885470Y-113378623D01*
X129859605Y-113357395D01*
X129838377Y-113331530D01*
X129822600Y-113302013D01*
X129812885Y-113269987D01*
X129809000Y-113230544D01*
X129809000Y-109083456D01*
X129812885Y-109044013D01*
X129822600Y-109011987D01*
X129838377Y-108982470D01*
X129859605Y-108956605D01*
X129885470Y-108935377D01*
X129914987Y-108919600D01*
X129947013Y-108909885D01*
X129986456Y-108906000D01*
X131633544Y-108906000D01*
X131672987Y-108909885D01*
X131672987Y-108909885D01*
G37*
G36*
X174691335Y-104808183D02*
X174742983Y-104818456D01*
X174815961Y-104848685D01*
X174881641Y-104892571D01*
X174937491Y-104948421D01*
X174937493Y-104948424D01*
X174981377Y-105014101D01*
X175011606Y-105087079D01*
X175027016Y-105164551D01*
X175027016Y-105243541D01*
X175011606Y-105321013D01*
X174981377Y-105393991D01*
X174937491Y-105459671D01*
X174905762Y-105491400D01*
X174890216Y-105510342D01*
X174878665Y-105531953D01*
X174871552Y-105555402D01*
X174869150Y-105579788D01*
X174871552Y-105604174D01*
X174878665Y-105627623D01*
X174890216Y-105649234D01*
X174905762Y-105668176D01*
X174924704Y-105683722D01*
X174946315Y-105695273D01*
X174969764Y-105702386D01*
X174990059Y-105704721D01*
X175004484Y-105705193D01*
X175064818Y-105707168D01*
X175118163Y-105719607D01*
X175151335Y-105727341D01*
X175181658Y-105741080D01*
X175211980Y-105754819D01*
X175390123Y-105857670D01*
X175856573Y-106126975D01*
X175897112Y-106156025D01*
X175910686Y-106165752D01*
X175971417Y-106230592D01*
X175992441Y-106264403D01*
X176018329Y-106306033D01*
X176049624Y-106389183D01*
X176064095Y-106476831D01*
X176064095Y-106476833D01*
X176061189Y-106565625D01*
X176049589Y-106615374D01*
X176041016Y-106652142D01*
X176004351Y-106733063D01*
X175982259Y-106763892D01*
X175952604Y-106805276D01*
X175887764Y-106866006D01*
X175862865Y-106881489D01*
X175812322Y-106912919D01*
X175729173Y-106944213D01*
X175641524Y-106958684D01*
X175641523Y-106958684D01*
X175552731Y-106955778D01*
X175499386Y-106943339D01*
X175466214Y-106935605D01*
X175434274Y-106921133D01*
X175405569Y-106908127D01*
X174926966Y-106631805D01*
X174760984Y-106535975D01*
X174706860Y-106497191D01*
X174675619Y-106463834D01*
X174646133Y-106432353D01*
X174607233Y-106369796D01*
X174592315Y-106350356D01*
X174573892Y-106334199D01*
X174552670Y-106321947D01*
X174529466Y-106314071D01*
X174505172Y-106310873D01*
X174480720Y-106312476D01*
X174457050Y-106318818D01*
X174435073Y-106329656D01*
X174415633Y-106344574D01*
X174399476Y-106362997D01*
X174387224Y-106384219D01*
X174378485Y-106411420D01*
X174376606Y-106420866D01*
X174371847Y-106432354D01*
X174346377Y-106493844D01*
X174302491Y-106559524D01*
X174270763Y-106591252D01*
X174255217Y-106610194D01*
X174243666Y-106631805D01*
X174236553Y-106655254D01*
X174234151Y-106679640D01*
X174236553Y-106704026D01*
X174243666Y-106727475D01*
X174255217Y-106749086D01*
X174270763Y-106768028D01*
X174289705Y-106783574D01*
X174311316Y-106795125D01*
X174334765Y-106802238D01*
X174355060Y-106804573D01*
X174370989Y-106805095D01*
X174429818Y-106807020D01*
X174483163Y-106819459D01*
X174516335Y-106827193D01*
X174546658Y-106840933D01*
X174576980Y-106854671D01*
X174833462Y-107002751D01*
X175221573Y-107226827D01*
X175262112Y-107255877D01*
X175275686Y-107265604D01*
X175336417Y-107330444D01*
X175357441Y-107364255D01*
X175383329Y-107405885D01*
X175414624Y-107489035D01*
X175429095Y-107576683D01*
X175429095Y-107576685D01*
X175426189Y-107665477D01*
X175414589Y-107715226D01*
X175406016Y-107751994D01*
X175369351Y-107832915D01*
X175347259Y-107863744D01*
X175317604Y-107905128D01*
X175252764Y-107965858D01*
X175227865Y-107981341D01*
X175177322Y-108012771D01*
X175094173Y-108044065D01*
X175006524Y-108058536D01*
X175006523Y-108058536D01*
X174917731Y-108055630D01*
X174864386Y-108043191D01*
X174831214Y-108035457D01*
X174799274Y-108020985D01*
X174770569Y-108007979D01*
X174291966Y-107731657D01*
X174125984Y-107635827D01*
X174071860Y-107597043D01*
X174040619Y-107563686D01*
X174011133Y-107532205D01*
X173972233Y-107469648D01*
X173957315Y-107450208D01*
X173938892Y-107434051D01*
X173917670Y-107421799D01*
X173894466Y-107413923D01*
X173870172Y-107410725D01*
X173845720Y-107412328D01*
X173822050Y-107418670D01*
X173800073Y-107429508D01*
X173780633Y-107444426D01*
X173764476Y-107462849D01*
X173752224Y-107484071D01*
X173743485Y-107511272D01*
X173741606Y-107520718D01*
X173736847Y-107532206D01*
X173711377Y-107593696D01*
X173667491Y-107659376D01*
X173635763Y-107691104D01*
X173620217Y-107710046D01*
X173608666Y-107731657D01*
X173601553Y-107755106D01*
X173599151Y-107779492D01*
X173601553Y-107803878D01*
X173608666Y-107827327D01*
X173620217Y-107848938D01*
X173635763Y-107867880D01*
X173654705Y-107883426D01*
X173676316Y-107894977D01*
X173699765Y-107902090D01*
X173720060Y-107904425D01*
X173735989Y-107904947D01*
X173794818Y-107906872D01*
X173848163Y-107919311D01*
X173881335Y-107927045D01*
X173911658Y-107940785D01*
X173941980Y-107954523D01*
X174198462Y-108102603D01*
X174586573Y-108326679D01*
X174627112Y-108355729D01*
X174640686Y-108365456D01*
X174701417Y-108430296D01*
X174722441Y-108464107D01*
X174748329Y-108505737D01*
X174779624Y-108588887D01*
X174794095Y-108676535D01*
X174794095Y-108676537D01*
X174791189Y-108765329D01*
X174779589Y-108815078D01*
X174771016Y-108851846D01*
X174734351Y-108932767D01*
X174712259Y-108963596D01*
X174682604Y-109004980D01*
X174617764Y-109065710D01*
X174592865Y-109081193D01*
X174542322Y-109112623D01*
X174459173Y-109143917D01*
X174371524Y-109158388D01*
X174371523Y-109158388D01*
X174282731Y-109155482D01*
X174229386Y-109143043D01*
X174196214Y-109135309D01*
X174158079Y-109118030D01*
X174135569Y-109107831D01*
X173656966Y-108831509D01*
X173490984Y-108735679D01*
X173436860Y-108696895D01*
X173405619Y-108663538D01*
X173376133Y-108632057D01*
X173337233Y-108569500D01*
X173322315Y-108550060D01*
X173303892Y-108533903D01*
X173282670Y-108521651D01*
X173259466Y-108513775D01*
X173235172Y-108510577D01*
X173210720Y-108512180D01*
X173187050Y-108518522D01*
X173165073Y-108529360D01*
X173145633Y-108544278D01*
X173129476Y-108562701D01*
X173117224Y-108583923D01*
X173108485Y-108611124D01*
X173106606Y-108620570D01*
X173101847Y-108632058D01*
X173076377Y-108693548D01*
X173032491Y-108759228D01*
X173000763Y-108790956D01*
X172985217Y-108809898D01*
X172973666Y-108831509D01*
X172966553Y-108854958D01*
X172964151Y-108879344D01*
X172966553Y-108903730D01*
X172973666Y-108927179D01*
X172985217Y-108948790D01*
X173000763Y-108967732D01*
X173019705Y-108983278D01*
X173041316Y-108994829D01*
X173064765Y-109001942D01*
X173085060Y-109004277D01*
X173100989Y-109004799D01*
X173159818Y-109006724D01*
X173213163Y-109019163D01*
X173246335Y-109026897D01*
X173276658Y-109040636D01*
X173306980Y-109054375D01*
X173679135Y-109269239D01*
X173951573Y-109426531D01*
X173982187Y-109448469D01*
X174005686Y-109465308D01*
X174066417Y-109530148D01*
X174093263Y-109573321D01*
X174113329Y-109605589D01*
X174144624Y-109688739D01*
X174159095Y-109776387D01*
X174159095Y-109776389D01*
X174156189Y-109865181D01*
X174144588Y-109914931D01*
X174136016Y-109951698D01*
X174099351Y-110032619D01*
X174059031Y-110088886D01*
X174047604Y-110104832D01*
X173982764Y-110165562D01*
X173945043Y-110189018D01*
X173907322Y-110212475D01*
X173824173Y-110243769D01*
X173736524Y-110258240D01*
X173736523Y-110258240D01*
X173647731Y-110255334D01*
X173594386Y-110242895D01*
X173561214Y-110235161D01*
X173530891Y-110221421D01*
X173500569Y-110207683D01*
X173106078Y-109979923D01*
X172855984Y-109835531D01*
X172801860Y-109796747D01*
X172770619Y-109763390D01*
X172741133Y-109731909D01*
X172702233Y-109669352D01*
X172687315Y-109649912D01*
X172668892Y-109633755D01*
X172647670Y-109621503D01*
X172624466Y-109613627D01*
X172600172Y-109610429D01*
X172575720Y-109612032D01*
X172552050Y-109618374D01*
X172530073Y-109629212D01*
X172510633Y-109644130D01*
X172494476Y-109662553D01*
X172482224Y-109683775D01*
X172473485Y-109710977D01*
X172471607Y-109720421D01*
X172441377Y-109793401D01*
X172397491Y-109859081D01*
X172341641Y-109914931D01*
X172341638Y-109914933D01*
X172275961Y-109958817D01*
X172202983Y-109989046D01*
X172151335Y-109999319D01*
X172125512Y-110004456D01*
X172046520Y-110004456D01*
X172020697Y-109999319D01*
X171969049Y-109989046D01*
X171896071Y-109958817D01*
X171830394Y-109914933D01*
X171830391Y-109914931D01*
X171774541Y-109859081D01*
X171730655Y-109793401D01*
X171723608Y-109776389D01*
X171700426Y-109720423D01*
X171687704Y-109656466D01*
X171685016Y-109642952D01*
X171685016Y-109563960D01*
X171700426Y-109486491D01*
X171700426Y-109486489D01*
X171730655Y-109413511D01*
X171774539Y-109347834D01*
X171774541Y-109347831D01*
X171830391Y-109291981D01*
X171896071Y-109248095D01*
X171969049Y-109217866D01*
X172020697Y-109207593D01*
X172046520Y-109202456D01*
X172125512Y-109202456D01*
X172151335Y-109207593D01*
X172202983Y-109217866D01*
X172275961Y-109248095D01*
X172341641Y-109291981D01*
X172397491Y-109347831D01*
X172433973Y-109402430D01*
X172449519Y-109421372D01*
X172468461Y-109436918D01*
X172490072Y-109448469D01*
X172513521Y-109455582D01*
X172537907Y-109457984D01*
X172562293Y-109455582D01*
X172585742Y-109448469D01*
X172607353Y-109436918D01*
X172626295Y-109421372D01*
X172641841Y-109402430D01*
X172653392Y-109380819D01*
X172659640Y-109361373D01*
X172666194Y-109333265D01*
X172671534Y-109310361D01*
X172708200Y-109229436D01*
X172759944Y-109157226D01*
X172798798Y-109120837D01*
X172814955Y-109102414D01*
X172827207Y-109081193D01*
X172835084Y-109057989D01*
X172838283Y-109033694D01*
X172836681Y-109009243D01*
X172830339Y-108985573D01*
X172819501Y-108963596D01*
X172804584Y-108944155D01*
X172786161Y-108927998D01*
X172764940Y-108915746D01*
X172741736Y-108907869D01*
X172713350Y-108904603D01*
X172681520Y-108904603D01*
X172655697Y-108899466D01*
X172604049Y-108889193D01*
X172531071Y-108858964D01*
X172465394Y-108815080D01*
X172465391Y-108815078D01*
X172409541Y-108759228D01*
X172365655Y-108693548D01*
X172340185Y-108632058D01*
X172335426Y-108620570D01*
X172320016Y-108543098D01*
X172320016Y-108464108D01*
X172335426Y-108386636D01*
X172365655Y-108313658D01*
X172409539Y-108247981D01*
X172409541Y-108247978D01*
X172465391Y-108192128D01*
X172531071Y-108148242D01*
X172604049Y-108118013D01*
X172655697Y-108107740D01*
X172681520Y-108102603D01*
X172760512Y-108102603D01*
X172786335Y-108107740D01*
X172837983Y-108118013D01*
X172910961Y-108148242D01*
X172976641Y-108192128D01*
X173032491Y-108247978D01*
X173068973Y-108302577D01*
X173084519Y-108321519D01*
X173103461Y-108337065D01*
X173125072Y-108348616D01*
X173148521Y-108355729D01*
X173172907Y-108358131D01*
X173197293Y-108355729D01*
X173220742Y-108348616D01*
X173242353Y-108337065D01*
X173261295Y-108321519D01*
X173276841Y-108302577D01*
X173288392Y-108280966D01*
X173294640Y-108261521D01*
X173300119Y-108238022D01*
X173306534Y-108210508D01*
X173343200Y-108129584D01*
X173394944Y-108057374D01*
X173433798Y-108020985D01*
X173449955Y-108002562D01*
X173462207Y-107981341D01*
X173470084Y-107958137D01*
X173473283Y-107933842D01*
X173471681Y-107909391D01*
X173465339Y-107885721D01*
X173454501Y-107863744D01*
X173439584Y-107844303D01*
X173421161Y-107828146D01*
X173399940Y-107815894D01*
X173376736Y-107808017D01*
X173348350Y-107804751D01*
X173316520Y-107804751D01*
X173290697Y-107799614D01*
X173239049Y-107789341D01*
X173166071Y-107759112D01*
X173100394Y-107715228D01*
X173100391Y-107715226D01*
X173044541Y-107659376D01*
X173000655Y-107593696D01*
X172975185Y-107532206D01*
X172970426Y-107520718D01*
X172955016Y-107443246D01*
X172955016Y-107364256D01*
X172970426Y-107286784D01*
X173000655Y-107213806D01*
X173044539Y-107148129D01*
X173044541Y-107148126D01*
X173100391Y-107092276D01*
X173166071Y-107048390D01*
X173239049Y-107018161D01*
X173290697Y-107007888D01*
X173316520Y-107002751D01*
X173395512Y-107002751D01*
X173421335Y-107007888D01*
X173472983Y-107018161D01*
X173545961Y-107048390D01*
X173611641Y-107092276D01*
X173667491Y-107148126D01*
X173703973Y-107202725D01*
X173719519Y-107221667D01*
X173738461Y-107237213D01*
X173760072Y-107248764D01*
X173783521Y-107255877D01*
X173807907Y-107258279D01*
X173832293Y-107255877D01*
X173855742Y-107248764D01*
X173877353Y-107237213D01*
X173896295Y-107221667D01*
X173911841Y-107202725D01*
X173923392Y-107181114D01*
X173929640Y-107161669D01*
X173935119Y-107138170D01*
X173941534Y-107110656D01*
X173978200Y-107029732D01*
X174029944Y-106957522D01*
X174068798Y-106921133D01*
X174084955Y-106902710D01*
X174097207Y-106881489D01*
X174105084Y-106858285D01*
X174108283Y-106833990D01*
X174106681Y-106809539D01*
X174100339Y-106785869D01*
X174089501Y-106763892D01*
X174074584Y-106744451D01*
X174056161Y-106728294D01*
X174034940Y-106716042D01*
X174011736Y-106708165D01*
X173983350Y-106704899D01*
X173951520Y-106704899D01*
X173925697Y-106699762D01*
X173874049Y-106689489D01*
X173801071Y-106659260D01*
X173735394Y-106615376D01*
X173735391Y-106615374D01*
X173679541Y-106559524D01*
X173635655Y-106493844D01*
X173610185Y-106432354D01*
X173605426Y-106420866D01*
X173590016Y-106343394D01*
X173590016Y-106264404D01*
X173605426Y-106186932D01*
X173635655Y-106113954D01*
X173679539Y-106048277D01*
X173679541Y-106048274D01*
X173735391Y-105992424D01*
X173801071Y-105948538D01*
X173874049Y-105918309D01*
X173925697Y-105908036D01*
X173951520Y-105902899D01*
X174030512Y-105902899D01*
X174056335Y-105908036D01*
X174107983Y-105918309D01*
X174180961Y-105948538D01*
X174246641Y-105992424D01*
X174302491Y-106048274D01*
X174338973Y-106102873D01*
X174354519Y-106121815D01*
X174373461Y-106137361D01*
X174395072Y-106148912D01*
X174418521Y-106156025D01*
X174442907Y-106158427D01*
X174467293Y-106156025D01*
X174490742Y-106148912D01*
X174512353Y-106137361D01*
X174531295Y-106121815D01*
X174546841Y-106102873D01*
X174558392Y-106081262D01*
X174564640Y-106061817D01*
X174570119Y-106038318D01*
X174576534Y-106010804D01*
X174613200Y-105929880D01*
X174664944Y-105857670D01*
X174703799Y-105821280D01*
X174719956Y-105802857D01*
X174732208Y-105781636D01*
X174740085Y-105758432D01*
X174743284Y-105734137D01*
X174741682Y-105709686D01*
X174735340Y-105686016D01*
X174724502Y-105664039D01*
X174709585Y-105644598D01*
X174691162Y-105628441D01*
X174669941Y-105616189D01*
X174646737Y-105608312D01*
X174618351Y-105605046D01*
X174586520Y-105605046D01*
X174560697Y-105599909D01*
X174509049Y-105589636D01*
X174436071Y-105559407D01*
X174370394Y-105515523D01*
X174370391Y-105515521D01*
X174314541Y-105459671D01*
X174270655Y-105393991D01*
X174240426Y-105321013D01*
X174225016Y-105243541D01*
X174225016Y-105164551D01*
X174240426Y-105087079D01*
X174270655Y-105014101D01*
X174314539Y-104948424D01*
X174314541Y-104948421D01*
X174370391Y-104892571D01*
X174436071Y-104848685D01*
X174509049Y-104818456D01*
X174560697Y-104808183D01*
X174586520Y-104803046D01*
X174665512Y-104803046D01*
X174691335Y-104808183D01*
X174691335Y-104808183D01*
G37*
G36*
X169811000Y-106057000D02*
X168009000Y-106057000D01*
X168009000Y-104255000D01*
X169811000Y-104255000D01*
X169811000Y-106057000D01*
X169811000Y-106057000D01*
G37*
G36*
X131672987Y-100209885D02*
X131705013Y-100219600D01*
X131734530Y-100235377D01*
X131760395Y-100256605D01*
X131781623Y-100282470D01*
X131797400Y-100311987D01*
X131807115Y-100344013D01*
X131811000Y-100383456D01*
X131811000Y-104530544D01*
X131807115Y-104569987D01*
X131797400Y-104602013D01*
X131781623Y-104631530D01*
X131760395Y-104657395D01*
X131734530Y-104678623D01*
X131705013Y-104694400D01*
X131672987Y-104704115D01*
X131633544Y-104708000D01*
X129986456Y-104708000D01*
X129947013Y-104704115D01*
X129914987Y-104694400D01*
X129885470Y-104678623D01*
X129859605Y-104657395D01*
X129838377Y-104631530D01*
X129822600Y-104602013D01*
X129812885Y-104569987D01*
X129809000Y-104530544D01*
X129809000Y-100383456D01*
X129812885Y-100344013D01*
X129822600Y-100311987D01*
X129838377Y-100282470D01*
X129859605Y-100256605D01*
X129885470Y-100235377D01*
X129914987Y-100219600D01*
X129947013Y-100209885D01*
X129986456Y-100206000D01*
X131633544Y-100206000D01*
X131672987Y-100209885D01*
X131672987Y-100209885D01*
G37*
G36*
X169020443Y-101721519D02*
X169086627Y-101728037D01*
X169199853Y-101762384D01*
X169256467Y-101779557D01*
X169395087Y-101853652D01*
X169412991Y-101863222D01*
X169448729Y-101892552D01*
X169550186Y-101975814D01*
X169633448Y-102077271D01*
X169662778Y-102113009D01*
X169662779Y-102113011D01*
X169746443Y-102269533D01*
X169746443Y-102269534D01*
X169797963Y-102439373D01*
X169815359Y-102616000D01*
X169797963Y-102792627D01*
X169763616Y-102905853D01*
X169746443Y-102962467D01*
X169672348Y-103101087D01*
X169662778Y-103118991D01*
X169633448Y-103154729D01*
X169550186Y-103256186D01*
X169448729Y-103339448D01*
X169412991Y-103368778D01*
X169412989Y-103368779D01*
X169256467Y-103452443D01*
X169199853Y-103469616D01*
X169086627Y-103503963D01*
X169020443Y-103510481D01*
X168954260Y-103517000D01*
X168865740Y-103517000D01*
X168799558Y-103510482D01*
X168733373Y-103503963D01*
X168620147Y-103469616D01*
X168563533Y-103452443D01*
X168407011Y-103368779D01*
X168407009Y-103368778D01*
X168371271Y-103339448D01*
X168269814Y-103256186D01*
X168186552Y-103154729D01*
X168157222Y-103118991D01*
X168147652Y-103101087D01*
X168073557Y-102962467D01*
X168056384Y-102905853D01*
X168022037Y-102792627D01*
X168004641Y-102616000D01*
X168022037Y-102439373D01*
X168073557Y-102269534D01*
X168073557Y-102269533D01*
X168157221Y-102113011D01*
X168157222Y-102113009D01*
X168186552Y-102077271D01*
X168269814Y-101975814D01*
X168371271Y-101892552D01*
X168407009Y-101863222D01*
X168424913Y-101853652D01*
X168563533Y-101779557D01*
X168620147Y-101762384D01*
X168733373Y-101728037D01*
X168799558Y-101721518D01*
X168865740Y-101715000D01*
X168954260Y-101715000D01*
X169020443Y-101721519D01*
X169020443Y-101721519D01*
G37*
G36*
X164909500Y-102298500D02*
X160718500Y-102298500D01*
X160718500Y-99123500D01*
X164909500Y-99123500D01*
X164909500Y-102298500D01*
X164909500Y-102298500D01*
G37*
G36*
X170140789Y-99389789D02*
X168580211Y-100290789D01*
X167679211Y-98730211D01*
X169239789Y-97829211D01*
X170140789Y-99389789D01*
X170140789Y-99389789D01*
G37*
G36*
X127999442Y-98328336D02*
X128065627Y-98334855D01*
X128178853Y-98369202D01*
X128235467Y-98386375D01*
X128374087Y-98460470D01*
X128391991Y-98470040D01*
X128427729Y-98499370D01*
X128529186Y-98582632D01*
X128612448Y-98684089D01*
X128641778Y-98719827D01*
X128641779Y-98719829D01*
X128725443Y-98876351D01*
X128725443Y-98876352D01*
X128776963Y-99046191D01*
X128794359Y-99222818D01*
X128776963Y-99399445D01*
X128742616Y-99512671D01*
X128725443Y-99569285D01*
X128651348Y-99707905D01*
X128641778Y-99725809D01*
X128612448Y-99761547D01*
X128529186Y-99863004D01*
X128427729Y-99946266D01*
X128391991Y-99975596D01*
X128391989Y-99975597D01*
X128235467Y-100059261D01*
X128178853Y-100076434D01*
X128065627Y-100110781D01*
X127999443Y-100117299D01*
X127933260Y-100123818D01*
X127844740Y-100123818D01*
X127778557Y-100117299D01*
X127712373Y-100110781D01*
X127599147Y-100076434D01*
X127542533Y-100059261D01*
X127386011Y-99975597D01*
X127386009Y-99975596D01*
X127350271Y-99946266D01*
X127248814Y-99863004D01*
X127165552Y-99761547D01*
X127136222Y-99725809D01*
X127126652Y-99707905D01*
X127052557Y-99569285D01*
X127035384Y-99512671D01*
X127001037Y-99399445D01*
X126983641Y-99222818D01*
X127001037Y-99046191D01*
X127052557Y-98876352D01*
X127052557Y-98876351D01*
X127136221Y-98719829D01*
X127136222Y-98719827D01*
X127165552Y-98684089D01*
X127248814Y-98582632D01*
X127350271Y-98499370D01*
X127386009Y-98470040D01*
X127403913Y-98460470D01*
X127542533Y-98386375D01*
X127599147Y-98369202D01*
X127712373Y-98334855D01*
X127778557Y-98328337D01*
X127844740Y-98321818D01*
X127933260Y-98321818D01*
X127999442Y-98328336D01*
X127999442Y-98328336D01*
G37*
G36*
X129269443Y-96128633D02*
X129335627Y-96135151D01*
X129448853Y-96169498D01*
X129505467Y-96186671D01*
X129644087Y-96260766D01*
X129661991Y-96270336D01*
X129697729Y-96299666D01*
X129799186Y-96382928D01*
X129882448Y-96484385D01*
X129911778Y-96520123D01*
X129911779Y-96520125D01*
X129995443Y-96676647D01*
X129997573Y-96683670D01*
X130046963Y-96846487D01*
X130064359Y-97023114D01*
X130046963Y-97199741D01*
X130044833Y-97206762D01*
X129995443Y-97369581D01*
X129925475Y-97500480D01*
X129911778Y-97526105D01*
X129882448Y-97561843D01*
X129799186Y-97663300D01*
X129697729Y-97746562D01*
X129661991Y-97775892D01*
X129661989Y-97775893D01*
X129505467Y-97859557D01*
X129448853Y-97876730D01*
X129335627Y-97911077D01*
X129269443Y-97917595D01*
X129203260Y-97924114D01*
X129114740Y-97924114D01*
X129048557Y-97917595D01*
X128982373Y-97911077D01*
X128869147Y-97876730D01*
X128812533Y-97859557D01*
X128656011Y-97775893D01*
X128656009Y-97775892D01*
X128620271Y-97746562D01*
X128518814Y-97663300D01*
X128435552Y-97561843D01*
X128406222Y-97526105D01*
X128392525Y-97500480D01*
X128322557Y-97369581D01*
X128273167Y-97206762D01*
X128271037Y-97199741D01*
X128253641Y-97023114D01*
X128271037Y-96846487D01*
X128320427Y-96683670D01*
X128322557Y-96676647D01*
X128406221Y-96520125D01*
X128406222Y-96520123D01*
X128435552Y-96484385D01*
X128518814Y-96382928D01*
X128620271Y-96299666D01*
X128656009Y-96270336D01*
X128673913Y-96260766D01*
X128812533Y-96186671D01*
X128869147Y-96169498D01*
X128982373Y-96135151D01*
X129048558Y-96128632D01*
X129114740Y-96122114D01*
X129203260Y-96122114D01*
X129269443Y-96128633D01*
X129269443Y-96128633D01*
G37*
G36*
X167750442Y-95965813D02*
X167816627Y-95972332D01*
X167929853Y-96006679D01*
X167986467Y-96023852D01*
X168125087Y-96097947D01*
X168142991Y-96107517D01*
X168160777Y-96122114D01*
X168280186Y-96220109D01*
X168363448Y-96321566D01*
X168392778Y-96357304D01*
X168392779Y-96357306D01*
X168476443Y-96513828D01*
X168478353Y-96520125D01*
X168527963Y-96683668D01*
X168545359Y-96860295D01*
X168527963Y-97036922D01*
X168493616Y-97150148D01*
X168476443Y-97206762D01*
X168402348Y-97345382D01*
X168392778Y-97363286D01*
X168363448Y-97399024D01*
X168280186Y-97500481D01*
X168178729Y-97583743D01*
X168142991Y-97613073D01*
X168142989Y-97613074D01*
X167986467Y-97696738D01*
X167929853Y-97713911D01*
X167816627Y-97748258D01*
X167750442Y-97754777D01*
X167684260Y-97761295D01*
X167595740Y-97761295D01*
X167529558Y-97754777D01*
X167463373Y-97748258D01*
X167350147Y-97713911D01*
X167293533Y-97696738D01*
X167137011Y-97613074D01*
X167137009Y-97613073D01*
X167101271Y-97583743D01*
X166999814Y-97500481D01*
X166916552Y-97399024D01*
X166887222Y-97363286D01*
X166877652Y-97345382D01*
X166803557Y-97206762D01*
X166786384Y-97150148D01*
X166752037Y-97036922D01*
X166734641Y-96860295D01*
X166752037Y-96683668D01*
X166801647Y-96520125D01*
X166803557Y-96513828D01*
X166887221Y-96357306D01*
X166887222Y-96357304D01*
X166916552Y-96321566D01*
X166999814Y-96220109D01*
X167119223Y-96122114D01*
X167137009Y-96107517D01*
X167154913Y-96097947D01*
X167293533Y-96023852D01*
X167350147Y-96006679D01*
X167463373Y-95972332D01*
X167529557Y-95965814D01*
X167595740Y-95959295D01*
X167684260Y-95959295D01*
X167750442Y-95965813D01*
X167750442Y-95965813D01*
G37*
G36*
X130539442Y-93928927D02*
X130605627Y-93935446D01*
X130718853Y-93969793D01*
X130775467Y-93986966D01*
X130914087Y-94061061D01*
X130931991Y-94070631D01*
X130967729Y-94099961D01*
X131069186Y-94183223D01*
X131152448Y-94284680D01*
X131181778Y-94320418D01*
X131181779Y-94320420D01*
X131265443Y-94476942D01*
X131282616Y-94533556D01*
X131316963Y-94646782D01*
X131334359Y-94823409D01*
X131316963Y-95000036D01*
X131282616Y-95113262D01*
X131265443Y-95169876D01*
X131195474Y-95300776D01*
X131181778Y-95326400D01*
X131152448Y-95362138D01*
X131069186Y-95463595D01*
X130967729Y-95546857D01*
X130931991Y-95576187D01*
X130931989Y-95576188D01*
X130775467Y-95659852D01*
X130718853Y-95677025D01*
X130605627Y-95711372D01*
X130539443Y-95717890D01*
X130473260Y-95724409D01*
X130384740Y-95724409D01*
X130318558Y-95717891D01*
X130252373Y-95711372D01*
X130139147Y-95677025D01*
X130082533Y-95659852D01*
X129926011Y-95576188D01*
X129926009Y-95576187D01*
X129890271Y-95546857D01*
X129788814Y-95463595D01*
X129705552Y-95362138D01*
X129676222Y-95326400D01*
X129662526Y-95300776D01*
X129592557Y-95169876D01*
X129575384Y-95113262D01*
X129541037Y-95000036D01*
X129523641Y-94823409D01*
X129541037Y-94646782D01*
X129575384Y-94533556D01*
X129592557Y-94476942D01*
X129676221Y-94320420D01*
X129676222Y-94320418D01*
X129705552Y-94284680D01*
X129788814Y-94183223D01*
X129890271Y-94099961D01*
X129926009Y-94070631D01*
X129943913Y-94061061D01*
X130082533Y-93986966D01*
X130139147Y-93969793D01*
X130252373Y-93935446D01*
X130318558Y-93928927D01*
X130384740Y-93922409D01*
X130473260Y-93922409D01*
X130539442Y-93928927D01*
X130539442Y-93928927D01*
G37*
G36*
X166480443Y-93766110D02*
X166546627Y-93772628D01*
X166659853Y-93806975D01*
X166716467Y-93824148D01*
X166855087Y-93898243D01*
X166872991Y-93907813D01*
X166890776Y-93922409D01*
X167010186Y-94020405D01*
X167093448Y-94121862D01*
X167122778Y-94157600D01*
X167122779Y-94157602D01*
X167206443Y-94314124D01*
X167206443Y-94314125D01*
X167257963Y-94483964D01*
X167275359Y-94660591D01*
X167257963Y-94837218D01*
X167223616Y-94950444D01*
X167206443Y-95007058D01*
X167132348Y-95145678D01*
X167122778Y-95163582D01*
X167093448Y-95199320D01*
X167010186Y-95300777D01*
X166908729Y-95384039D01*
X166872991Y-95413369D01*
X166872989Y-95413370D01*
X166716467Y-95497034D01*
X166659853Y-95514207D01*
X166546627Y-95548554D01*
X166480443Y-95555072D01*
X166414260Y-95561591D01*
X166325740Y-95561591D01*
X166259557Y-95555072D01*
X166193373Y-95548554D01*
X166080147Y-95514207D01*
X166023533Y-95497034D01*
X165867011Y-95413370D01*
X165867009Y-95413369D01*
X165831271Y-95384039D01*
X165729814Y-95300777D01*
X165646552Y-95199320D01*
X165617222Y-95163582D01*
X165607652Y-95145678D01*
X165533557Y-95007058D01*
X165516384Y-94950444D01*
X165482037Y-94837218D01*
X165464641Y-94660591D01*
X165482037Y-94483964D01*
X165533557Y-94314125D01*
X165533557Y-94314124D01*
X165617221Y-94157602D01*
X165617222Y-94157600D01*
X165646552Y-94121862D01*
X165729814Y-94020405D01*
X165849224Y-93922409D01*
X165867009Y-93907813D01*
X165884913Y-93898243D01*
X166023533Y-93824148D01*
X166080147Y-93806975D01*
X166193373Y-93772628D01*
X166259558Y-93766109D01*
X166325740Y-93759591D01*
X166414260Y-93759591D01*
X166480443Y-93766110D01*
X166480443Y-93766110D01*
G37*
G36*
X131809443Y-91729224D02*
X131875627Y-91735742D01*
X131988853Y-91770089D01*
X132045467Y-91787262D01*
X132184087Y-91861357D01*
X132201991Y-91870927D01*
X132237729Y-91900257D01*
X132339186Y-91983519D01*
X132422448Y-92084976D01*
X132451778Y-92120714D01*
X132451779Y-92120716D01*
X132535443Y-92277238D01*
X132537573Y-92284261D01*
X132586963Y-92447078D01*
X132604359Y-92623705D01*
X132586963Y-92800332D01*
X132584833Y-92807353D01*
X132535443Y-92970172D01*
X132465475Y-93101071D01*
X132451778Y-93126696D01*
X132422448Y-93162434D01*
X132339186Y-93263891D01*
X132237729Y-93347153D01*
X132201991Y-93376483D01*
X132201989Y-93376484D01*
X132045467Y-93460148D01*
X131988853Y-93477321D01*
X131875627Y-93511668D01*
X131809442Y-93518187D01*
X131743260Y-93524705D01*
X131654740Y-93524705D01*
X131588558Y-93518187D01*
X131522373Y-93511668D01*
X131409147Y-93477321D01*
X131352533Y-93460148D01*
X131196011Y-93376484D01*
X131196009Y-93376483D01*
X131160271Y-93347153D01*
X131058814Y-93263891D01*
X130975552Y-93162434D01*
X130946222Y-93126696D01*
X130932525Y-93101071D01*
X130862557Y-92970172D01*
X130813167Y-92807353D01*
X130811037Y-92800332D01*
X130793641Y-92623705D01*
X130811037Y-92447078D01*
X130860427Y-92284261D01*
X130862557Y-92277238D01*
X130946221Y-92120716D01*
X130946222Y-92120714D01*
X130975552Y-92084976D01*
X131058814Y-91983519D01*
X131160271Y-91900257D01*
X131196009Y-91870927D01*
X131213913Y-91861357D01*
X131352533Y-91787262D01*
X131409147Y-91770089D01*
X131522373Y-91735742D01*
X131588557Y-91729224D01*
X131654740Y-91722705D01*
X131743260Y-91722705D01*
X131809443Y-91729224D01*
X131809443Y-91729224D01*
G37*
G36*
X165210442Y-91566404D02*
X165276627Y-91572923D01*
X165389853Y-91607270D01*
X165446467Y-91624443D01*
X165585087Y-91698538D01*
X165602991Y-91708108D01*
X165620777Y-91722705D01*
X165740186Y-91820700D01*
X165823448Y-91922157D01*
X165852778Y-91957895D01*
X165852779Y-91957897D01*
X165936443Y-92114419D01*
X165938353Y-92120716D01*
X165987963Y-92284259D01*
X166005359Y-92460886D01*
X165987963Y-92637513D01*
X165953616Y-92750739D01*
X165936443Y-92807353D01*
X165862348Y-92945973D01*
X165852778Y-92963877D01*
X165823448Y-92999615D01*
X165740186Y-93101072D01*
X165638729Y-93184334D01*
X165602991Y-93213664D01*
X165602989Y-93213665D01*
X165446467Y-93297329D01*
X165389853Y-93314502D01*
X165276627Y-93348849D01*
X165210443Y-93355367D01*
X165144260Y-93361886D01*
X165055740Y-93361886D01*
X164989557Y-93355367D01*
X164923373Y-93348849D01*
X164810147Y-93314502D01*
X164753533Y-93297329D01*
X164597011Y-93213665D01*
X164597009Y-93213664D01*
X164561271Y-93184334D01*
X164459814Y-93101072D01*
X164376552Y-92999615D01*
X164347222Y-92963877D01*
X164337652Y-92945973D01*
X164263557Y-92807353D01*
X164246384Y-92750739D01*
X164212037Y-92637513D01*
X164194641Y-92460886D01*
X164212037Y-92284259D01*
X164261647Y-92120716D01*
X164263557Y-92114419D01*
X164347221Y-91957897D01*
X164347222Y-91957895D01*
X164376552Y-91922157D01*
X164459814Y-91820700D01*
X164579223Y-91722705D01*
X164597009Y-91708108D01*
X164614913Y-91698538D01*
X164753533Y-91624443D01*
X164810147Y-91607270D01*
X164923373Y-91572923D01*
X164989558Y-91566404D01*
X165055740Y-91559886D01*
X165144260Y-91559886D01*
X165210442Y-91566404D01*
X165210442Y-91566404D01*
G37*
G36*
X134199789Y-90094211D02*
X133298789Y-91654789D01*
X131738211Y-90753789D01*
X132639211Y-89193211D01*
X134199789Y-90094211D01*
X134199789Y-90094211D01*
G37*
G36*
X163940442Y-89366700D02*
X164006627Y-89373219D01*
X164119853Y-89407566D01*
X164176467Y-89424739D01*
X164315087Y-89498834D01*
X164332991Y-89508404D01*
X164368729Y-89537734D01*
X164470186Y-89620996D01*
X164553448Y-89722453D01*
X164582778Y-89758191D01*
X164582779Y-89758193D01*
X164666443Y-89914715D01*
X164666443Y-89914716D01*
X164717963Y-90084555D01*
X164735359Y-90261182D01*
X164717963Y-90437809D01*
X164683616Y-90551035D01*
X164666443Y-90607649D01*
X164592348Y-90746269D01*
X164582778Y-90764173D01*
X164553448Y-90799911D01*
X164470186Y-90901368D01*
X164368729Y-90984630D01*
X164332991Y-91013960D01*
X164332989Y-91013961D01*
X164176467Y-91097625D01*
X164119853Y-91114798D01*
X164006627Y-91149145D01*
X163940442Y-91155664D01*
X163874260Y-91162182D01*
X163785740Y-91162182D01*
X163719558Y-91155664D01*
X163653373Y-91149145D01*
X163540147Y-91114798D01*
X163483533Y-91097625D01*
X163327011Y-91013961D01*
X163327009Y-91013960D01*
X163291271Y-90984630D01*
X163189814Y-90901368D01*
X163106552Y-90799911D01*
X163077222Y-90764173D01*
X163067652Y-90746269D01*
X162993557Y-90607649D01*
X162976384Y-90551035D01*
X162942037Y-90437809D01*
X162924641Y-90261182D01*
X162942037Y-90084555D01*
X162993557Y-89914716D01*
X162993557Y-89914715D01*
X163077221Y-89758193D01*
X163077222Y-89758191D01*
X163106552Y-89722453D01*
X163189814Y-89620996D01*
X163291271Y-89537734D01*
X163327009Y-89508404D01*
X163344913Y-89498834D01*
X163483533Y-89424739D01*
X163540147Y-89407566D01*
X163653373Y-89373219D01*
X163719558Y-89366700D01*
X163785740Y-89360182D01*
X163874260Y-89360182D01*
X163940442Y-89366700D01*
X163940442Y-89366700D01*
G37*
G36*
X149111170Y-81011803D02*
X149122879Y-81015355D01*
X149133662Y-81021119D01*
X149143120Y-81028880D01*
X149150881Y-81038338D01*
X149156645Y-81049121D01*
X149160197Y-81060830D01*
X149162000Y-81079138D01*
X149162000Y-82242862D01*
X149160197Y-82261170D01*
X149156645Y-82272879D01*
X149150881Y-82283662D01*
X149143120Y-82293120D01*
X149133662Y-82300881D01*
X149122879Y-82306645D01*
X149111170Y-82310197D01*
X149092862Y-82312000D01*
X148729138Y-82312000D01*
X148710830Y-82310197D01*
X148699121Y-82306645D01*
X148688338Y-82300881D01*
X148678880Y-82293120D01*
X148671119Y-82283662D01*
X148665355Y-82272879D01*
X148661803Y-82261170D01*
X148660000Y-82242862D01*
X148660000Y-81079138D01*
X148661803Y-81060830D01*
X148665355Y-81049121D01*
X148671119Y-81038338D01*
X148678880Y-81028880D01*
X148688338Y-81021119D01*
X148699121Y-81015355D01*
X148710830Y-81011803D01*
X148729138Y-81010000D01*
X149092862Y-81010000D01*
X149111170Y-81011803D01*
X149111170Y-81011803D01*
G37*
G36*
X150205683Y-81013725D02*
X150236144Y-81022966D01*
X150264223Y-81037975D01*
X150288831Y-81058169D01*
X150309025Y-81082777D01*
X150324034Y-81110856D01*
X150333275Y-81141317D01*
X150337000Y-81179140D01*
X150337000Y-82142860D01*
X150333275Y-82180683D01*
X150324034Y-82211144D01*
X150309025Y-82239223D01*
X150288831Y-82263831D01*
X150264223Y-82284025D01*
X150236144Y-82299034D01*
X150205683Y-82308275D01*
X150167860Y-82312000D01*
X149604140Y-82312000D01*
X149566317Y-82308275D01*
X149535856Y-82299034D01*
X149507777Y-82284025D01*
X149483169Y-82263831D01*
X149462975Y-82239223D01*
X149447966Y-82211144D01*
X149438725Y-82180683D01*
X149435000Y-82142860D01*
X149435000Y-81179140D01*
X149438725Y-81141317D01*
X149447966Y-81110856D01*
X149462975Y-81082777D01*
X149483169Y-81058169D01*
X149507777Y-81037975D01*
X149535856Y-81022966D01*
X149566317Y-81013725D01*
X149604140Y-81010000D01*
X150167860Y-81010000D01*
X150205683Y-81013725D01*
X150205683Y-81013725D01*
G37*
G36*
X147230683Y-81013725D02*
X147261144Y-81022966D01*
X147289223Y-81037975D01*
X147313831Y-81058169D01*
X147334025Y-81082777D01*
X147349034Y-81110856D01*
X147358275Y-81141317D01*
X147362000Y-81179140D01*
X147362000Y-82142860D01*
X147358275Y-82180683D01*
X147349034Y-82211144D01*
X147334025Y-82239223D01*
X147313831Y-82263831D01*
X147289223Y-82284025D01*
X147261144Y-82299034D01*
X147230683Y-82308275D01*
X147192860Y-82312000D01*
X146629140Y-82312000D01*
X146591317Y-82308275D01*
X146560856Y-82299034D01*
X146532777Y-82284025D01*
X146508169Y-82263831D01*
X146487975Y-82239223D01*
X146472966Y-82211144D01*
X146463725Y-82180683D01*
X146460000Y-82142860D01*
X146460000Y-81179140D01*
X146463725Y-81141317D01*
X146472966Y-81110856D01*
X146487975Y-81082777D01*
X146508169Y-81058169D01*
X146532777Y-81037975D01*
X146560856Y-81022966D01*
X146591317Y-81013725D01*
X146629140Y-81010000D01*
X147192860Y-81010000D01*
X147230683Y-81013725D01*
X147230683Y-81013725D01*
G37*
G36*
X148295928Y-81012764D02*
X148317011Y-81019160D01*
X148336442Y-81029546D01*
X148353475Y-81043525D01*
X148367454Y-81060558D01*
X148377840Y-81079989D01*
X148384236Y-81101072D01*
X148387000Y-81129140D01*
X148387000Y-82192860D01*
X148384236Y-82220928D01*
X148377840Y-82242011D01*
X148367454Y-82261442D01*
X148353475Y-82278475D01*
X148336442Y-82292454D01*
X148317011Y-82302840D01*
X148295928Y-82309236D01*
X148267860Y-82312000D01*
X147804140Y-82312000D01*
X147776072Y-82309236D01*
X147754989Y-82302840D01*
X147735558Y-82292454D01*
X147718525Y-82278475D01*
X147704546Y-82261442D01*
X147694160Y-82242011D01*
X147687764Y-82220928D01*
X147685000Y-82192860D01*
X147685000Y-81129140D01*
X147687764Y-81101072D01*
X147694160Y-81079989D01*
X147704546Y-81060558D01*
X147718525Y-81043525D01*
X147735558Y-81029546D01*
X147754989Y-81019160D01*
X147776072Y-81012764D01*
X147804140Y-81010000D01*
X148267860Y-81010000D01*
X148295928Y-81012764D01*
X148295928Y-81012764D01*
G37*
M02*
