G04 #@! TF.GenerationSoftware,KiCad,Pcbnew,5.0.2+dfsg1-1*
G04 #@! TF.CreationDate,2021-02-26T15:03:44+01:00*
G04 #@! TF.ProjectId,KiCAD_Board,4b694341-445f-4426-9f61-72642e6b6963,rev?*
G04 #@! TF.SameCoordinates,Original*
G04 #@! TF.FileFunction,Soldermask,Top*
G04 #@! TF.FilePolarity,Negative*
%FSLAX46Y46*%
G04 Gerber Fmt 4.6, Leading zero omitted, Abs format (unit mm)*
G04 Created by KiCad (PCBNEW 5.0.2+dfsg1-1) date Fri 26 Feb 2021 15:03:44 CET*
%MOMM*%
%LPD*%
G01*
G04 APERTURE LIST*
%ADD10C,0.100000*%
G04 APERTURE END LIST*
D10*
G36*
X155177442Y-127375518D02*
X155243627Y-127382037D01*
X155356853Y-127416384D01*
X155413467Y-127433557D01*
X155552087Y-127507652D01*
X155569991Y-127517222D01*
X155605729Y-127546552D01*
X155707186Y-127629814D01*
X155790448Y-127731271D01*
X155819778Y-127767009D01*
X155819779Y-127767011D01*
X155903443Y-127923533D01*
X155903443Y-127923534D01*
X155954963Y-128093373D01*
X155972359Y-128270000D01*
X155954963Y-128446627D01*
X155920616Y-128559853D01*
X155903443Y-128616467D01*
X155861198Y-128695500D01*
X155819778Y-128772991D01*
X155806079Y-128789683D01*
X155707186Y-128910186D01*
X155605729Y-128993448D01*
X155569991Y-129022778D01*
X155569989Y-129022779D01*
X155413467Y-129106443D01*
X155356853Y-129123616D01*
X155243627Y-129157963D01*
X155177442Y-129164482D01*
X155111260Y-129171000D01*
X155022740Y-129171000D01*
X154956558Y-129164482D01*
X154890373Y-129157963D01*
X154777147Y-129123616D01*
X154720533Y-129106443D01*
X154564011Y-129022779D01*
X154564009Y-129022778D01*
X154528271Y-128993448D01*
X154426814Y-128910186D01*
X154327921Y-128789683D01*
X154314222Y-128772991D01*
X154272802Y-128695500D01*
X154230557Y-128616467D01*
X154213384Y-128559853D01*
X154179037Y-128446627D01*
X154161641Y-128270000D01*
X154179037Y-128093373D01*
X154230557Y-127923534D01*
X154230557Y-127923533D01*
X154314221Y-127767011D01*
X154314222Y-127767009D01*
X154343552Y-127731271D01*
X154426814Y-127629814D01*
X154528271Y-127546552D01*
X154564009Y-127517222D01*
X154581913Y-127507652D01*
X154720533Y-127433557D01*
X154777147Y-127416384D01*
X154890373Y-127382037D01*
X154956558Y-127375518D01*
X155022740Y-127369000D01*
X155111260Y-127369000D01*
X155177442Y-127375518D01*
X155177442Y-127375518D01*
G37*
G36*
X153428000Y-129171000D02*
X151626000Y-129171000D01*
X151626000Y-127369000D01*
X153428000Y-127369000D01*
X153428000Y-129171000D01*
X153428000Y-129171000D01*
G37*
G36*
X150459683Y-127622725D02*
X150490144Y-127631966D01*
X150518223Y-127646975D01*
X150542831Y-127667169D01*
X150563025Y-127691777D01*
X150578034Y-127719856D01*
X150587275Y-127750317D01*
X150591000Y-127788140D01*
X150591000Y-128751860D01*
X150587275Y-128789683D01*
X150578034Y-128820144D01*
X150563025Y-128848223D01*
X150542831Y-128872831D01*
X150518223Y-128893025D01*
X150490144Y-128908034D01*
X150459683Y-128917275D01*
X150421860Y-128921000D01*
X149858140Y-128921000D01*
X149820317Y-128917275D01*
X149789856Y-128908034D01*
X149761777Y-128893025D01*
X149737169Y-128872831D01*
X149716975Y-128848223D01*
X149701966Y-128820144D01*
X149692725Y-128789683D01*
X149689000Y-128751860D01*
X149689000Y-127788140D01*
X149692725Y-127750317D01*
X149701966Y-127719856D01*
X149716975Y-127691777D01*
X149737169Y-127667169D01*
X149761777Y-127646975D01*
X149789856Y-127631966D01*
X149820317Y-127622725D01*
X149858140Y-127619000D01*
X150421860Y-127619000D01*
X150459683Y-127622725D01*
X150459683Y-127622725D01*
G37*
G36*
X149365170Y-127620803D02*
X149376879Y-127624355D01*
X149387662Y-127630119D01*
X149397120Y-127637880D01*
X149404881Y-127647338D01*
X149410645Y-127658121D01*
X149414197Y-127669830D01*
X149416000Y-127688138D01*
X149416000Y-128851862D01*
X149414197Y-128870170D01*
X149410645Y-128881879D01*
X149404881Y-128892662D01*
X149397120Y-128902120D01*
X149387662Y-128909881D01*
X149376879Y-128915645D01*
X149365170Y-128919197D01*
X149346862Y-128921000D01*
X148983138Y-128921000D01*
X148964830Y-128919197D01*
X148953121Y-128915645D01*
X148942338Y-128909881D01*
X148932880Y-128902120D01*
X148925119Y-128892662D01*
X148919355Y-128881879D01*
X148915803Y-128870170D01*
X148914000Y-128851862D01*
X148914000Y-127688138D01*
X148915803Y-127669830D01*
X148919355Y-127658121D01*
X148925119Y-127647338D01*
X148932880Y-127637880D01*
X148942338Y-127630119D01*
X148953121Y-127624355D01*
X148964830Y-127620803D01*
X148983138Y-127619000D01*
X149346862Y-127619000D01*
X149365170Y-127620803D01*
X149365170Y-127620803D01*
G37*
G36*
X148549928Y-127621764D02*
X148571011Y-127628160D01*
X148590442Y-127638546D01*
X148607475Y-127652525D01*
X148621454Y-127669558D01*
X148631840Y-127688989D01*
X148638236Y-127710072D01*
X148641000Y-127738140D01*
X148641000Y-128801860D01*
X148638236Y-128829928D01*
X148631840Y-128851011D01*
X148621454Y-128870442D01*
X148607475Y-128887475D01*
X148590442Y-128901454D01*
X148571011Y-128911840D01*
X148549928Y-128918236D01*
X148521860Y-128921000D01*
X148058140Y-128921000D01*
X148030072Y-128918236D01*
X148008989Y-128911840D01*
X147989558Y-128901454D01*
X147972525Y-128887475D01*
X147958546Y-128870442D01*
X147948160Y-128851011D01*
X147941764Y-128829928D01*
X147939000Y-128801860D01*
X147939000Y-127738140D01*
X147941764Y-127710072D01*
X147948160Y-127688989D01*
X147958546Y-127669558D01*
X147972525Y-127652525D01*
X147989558Y-127638546D01*
X148008989Y-127628160D01*
X148030072Y-127621764D01*
X148058140Y-127619000D01*
X148521860Y-127619000D01*
X148549928Y-127621764D01*
X148549928Y-127621764D01*
G37*
G36*
X147484683Y-127622725D02*
X147515144Y-127631966D01*
X147543223Y-127646975D01*
X147567831Y-127667169D01*
X147588025Y-127691777D01*
X147603034Y-127719856D01*
X147612275Y-127750317D01*
X147616000Y-127788140D01*
X147616000Y-128751860D01*
X147612275Y-128789683D01*
X147603034Y-128820144D01*
X147588025Y-128848223D01*
X147567831Y-128872831D01*
X147543223Y-128893025D01*
X147515144Y-128908034D01*
X147484683Y-128917275D01*
X147446860Y-128921000D01*
X146883140Y-128921000D01*
X146845317Y-128917275D01*
X146814856Y-128908034D01*
X146786777Y-128893025D01*
X146762169Y-128872831D01*
X146741975Y-128848223D01*
X146726966Y-128820144D01*
X146717725Y-128789683D01*
X146714000Y-128751860D01*
X146714000Y-127788140D01*
X146717725Y-127750317D01*
X146726966Y-127719856D01*
X146741975Y-127691777D01*
X146762169Y-127667169D01*
X146786777Y-127646975D01*
X146814856Y-127631966D01*
X146845317Y-127622725D01*
X146883140Y-127619000D01*
X147446860Y-127619000D01*
X147484683Y-127622725D01*
X147484683Y-127622725D01*
G37*
G36*
X139854000Y-127408000D02*
X136752000Y-127408000D01*
X136752000Y-124306000D01*
X139854000Y-124306000D01*
X139854000Y-127408000D01*
X139854000Y-127408000D01*
G37*
G36*
X143735527Y-124345736D02*
X143835410Y-124365604D01*
X144117674Y-124482521D01*
X144371705Y-124652259D01*
X144587741Y-124868295D01*
X144757479Y-125122326D01*
X144865674Y-125383533D01*
X144874396Y-125404591D01*
X144934000Y-125704238D01*
X144934000Y-126009762D01*
X144920731Y-126076467D01*
X144874396Y-126309410D01*
X144757479Y-126591674D01*
X144587741Y-126845705D01*
X144371705Y-127061741D01*
X144117674Y-127231479D01*
X143835410Y-127348396D01*
X143735527Y-127368264D01*
X143535762Y-127408000D01*
X143230238Y-127408000D01*
X143030473Y-127368264D01*
X142930590Y-127348396D01*
X142648326Y-127231479D01*
X142394295Y-127061741D01*
X142178259Y-126845705D01*
X142008521Y-126591674D01*
X141891604Y-126309410D01*
X141845269Y-126076467D01*
X141832000Y-126009762D01*
X141832000Y-125704238D01*
X141891604Y-125404591D01*
X141900326Y-125383533D01*
X142008521Y-125122326D01*
X142178259Y-124868295D01*
X142394295Y-124652259D01*
X142648326Y-124482521D01*
X142930590Y-124365604D01*
X143030473Y-124345736D01*
X143230238Y-124306000D01*
X143535762Y-124306000D01*
X143735527Y-124345736D01*
X143735527Y-124345736D01*
G37*
G36*
X162920643Y-125781781D02*
X163066415Y-125842162D01*
X163197611Y-125929824D01*
X163309176Y-126041389D01*
X163396838Y-126172585D01*
X163457219Y-126318357D01*
X163488000Y-126473107D01*
X163488000Y-126630893D01*
X163457219Y-126785643D01*
X163396838Y-126931415D01*
X163309176Y-127062611D01*
X163197611Y-127174176D01*
X163066415Y-127261838D01*
X162920643Y-127322219D01*
X162765893Y-127353000D01*
X162608107Y-127353000D01*
X162453357Y-127322219D01*
X162307585Y-127261838D01*
X162176389Y-127174176D01*
X162064824Y-127062611D01*
X161977162Y-126931415D01*
X161916781Y-126785643D01*
X161886000Y-126630893D01*
X161886000Y-126473107D01*
X161916781Y-126318357D01*
X161977162Y-126172585D01*
X162064824Y-126041389D01*
X162176389Y-125929824D01*
X162307585Y-125842162D01*
X162453357Y-125781781D01*
X162608107Y-125751000D01*
X162765893Y-125751000D01*
X162920643Y-125781781D01*
X162920643Y-125781781D01*
G37*
G36*
X155177443Y-124835519D02*
X155243627Y-124842037D01*
X155330188Y-124868295D01*
X155413467Y-124893557D01*
X155552087Y-124967652D01*
X155569991Y-124977222D01*
X155601242Y-125002869D01*
X155707186Y-125089814D01*
X155782955Y-125182140D01*
X155819778Y-125227009D01*
X155819779Y-125227011D01*
X155903443Y-125383533D01*
X155903443Y-125383534D01*
X155954963Y-125553373D01*
X155972359Y-125730000D01*
X155954963Y-125906627D01*
X155931132Y-125985187D01*
X155903443Y-126076467D01*
X155852066Y-126172585D01*
X155819778Y-126232991D01*
X155790448Y-126268729D01*
X155707186Y-126370186D01*
X155605729Y-126453448D01*
X155569991Y-126482778D01*
X155569989Y-126482779D01*
X155413467Y-126566443D01*
X155356853Y-126583616D01*
X155243627Y-126617963D01*
X155177442Y-126624482D01*
X155111260Y-126631000D01*
X155022740Y-126631000D01*
X154956558Y-126624482D01*
X154890373Y-126617963D01*
X154777147Y-126583616D01*
X154720533Y-126566443D01*
X154564011Y-126482779D01*
X154564009Y-126482778D01*
X154528271Y-126453448D01*
X154426814Y-126370186D01*
X154343552Y-126268729D01*
X154314222Y-126232991D01*
X154281934Y-126172585D01*
X154230557Y-126076467D01*
X154202868Y-125985187D01*
X154179037Y-125906627D01*
X154161641Y-125730000D01*
X154179037Y-125553373D01*
X154230557Y-125383534D01*
X154230557Y-125383533D01*
X154314221Y-125227011D01*
X154314222Y-125227009D01*
X154351045Y-125182140D01*
X154426814Y-125089814D01*
X154532758Y-125002869D01*
X154564009Y-124977222D01*
X154581913Y-124967652D01*
X154720533Y-124893557D01*
X154803812Y-124868295D01*
X154890373Y-124842037D01*
X154956557Y-124835519D01*
X155022740Y-124829000D01*
X155111260Y-124829000D01*
X155177443Y-124835519D01*
X155177443Y-124835519D01*
G37*
G36*
X152637443Y-124835519D02*
X152703627Y-124842037D01*
X152790188Y-124868295D01*
X152873467Y-124893557D01*
X153012087Y-124967652D01*
X153029991Y-124977222D01*
X153061242Y-125002869D01*
X153167186Y-125089814D01*
X153242955Y-125182140D01*
X153279778Y-125227009D01*
X153279779Y-125227011D01*
X153363443Y-125383533D01*
X153363443Y-125383534D01*
X153414963Y-125553373D01*
X153432359Y-125730000D01*
X153414963Y-125906627D01*
X153391132Y-125985187D01*
X153363443Y-126076467D01*
X153312066Y-126172585D01*
X153279778Y-126232991D01*
X153250448Y-126268729D01*
X153167186Y-126370186D01*
X153065729Y-126453448D01*
X153029991Y-126482778D01*
X153029989Y-126482779D01*
X152873467Y-126566443D01*
X152816853Y-126583616D01*
X152703627Y-126617963D01*
X152637442Y-126624482D01*
X152571260Y-126631000D01*
X152482740Y-126631000D01*
X152416558Y-126624482D01*
X152350373Y-126617963D01*
X152237147Y-126583616D01*
X152180533Y-126566443D01*
X152024011Y-126482779D01*
X152024009Y-126482778D01*
X151988271Y-126453448D01*
X151886814Y-126370186D01*
X151803552Y-126268729D01*
X151774222Y-126232991D01*
X151741934Y-126172585D01*
X151690557Y-126076467D01*
X151662868Y-125985187D01*
X151639037Y-125906627D01*
X151621641Y-125730000D01*
X151639037Y-125553373D01*
X151690557Y-125383534D01*
X151690557Y-125383533D01*
X151774221Y-125227011D01*
X151774222Y-125227009D01*
X151811045Y-125182140D01*
X151886814Y-125089814D01*
X151992758Y-125002869D01*
X152024009Y-124977222D01*
X152041913Y-124967652D01*
X152180533Y-124893557D01*
X152263812Y-124868295D01*
X152350373Y-124842037D01*
X152416557Y-124835519D01*
X152482740Y-124829000D01*
X152571260Y-124829000D01*
X152637443Y-124835519D01*
X152637443Y-124835519D01*
G37*
G36*
X160648560Y-124992205D02*
X160683711Y-125002869D01*
X160716109Y-125020186D01*
X160744508Y-125043492D01*
X160767814Y-125071891D01*
X160785131Y-125104289D01*
X160795795Y-125139440D01*
X160800000Y-125182140D01*
X160800000Y-125795860D01*
X160795795Y-125838560D01*
X160785131Y-125873711D01*
X160767814Y-125906109D01*
X160744508Y-125934508D01*
X160716109Y-125957814D01*
X160683711Y-125975131D01*
X160648560Y-125985795D01*
X160605860Y-125990000D01*
X159942140Y-125990000D01*
X159899440Y-125985795D01*
X159864289Y-125975131D01*
X159831891Y-125957814D01*
X159803492Y-125934508D01*
X159780186Y-125906109D01*
X159762869Y-125873711D01*
X159752205Y-125838560D01*
X159748000Y-125795860D01*
X159748000Y-125182140D01*
X159752205Y-125139440D01*
X159762869Y-125104289D01*
X159780186Y-125071891D01*
X159803492Y-125043492D01*
X159831891Y-125020186D01*
X159864289Y-125002869D01*
X159899440Y-124992205D01*
X159942140Y-124988000D01*
X160605860Y-124988000D01*
X160648560Y-124992205D01*
X160648560Y-124992205D01*
G37*
G36*
X149516996Y-124149051D02*
X149550653Y-124159261D01*
X149581667Y-124175838D01*
X149608852Y-124198148D01*
X149631162Y-124225333D01*
X149647739Y-124256347D01*
X149657949Y-124290004D01*
X149662000Y-124331138D01*
X149662000Y-125660862D01*
X149657949Y-125701996D01*
X149647739Y-125735653D01*
X149631162Y-125766667D01*
X149608852Y-125793852D01*
X149581667Y-125816162D01*
X149550653Y-125832739D01*
X149516996Y-125842949D01*
X149475862Y-125847000D01*
X147196138Y-125847000D01*
X147155004Y-125842949D01*
X147121347Y-125832739D01*
X147090333Y-125816162D01*
X147063148Y-125793852D01*
X147040838Y-125766667D01*
X147024261Y-125735653D01*
X147014051Y-125701996D01*
X147010000Y-125660862D01*
X147010000Y-124331138D01*
X147014051Y-124290004D01*
X147024261Y-124256347D01*
X147040838Y-124225333D01*
X147063148Y-124198148D01*
X147090333Y-124175838D01*
X147121347Y-124159261D01*
X147155004Y-124149051D01*
X147196138Y-124145000D01*
X149475862Y-124145000D01*
X149516996Y-124149051D01*
X149516996Y-124149051D01*
G37*
G36*
X162920643Y-123181781D02*
X163066415Y-123242162D01*
X163197611Y-123329824D01*
X163309176Y-123441389D01*
X163396838Y-123572585D01*
X163457219Y-123718357D01*
X163488000Y-123873107D01*
X163488000Y-124030893D01*
X163457219Y-124185643D01*
X163396838Y-124331415D01*
X163309176Y-124462611D01*
X163197611Y-124574176D01*
X163066415Y-124661838D01*
X162920643Y-124722219D01*
X162765893Y-124753000D01*
X162608107Y-124753000D01*
X162453357Y-124722219D01*
X162307585Y-124661838D01*
X162176389Y-124574176D01*
X162064824Y-124462611D01*
X161977162Y-124331415D01*
X161916781Y-124185643D01*
X161886000Y-124030893D01*
X161886000Y-123873107D01*
X161916781Y-123718357D01*
X161977162Y-123572585D01*
X162064824Y-123441389D01*
X162176389Y-123329824D01*
X162307585Y-123242162D01*
X162453357Y-123181781D01*
X162608107Y-123151000D01*
X162765893Y-123151000D01*
X162920643Y-123181781D01*
X162920643Y-123181781D01*
G37*
G36*
X160648560Y-123442205D02*
X160683711Y-123452869D01*
X160716109Y-123470186D01*
X160744508Y-123493492D01*
X160767814Y-123521891D01*
X160785131Y-123554289D01*
X160795795Y-123589440D01*
X160800000Y-123632140D01*
X160800000Y-124245860D01*
X160795795Y-124288560D01*
X160785131Y-124323711D01*
X160767814Y-124356109D01*
X160744508Y-124384508D01*
X160716109Y-124407814D01*
X160683711Y-124425131D01*
X160648560Y-124435795D01*
X160605860Y-124440000D01*
X159942140Y-124440000D01*
X159899440Y-124435795D01*
X159864289Y-124425131D01*
X159831891Y-124407814D01*
X159803492Y-124384508D01*
X159780186Y-124356109D01*
X159762869Y-124323711D01*
X159752205Y-124288560D01*
X159748000Y-124245860D01*
X159748000Y-123632140D01*
X159752205Y-123589440D01*
X159762869Y-123554289D01*
X159780186Y-123521891D01*
X159803492Y-123493492D01*
X159831891Y-123470186D01*
X159864289Y-123452869D01*
X159899440Y-123442205D01*
X159942140Y-123438000D01*
X160605860Y-123438000D01*
X160648560Y-123442205D01*
X160648560Y-123442205D01*
G37*
G36*
X159144683Y-123440725D02*
X159175144Y-123449966D01*
X159203223Y-123464975D01*
X159227831Y-123485169D01*
X159248025Y-123509777D01*
X159263034Y-123537856D01*
X159272275Y-123568317D01*
X159276000Y-123606140D01*
X159276000Y-124169860D01*
X159272275Y-124207683D01*
X159263034Y-124238144D01*
X159248025Y-124266223D01*
X159227831Y-124290831D01*
X159203223Y-124311025D01*
X159175144Y-124326034D01*
X159144683Y-124335275D01*
X159106860Y-124339000D01*
X158393140Y-124339000D01*
X158355317Y-124335275D01*
X158324856Y-124326034D01*
X158296777Y-124311025D01*
X158272169Y-124290831D01*
X158251975Y-124266223D01*
X158236966Y-124238144D01*
X158227725Y-124207683D01*
X158224000Y-124169860D01*
X158224000Y-123606140D01*
X158227725Y-123568317D01*
X158236966Y-123537856D01*
X158251975Y-123509777D01*
X158272169Y-123485169D01*
X158296777Y-123464975D01*
X158324856Y-123449966D01*
X158355317Y-123440725D01*
X158393140Y-123437000D01*
X159106860Y-123437000D01*
X159144683Y-123440725D01*
X159144683Y-123440725D01*
G37*
G36*
X152637443Y-122295519D02*
X152703627Y-122302037D01*
X152816853Y-122336384D01*
X152873467Y-122353557D01*
X153012087Y-122427652D01*
X153029991Y-122437222D01*
X153062011Y-122463500D01*
X153167186Y-122549814D01*
X153250223Y-122650996D01*
X153279778Y-122687009D01*
X153279779Y-122687011D01*
X153363443Y-122843533D01*
X153363443Y-122843534D01*
X153414963Y-123013373D01*
X153432359Y-123190000D01*
X153414963Y-123366627D01*
X153383549Y-123470186D01*
X153363443Y-123536467D01*
X153326201Y-123606140D01*
X153279778Y-123692991D01*
X153250448Y-123728729D01*
X153167186Y-123830186D01*
X153065729Y-123913448D01*
X153029991Y-123942778D01*
X153029989Y-123942779D01*
X152873467Y-124026443D01*
X152816853Y-124043616D01*
X152703627Y-124077963D01*
X152637442Y-124084482D01*
X152571260Y-124091000D01*
X152482740Y-124091000D01*
X152416558Y-124084482D01*
X152350373Y-124077963D01*
X152237147Y-124043616D01*
X152180533Y-124026443D01*
X152024011Y-123942779D01*
X152024009Y-123942778D01*
X151988271Y-123913448D01*
X151886814Y-123830186D01*
X151803552Y-123728729D01*
X151774222Y-123692991D01*
X151727799Y-123606140D01*
X151690557Y-123536467D01*
X151670451Y-123470186D01*
X151639037Y-123366627D01*
X151621641Y-123190000D01*
X151639037Y-123013373D01*
X151690557Y-122843534D01*
X151690557Y-122843533D01*
X151774221Y-122687011D01*
X151774222Y-122687009D01*
X151803777Y-122650996D01*
X151886814Y-122549814D01*
X151991989Y-122463500D01*
X152024009Y-122437222D01*
X152041913Y-122427652D01*
X152180533Y-122353557D01*
X152237147Y-122336384D01*
X152350373Y-122302037D01*
X152416557Y-122295519D01*
X152482740Y-122289000D01*
X152571260Y-122289000D01*
X152637443Y-122295519D01*
X152637443Y-122295519D01*
G37*
G36*
X155177443Y-122295519D02*
X155243627Y-122302037D01*
X155356853Y-122336384D01*
X155413467Y-122353557D01*
X155552087Y-122427652D01*
X155569991Y-122437222D01*
X155602011Y-122463500D01*
X155707186Y-122549814D01*
X155790223Y-122650996D01*
X155819778Y-122687009D01*
X155819779Y-122687011D01*
X155903443Y-122843533D01*
X155903443Y-122843534D01*
X155954963Y-123013373D01*
X155972359Y-123190000D01*
X155954963Y-123366627D01*
X155923549Y-123470186D01*
X155903443Y-123536467D01*
X155866201Y-123606140D01*
X155819778Y-123692991D01*
X155790448Y-123728729D01*
X155707186Y-123830186D01*
X155605729Y-123913448D01*
X155569991Y-123942778D01*
X155569989Y-123942779D01*
X155413467Y-124026443D01*
X155356853Y-124043616D01*
X155243627Y-124077963D01*
X155177442Y-124084482D01*
X155111260Y-124091000D01*
X155022740Y-124091000D01*
X154956558Y-124084482D01*
X154890373Y-124077963D01*
X154777147Y-124043616D01*
X154720533Y-124026443D01*
X154564011Y-123942779D01*
X154564009Y-123942778D01*
X154528271Y-123913448D01*
X154426814Y-123830186D01*
X154343552Y-123728729D01*
X154314222Y-123692991D01*
X154267799Y-123606140D01*
X154230557Y-123536467D01*
X154210451Y-123470186D01*
X154179037Y-123366627D01*
X154161641Y-123190000D01*
X154179037Y-123013373D01*
X154230557Y-122843534D01*
X154230557Y-122843533D01*
X154314221Y-122687011D01*
X154314222Y-122687009D01*
X154343777Y-122650996D01*
X154426814Y-122549814D01*
X154531989Y-122463500D01*
X154564009Y-122437222D01*
X154581913Y-122427652D01*
X154720533Y-122353557D01*
X154777147Y-122336384D01*
X154890373Y-122302037D01*
X154956557Y-122295519D01*
X155022740Y-122289000D01*
X155111260Y-122289000D01*
X155177443Y-122295519D01*
X155177443Y-122295519D01*
G37*
G36*
X149516996Y-121299051D02*
X149550653Y-121309261D01*
X149581667Y-121325838D01*
X149608852Y-121348148D01*
X149631162Y-121375333D01*
X149647739Y-121406347D01*
X149657949Y-121440004D01*
X149662000Y-121481138D01*
X149662000Y-122810862D01*
X149657949Y-122851996D01*
X149647739Y-122885653D01*
X149631162Y-122916667D01*
X149608852Y-122943852D01*
X149581667Y-122966162D01*
X149550653Y-122982739D01*
X149516996Y-122992949D01*
X149475862Y-122997000D01*
X147196138Y-122997000D01*
X147155004Y-122992949D01*
X147121347Y-122982739D01*
X147090333Y-122966162D01*
X147063148Y-122943852D01*
X147040838Y-122916667D01*
X147024261Y-122885653D01*
X147014051Y-122851996D01*
X147010000Y-122810862D01*
X147010000Y-121481138D01*
X147014051Y-121440004D01*
X147024261Y-121406347D01*
X147040838Y-121375333D01*
X147063148Y-121348148D01*
X147090333Y-121325838D01*
X147121347Y-121309261D01*
X147155004Y-121299051D01*
X147196138Y-121295000D01*
X149475862Y-121295000D01*
X149516996Y-121299051D01*
X149516996Y-121299051D01*
G37*
G36*
X159144683Y-121790725D02*
X159175144Y-121799966D01*
X159203223Y-121814975D01*
X159227831Y-121835169D01*
X159248025Y-121859777D01*
X159263034Y-121887856D01*
X159272275Y-121918317D01*
X159276000Y-121956140D01*
X159276000Y-122519860D01*
X159272275Y-122557683D01*
X159263034Y-122588144D01*
X159248025Y-122616223D01*
X159227831Y-122640831D01*
X159203223Y-122661025D01*
X159175144Y-122676034D01*
X159144683Y-122685275D01*
X159106860Y-122689000D01*
X158393140Y-122689000D01*
X158355317Y-122685275D01*
X158324856Y-122676034D01*
X158296777Y-122661025D01*
X158272169Y-122640831D01*
X158251975Y-122616223D01*
X158236966Y-122588144D01*
X158227725Y-122557683D01*
X158224000Y-122519860D01*
X158224000Y-121956140D01*
X158227725Y-121918317D01*
X158236966Y-121887856D01*
X158251975Y-121859777D01*
X158272169Y-121835169D01*
X158296777Y-121814975D01*
X158324856Y-121799966D01*
X158355317Y-121790725D01*
X158393140Y-121787000D01*
X159106860Y-121787000D01*
X159144683Y-121790725D01*
X159144683Y-121790725D01*
G37*
G36*
X163488000Y-122153000D02*
X161886000Y-122153000D01*
X161886000Y-120551000D01*
X163488000Y-120551000D01*
X163488000Y-122153000D01*
X163488000Y-122153000D01*
G37*
G36*
X152119591Y-117625891D02*
X152229791Y-117659320D01*
X152331337Y-117713597D01*
X152420351Y-117786649D01*
X152493403Y-117875663D01*
X152547680Y-117977209D01*
X152581109Y-118087409D01*
X152593000Y-118208140D01*
X152593000Y-119621860D01*
X152581109Y-119742591D01*
X152547680Y-119852791D01*
X152493403Y-119954337D01*
X152420351Y-120043351D01*
X152331337Y-120116403D01*
X152229791Y-120170680D01*
X152119591Y-120204109D01*
X151998860Y-120216000D01*
X150585140Y-120216000D01*
X150464409Y-120204109D01*
X150354209Y-120170680D01*
X150252663Y-120116403D01*
X150163649Y-120043351D01*
X150090597Y-119954337D01*
X150036320Y-119852791D01*
X150002891Y-119742591D01*
X149991000Y-119621860D01*
X149991000Y-118208140D01*
X150002891Y-118087409D01*
X150036320Y-117977209D01*
X150090597Y-117875663D01*
X150163649Y-117786649D01*
X150252663Y-117713597D01*
X150354209Y-117659320D01*
X150464409Y-117625891D01*
X150585140Y-117614000D01*
X151998860Y-117614000D01*
X152119591Y-117625891D01*
X152119591Y-117625891D01*
G37*
G36*
X140619591Y-117625891D02*
X140729791Y-117659320D01*
X140831337Y-117713597D01*
X140920351Y-117786649D01*
X140993403Y-117875663D01*
X141047680Y-117977209D01*
X141081109Y-118087409D01*
X141093000Y-118208140D01*
X141093000Y-119621860D01*
X141081109Y-119742591D01*
X141047680Y-119852791D01*
X140993403Y-119954337D01*
X140920351Y-120043351D01*
X140831337Y-120116403D01*
X140729791Y-120170680D01*
X140619591Y-120204109D01*
X140498860Y-120216000D01*
X139085140Y-120216000D01*
X138964409Y-120204109D01*
X138854209Y-120170680D01*
X138752663Y-120116403D01*
X138663649Y-120043351D01*
X138590597Y-119954337D01*
X138536320Y-119852791D01*
X138502891Y-119742591D01*
X138491000Y-119621860D01*
X138491000Y-118208140D01*
X138502891Y-118087409D01*
X138536320Y-117977209D01*
X138590597Y-117875663D01*
X138663649Y-117786649D01*
X138752663Y-117713597D01*
X138854209Y-117659320D01*
X138964409Y-117625891D01*
X139085140Y-117614000D01*
X140498860Y-117614000D01*
X140619591Y-117625891D01*
X140619591Y-117625891D01*
G37*
G36*
X155541170Y-116987803D02*
X155552879Y-116991355D01*
X155563662Y-116997119D01*
X155578900Y-117009624D01*
X155585694Y-117016419D01*
X155606068Y-117030034D01*
X155628706Y-117039413D01*
X155652740Y-117044195D01*
X155677244Y-117044197D01*
X155701278Y-117039418D01*
X155723917Y-117030042D01*
X155744293Y-117016430D01*
X155761621Y-116999104D01*
X155770378Y-116986000D01*
X157411332Y-116986000D01*
X157413066Y-116989244D01*
X157428612Y-117008186D01*
X157447554Y-117023732D01*
X157469165Y-117035283D01*
X157492614Y-117042396D01*
X157517000Y-117044798D01*
X157541386Y-117042396D01*
X157564835Y-117035283D01*
X157586446Y-117023732D01*
X157605388Y-117008186D01*
X157606944Y-117006470D01*
X157618338Y-116997119D01*
X157629121Y-116991355D01*
X157640830Y-116987803D01*
X157659138Y-116986000D01*
X158422862Y-116986000D01*
X158441170Y-116987803D01*
X158452879Y-116991355D01*
X158463662Y-116997119D01*
X158473120Y-117004880D01*
X158480881Y-117014338D01*
X158486645Y-117025121D01*
X158490197Y-117036830D01*
X158492000Y-117055138D01*
X158492000Y-117418862D01*
X158490197Y-117437170D01*
X158486645Y-117448879D01*
X158480881Y-117459662D01*
X158473120Y-117469120D01*
X158463662Y-117476881D01*
X158452879Y-117482645D01*
X158441170Y-117486197D01*
X158422862Y-117488000D01*
X157659138Y-117488000D01*
X157640830Y-117486197D01*
X157629121Y-117482645D01*
X157618338Y-117476881D01*
X157603100Y-117464376D01*
X157596306Y-117457581D01*
X157575932Y-117443966D01*
X157553294Y-117434587D01*
X157529260Y-117429805D01*
X157504756Y-117429803D01*
X157480722Y-117434582D01*
X157458083Y-117443958D01*
X157437707Y-117457570D01*
X157420379Y-117474896D01*
X157406764Y-117495270D01*
X157397385Y-117517908D01*
X157392603Y-117541942D01*
X157392000Y-117554202D01*
X157392000Y-117919798D01*
X157394402Y-117944184D01*
X157401515Y-117967633D01*
X157413066Y-117989244D01*
X157428612Y-118008186D01*
X157447554Y-118023732D01*
X157469165Y-118035283D01*
X157492614Y-118042396D01*
X157517000Y-118044798D01*
X157541386Y-118042396D01*
X157564835Y-118035283D01*
X157586446Y-118023732D01*
X157605388Y-118008186D01*
X157606944Y-118006470D01*
X157618338Y-117997119D01*
X157629121Y-117991355D01*
X157640830Y-117987803D01*
X157659138Y-117986000D01*
X158422862Y-117986000D01*
X158441170Y-117987803D01*
X158452879Y-117991355D01*
X158463662Y-117997119D01*
X158473120Y-118004880D01*
X158480881Y-118014338D01*
X158486645Y-118025121D01*
X158490197Y-118036830D01*
X158492000Y-118055138D01*
X158492000Y-118418862D01*
X158490197Y-118437170D01*
X158486645Y-118448879D01*
X158480881Y-118459662D01*
X158473120Y-118469120D01*
X158463662Y-118476881D01*
X158452879Y-118482645D01*
X158441170Y-118486197D01*
X158422862Y-118488000D01*
X157659138Y-118488000D01*
X157640830Y-118486197D01*
X157629121Y-118482645D01*
X157618338Y-118476881D01*
X157603100Y-118464376D01*
X157596306Y-118457581D01*
X157575932Y-118443966D01*
X157553294Y-118434587D01*
X157529260Y-118429805D01*
X157504756Y-118429803D01*
X157480722Y-118434582D01*
X157458083Y-118443958D01*
X157437707Y-118457570D01*
X157420379Y-118474896D01*
X157406764Y-118495270D01*
X157397385Y-118517908D01*
X157392603Y-118541942D01*
X157392000Y-118554202D01*
X157392000Y-118919798D01*
X157394402Y-118944184D01*
X157401515Y-118967633D01*
X157413066Y-118989244D01*
X157428612Y-119008186D01*
X157447554Y-119023732D01*
X157469165Y-119035283D01*
X157492614Y-119042396D01*
X157517000Y-119044798D01*
X157541386Y-119042396D01*
X157564835Y-119035283D01*
X157586446Y-119023732D01*
X157605388Y-119008186D01*
X157606944Y-119006470D01*
X157618338Y-118997119D01*
X157629121Y-118991355D01*
X157640830Y-118987803D01*
X157659138Y-118986000D01*
X158422862Y-118986000D01*
X158441170Y-118987803D01*
X158452879Y-118991355D01*
X158463662Y-118997119D01*
X158473120Y-119004880D01*
X158480881Y-119014338D01*
X158486645Y-119025121D01*
X158490197Y-119036830D01*
X158492000Y-119055138D01*
X158492000Y-119418862D01*
X158490197Y-119437170D01*
X158486645Y-119448879D01*
X158480881Y-119459662D01*
X158473120Y-119469120D01*
X158463662Y-119476881D01*
X158452879Y-119482645D01*
X158441170Y-119486197D01*
X158422862Y-119488000D01*
X157659138Y-119488000D01*
X157640830Y-119486197D01*
X157629121Y-119482645D01*
X157618338Y-119476881D01*
X157603100Y-119464376D01*
X157596306Y-119457581D01*
X157575932Y-119443966D01*
X157553294Y-119434587D01*
X157529260Y-119429805D01*
X157504756Y-119429803D01*
X157480722Y-119434582D01*
X157458083Y-119443958D01*
X157437707Y-119457570D01*
X157420379Y-119474896D01*
X157411622Y-119488000D01*
X155770668Y-119488000D01*
X155768934Y-119484756D01*
X155753388Y-119465814D01*
X155734446Y-119450268D01*
X155712835Y-119438717D01*
X155689386Y-119431604D01*
X155665000Y-119429202D01*
X155640614Y-119431604D01*
X155617165Y-119438717D01*
X155595554Y-119450268D01*
X155576612Y-119465814D01*
X155575056Y-119467530D01*
X155563662Y-119476881D01*
X155552879Y-119482645D01*
X155541170Y-119486197D01*
X155522862Y-119488000D01*
X154759138Y-119488000D01*
X154740830Y-119486197D01*
X154729121Y-119482645D01*
X154718338Y-119476881D01*
X154708880Y-119469120D01*
X154701119Y-119459662D01*
X154695355Y-119448879D01*
X154691803Y-119437170D01*
X154690000Y-119418862D01*
X154690000Y-119055138D01*
X154691803Y-119036830D01*
X154695355Y-119025121D01*
X154701119Y-119014338D01*
X154708880Y-119004880D01*
X154718338Y-118997119D01*
X154729121Y-118991355D01*
X154740830Y-118987803D01*
X154759138Y-118986000D01*
X155522862Y-118986000D01*
X155541170Y-118987803D01*
X155552879Y-118991355D01*
X155563662Y-118997119D01*
X155578900Y-119009624D01*
X155585694Y-119016419D01*
X155606068Y-119030034D01*
X155628706Y-119039413D01*
X155652740Y-119044195D01*
X155677244Y-119044197D01*
X155701278Y-119039418D01*
X155723917Y-119030042D01*
X155744293Y-119016430D01*
X155761621Y-118999104D01*
X155775236Y-118978730D01*
X155784615Y-118956092D01*
X155789397Y-118932058D01*
X155790000Y-118919798D01*
X155790000Y-118554202D01*
X155787598Y-118529816D01*
X155780485Y-118506367D01*
X155768934Y-118484756D01*
X155753388Y-118465814D01*
X155734446Y-118450268D01*
X155712835Y-118438717D01*
X155689386Y-118431604D01*
X155665000Y-118429202D01*
X155640614Y-118431604D01*
X155617165Y-118438717D01*
X155595554Y-118450268D01*
X155576612Y-118465814D01*
X155575056Y-118467530D01*
X155563662Y-118476881D01*
X155552879Y-118482645D01*
X155541170Y-118486197D01*
X155522862Y-118488000D01*
X154759138Y-118488000D01*
X154740830Y-118486197D01*
X154729121Y-118482645D01*
X154718338Y-118476881D01*
X154708880Y-118469120D01*
X154701119Y-118459662D01*
X154695355Y-118448879D01*
X154691803Y-118437170D01*
X154690000Y-118418862D01*
X154690000Y-118055138D01*
X154691803Y-118036830D01*
X154695355Y-118025121D01*
X154701119Y-118014338D01*
X154708880Y-118004880D01*
X154718338Y-117997119D01*
X154729121Y-117991355D01*
X154740830Y-117987803D01*
X154759138Y-117986000D01*
X155522862Y-117986000D01*
X155541170Y-117987803D01*
X155552879Y-117991355D01*
X155563662Y-117997119D01*
X155578900Y-118009624D01*
X155585694Y-118016419D01*
X155606068Y-118030034D01*
X155628706Y-118039413D01*
X155652740Y-118044195D01*
X155677244Y-118044197D01*
X155701278Y-118039418D01*
X155723917Y-118030042D01*
X155744293Y-118016430D01*
X155761621Y-117999104D01*
X155775236Y-117978730D01*
X155784615Y-117956092D01*
X155789397Y-117932058D01*
X155790000Y-117919798D01*
X155790000Y-117554202D01*
X155787598Y-117529816D01*
X155780485Y-117506367D01*
X155768934Y-117484756D01*
X155753388Y-117465814D01*
X155734446Y-117450268D01*
X155712835Y-117438717D01*
X155689386Y-117431604D01*
X155665000Y-117429202D01*
X155640614Y-117431604D01*
X155617165Y-117438717D01*
X155595554Y-117450268D01*
X155576612Y-117465814D01*
X155575056Y-117467530D01*
X155563662Y-117476881D01*
X155552879Y-117482645D01*
X155541170Y-117486197D01*
X155522862Y-117488000D01*
X154759138Y-117488000D01*
X154740830Y-117486197D01*
X154729121Y-117482645D01*
X154718338Y-117476881D01*
X154708880Y-117469120D01*
X154701119Y-117459662D01*
X154695355Y-117448879D01*
X154691803Y-117437170D01*
X154690000Y-117418862D01*
X154690000Y-117055138D01*
X154691803Y-117036830D01*
X154695355Y-117025121D01*
X154701119Y-117014338D01*
X154708880Y-117004880D01*
X154718338Y-116997119D01*
X154729121Y-116991355D01*
X154740830Y-116987803D01*
X154759138Y-116986000D01*
X155522862Y-116986000D01*
X155541170Y-116987803D01*
X155541170Y-116987803D01*
G37*
G36*
X129492650Y-117278062D02*
X129522445Y-117289277D01*
X129549482Y-117306089D01*
X129572713Y-117327847D01*
X129594856Y-117358748D01*
X129623027Y-117407542D01*
X129623033Y-117407550D01*
X129848533Y-117798128D01*
X129848536Y-117798135D01*
X129876712Y-117846937D01*
X129892396Y-117881551D01*
X129899626Y-117912558D01*
X129900667Y-117944374D01*
X129895482Y-117975784D01*
X129884267Y-118005579D01*
X129867455Y-118032616D01*
X129845697Y-118055847D01*
X129814796Y-118077990D01*
X129766002Y-118106161D01*
X129765994Y-118106167D01*
X129029006Y-118531667D01*
X129028999Y-118531670D01*
X128980197Y-118559846D01*
X128945583Y-118575530D01*
X128914576Y-118582760D01*
X128882760Y-118583801D01*
X128851350Y-118578616D01*
X128821555Y-118567401D01*
X128794518Y-118550589D01*
X128771287Y-118528831D01*
X128749144Y-118497930D01*
X128720973Y-118449136D01*
X128720967Y-118449128D01*
X128495467Y-118058550D01*
X128495464Y-118058543D01*
X128467288Y-118009741D01*
X128451604Y-117975127D01*
X128444374Y-117944120D01*
X128443333Y-117912304D01*
X128448518Y-117880894D01*
X128459733Y-117851099D01*
X128476545Y-117824062D01*
X128498303Y-117800831D01*
X128529204Y-117778688D01*
X128577998Y-117750517D01*
X128578006Y-117750511D01*
X129314994Y-117325011D01*
X129315001Y-117325008D01*
X129363803Y-117296832D01*
X129398417Y-117281148D01*
X129429424Y-117273918D01*
X129461240Y-117272877D01*
X129492650Y-117278062D01*
X129492650Y-117278062D01*
G37*
G36*
X167813076Y-117165665D02*
X167844083Y-117172895D01*
X167878697Y-117188579D01*
X167927499Y-117216755D01*
X167927506Y-117216758D01*
X168664494Y-117642258D01*
X168664502Y-117642264D01*
X168713296Y-117670435D01*
X168744197Y-117692578D01*
X168765955Y-117715809D01*
X168782767Y-117742846D01*
X168793982Y-117772641D01*
X168799167Y-117804051D01*
X168798126Y-117835867D01*
X168790896Y-117866874D01*
X168775212Y-117901488D01*
X168747036Y-117950290D01*
X168747033Y-117950297D01*
X168521533Y-118340875D01*
X168521527Y-118340883D01*
X168493356Y-118389677D01*
X168471213Y-118420578D01*
X168447982Y-118442336D01*
X168420945Y-118459148D01*
X168391150Y-118470363D01*
X168359740Y-118475548D01*
X168327924Y-118474507D01*
X168296917Y-118467277D01*
X168262303Y-118451593D01*
X168213501Y-118423417D01*
X168213494Y-118423414D01*
X167476506Y-117997914D01*
X167476498Y-117997908D01*
X167427704Y-117969737D01*
X167396803Y-117947594D01*
X167375045Y-117924363D01*
X167358233Y-117897326D01*
X167347018Y-117867531D01*
X167341833Y-117836121D01*
X167342874Y-117804305D01*
X167350104Y-117773298D01*
X167365788Y-117738684D01*
X167393964Y-117689882D01*
X167393967Y-117689875D01*
X167619467Y-117299297D01*
X167619473Y-117299289D01*
X167647644Y-117250495D01*
X167669787Y-117219594D01*
X167693018Y-117197836D01*
X167720055Y-117181024D01*
X167749850Y-117169809D01*
X167781260Y-117164624D01*
X167813076Y-117165665D01*
X167813076Y-117165665D01*
G37*
G36*
X129115874Y-116566884D02*
X129127319Y-116571191D01*
X129137707Y-116577651D01*
X129146634Y-116586012D01*
X129157356Y-116600974D01*
X129339210Y-116915956D01*
X129346806Y-116932721D01*
X129349585Y-116944636D01*
X129349984Y-116956855D01*
X129347991Y-116968929D01*
X129343684Y-116980374D01*
X129337224Y-116990762D01*
X129328863Y-116999689D01*
X129313901Y-117010411D01*
X128306099Y-117592265D01*
X128289334Y-117599861D01*
X128277419Y-117602640D01*
X128265200Y-117603039D01*
X128253126Y-117601046D01*
X128241681Y-117596739D01*
X128231293Y-117590279D01*
X128222366Y-117581918D01*
X128211644Y-117566956D01*
X128029790Y-117251974D01*
X128022194Y-117235209D01*
X128019415Y-117223294D01*
X128019016Y-117211075D01*
X128021009Y-117199001D01*
X128025316Y-117187556D01*
X128031776Y-117177168D01*
X128040137Y-117168241D01*
X128055099Y-117157519D01*
X129062901Y-116575665D01*
X129079666Y-116568069D01*
X129091581Y-116565290D01*
X129103800Y-116564891D01*
X129115874Y-116566884D01*
X129115874Y-116566884D01*
G37*
G36*
X168300750Y-116259260D02*
X168322205Y-116264263D01*
X168347897Y-116275904D01*
X169269100Y-116807760D01*
X169292030Y-116824192D01*
X169307092Y-116840274D01*
X169318725Y-116858980D01*
X169326488Y-116879606D01*
X169330076Y-116901342D01*
X169329356Y-116923366D01*
X169324353Y-116944821D01*
X169312712Y-116970512D01*
X169080856Y-117372100D01*
X169064424Y-117395030D01*
X169048342Y-117410092D01*
X169029636Y-117421725D01*
X169009010Y-117429488D01*
X168987274Y-117433076D01*
X168965250Y-117432356D01*
X168943795Y-117427353D01*
X168918103Y-117415712D01*
X167996900Y-116883856D01*
X167973970Y-116867424D01*
X167958908Y-116851342D01*
X167947275Y-116832636D01*
X167939512Y-116812010D01*
X167935924Y-116790274D01*
X167936644Y-116768250D01*
X167941647Y-116746795D01*
X167953288Y-116721104D01*
X168185144Y-116319516D01*
X168201576Y-116296586D01*
X168217658Y-116281524D01*
X168236364Y-116269891D01*
X168256990Y-116262128D01*
X168278726Y-116258540D01*
X168300750Y-116259260D01*
X168300750Y-116259260D01*
G37*
G36*
X128623010Y-115742512D02*
X128643636Y-115750275D01*
X128662342Y-115761908D01*
X128678424Y-115776970D01*
X128694856Y-115799900D01*
X128926712Y-116201488D01*
X128938353Y-116227179D01*
X128943356Y-116248634D01*
X128944076Y-116270658D01*
X128940488Y-116292394D01*
X128932725Y-116313020D01*
X128921092Y-116331726D01*
X128906030Y-116347808D01*
X128883100Y-116364240D01*
X127961897Y-116896096D01*
X127936205Y-116907737D01*
X127914750Y-116912740D01*
X127892726Y-116913460D01*
X127870990Y-116909872D01*
X127850364Y-116902109D01*
X127831658Y-116890476D01*
X127815576Y-116875414D01*
X127799144Y-116852484D01*
X127567288Y-116450896D01*
X127555647Y-116425205D01*
X127550644Y-116403750D01*
X127549924Y-116381726D01*
X127553512Y-116359990D01*
X127561275Y-116339364D01*
X127572908Y-116320658D01*
X127587970Y-116304576D01*
X127610900Y-116288144D01*
X128532103Y-115756288D01*
X128557795Y-115744647D01*
X128579250Y-115739644D01*
X128601274Y-115738924D01*
X128623010Y-115742512D01*
X128623010Y-115742512D01*
G37*
G36*
X168663419Y-115569360D02*
X168675334Y-115572139D01*
X168692099Y-115579735D01*
X169699901Y-116161589D01*
X169714863Y-116172311D01*
X169723224Y-116181238D01*
X169729684Y-116191626D01*
X169733991Y-116203071D01*
X169735984Y-116215145D01*
X169735585Y-116227364D01*
X169732806Y-116239279D01*
X169725210Y-116256044D01*
X169543356Y-116571026D01*
X169532634Y-116585988D01*
X169523707Y-116594349D01*
X169513319Y-116600809D01*
X169501874Y-116605116D01*
X169489800Y-116607109D01*
X169477581Y-116606710D01*
X169465666Y-116603931D01*
X169448901Y-116596335D01*
X168441099Y-116014481D01*
X168426137Y-116003759D01*
X168417776Y-115994832D01*
X168411316Y-115984444D01*
X168407009Y-115972999D01*
X168405016Y-115960925D01*
X168405415Y-115948706D01*
X168408194Y-115936791D01*
X168415790Y-115920026D01*
X168597644Y-115605044D01*
X168608366Y-115590082D01*
X168617293Y-115581721D01*
X168627681Y-115575261D01*
X168639126Y-115570954D01*
X168651200Y-115568961D01*
X168663419Y-115569360D01*
X168663419Y-115569360D01*
G37*
G36*
X138120033Y-115465686D02*
X138159881Y-115477774D01*
X138196601Y-115497401D01*
X138228786Y-115523814D01*
X138255199Y-115555999D01*
X138274826Y-115592719D01*
X138286914Y-115632567D01*
X138291600Y-115680141D01*
X138291600Y-116343859D01*
X138286914Y-116391433D01*
X138274826Y-116431281D01*
X138255199Y-116468001D01*
X138228786Y-116500186D01*
X138196601Y-116526599D01*
X138159881Y-116546226D01*
X138120033Y-116558314D01*
X138072459Y-116563000D01*
X136958741Y-116563000D01*
X136911167Y-116558314D01*
X136871319Y-116546226D01*
X136834599Y-116526599D01*
X136802414Y-116500186D01*
X136776001Y-116468001D01*
X136756374Y-116431281D01*
X136744286Y-116391433D01*
X136739600Y-116343859D01*
X136739600Y-115680141D01*
X136744286Y-115632567D01*
X136756374Y-115592719D01*
X136776001Y-115555999D01*
X136802414Y-115523814D01*
X136834599Y-115497401D01*
X136871319Y-115477774D01*
X136911167Y-115465686D01*
X136958741Y-115461000D01*
X138072459Y-115461000D01*
X138120033Y-115465686D01*
X138120033Y-115465686D01*
G37*
G36*
X128005150Y-114701637D02*
X128034945Y-114712852D01*
X128061982Y-114729664D01*
X128085213Y-114751422D01*
X128107356Y-114782323D01*
X128135527Y-114831117D01*
X128135533Y-114831125D01*
X128361033Y-115221703D01*
X128361036Y-115221710D01*
X128389212Y-115270512D01*
X128404896Y-115305126D01*
X128412126Y-115336133D01*
X128413167Y-115367949D01*
X128407982Y-115399359D01*
X128396767Y-115429154D01*
X128379955Y-115456191D01*
X128358197Y-115479422D01*
X128327296Y-115501565D01*
X128278502Y-115529736D01*
X128278494Y-115529742D01*
X127541506Y-115955242D01*
X127541499Y-115955245D01*
X127492697Y-115983421D01*
X127458083Y-115999105D01*
X127427076Y-116006335D01*
X127395260Y-116007376D01*
X127363850Y-116002191D01*
X127334055Y-115990976D01*
X127307018Y-115974164D01*
X127283787Y-115952406D01*
X127261644Y-115921505D01*
X127233473Y-115872711D01*
X127233467Y-115872703D01*
X127007967Y-115482125D01*
X127007964Y-115482118D01*
X126979788Y-115433316D01*
X126964104Y-115398702D01*
X126956874Y-115367695D01*
X126955833Y-115335879D01*
X126961018Y-115304469D01*
X126972233Y-115274674D01*
X126989045Y-115247637D01*
X127010803Y-115224406D01*
X127041704Y-115202263D01*
X127090498Y-115174092D01*
X127090506Y-115174086D01*
X127827494Y-114748586D01*
X127827501Y-114748583D01*
X127876303Y-114720407D01*
X127910917Y-114704723D01*
X127941924Y-114697493D01*
X127973740Y-114696452D01*
X128005150Y-114701637D01*
X128005150Y-114701637D01*
G37*
G36*
X163807000Y-115955000D02*
X162805000Y-115955000D01*
X162805000Y-115053000D01*
X163807000Y-115053000D01*
X163807000Y-115955000D01*
X163807000Y-115955000D01*
G37*
G36*
X169300576Y-114589240D02*
X169331583Y-114596470D01*
X169366197Y-114612154D01*
X169414999Y-114640330D01*
X169415006Y-114640333D01*
X170151994Y-115065833D01*
X170152002Y-115065839D01*
X170200796Y-115094010D01*
X170231697Y-115116153D01*
X170253455Y-115139384D01*
X170270267Y-115166421D01*
X170281482Y-115196216D01*
X170286667Y-115227626D01*
X170285626Y-115259442D01*
X170278396Y-115290449D01*
X170262712Y-115325063D01*
X170234536Y-115373865D01*
X170234533Y-115373872D01*
X170009033Y-115764450D01*
X170009027Y-115764458D01*
X169980856Y-115813252D01*
X169958713Y-115844153D01*
X169935482Y-115865911D01*
X169908445Y-115882723D01*
X169878650Y-115893938D01*
X169847240Y-115899123D01*
X169815424Y-115898082D01*
X169784417Y-115890852D01*
X169749803Y-115875168D01*
X169701001Y-115846992D01*
X169700994Y-115846989D01*
X168964006Y-115421489D01*
X168963998Y-115421483D01*
X168915204Y-115393312D01*
X168884303Y-115371169D01*
X168862545Y-115347938D01*
X168845733Y-115320901D01*
X168834518Y-115291106D01*
X168829333Y-115259696D01*
X168830374Y-115227880D01*
X168837604Y-115196873D01*
X168853288Y-115162259D01*
X168881464Y-115113457D01*
X168881467Y-115113450D01*
X169106967Y-114722872D01*
X169106973Y-114722864D01*
X169135144Y-114674070D01*
X169157287Y-114643169D01*
X169180518Y-114621411D01*
X169207555Y-114604599D01*
X169237350Y-114593384D01*
X169268760Y-114588199D01*
X169300576Y-114589240D01*
X169300576Y-114589240D01*
G37*
G36*
X156036293Y-113958323D02*
X156043312Y-113960452D01*
X156049775Y-113963907D01*
X156055442Y-113968558D01*
X156060093Y-113974225D01*
X156063548Y-113980688D01*
X156065677Y-113987707D01*
X156067000Y-114001140D01*
X156067000Y-114314860D01*
X156065677Y-114328293D01*
X156063548Y-114335312D01*
X156060093Y-114341775D01*
X156055442Y-114347442D01*
X156049775Y-114352093D01*
X156043312Y-114355548D01*
X156036293Y-114357677D01*
X156026901Y-114358602D01*
X156002868Y-114363382D01*
X155980229Y-114372760D01*
X155959854Y-114386374D01*
X155942527Y-114403701D01*
X155928913Y-114424075D01*
X155919536Y-114446714D01*
X155914755Y-114470748D01*
X155914755Y-114495252D01*
X155919535Y-114519285D01*
X155928913Y-114541924D01*
X155942527Y-114562299D01*
X155959854Y-114579626D01*
X155980228Y-114593240D01*
X156002867Y-114602617D01*
X156026901Y-114607398D01*
X156036293Y-114608323D01*
X156043312Y-114610452D01*
X156049775Y-114613907D01*
X156055442Y-114618558D01*
X156060093Y-114624225D01*
X156063548Y-114630688D01*
X156065677Y-114637707D01*
X156067000Y-114651140D01*
X156067000Y-114964860D01*
X156065677Y-114978293D01*
X156063548Y-114985312D01*
X156060093Y-114991775D01*
X156055442Y-114997442D01*
X156049775Y-115002093D01*
X156043312Y-115005548D01*
X156036293Y-115007677D01*
X156026901Y-115008602D01*
X156002868Y-115013382D01*
X155980229Y-115022760D01*
X155959854Y-115036374D01*
X155942527Y-115053701D01*
X155928913Y-115074075D01*
X155919536Y-115096714D01*
X155914755Y-115120748D01*
X155914755Y-115145252D01*
X155919535Y-115169285D01*
X155928913Y-115191924D01*
X155942527Y-115212299D01*
X155959854Y-115229626D01*
X155980228Y-115243240D01*
X156002867Y-115252617D01*
X156026901Y-115257398D01*
X156036293Y-115258323D01*
X156043312Y-115260452D01*
X156049775Y-115263907D01*
X156055442Y-115268558D01*
X156060093Y-115274225D01*
X156063548Y-115280688D01*
X156065677Y-115287707D01*
X156067000Y-115301140D01*
X156067000Y-115614860D01*
X156065677Y-115628293D01*
X156063548Y-115635312D01*
X156060093Y-115641775D01*
X156055442Y-115647442D01*
X156049775Y-115652093D01*
X156043312Y-115655548D01*
X156036293Y-115657677D01*
X156022860Y-115659000D01*
X155359140Y-115659000D01*
X155345707Y-115657677D01*
X155338688Y-115655548D01*
X155332225Y-115652093D01*
X155326558Y-115647442D01*
X155321907Y-115641775D01*
X155318452Y-115635312D01*
X155316323Y-115628293D01*
X155315000Y-115614860D01*
X155315000Y-115301140D01*
X155316323Y-115287707D01*
X155318452Y-115280688D01*
X155321907Y-115274225D01*
X155326558Y-115268558D01*
X155332225Y-115263907D01*
X155338688Y-115260452D01*
X155345707Y-115258323D01*
X155355099Y-115257398D01*
X155379132Y-115252618D01*
X155401771Y-115243240D01*
X155422146Y-115229626D01*
X155439473Y-115212299D01*
X155453087Y-115191925D01*
X155462464Y-115169286D01*
X155467245Y-115145252D01*
X155467245Y-115120748D01*
X155462465Y-115096715D01*
X155453087Y-115074076D01*
X155439473Y-115053701D01*
X155422146Y-115036374D01*
X155401772Y-115022760D01*
X155379133Y-115013383D01*
X155355099Y-115008602D01*
X155345707Y-115007677D01*
X155338688Y-115005548D01*
X155332225Y-115002093D01*
X155326558Y-114997442D01*
X155321907Y-114991775D01*
X155318452Y-114985312D01*
X155316323Y-114978293D01*
X155315000Y-114964860D01*
X155315000Y-114651140D01*
X155316323Y-114637707D01*
X155318452Y-114630688D01*
X155321907Y-114624225D01*
X155326558Y-114618558D01*
X155332225Y-114613907D01*
X155338688Y-114610452D01*
X155345707Y-114608323D01*
X155355099Y-114607398D01*
X155379132Y-114602618D01*
X155401771Y-114593240D01*
X155422146Y-114579626D01*
X155439473Y-114562299D01*
X155453087Y-114541925D01*
X155462464Y-114519286D01*
X155467245Y-114495252D01*
X155467245Y-114470748D01*
X155462465Y-114446715D01*
X155453087Y-114424076D01*
X155439473Y-114403701D01*
X155422146Y-114386374D01*
X155401772Y-114372760D01*
X155379133Y-114363383D01*
X155355099Y-114358602D01*
X155345707Y-114357677D01*
X155338688Y-114355548D01*
X155332225Y-114352093D01*
X155326558Y-114347442D01*
X155321907Y-114341775D01*
X155318452Y-114335312D01*
X155316323Y-114328293D01*
X155315000Y-114314860D01*
X155315000Y-114001140D01*
X155316323Y-113987707D01*
X155318452Y-113980688D01*
X155321907Y-113974225D01*
X155326558Y-113968558D01*
X155332225Y-113963907D01*
X155338688Y-113960452D01*
X155345707Y-113958323D01*
X155359140Y-113957000D01*
X156022860Y-113957000D01*
X156036293Y-113958323D01*
X156036293Y-113958323D01*
G37*
G36*
X157836293Y-113958323D02*
X157843312Y-113960452D01*
X157849775Y-113963907D01*
X157855442Y-113968558D01*
X157860093Y-113974225D01*
X157863548Y-113980688D01*
X157865677Y-113987707D01*
X157867000Y-114001140D01*
X157867000Y-114314860D01*
X157865677Y-114328293D01*
X157863548Y-114335312D01*
X157860093Y-114341775D01*
X157855442Y-114347442D01*
X157849775Y-114352093D01*
X157843312Y-114355548D01*
X157836293Y-114357677D01*
X157826901Y-114358602D01*
X157802868Y-114363382D01*
X157780229Y-114372760D01*
X157759854Y-114386374D01*
X157742527Y-114403701D01*
X157728913Y-114424075D01*
X157719536Y-114446714D01*
X157714755Y-114470748D01*
X157714755Y-114495252D01*
X157719535Y-114519285D01*
X157728913Y-114541924D01*
X157742527Y-114562299D01*
X157759854Y-114579626D01*
X157780228Y-114593240D01*
X157802867Y-114602617D01*
X157826901Y-114607398D01*
X157836293Y-114608323D01*
X157843312Y-114610452D01*
X157849775Y-114613907D01*
X157855442Y-114618558D01*
X157860093Y-114624225D01*
X157863548Y-114630688D01*
X157865677Y-114637707D01*
X157867000Y-114651140D01*
X157867000Y-114964860D01*
X157865677Y-114978293D01*
X157863548Y-114985312D01*
X157860093Y-114991775D01*
X157855442Y-114997442D01*
X157849775Y-115002093D01*
X157843312Y-115005548D01*
X157836293Y-115007677D01*
X157826901Y-115008602D01*
X157802868Y-115013382D01*
X157780229Y-115022760D01*
X157759854Y-115036374D01*
X157742527Y-115053701D01*
X157728913Y-115074075D01*
X157719536Y-115096714D01*
X157714755Y-115120748D01*
X157714755Y-115145252D01*
X157719535Y-115169285D01*
X157728913Y-115191924D01*
X157742527Y-115212299D01*
X157759854Y-115229626D01*
X157780228Y-115243240D01*
X157802867Y-115252617D01*
X157826901Y-115257398D01*
X157836293Y-115258323D01*
X157843312Y-115260452D01*
X157849775Y-115263907D01*
X157855442Y-115268558D01*
X157860093Y-115274225D01*
X157863548Y-115280688D01*
X157865677Y-115287707D01*
X157867000Y-115301140D01*
X157867000Y-115614860D01*
X157865677Y-115628293D01*
X157863548Y-115635312D01*
X157860093Y-115641775D01*
X157855442Y-115647442D01*
X157849775Y-115652093D01*
X157843312Y-115655548D01*
X157836293Y-115657677D01*
X157822860Y-115659000D01*
X157159140Y-115659000D01*
X157145707Y-115657677D01*
X157138688Y-115655548D01*
X157132225Y-115652093D01*
X157126558Y-115647442D01*
X157121907Y-115641775D01*
X157118452Y-115635312D01*
X157116323Y-115628293D01*
X157115000Y-115614860D01*
X157115000Y-115301140D01*
X157116323Y-115287707D01*
X157118452Y-115280688D01*
X157121907Y-115274225D01*
X157126558Y-115268558D01*
X157132225Y-115263907D01*
X157138688Y-115260452D01*
X157145707Y-115258323D01*
X157155099Y-115257398D01*
X157179132Y-115252618D01*
X157201771Y-115243240D01*
X157222146Y-115229626D01*
X157239473Y-115212299D01*
X157253087Y-115191925D01*
X157262464Y-115169286D01*
X157267245Y-115145252D01*
X157267245Y-115120748D01*
X157262465Y-115096715D01*
X157253087Y-115074076D01*
X157239473Y-115053701D01*
X157222146Y-115036374D01*
X157201772Y-115022760D01*
X157179133Y-115013383D01*
X157155099Y-115008602D01*
X157145707Y-115007677D01*
X157138688Y-115005548D01*
X157132225Y-115002093D01*
X157126558Y-114997442D01*
X157121907Y-114991775D01*
X157118452Y-114985312D01*
X157116323Y-114978293D01*
X157115000Y-114964860D01*
X157115000Y-114651140D01*
X157116323Y-114637707D01*
X157118452Y-114630688D01*
X157121907Y-114624225D01*
X157126558Y-114618558D01*
X157132225Y-114613907D01*
X157138688Y-114610452D01*
X157145707Y-114608323D01*
X157155099Y-114607398D01*
X157179132Y-114602618D01*
X157201771Y-114593240D01*
X157222146Y-114579626D01*
X157239473Y-114562299D01*
X157253087Y-114541925D01*
X157262464Y-114519286D01*
X157267245Y-114495252D01*
X157267245Y-114470748D01*
X157262465Y-114446715D01*
X157253087Y-114424076D01*
X157239473Y-114403701D01*
X157222146Y-114386374D01*
X157201772Y-114372760D01*
X157179133Y-114363383D01*
X157155099Y-114358602D01*
X157145707Y-114357677D01*
X157138688Y-114355548D01*
X157132225Y-114352093D01*
X157126558Y-114347442D01*
X157121907Y-114341775D01*
X157118452Y-114335312D01*
X157116323Y-114328293D01*
X157115000Y-114314860D01*
X157115000Y-114001140D01*
X157116323Y-113987707D01*
X157118452Y-113980688D01*
X157121907Y-113974225D01*
X157126558Y-113968558D01*
X157132225Y-113963907D01*
X157138688Y-113960452D01*
X157145707Y-113958323D01*
X157159140Y-113957000D01*
X157822860Y-113957000D01*
X157836293Y-113958323D01*
X157836293Y-113958323D01*
G37*
G36*
X161807000Y-115005000D02*
X160805000Y-115005000D01*
X160805000Y-114103000D01*
X161807000Y-114103000D01*
X161807000Y-115005000D01*
X161807000Y-115005000D01*
G37*
G36*
X138120033Y-113565686D02*
X138159881Y-113577774D01*
X138196601Y-113597401D01*
X138228786Y-113623814D01*
X138255199Y-113655999D01*
X138274826Y-113692719D01*
X138286914Y-113732567D01*
X138291600Y-113780141D01*
X138291600Y-114443859D01*
X138286914Y-114491433D01*
X138274826Y-114531281D01*
X138255199Y-114568001D01*
X138228786Y-114600186D01*
X138196601Y-114626599D01*
X138159881Y-114646226D01*
X138120033Y-114658314D01*
X138072459Y-114663000D01*
X136958741Y-114663000D01*
X136911167Y-114658314D01*
X136871319Y-114646226D01*
X136834599Y-114626599D01*
X136802414Y-114600186D01*
X136776001Y-114568001D01*
X136756374Y-114531281D01*
X136744286Y-114491433D01*
X136739600Y-114443859D01*
X136739600Y-113780141D01*
X136744286Y-113732567D01*
X136756374Y-113692719D01*
X136776001Y-113655999D01*
X136802414Y-113623814D01*
X136834599Y-113597401D01*
X136871319Y-113577774D01*
X136911167Y-113565686D01*
X136958741Y-113561000D01*
X138072459Y-113561000D01*
X138120033Y-113565686D01*
X138120033Y-113565686D01*
G37*
G36*
X163807000Y-114055000D02*
X162805000Y-114055000D01*
X162805000Y-113153000D01*
X163807000Y-113153000D01*
X163807000Y-114055000D01*
X163807000Y-114055000D01*
G37*
G36*
X130142000Y-113931000D02*
X128740000Y-113931000D01*
X128740000Y-112129000D01*
X130142000Y-112129000D01*
X130142000Y-113931000D01*
X130142000Y-113931000D01*
G37*
G36*
X133642000Y-113931000D02*
X132240000Y-113931000D01*
X132240000Y-112129000D01*
X133642000Y-112129000D01*
X133642000Y-113931000D01*
X133642000Y-113931000D01*
G37*
G36*
X158542000Y-112834000D02*
X157240000Y-112834000D01*
X157240000Y-111932000D01*
X158542000Y-111932000D01*
X158542000Y-112834000D01*
X158542000Y-112834000D01*
G37*
G36*
X155942000Y-112834000D02*
X154640000Y-112834000D01*
X154640000Y-111932000D01*
X155942000Y-111932000D01*
X155942000Y-112834000D01*
X155942000Y-112834000D01*
G37*
G36*
X137010000Y-112780000D02*
X136008000Y-112780000D01*
X136008000Y-111878000D01*
X137010000Y-111878000D01*
X137010000Y-112780000D01*
X137010000Y-112780000D01*
G37*
G36*
X135010000Y-111830000D02*
X134008000Y-111830000D01*
X134008000Y-110928000D01*
X135010000Y-110928000D01*
X135010000Y-111830000D01*
X135010000Y-111830000D01*
G37*
G36*
X166244682Y-110602725D02*
X166275143Y-110611966D01*
X166303222Y-110626975D01*
X166327830Y-110647169D01*
X166348024Y-110671777D01*
X166363033Y-110699856D01*
X166372274Y-110730317D01*
X166375999Y-110768140D01*
X166375999Y-111481860D01*
X166372274Y-111519683D01*
X166363033Y-111550144D01*
X166348024Y-111578223D01*
X166327830Y-111602831D01*
X166303222Y-111623025D01*
X166275143Y-111638034D01*
X166244682Y-111647275D01*
X166206859Y-111651000D01*
X165643139Y-111651000D01*
X165605316Y-111647275D01*
X165574855Y-111638034D01*
X165546776Y-111623025D01*
X165522168Y-111602831D01*
X165501974Y-111578223D01*
X165486965Y-111550144D01*
X165477724Y-111519683D01*
X165473999Y-111481860D01*
X165473999Y-110768140D01*
X165477724Y-110730317D01*
X165486965Y-110699856D01*
X165501974Y-110671777D01*
X165522168Y-110647169D01*
X165546776Y-110626975D01*
X165574855Y-110611966D01*
X165605316Y-110602725D01*
X165643139Y-110599000D01*
X166206859Y-110599000D01*
X166244682Y-110602725D01*
X166244682Y-110602725D01*
G37*
G36*
X163181591Y-110603085D02*
X163215569Y-110613393D01*
X163246887Y-110630133D01*
X163274339Y-110652661D01*
X163296867Y-110680113D01*
X163313607Y-110711431D01*
X163323915Y-110745409D01*
X163328000Y-110786890D01*
X163328000Y-111463110D01*
X163323915Y-111504591D01*
X163313607Y-111538569D01*
X163296867Y-111569887D01*
X163274339Y-111597339D01*
X163246887Y-111619867D01*
X163215569Y-111636607D01*
X163181591Y-111646915D01*
X163140110Y-111651000D01*
X162538890Y-111651000D01*
X162497409Y-111646915D01*
X162463431Y-111636607D01*
X162432113Y-111619867D01*
X162404661Y-111597339D01*
X162382133Y-111569887D01*
X162365393Y-111538569D01*
X162355085Y-111504591D01*
X162351000Y-111463110D01*
X162351000Y-110786890D01*
X162355085Y-110745409D01*
X162365393Y-110711431D01*
X162382133Y-110680113D01*
X162404661Y-110652661D01*
X162432113Y-110630133D01*
X162463431Y-110613393D01*
X162497409Y-110603085D01*
X162538890Y-110599000D01*
X163140110Y-110599000D01*
X163181591Y-110603085D01*
X163181591Y-110603085D01*
G37*
G36*
X161606591Y-110603085D02*
X161640569Y-110613393D01*
X161671887Y-110630133D01*
X161699339Y-110652661D01*
X161721867Y-110680113D01*
X161738607Y-110711431D01*
X161748915Y-110745409D01*
X161753000Y-110786890D01*
X161753000Y-111463110D01*
X161748915Y-111504591D01*
X161738607Y-111538569D01*
X161721867Y-111569887D01*
X161699339Y-111597339D01*
X161671887Y-111619867D01*
X161640569Y-111636607D01*
X161606591Y-111646915D01*
X161565110Y-111651000D01*
X160963890Y-111651000D01*
X160922409Y-111646915D01*
X160888431Y-111636607D01*
X160857113Y-111619867D01*
X160829661Y-111597339D01*
X160807133Y-111569887D01*
X160790393Y-111538569D01*
X160780085Y-111504591D01*
X160776000Y-111463110D01*
X160776000Y-110786890D01*
X160780085Y-110745409D01*
X160790393Y-110711431D01*
X160807133Y-110680113D01*
X160829661Y-110652661D01*
X160857113Y-110630133D01*
X160888431Y-110613393D01*
X160922409Y-110603085D01*
X160963890Y-110599000D01*
X161565110Y-110599000D01*
X161606591Y-110603085D01*
X161606591Y-110603085D01*
G37*
G36*
X164594682Y-110602725D02*
X164625143Y-110611966D01*
X164653222Y-110626975D01*
X164677830Y-110647169D01*
X164698024Y-110671777D01*
X164713033Y-110699856D01*
X164722274Y-110730317D01*
X164725999Y-110768140D01*
X164725999Y-111481860D01*
X164722274Y-111519683D01*
X164713033Y-111550144D01*
X164698024Y-111578223D01*
X164677830Y-111602831D01*
X164653222Y-111623025D01*
X164625143Y-111638034D01*
X164594682Y-111647275D01*
X164556859Y-111651000D01*
X163993139Y-111651000D01*
X163955316Y-111647275D01*
X163924855Y-111638034D01*
X163896776Y-111623025D01*
X163872168Y-111602831D01*
X163851974Y-111578223D01*
X163836965Y-111550144D01*
X163827724Y-111519683D01*
X163823999Y-111481860D01*
X163823999Y-110768140D01*
X163827724Y-110730317D01*
X163836965Y-110699856D01*
X163851974Y-110671777D01*
X163872168Y-110647169D01*
X163896776Y-110626975D01*
X163924855Y-110611966D01*
X163955316Y-110602725D01*
X163993139Y-110599000D01*
X164556859Y-110599000D01*
X164594682Y-110602725D01*
X164594682Y-110602725D01*
G37*
G36*
X158542000Y-111334000D02*
X157240000Y-111334000D01*
X157240000Y-110432000D01*
X158542000Y-110432000D01*
X158542000Y-111334000D01*
X158542000Y-111334000D01*
G37*
G36*
X155942000Y-111334000D02*
X154640000Y-111334000D01*
X154640000Y-110432000D01*
X155942000Y-110432000D01*
X155942000Y-111334000D01*
X155942000Y-111334000D01*
G37*
G36*
X137010000Y-110880000D02*
X136008000Y-110880000D01*
X136008000Y-109978000D01*
X137010000Y-109978000D01*
X137010000Y-110880000D01*
X137010000Y-110880000D01*
G37*
G36*
X133642000Y-110502000D02*
X132240000Y-110502000D01*
X132240000Y-108700000D01*
X133642000Y-108700000D01*
X133642000Y-110502000D01*
X133642000Y-110502000D01*
G37*
G36*
X130142000Y-110502000D02*
X128740000Y-110502000D01*
X128740000Y-108700000D01*
X130142000Y-108700000D01*
X130142000Y-110502000D01*
X130142000Y-110502000D01*
G37*
G36*
X174691335Y-104808183D02*
X174742983Y-104818456D01*
X174815961Y-104848685D01*
X174881641Y-104892571D01*
X174937491Y-104948421D01*
X174937493Y-104948424D01*
X174981377Y-105014101D01*
X175011606Y-105087079D01*
X175027016Y-105164551D01*
X175027016Y-105243541D01*
X175011606Y-105321013D01*
X174981377Y-105393991D01*
X174937491Y-105459671D01*
X174905762Y-105491400D01*
X174890216Y-105510342D01*
X174878665Y-105531953D01*
X174871552Y-105555402D01*
X174869150Y-105579788D01*
X174871552Y-105604174D01*
X174878665Y-105627623D01*
X174890216Y-105649234D01*
X174905762Y-105668176D01*
X174924704Y-105683722D01*
X174946315Y-105695273D01*
X174969764Y-105702386D01*
X174990059Y-105704721D01*
X175004484Y-105705193D01*
X175064818Y-105707168D01*
X175118163Y-105719607D01*
X175151335Y-105727341D01*
X175181658Y-105741080D01*
X175211980Y-105754819D01*
X175390123Y-105857670D01*
X175856573Y-106126975D01*
X175897112Y-106156025D01*
X175910686Y-106165752D01*
X175971417Y-106230592D01*
X175992441Y-106264403D01*
X176018329Y-106306033D01*
X176049624Y-106389183D01*
X176064095Y-106476831D01*
X176064095Y-106476833D01*
X176061189Y-106565625D01*
X176049589Y-106615374D01*
X176041016Y-106652142D01*
X176004351Y-106733063D01*
X175982259Y-106763892D01*
X175952604Y-106805276D01*
X175887764Y-106866006D01*
X175862865Y-106881489D01*
X175812322Y-106912919D01*
X175729173Y-106944213D01*
X175641524Y-106958684D01*
X175641523Y-106958684D01*
X175552731Y-106955778D01*
X175499386Y-106943339D01*
X175466214Y-106935605D01*
X175434274Y-106921133D01*
X175405569Y-106908127D01*
X174926966Y-106631805D01*
X174760984Y-106535975D01*
X174706860Y-106497191D01*
X174675619Y-106463834D01*
X174646133Y-106432353D01*
X174607233Y-106369796D01*
X174592315Y-106350356D01*
X174573892Y-106334199D01*
X174552670Y-106321947D01*
X174529466Y-106314071D01*
X174505172Y-106310873D01*
X174480720Y-106312476D01*
X174457050Y-106318818D01*
X174435073Y-106329656D01*
X174415633Y-106344574D01*
X174399476Y-106362997D01*
X174387224Y-106384219D01*
X174378485Y-106411420D01*
X174376606Y-106420866D01*
X174371847Y-106432354D01*
X174346377Y-106493844D01*
X174302491Y-106559524D01*
X174270763Y-106591252D01*
X174255217Y-106610194D01*
X174243666Y-106631805D01*
X174236553Y-106655254D01*
X174234151Y-106679640D01*
X174236553Y-106704026D01*
X174243666Y-106727475D01*
X174255217Y-106749086D01*
X174270763Y-106768028D01*
X174289705Y-106783574D01*
X174311316Y-106795125D01*
X174334765Y-106802238D01*
X174355060Y-106804573D01*
X174370989Y-106805095D01*
X174429818Y-106807020D01*
X174483163Y-106819459D01*
X174516335Y-106827193D01*
X174546658Y-106840933D01*
X174576980Y-106854671D01*
X174833462Y-107002751D01*
X175221573Y-107226827D01*
X175262112Y-107255877D01*
X175275686Y-107265604D01*
X175336417Y-107330444D01*
X175357441Y-107364255D01*
X175383329Y-107405885D01*
X175414624Y-107489035D01*
X175429095Y-107576683D01*
X175429095Y-107576685D01*
X175426189Y-107665477D01*
X175414589Y-107715226D01*
X175406016Y-107751994D01*
X175369351Y-107832915D01*
X175347259Y-107863744D01*
X175317604Y-107905128D01*
X175252764Y-107965858D01*
X175227865Y-107981341D01*
X175177322Y-108012771D01*
X175094173Y-108044065D01*
X175006524Y-108058536D01*
X175006523Y-108058536D01*
X174917731Y-108055630D01*
X174864386Y-108043191D01*
X174831214Y-108035457D01*
X174799274Y-108020985D01*
X174770569Y-108007979D01*
X174291966Y-107731657D01*
X174125984Y-107635827D01*
X174071860Y-107597043D01*
X174040619Y-107563686D01*
X174011133Y-107532205D01*
X173972233Y-107469648D01*
X173957315Y-107450208D01*
X173938892Y-107434051D01*
X173917670Y-107421799D01*
X173894466Y-107413923D01*
X173870172Y-107410725D01*
X173845720Y-107412328D01*
X173822050Y-107418670D01*
X173800073Y-107429508D01*
X173780633Y-107444426D01*
X173764476Y-107462849D01*
X173752224Y-107484071D01*
X173743485Y-107511272D01*
X173741606Y-107520718D01*
X173736847Y-107532206D01*
X173711377Y-107593696D01*
X173667491Y-107659376D01*
X173635763Y-107691104D01*
X173620217Y-107710046D01*
X173608666Y-107731657D01*
X173601553Y-107755106D01*
X173599151Y-107779492D01*
X173601553Y-107803878D01*
X173608666Y-107827327D01*
X173620217Y-107848938D01*
X173635763Y-107867880D01*
X173654705Y-107883426D01*
X173676316Y-107894977D01*
X173699765Y-107902090D01*
X173720060Y-107904425D01*
X173735989Y-107904947D01*
X173794818Y-107906872D01*
X173848163Y-107919311D01*
X173881335Y-107927045D01*
X173911513Y-107940719D01*
X173941980Y-107954523D01*
X174297627Y-108159856D01*
X174586573Y-108326679D01*
X174627112Y-108355729D01*
X174640686Y-108365456D01*
X174701417Y-108430296D01*
X174722441Y-108464107D01*
X174748329Y-108505737D01*
X174779624Y-108588887D01*
X174791065Y-108658185D01*
X174794095Y-108676537D01*
X174791189Y-108765329D01*
X174780075Y-108812991D01*
X174771016Y-108851846D01*
X174734351Y-108932767D01*
X174715151Y-108959560D01*
X174682604Y-109004980D01*
X174617764Y-109065710D01*
X174592865Y-109081193D01*
X174542322Y-109112623D01*
X174459173Y-109143917D01*
X174371524Y-109158388D01*
X174371523Y-109158388D01*
X174282731Y-109155482D01*
X174229386Y-109143043D01*
X174196214Y-109135309D01*
X174164274Y-109120837D01*
X174135569Y-109107831D01*
X173632271Y-108817251D01*
X173490984Y-108735679D01*
X173436860Y-108696895D01*
X173400605Y-108658185D01*
X173376133Y-108632057D01*
X173337233Y-108569500D01*
X173322315Y-108550060D01*
X173303892Y-108533903D01*
X173282670Y-108521651D01*
X173259466Y-108513775D01*
X173235172Y-108510577D01*
X173210720Y-108512180D01*
X173187050Y-108518522D01*
X173165073Y-108529360D01*
X173145633Y-108544278D01*
X173129476Y-108562701D01*
X173117224Y-108583923D01*
X173108485Y-108611124D01*
X173106606Y-108620570D01*
X173091025Y-108658185D01*
X173076377Y-108693548D01*
X173032491Y-108759228D01*
X173000763Y-108790956D01*
X172985217Y-108809898D01*
X172973666Y-108831509D01*
X172966553Y-108854958D01*
X172964151Y-108879344D01*
X172966553Y-108903730D01*
X172973666Y-108927179D01*
X172985217Y-108948790D01*
X173000763Y-108967732D01*
X173019705Y-108983278D01*
X173041316Y-108994829D01*
X173064765Y-109001942D01*
X173085060Y-109004277D01*
X173100989Y-109004799D01*
X173159818Y-109006724D01*
X173213163Y-109019163D01*
X173246335Y-109026897D01*
X173271331Y-109038223D01*
X173306980Y-109054375D01*
X173673527Y-109266001D01*
X173951573Y-109426531D01*
X173982187Y-109448469D01*
X174005686Y-109465308D01*
X174066417Y-109530148D01*
X174093263Y-109573321D01*
X174113329Y-109605589D01*
X174144624Y-109688739D01*
X174159095Y-109776387D01*
X174159095Y-109776389D01*
X174156189Y-109865181D01*
X174144588Y-109914931D01*
X174136016Y-109951698D01*
X174099351Y-110032619D01*
X174067493Y-110077076D01*
X174047604Y-110104832D01*
X173982764Y-110165562D01*
X173945043Y-110189018D01*
X173907322Y-110212475D01*
X173824173Y-110243769D01*
X173736524Y-110258240D01*
X173736523Y-110258240D01*
X173647731Y-110255334D01*
X173594386Y-110242895D01*
X173561214Y-110235161D01*
X173530891Y-110221421D01*
X173500569Y-110207683D01*
X173084743Y-109967605D01*
X172855984Y-109835531D01*
X172801860Y-109796747D01*
X172770619Y-109763390D01*
X172741133Y-109731909D01*
X172702233Y-109669352D01*
X172687315Y-109649912D01*
X172668892Y-109633755D01*
X172647670Y-109621503D01*
X172624466Y-109613627D01*
X172600172Y-109610429D01*
X172575720Y-109612032D01*
X172552050Y-109618374D01*
X172530073Y-109629212D01*
X172510633Y-109644130D01*
X172494476Y-109662553D01*
X172482224Y-109683775D01*
X172473485Y-109710977D01*
X172471607Y-109720421D01*
X172441377Y-109793401D01*
X172397491Y-109859081D01*
X172341641Y-109914931D01*
X172341638Y-109914933D01*
X172275961Y-109958817D01*
X172202983Y-109989046D01*
X172151335Y-109999319D01*
X172125512Y-110004456D01*
X172046520Y-110004456D01*
X172020697Y-109999319D01*
X171969049Y-109989046D01*
X171896071Y-109958817D01*
X171830394Y-109914933D01*
X171830391Y-109914931D01*
X171774541Y-109859081D01*
X171730655Y-109793401D01*
X171723608Y-109776389D01*
X171700426Y-109720423D01*
X171687704Y-109656466D01*
X171685016Y-109642952D01*
X171685016Y-109563960D01*
X171700426Y-109486491D01*
X171700426Y-109486489D01*
X171730655Y-109413511D01*
X171774539Y-109347834D01*
X171774541Y-109347831D01*
X171830391Y-109291981D01*
X171896071Y-109248095D01*
X171909359Y-109242591D01*
X171969049Y-109217866D01*
X172020697Y-109207593D01*
X172046520Y-109202456D01*
X172125512Y-109202456D01*
X172151335Y-109207593D01*
X172202983Y-109217866D01*
X172262673Y-109242591D01*
X172275961Y-109248095D01*
X172341641Y-109291981D01*
X172397491Y-109347831D01*
X172433973Y-109402430D01*
X172449519Y-109421372D01*
X172468461Y-109436918D01*
X172490072Y-109448469D01*
X172513521Y-109455582D01*
X172537907Y-109457984D01*
X172562293Y-109455582D01*
X172585742Y-109448469D01*
X172607353Y-109436918D01*
X172626295Y-109421372D01*
X172641841Y-109402430D01*
X172653392Y-109380819D01*
X172659640Y-109361373D01*
X172666194Y-109333265D01*
X172671534Y-109310361D01*
X172708200Y-109229436D01*
X172759944Y-109157226D01*
X172793494Y-109125804D01*
X172798799Y-109120835D01*
X172814955Y-109102414D01*
X172827207Y-109081193D01*
X172835084Y-109057989D01*
X172838283Y-109033694D01*
X172836681Y-109009243D01*
X172830339Y-108985573D01*
X172819501Y-108963596D01*
X172804584Y-108944155D01*
X172786161Y-108927998D01*
X172764940Y-108915746D01*
X172741736Y-108907869D01*
X172713350Y-108904603D01*
X172681520Y-108904603D01*
X172655697Y-108899466D01*
X172604049Y-108889193D01*
X172531071Y-108858964D01*
X172465394Y-108815080D01*
X172465391Y-108815078D01*
X172409541Y-108759228D01*
X172365655Y-108693548D01*
X172351007Y-108658185D01*
X172335426Y-108620570D01*
X172320016Y-108543098D01*
X172320016Y-108464108D01*
X172335426Y-108386636D01*
X172365655Y-108313658D01*
X172409539Y-108247981D01*
X172409541Y-108247978D01*
X172465391Y-108192128D01*
X172531071Y-108148242D01*
X172604049Y-108118013D01*
X172658566Y-108107169D01*
X172681520Y-108102603D01*
X172760512Y-108102603D01*
X172783466Y-108107169D01*
X172837983Y-108118013D01*
X172910961Y-108148242D01*
X172976641Y-108192128D01*
X173032491Y-108247978D01*
X173068973Y-108302577D01*
X173084519Y-108321519D01*
X173103461Y-108337065D01*
X173125072Y-108348616D01*
X173148521Y-108355729D01*
X173172907Y-108358131D01*
X173197293Y-108355729D01*
X173220742Y-108348616D01*
X173242353Y-108337065D01*
X173261295Y-108321519D01*
X173276841Y-108302577D01*
X173288392Y-108280966D01*
X173294640Y-108261521D01*
X173302423Y-108228140D01*
X173306534Y-108210508D01*
X173343200Y-108129584D01*
X173394944Y-108057374D01*
X173433798Y-108020985D01*
X173449955Y-108002562D01*
X173462207Y-107981341D01*
X173470084Y-107958137D01*
X173473283Y-107933842D01*
X173471681Y-107909391D01*
X173465339Y-107885721D01*
X173454501Y-107863744D01*
X173439584Y-107844303D01*
X173421161Y-107828146D01*
X173399940Y-107815894D01*
X173376736Y-107808017D01*
X173348350Y-107804751D01*
X173316520Y-107804751D01*
X173290697Y-107799614D01*
X173239049Y-107789341D01*
X173166071Y-107759112D01*
X173100394Y-107715228D01*
X173100391Y-107715226D01*
X173044541Y-107659376D01*
X173000655Y-107593696D01*
X172975185Y-107532206D01*
X172970426Y-107520718D01*
X172955016Y-107443246D01*
X172955016Y-107364256D01*
X172970426Y-107286784D01*
X173000655Y-107213806D01*
X173044539Y-107148129D01*
X173044541Y-107148126D01*
X173100391Y-107092276D01*
X173166071Y-107048390D01*
X173239049Y-107018161D01*
X173290697Y-107007888D01*
X173316520Y-107002751D01*
X173395512Y-107002751D01*
X173421335Y-107007888D01*
X173472983Y-107018161D01*
X173545961Y-107048390D01*
X173611641Y-107092276D01*
X173667491Y-107148126D01*
X173703973Y-107202725D01*
X173719519Y-107221667D01*
X173738461Y-107237213D01*
X173760072Y-107248764D01*
X173783521Y-107255877D01*
X173807907Y-107258279D01*
X173832293Y-107255877D01*
X173855742Y-107248764D01*
X173877353Y-107237213D01*
X173896295Y-107221667D01*
X173911841Y-107202725D01*
X173923392Y-107181114D01*
X173929640Y-107161669D01*
X173935119Y-107138170D01*
X173941534Y-107110656D01*
X173978200Y-107029732D01*
X174029944Y-106957522D01*
X174068798Y-106921133D01*
X174084955Y-106902710D01*
X174097207Y-106881489D01*
X174105084Y-106858285D01*
X174108283Y-106833990D01*
X174106681Y-106809539D01*
X174100339Y-106785869D01*
X174089501Y-106763892D01*
X174074584Y-106744451D01*
X174056161Y-106728294D01*
X174034940Y-106716042D01*
X174011736Y-106708165D01*
X173983350Y-106704899D01*
X173951520Y-106704899D01*
X173925697Y-106699762D01*
X173874049Y-106689489D01*
X173801071Y-106659260D01*
X173735394Y-106615376D01*
X173735391Y-106615374D01*
X173679541Y-106559524D01*
X173635655Y-106493844D01*
X173610185Y-106432354D01*
X173605426Y-106420866D01*
X173590016Y-106343394D01*
X173590016Y-106264404D01*
X173605426Y-106186932D01*
X173635655Y-106113954D01*
X173679539Y-106048277D01*
X173679541Y-106048274D01*
X173735391Y-105992424D01*
X173801071Y-105948538D01*
X173874049Y-105918309D01*
X173925697Y-105908036D01*
X173951520Y-105902899D01*
X174030512Y-105902899D01*
X174056335Y-105908036D01*
X174107983Y-105918309D01*
X174180961Y-105948538D01*
X174246641Y-105992424D01*
X174302491Y-106048274D01*
X174338973Y-106102873D01*
X174354519Y-106121815D01*
X174373461Y-106137361D01*
X174395072Y-106148912D01*
X174418521Y-106156025D01*
X174442907Y-106158427D01*
X174467293Y-106156025D01*
X174490742Y-106148912D01*
X174512353Y-106137361D01*
X174531295Y-106121815D01*
X174546841Y-106102873D01*
X174558392Y-106081262D01*
X174564640Y-106061817D01*
X174570119Y-106038318D01*
X174576534Y-106010804D01*
X174613200Y-105929880D01*
X174664944Y-105857670D01*
X174703799Y-105821280D01*
X174719956Y-105802857D01*
X174732208Y-105781636D01*
X174740085Y-105758432D01*
X174743284Y-105734137D01*
X174741682Y-105709686D01*
X174735340Y-105686016D01*
X174724502Y-105664039D01*
X174709585Y-105644598D01*
X174691162Y-105628441D01*
X174669941Y-105616189D01*
X174646737Y-105608312D01*
X174618351Y-105605046D01*
X174586520Y-105605046D01*
X174560697Y-105599909D01*
X174509049Y-105589636D01*
X174436071Y-105559407D01*
X174370394Y-105515523D01*
X174370391Y-105515521D01*
X174314541Y-105459671D01*
X174270655Y-105393991D01*
X174240426Y-105321013D01*
X174225016Y-105243541D01*
X174225016Y-105164551D01*
X174240426Y-105087079D01*
X174270655Y-105014101D01*
X174314539Y-104948424D01*
X174314541Y-104948421D01*
X174370391Y-104892571D01*
X174436071Y-104848685D01*
X174509049Y-104818456D01*
X174560697Y-104808183D01*
X174586520Y-104803046D01*
X174665512Y-104803046D01*
X174691335Y-104808183D01*
X174691335Y-104808183D01*
G37*
G36*
X158278166Y-108600644D02*
X158317605Y-108612608D01*
X158353952Y-108632036D01*
X158385815Y-108658185D01*
X158411964Y-108690048D01*
X158431392Y-108726395D01*
X158443356Y-108765834D01*
X158448000Y-108812991D01*
X158448000Y-109881009D01*
X158443356Y-109928166D01*
X158431392Y-109967605D01*
X158411964Y-110003952D01*
X158385815Y-110035815D01*
X158353952Y-110061964D01*
X158317605Y-110081392D01*
X158278166Y-110093356D01*
X158231009Y-110098000D01*
X157537991Y-110098000D01*
X157490834Y-110093356D01*
X157451395Y-110081392D01*
X157415048Y-110061964D01*
X157383185Y-110035815D01*
X157357036Y-110003952D01*
X157337608Y-109967605D01*
X157325644Y-109928166D01*
X157321000Y-109881009D01*
X157321000Y-108812991D01*
X157325644Y-108765834D01*
X157337608Y-108726395D01*
X157357036Y-108690048D01*
X157383185Y-108658185D01*
X157415048Y-108632036D01*
X157451395Y-108612608D01*
X157490834Y-108600644D01*
X157537991Y-108596000D01*
X158231009Y-108596000D01*
X158278166Y-108600644D01*
X158278166Y-108600644D01*
G37*
G36*
X156453166Y-108600644D02*
X156492605Y-108612608D01*
X156528952Y-108632036D01*
X156560815Y-108658185D01*
X156586964Y-108690048D01*
X156606392Y-108726395D01*
X156618356Y-108765834D01*
X156623000Y-108812991D01*
X156623000Y-109881009D01*
X156618356Y-109928166D01*
X156606392Y-109967605D01*
X156586964Y-110003952D01*
X156560815Y-110035815D01*
X156528952Y-110061964D01*
X156492605Y-110081392D01*
X156453166Y-110093356D01*
X156406009Y-110098000D01*
X155712991Y-110098000D01*
X155665834Y-110093356D01*
X155626395Y-110081392D01*
X155590048Y-110061964D01*
X155558185Y-110035815D01*
X155532036Y-110003952D01*
X155512608Y-109967605D01*
X155500644Y-109928166D01*
X155496000Y-109881009D01*
X155496000Y-108812991D01*
X155500644Y-108765834D01*
X155512608Y-108726395D01*
X155532036Y-108690048D01*
X155558185Y-108658185D01*
X155590048Y-108632036D01*
X155626395Y-108612608D01*
X155665834Y-108600644D01*
X155712991Y-108596000D01*
X156406009Y-108596000D01*
X156453166Y-108600644D01*
X156453166Y-108600644D01*
G37*
G36*
X152119591Y-107125891D02*
X152229791Y-107159320D01*
X152331337Y-107213597D01*
X152420351Y-107286649D01*
X152493403Y-107375663D01*
X152547680Y-107477209D01*
X152581109Y-107587409D01*
X152593000Y-107708140D01*
X152593000Y-109121860D01*
X152581109Y-109242591D01*
X152547680Y-109352791D01*
X152493403Y-109454337D01*
X152420351Y-109543351D01*
X152331337Y-109616403D01*
X152229791Y-109670680D01*
X152119591Y-109704109D01*
X151998860Y-109716000D01*
X150585140Y-109716000D01*
X150464409Y-109704109D01*
X150354209Y-109670680D01*
X150252663Y-109616403D01*
X150163649Y-109543351D01*
X150090597Y-109454337D01*
X150036320Y-109352791D01*
X150002891Y-109242591D01*
X149991000Y-109121860D01*
X149991000Y-107708140D01*
X150002891Y-107587409D01*
X150036320Y-107477209D01*
X150090597Y-107375663D01*
X150163649Y-107286649D01*
X150252663Y-107213597D01*
X150354209Y-107159320D01*
X150464409Y-107125891D01*
X150585140Y-107114000D01*
X151998860Y-107114000D01*
X152119591Y-107125891D01*
X152119591Y-107125891D01*
G37*
G36*
X140619591Y-107125891D02*
X140729791Y-107159320D01*
X140831337Y-107213597D01*
X140920351Y-107286649D01*
X140993403Y-107375663D01*
X141047680Y-107477209D01*
X141081109Y-107587409D01*
X141093000Y-107708140D01*
X141093000Y-109121860D01*
X141081109Y-109242591D01*
X141047680Y-109352791D01*
X140993403Y-109454337D01*
X140920351Y-109543351D01*
X140831337Y-109616403D01*
X140729791Y-109670680D01*
X140619591Y-109704109D01*
X140498860Y-109716000D01*
X139085140Y-109716000D01*
X138964409Y-109704109D01*
X138854209Y-109670680D01*
X138752663Y-109616403D01*
X138663649Y-109543351D01*
X138590597Y-109454337D01*
X138536320Y-109352791D01*
X138502891Y-109242591D01*
X138491000Y-109121860D01*
X138491000Y-107708140D01*
X138502891Y-107587409D01*
X138536320Y-107477209D01*
X138590597Y-107375663D01*
X138663649Y-107286649D01*
X138752663Y-107213597D01*
X138854209Y-107159320D01*
X138964409Y-107125891D01*
X139085140Y-107114000D01*
X140498860Y-107114000D01*
X140619591Y-107125891D01*
X140619591Y-107125891D01*
G37*
G36*
X170239433Y-107813686D02*
X170279281Y-107825774D01*
X170316001Y-107845401D01*
X170348186Y-107871814D01*
X170374599Y-107903999D01*
X170394226Y-107940719D01*
X170406314Y-107980567D01*
X170411000Y-108028141D01*
X170411000Y-109141859D01*
X170406314Y-109189433D01*
X170394226Y-109229281D01*
X170374599Y-109266001D01*
X170348186Y-109298186D01*
X170316001Y-109324599D01*
X170279281Y-109344226D01*
X170239433Y-109356314D01*
X170191859Y-109361000D01*
X169528141Y-109361000D01*
X169480567Y-109356314D01*
X169440719Y-109344226D01*
X169403999Y-109324599D01*
X169371814Y-109298186D01*
X169345401Y-109266001D01*
X169325774Y-109229281D01*
X169313686Y-109189433D01*
X169309000Y-109141859D01*
X169309000Y-108028141D01*
X169313686Y-107980567D01*
X169325774Y-107940719D01*
X169345401Y-107903999D01*
X169371814Y-107871814D01*
X169403999Y-107845401D01*
X169440719Y-107825774D01*
X169480567Y-107813686D01*
X169528141Y-107809000D01*
X170191859Y-107809000D01*
X170239433Y-107813686D01*
X170239433Y-107813686D01*
G37*
G36*
X168339433Y-107813686D02*
X168379281Y-107825774D01*
X168416001Y-107845401D01*
X168448186Y-107871814D01*
X168474599Y-107903999D01*
X168494226Y-107940719D01*
X168506314Y-107980567D01*
X168511000Y-108028141D01*
X168511000Y-109141859D01*
X168506314Y-109189433D01*
X168494226Y-109229281D01*
X168474599Y-109266001D01*
X168448186Y-109298186D01*
X168416001Y-109324599D01*
X168379281Y-109344226D01*
X168339433Y-109356314D01*
X168291859Y-109361000D01*
X167628141Y-109361000D01*
X167580567Y-109356314D01*
X167540719Y-109344226D01*
X167503999Y-109324599D01*
X167471814Y-109298186D01*
X167445401Y-109266001D01*
X167425774Y-109229281D01*
X167413686Y-109189433D01*
X167409000Y-109141859D01*
X167409000Y-108028141D01*
X167413686Y-107980567D01*
X167425774Y-107940719D01*
X167445401Y-107903999D01*
X167471814Y-107871814D01*
X167503999Y-107845401D01*
X167540719Y-107825774D01*
X167580567Y-107813686D01*
X167628141Y-107809000D01*
X168291859Y-107809000D01*
X168339433Y-107813686D01*
X168339433Y-107813686D01*
G37*
G36*
X137010000Y-109351000D02*
X136008000Y-109351000D01*
X136008000Y-108449000D01*
X137010000Y-108449000D01*
X137010000Y-109351000D01*
X137010000Y-109351000D01*
G37*
G36*
X166224560Y-108063205D02*
X166259711Y-108073869D01*
X166292109Y-108091186D01*
X166320508Y-108114492D01*
X166343814Y-108142891D01*
X166361131Y-108175289D01*
X166371795Y-108210440D01*
X166376000Y-108253140D01*
X166376000Y-108916860D01*
X166371795Y-108959560D01*
X166361131Y-108994711D01*
X166343814Y-109027109D01*
X166320508Y-109055508D01*
X166292109Y-109078814D01*
X166259711Y-109096131D01*
X166224560Y-109106795D01*
X166181860Y-109111000D01*
X165568140Y-109111000D01*
X165525440Y-109106795D01*
X165490289Y-109096131D01*
X165457891Y-109078814D01*
X165429492Y-109055508D01*
X165406186Y-109027109D01*
X165388869Y-108994711D01*
X165378205Y-108959560D01*
X165374000Y-108916860D01*
X165374000Y-108253140D01*
X165378205Y-108210440D01*
X165388869Y-108175289D01*
X165406186Y-108142891D01*
X165429492Y-108114492D01*
X165457891Y-108091186D01*
X165490289Y-108073869D01*
X165525440Y-108063205D01*
X165568140Y-108059000D01*
X166181860Y-108059000D01*
X166224560Y-108063205D01*
X166224560Y-108063205D01*
G37*
G36*
X163196683Y-108062725D02*
X163227144Y-108071966D01*
X163255223Y-108086975D01*
X163279831Y-108107169D01*
X163300025Y-108131777D01*
X163315034Y-108159856D01*
X163324275Y-108190317D01*
X163328000Y-108228140D01*
X163328000Y-108941860D01*
X163324275Y-108979683D01*
X163315034Y-109010144D01*
X163300025Y-109038223D01*
X163279831Y-109062831D01*
X163255223Y-109083025D01*
X163227144Y-109098034D01*
X163196683Y-109107275D01*
X163158860Y-109111000D01*
X162595140Y-109111000D01*
X162557317Y-109107275D01*
X162526856Y-109098034D01*
X162498777Y-109083025D01*
X162474169Y-109062831D01*
X162453975Y-109038223D01*
X162438966Y-109010144D01*
X162429725Y-108979683D01*
X162426000Y-108941860D01*
X162426000Y-108228140D01*
X162429725Y-108190317D01*
X162438966Y-108159856D01*
X162453975Y-108131777D01*
X162474169Y-108107169D01*
X162498777Y-108086975D01*
X162526856Y-108071966D01*
X162557317Y-108062725D01*
X162595140Y-108059000D01*
X163158860Y-108059000D01*
X163196683Y-108062725D01*
X163196683Y-108062725D01*
G37*
G36*
X161546683Y-108062725D02*
X161577144Y-108071966D01*
X161605223Y-108086975D01*
X161629831Y-108107169D01*
X161650025Y-108131777D01*
X161665034Y-108159856D01*
X161674275Y-108190317D01*
X161678000Y-108228140D01*
X161678000Y-108941860D01*
X161674275Y-108979683D01*
X161665034Y-109010144D01*
X161650025Y-109038223D01*
X161629831Y-109062831D01*
X161605223Y-109083025D01*
X161577144Y-109098034D01*
X161546683Y-109107275D01*
X161508860Y-109111000D01*
X160945140Y-109111000D01*
X160907317Y-109107275D01*
X160876856Y-109098034D01*
X160848777Y-109083025D01*
X160824169Y-109062831D01*
X160803975Y-109038223D01*
X160788966Y-109010144D01*
X160779725Y-108979683D01*
X160776000Y-108941860D01*
X160776000Y-108228140D01*
X160779725Y-108190317D01*
X160788966Y-108159856D01*
X160803975Y-108131777D01*
X160824169Y-108107169D01*
X160848777Y-108086975D01*
X160876856Y-108071966D01*
X160907317Y-108062725D01*
X160945140Y-108059000D01*
X161508860Y-108059000D01*
X161546683Y-108062725D01*
X161546683Y-108062725D01*
G37*
G36*
X164674560Y-108063205D02*
X164709711Y-108073869D01*
X164742109Y-108091186D01*
X164770508Y-108114492D01*
X164793814Y-108142891D01*
X164811131Y-108175289D01*
X164821795Y-108210440D01*
X164826000Y-108253140D01*
X164826000Y-108916860D01*
X164821795Y-108959560D01*
X164811131Y-108994711D01*
X164793814Y-109027109D01*
X164770508Y-109055508D01*
X164742109Y-109078814D01*
X164709711Y-109096131D01*
X164674560Y-109106795D01*
X164631860Y-109111000D01*
X164018140Y-109111000D01*
X163975440Y-109106795D01*
X163940289Y-109096131D01*
X163907891Y-109078814D01*
X163879492Y-109055508D01*
X163856186Y-109027109D01*
X163838869Y-108994711D01*
X163828205Y-108959560D01*
X163824000Y-108916860D01*
X163824000Y-108253140D01*
X163828205Y-108210440D01*
X163838869Y-108175289D01*
X163856186Y-108142891D01*
X163879492Y-108114492D01*
X163907891Y-108091186D01*
X163940289Y-108073869D01*
X163975440Y-108063205D01*
X164018140Y-108059000D01*
X164631860Y-108059000D01*
X164674560Y-108063205D01*
X164674560Y-108063205D01*
G37*
G36*
X135010000Y-108401000D02*
X134008000Y-108401000D01*
X134008000Y-107499000D01*
X135010000Y-107499000D01*
X135010000Y-108401000D01*
X135010000Y-108401000D01*
G37*
G36*
X156427000Y-107789000D02*
X155225000Y-107789000D01*
X155225000Y-106587000D01*
X156427000Y-106587000D01*
X156427000Y-107789000D01*
X156427000Y-107789000D01*
G37*
G36*
X159227000Y-107789000D02*
X158025000Y-107789000D01*
X158025000Y-106587000D01*
X159227000Y-106587000D01*
X159227000Y-107789000D01*
X159227000Y-107789000D01*
G37*
G36*
X137010000Y-107451000D02*
X136008000Y-107451000D01*
X136008000Y-106549000D01*
X137010000Y-106549000D01*
X137010000Y-107451000D01*
X137010000Y-107451000D01*
G37*
G36*
X162689000Y-107115000D02*
X161987000Y-107115000D01*
X161987000Y-106113000D01*
X162689000Y-106113000D01*
X162689000Y-107115000D01*
X162689000Y-107115000D01*
G37*
G36*
X164689000Y-107115000D02*
X163987000Y-107115000D01*
X163987000Y-106113000D01*
X164689000Y-106113000D01*
X164689000Y-107115000D01*
X164689000Y-107115000D01*
G37*
G36*
X161689000Y-107115000D02*
X160987000Y-107115000D01*
X160987000Y-106113000D01*
X161689000Y-106113000D01*
X161689000Y-107115000D01*
X161689000Y-107115000D01*
G37*
G36*
X163689000Y-107115000D02*
X162987000Y-107115000D01*
X162987000Y-106113000D01*
X163689000Y-106113000D01*
X163689000Y-107115000D01*
X163689000Y-107115000D01*
G37*
G36*
X133642001Y-107073000D02*
X132240001Y-107073000D01*
X132240001Y-105271000D01*
X133642001Y-105271000D01*
X133642001Y-107073000D01*
X133642001Y-107073000D01*
G37*
G36*
X130142001Y-107073000D02*
X128740001Y-107073000D01*
X128740001Y-105271000D01*
X130142001Y-105271000D01*
X130142001Y-107073000D01*
X130142001Y-107073000D01*
G37*
G36*
X144519000Y-106318000D02*
X143517000Y-106318000D01*
X143517000Y-104216000D01*
X144519000Y-104216000D01*
X144519000Y-106318000D01*
X144519000Y-106318000D01*
G37*
G36*
X150869000Y-106318000D02*
X149867000Y-106318000D01*
X149867000Y-104216000D01*
X150869000Y-104216000D01*
X150869000Y-106318000D01*
X150869000Y-106318000D01*
G37*
G36*
X152139000Y-106318000D02*
X151137000Y-106318000D01*
X151137000Y-104216000D01*
X152139000Y-104216000D01*
X152139000Y-106318000D01*
X152139000Y-106318000D01*
G37*
G36*
X148329000Y-106318000D02*
X147327000Y-106318000D01*
X147327000Y-104216000D01*
X148329000Y-104216000D01*
X148329000Y-106318000D01*
X148329000Y-106318000D01*
G37*
G36*
X147059000Y-106318000D02*
X146057000Y-106318000D01*
X146057000Y-104216000D01*
X147059000Y-104216000D01*
X147059000Y-106318000D01*
X147059000Y-106318000D01*
G37*
G36*
X145789000Y-106318000D02*
X144787000Y-106318000D01*
X144787000Y-104216000D01*
X145789000Y-104216000D01*
X145789000Y-106318000D01*
X145789000Y-106318000D01*
G37*
G36*
X149599000Y-106318000D02*
X148597000Y-106318000D01*
X148597000Y-104216000D01*
X149599000Y-104216000D01*
X149599000Y-106318000D01*
X149599000Y-106318000D01*
G37*
G36*
X154679000Y-106318000D02*
X153677000Y-106318000D01*
X153677000Y-104216000D01*
X154679000Y-104216000D01*
X154679000Y-106318000D01*
X154679000Y-106318000D01*
G37*
G36*
X153409000Y-106318000D02*
X152407000Y-106318000D01*
X152407000Y-104216000D01*
X153409000Y-104216000D01*
X153409000Y-106318000D01*
X153409000Y-106318000D01*
G37*
G36*
X143249000Y-106318000D02*
X142247000Y-106318000D01*
X142247000Y-104216000D01*
X143249000Y-104216000D01*
X143249000Y-106318000D01*
X143249000Y-106318000D01*
G37*
G36*
X169811000Y-106057000D02*
X168009000Y-106057000D01*
X168009000Y-104255000D01*
X169811000Y-104255000D01*
X169811000Y-106057000D01*
X169811000Y-106057000D01*
G37*
G36*
X137010000Y-105922000D02*
X136008000Y-105922000D01*
X136008000Y-105020000D01*
X137010000Y-105020000D01*
X137010000Y-105922000D01*
X137010000Y-105922000D01*
G37*
G36*
X164689000Y-105215000D02*
X163987000Y-105215000D01*
X163987000Y-104213000D01*
X164689000Y-104213000D01*
X164689000Y-105215000D01*
X164689000Y-105215000D01*
G37*
G36*
X161689000Y-105215000D02*
X160987000Y-105215000D01*
X160987000Y-104213000D01*
X161689000Y-104213000D01*
X161689000Y-105215000D01*
X161689000Y-105215000D01*
G37*
G36*
X162689000Y-105215000D02*
X161987000Y-105215000D01*
X161987000Y-104213000D01*
X162689000Y-104213000D01*
X162689000Y-105215000D01*
X162689000Y-105215000D01*
G37*
G36*
X163689000Y-105215000D02*
X162987000Y-105215000D01*
X162987000Y-104213000D01*
X163689000Y-104213000D01*
X163689000Y-105215000D01*
X163689000Y-105215000D01*
G37*
G36*
X135010000Y-104972000D02*
X134008000Y-104972000D01*
X134008000Y-104070000D01*
X135010000Y-104070000D01*
X135010000Y-104972000D01*
X135010000Y-104972000D01*
G37*
G36*
X141014000Y-104768000D02*
X138912000Y-104768000D01*
X138912000Y-103766000D01*
X141014000Y-103766000D01*
X141014000Y-104768000D01*
X141014000Y-104768000D01*
G37*
G36*
X158014000Y-104768000D02*
X155912000Y-104768000D01*
X155912000Y-103766000D01*
X158014000Y-103766000D01*
X158014000Y-104768000D01*
X158014000Y-104768000D01*
G37*
G36*
X137010000Y-104022000D02*
X136008000Y-104022000D01*
X136008000Y-103120000D01*
X137010000Y-103120000D01*
X137010000Y-104022000D01*
X137010000Y-104022000D01*
G37*
G36*
X133515001Y-103771001D02*
X132113001Y-103771001D01*
X132113001Y-101969001D01*
X133515001Y-101969001D01*
X133515001Y-103771001D01*
X133515001Y-103771001D01*
G37*
G36*
X130015001Y-103771001D02*
X128613001Y-103771001D01*
X128613001Y-101969001D01*
X130015001Y-101969001D01*
X130015001Y-103771001D01*
X130015001Y-103771001D01*
G37*
G36*
X169020443Y-101721519D02*
X169086627Y-101728037D01*
X169199853Y-101762384D01*
X169256467Y-101779557D01*
X169340812Y-101824641D01*
X169412991Y-101863222D01*
X169413734Y-101863832D01*
X169550186Y-101975814D01*
X169630902Y-102074168D01*
X169662778Y-102113009D01*
X169662779Y-102113011D01*
X169746443Y-102269533D01*
X169746443Y-102269534D01*
X169797963Y-102439373D01*
X169815359Y-102616000D01*
X169797963Y-102792627D01*
X169763616Y-102905853D01*
X169746443Y-102962467D01*
X169691276Y-103065676D01*
X169662778Y-103118991D01*
X169633448Y-103154729D01*
X169550186Y-103256186D01*
X169448729Y-103339448D01*
X169412991Y-103368778D01*
X169412989Y-103368779D01*
X169256467Y-103452443D01*
X169199853Y-103469616D01*
X169086627Y-103503963D01*
X169020443Y-103510481D01*
X168954260Y-103517000D01*
X168865740Y-103517000D01*
X168799558Y-103510482D01*
X168733373Y-103503963D01*
X168620147Y-103469616D01*
X168563533Y-103452443D01*
X168407011Y-103368779D01*
X168407009Y-103368778D01*
X168371271Y-103339448D01*
X168269814Y-103256186D01*
X168186552Y-103154729D01*
X168157222Y-103118991D01*
X168128724Y-103065676D01*
X168073557Y-102962467D01*
X168056384Y-102905853D01*
X168022037Y-102792627D01*
X168004641Y-102616000D01*
X168022037Y-102439373D01*
X168073557Y-102269534D01*
X168073557Y-102269533D01*
X168157221Y-102113011D01*
X168157222Y-102113009D01*
X168189098Y-102074168D01*
X168269814Y-101975814D01*
X168406266Y-101863832D01*
X168407009Y-101863222D01*
X168479188Y-101824641D01*
X168563533Y-101779557D01*
X168620147Y-101762384D01*
X168733373Y-101728037D01*
X168799558Y-101721518D01*
X168865740Y-101715000D01*
X168954260Y-101715000D01*
X169020443Y-101721519D01*
X169020443Y-101721519D01*
G37*
G36*
X141014000Y-103498000D02*
X138912000Y-103498000D01*
X138912000Y-102496000D01*
X141014000Y-102496000D01*
X141014000Y-103498000D01*
X141014000Y-103498000D01*
G37*
G36*
X158014000Y-103498000D02*
X155912000Y-103498000D01*
X155912000Y-102496000D01*
X158014000Y-102496000D01*
X158014000Y-103498000D01*
X158014000Y-103498000D01*
G37*
G36*
X162219357Y-99319083D02*
X162224028Y-99320500D01*
X162228330Y-99322800D01*
X162234705Y-99328031D01*
X162255080Y-99341644D01*
X162277719Y-99351020D01*
X162301753Y-99355800D01*
X162326257Y-99355799D01*
X162350291Y-99351017D01*
X162372929Y-99341639D01*
X162393295Y-99328031D01*
X162399670Y-99322800D01*
X162403972Y-99320500D01*
X162408643Y-99319083D01*
X162419641Y-99318000D01*
X162708359Y-99318000D01*
X162719357Y-99319083D01*
X162724028Y-99320500D01*
X162728330Y-99322800D01*
X162734705Y-99328031D01*
X162755080Y-99341644D01*
X162777719Y-99351020D01*
X162801753Y-99355800D01*
X162826257Y-99355799D01*
X162850291Y-99351017D01*
X162872929Y-99341639D01*
X162893295Y-99328031D01*
X162899670Y-99322800D01*
X162903972Y-99320500D01*
X162908643Y-99319083D01*
X162919641Y-99318000D01*
X163208359Y-99318000D01*
X163219357Y-99319083D01*
X163224028Y-99320500D01*
X163228330Y-99322800D01*
X163234705Y-99328031D01*
X163255080Y-99341644D01*
X163277719Y-99351020D01*
X163301753Y-99355800D01*
X163326257Y-99355799D01*
X163350291Y-99351017D01*
X163372929Y-99341639D01*
X163393295Y-99328031D01*
X163399670Y-99322800D01*
X163403972Y-99320500D01*
X163408643Y-99319083D01*
X163419641Y-99318000D01*
X163708359Y-99318000D01*
X163719357Y-99319083D01*
X163724028Y-99320500D01*
X163728330Y-99322800D01*
X163732104Y-99325896D01*
X163735200Y-99329670D01*
X163737500Y-99333972D01*
X163738917Y-99338643D01*
X163740000Y-99349641D01*
X163740000Y-100063356D01*
X163738287Y-100080745D01*
X163738287Y-100105250D01*
X163743067Y-100129283D01*
X163752444Y-100151922D01*
X163766057Y-100172297D01*
X163783384Y-100189625D01*
X163803758Y-100203239D01*
X163822325Y-100210930D01*
X163824515Y-100218150D01*
X163836066Y-100239761D01*
X163851612Y-100258703D01*
X163870554Y-100274249D01*
X163892165Y-100285800D01*
X163915614Y-100292913D01*
X163940000Y-100295315D01*
X163952255Y-100294713D01*
X163969644Y-100293000D01*
X164683359Y-100293000D01*
X164694357Y-100294083D01*
X164699028Y-100295500D01*
X164703330Y-100297800D01*
X164707104Y-100300896D01*
X164710200Y-100304670D01*
X164712500Y-100308972D01*
X164713917Y-100313643D01*
X164715000Y-100324641D01*
X164715000Y-100613359D01*
X164713917Y-100624357D01*
X164712500Y-100629028D01*
X164710200Y-100633330D01*
X164704969Y-100639705D01*
X164691356Y-100660080D01*
X164681980Y-100682719D01*
X164677200Y-100706753D01*
X164677201Y-100731257D01*
X164681983Y-100755291D01*
X164691361Y-100777929D01*
X164704969Y-100798295D01*
X164710200Y-100804670D01*
X164712500Y-100808972D01*
X164713917Y-100813643D01*
X164715000Y-100824641D01*
X164715000Y-101113359D01*
X164713917Y-101124357D01*
X164712500Y-101129028D01*
X164710200Y-101133330D01*
X164704969Y-101139705D01*
X164691356Y-101160080D01*
X164681980Y-101182719D01*
X164677200Y-101206753D01*
X164677201Y-101231257D01*
X164681983Y-101255291D01*
X164691361Y-101277929D01*
X164704969Y-101298295D01*
X164710200Y-101304670D01*
X164712500Y-101308972D01*
X164713917Y-101313643D01*
X164715000Y-101324641D01*
X164715000Y-101613359D01*
X164713917Y-101624357D01*
X164712500Y-101629028D01*
X164710200Y-101633330D01*
X164704969Y-101639705D01*
X164691356Y-101660080D01*
X164681980Y-101682719D01*
X164677200Y-101706753D01*
X164677201Y-101731257D01*
X164681983Y-101755291D01*
X164691361Y-101777929D01*
X164704969Y-101798295D01*
X164710200Y-101804670D01*
X164712500Y-101808972D01*
X164713917Y-101813643D01*
X164715000Y-101824641D01*
X164715000Y-102113359D01*
X164713917Y-102124357D01*
X164712500Y-102129028D01*
X164710200Y-102133330D01*
X164707104Y-102137104D01*
X164703330Y-102140200D01*
X164699028Y-102142500D01*
X164694357Y-102143917D01*
X164683359Y-102145000D01*
X163969644Y-102145000D01*
X163952255Y-102143287D01*
X163927750Y-102143287D01*
X163903717Y-102148067D01*
X163881078Y-102157444D01*
X163860703Y-102171057D01*
X163843375Y-102188384D01*
X163829761Y-102208758D01*
X163822070Y-102227325D01*
X163814850Y-102229515D01*
X163793239Y-102241066D01*
X163774297Y-102256612D01*
X163758751Y-102275554D01*
X163747200Y-102297165D01*
X163740087Y-102320614D01*
X163737685Y-102345000D01*
X163738287Y-102357255D01*
X163740000Y-102374644D01*
X163740000Y-103088359D01*
X163738917Y-103099357D01*
X163737500Y-103104028D01*
X163735200Y-103108330D01*
X163732104Y-103112104D01*
X163728330Y-103115200D01*
X163724028Y-103117500D01*
X163719357Y-103118917D01*
X163708359Y-103120000D01*
X163419641Y-103120000D01*
X163408643Y-103118917D01*
X163403972Y-103117500D01*
X163399670Y-103115200D01*
X163393295Y-103109969D01*
X163372920Y-103096356D01*
X163350281Y-103086980D01*
X163326247Y-103082200D01*
X163301743Y-103082201D01*
X163277709Y-103086983D01*
X163255071Y-103096361D01*
X163234705Y-103109969D01*
X163228330Y-103115200D01*
X163224028Y-103117500D01*
X163219357Y-103118917D01*
X163208359Y-103120000D01*
X162919641Y-103120000D01*
X162908643Y-103118917D01*
X162903972Y-103117500D01*
X162899670Y-103115200D01*
X162893295Y-103109969D01*
X162872920Y-103096356D01*
X162850281Y-103086980D01*
X162826247Y-103082200D01*
X162801743Y-103082201D01*
X162777709Y-103086983D01*
X162755071Y-103096361D01*
X162734705Y-103109969D01*
X162728330Y-103115200D01*
X162724028Y-103117500D01*
X162719357Y-103118917D01*
X162708359Y-103120000D01*
X162419641Y-103120000D01*
X162408643Y-103118917D01*
X162403972Y-103117500D01*
X162399670Y-103115200D01*
X162393295Y-103109969D01*
X162372920Y-103096356D01*
X162350281Y-103086980D01*
X162326247Y-103082200D01*
X162301743Y-103082201D01*
X162277709Y-103086983D01*
X162255071Y-103096361D01*
X162234705Y-103109969D01*
X162228330Y-103115200D01*
X162224028Y-103117500D01*
X162219357Y-103118917D01*
X162208359Y-103120000D01*
X161919641Y-103120000D01*
X161908643Y-103118917D01*
X161903972Y-103117500D01*
X161899670Y-103115200D01*
X161895896Y-103112104D01*
X161892800Y-103108330D01*
X161890500Y-103104028D01*
X161889083Y-103099357D01*
X161888000Y-103088359D01*
X161888000Y-102374644D01*
X161889713Y-102357255D01*
X161889713Y-102332750D01*
X161884933Y-102308717D01*
X161875556Y-102286078D01*
X161861943Y-102265703D01*
X161844616Y-102248375D01*
X161824242Y-102234761D01*
X161805675Y-102227070D01*
X161803485Y-102219850D01*
X161791934Y-102198239D01*
X161776388Y-102179297D01*
X161757446Y-102163751D01*
X161735835Y-102152200D01*
X161712386Y-102145087D01*
X161688000Y-102142685D01*
X161675745Y-102143287D01*
X161658356Y-102145000D01*
X160944641Y-102145000D01*
X160933643Y-102143917D01*
X160928972Y-102142500D01*
X160924670Y-102140200D01*
X160920896Y-102137104D01*
X160917800Y-102133330D01*
X160915500Y-102129028D01*
X160914083Y-102124357D01*
X160913000Y-102113359D01*
X160913000Y-101824641D01*
X160914083Y-101813643D01*
X160915500Y-101808972D01*
X160917800Y-101804670D01*
X160923031Y-101798295D01*
X160936644Y-101777920D01*
X160946020Y-101755281D01*
X160950800Y-101731247D01*
X160950799Y-101706743D01*
X160946017Y-101682709D01*
X160936639Y-101660071D01*
X160923031Y-101639705D01*
X160917800Y-101633330D01*
X160915500Y-101629028D01*
X160914083Y-101624357D01*
X160913000Y-101613359D01*
X160913000Y-101324641D01*
X160914083Y-101313643D01*
X160915500Y-101308972D01*
X160917800Y-101304670D01*
X160923031Y-101298295D01*
X160936644Y-101277920D01*
X160946020Y-101255281D01*
X160950800Y-101231247D01*
X160950799Y-101206743D01*
X160946017Y-101182709D01*
X160936639Y-101160071D01*
X160923031Y-101139705D01*
X160917800Y-101133330D01*
X160915500Y-101129028D01*
X160914083Y-101124357D01*
X160913000Y-101113359D01*
X160913000Y-100824641D01*
X160914083Y-100813643D01*
X160915500Y-100808972D01*
X160917800Y-100804670D01*
X160923031Y-100798295D01*
X160936644Y-100777920D01*
X160946020Y-100755281D01*
X160950800Y-100731247D01*
X160950799Y-100706743D01*
X160946017Y-100682709D01*
X160936639Y-100660071D01*
X160923031Y-100639705D01*
X160917800Y-100633330D01*
X160915500Y-100629028D01*
X160914083Y-100624357D01*
X160913000Y-100613359D01*
X160913000Y-100324641D01*
X160914083Y-100313643D01*
X160915500Y-100308972D01*
X160917800Y-100304670D01*
X160920896Y-100300896D01*
X160924670Y-100297800D01*
X160928972Y-100295500D01*
X160933643Y-100294083D01*
X160944641Y-100293000D01*
X161658356Y-100293000D01*
X161675745Y-100294713D01*
X161700250Y-100294713D01*
X161724283Y-100289933D01*
X161746922Y-100280556D01*
X161767297Y-100266943D01*
X161784625Y-100249616D01*
X161798239Y-100229242D01*
X161805930Y-100210675D01*
X161813150Y-100208485D01*
X161834761Y-100196934D01*
X161853703Y-100181388D01*
X161869249Y-100162446D01*
X161880800Y-100140835D01*
X161887913Y-100117386D01*
X161890315Y-100093000D01*
X161889713Y-100080745D01*
X161888000Y-100063356D01*
X161888000Y-99349641D01*
X161889083Y-99338643D01*
X161890500Y-99333972D01*
X161892800Y-99329670D01*
X161895896Y-99325896D01*
X161899670Y-99322800D01*
X161903972Y-99320500D01*
X161908643Y-99319083D01*
X161919641Y-99318000D01*
X162208359Y-99318000D01*
X162219357Y-99319083D01*
X162219357Y-99319083D01*
G37*
G36*
X137010000Y-102493000D02*
X136008000Y-102493000D01*
X136008000Y-101591000D01*
X137010000Y-101591000D01*
X137010000Y-102493000D01*
X137010000Y-102493000D01*
G37*
G36*
X158014000Y-102228000D02*
X155912000Y-102228000D01*
X155912000Y-101226000D01*
X158014000Y-101226000D01*
X158014000Y-102228000D01*
X158014000Y-102228000D01*
G37*
G36*
X141014000Y-102228000D02*
X138912000Y-102228000D01*
X138912000Y-101226000D01*
X141014000Y-101226000D01*
X141014000Y-102228000D01*
X141014000Y-102228000D01*
G37*
G36*
X135010000Y-101543000D02*
X134008000Y-101543000D01*
X134008000Y-100641000D01*
X135010000Y-100641000D01*
X135010000Y-101543000D01*
X135010000Y-101543000D01*
G37*
G36*
X141014000Y-100958000D02*
X138912000Y-100958000D01*
X138912000Y-99956000D01*
X141014000Y-99956000D01*
X141014000Y-100958000D01*
X141014000Y-100958000D01*
G37*
G36*
X158014000Y-100958000D02*
X155912000Y-100958000D01*
X155912000Y-99956000D01*
X158014000Y-99956000D01*
X158014000Y-100958000D01*
X158014000Y-100958000D01*
G37*
G36*
X137010000Y-100593000D02*
X136008000Y-100593000D01*
X136008000Y-99691000D01*
X137010000Y-99691000D01*
X137010000Y-100593000D01*
X137010000Y-100593000D01*
G37*
G36*
X170140789Y-99389789D02*
X168580211Y-100290789D01*
X167679211Y-98730211D01*
X169239789Y-97829211D01*
X170140789Y-99389789D01*
X170140789Y-99389789D01*
G37*
G36*
X127999442Y-98328336D02*
X128065627Y-98334855D01*
X128178853Y-98369202D01*
X128235467Y-98386375D01*
X128294632Y-98418000D01*
X128391991Y-98470040D01*
X128427729Y-98499370D01*
X128529186Y-98582632D01*
X128612448Y-98684089D01*
X128641778Y-98719827D01*
X128641779Y-98719829D01*
X128725443Y-98876351D01*
X128725443Y-98876352D01*
X128776963Y-99046191D01*
X128794359Y-99222818D01*
X128776963Y-99399445D01*
X128742616Y-99512671D01*
X128725443Y-99569285D01*
X128660384Y-99691000D01*
X128641778Y-99725809D01*
X128612448Y-99761547D01*
X128529186Y-99863004D01*
X128427729Y-99946266D01*
X128391991Y-99975596D01*
X128391989Y-99975597D01*
X128235467Y-100059261D01*
X128221967Y-100063356D01*
X128065627Y-100110781D01*
X127999443Y-100117299D01*
X127933260Y-100123818D01*
X127844740Y-100123818D01*
X127778557Y-100117299D01*
X127712373Y-100110781D01*
X127556033Y-100063356D01*
X127542533Y-100059261D01*
X127386011Y-99975597D01*
X127386009Y-99975596D01*
X127350271Y-99946266D01*
X127248814Y-99863004D01*
X127165552Y-99761547D01*
X127136222Y-99725809D01*
X127117616Y-99691000D01*
X127052557Y-99569285D01*
X127035384Y-99512671D01*
X127001037Y-99399445D01*
X126983641Y-99222818D01*
X127001037Y-99046191D01*
X127052557Y-98876352D01*
X127052557Y-98876351D01*
X127136221Y-98719829D01*
X127136222Y-98719827D01*
X127165552Y-98684089D01*
X127248814Y-98582632D01*
X127350271Y-98499370D01*
X127386009Y-98470040D01*
X127483368Y-98418000D01*
X127542533Y-98386375D01*
X127599147Y-98369202D01*
X127712373Y-98334855D01*
X127778557Y-98328337D01*
X127844740Y-98321818D01*
X127933260Y-98321818D01*
X127999442Y-98328336D01*
X127999442Y-98328336D01*
G37*
G36*
X141014000Y-99688000D02*
X138912000Y-99688000D01*
X138912000Y-98686000D01*
X141014000Y-98686000D01*
X141014000Y-99688000D01*
X141014000Y-99688000D01*
G37*
G36*
X158014000Y-99688000D02*
X155912000Y-99688000D01*
X155912000Y-98686000D01*
X158014000Y-98686000D01*
X158014000Y-99688000D01*
X158014000Y-99688000D01*
G37*
G36*
X141014000Y-98418000D02*
X138912000Y-98418000D01*
X138912000Y-97416000D01*
X141014000Y-97416000D01*
X141014000Y-98418000D01*
X141014000Y-98418000D01*
G37*
G36*
X158014000Y-98418000D02*
X155912000Y-98418000D01*
X155912000Y-97416000D01*
X158014000Y-97416000D01*
X158014000Y-98418000D01*
X158014000Y-98418000D01*
G37*
G36*
X129269443Y-96128633D02*
X129335627Y-96135151D01*
X129448853Y-96169498D01*
X129505467Y-96186671D01*
X129644087Y-96260766D01*
X129661991Y-96270336D01*
X129697729Y-96299666D01*
X129799186Y-96382928D01*
X129882448Y-96484385D01*
X129911778Y-96520123D01*
X129911779Y-96520125D01*
X129995443Y-96676647D01*
X129997573Y-96683670D01*
X130046963Y-96846487D01*
X130064359Y-97023114D01*
X130046963Y-97199741D01*
X130044833Y-97206762D01*
X129995443Y-97369581D01*
X129970631Y-97416000D01*
X129911778Y-97526105D01*
X129882448Y-97561843D01*
X129799186Y-97663300D01*
X129697729Y-97746562D01*
X129661991Y-97775892D01*
X129661989Y-97775893D01*
X129505467Y-97859557D01*
X129448853Y-97876730D01*
X129335627Y-97911077D01*
X129269443Y-97917595D01*
X129203260Y-97924114D01*
X129114740Y-97924114D01*
X129048557Y-97917595D01*
X128982373Y-97911077D01*
X128869147Y-97876730D01*
X128812533Y-97859557D01*
X128656011Y-97775893D01*
X128656009Y-97775892D01*
X128620271Y-97746562D01*
X128518814Y-97663300D01*
X128435552Y-97561843D01*
X128406222Y-97526105D01*
X128347369Y-97416000D01*
X128322557Y-97369581D01*
X128273167Y-97206762D01*
X128271037Y-97199741D01*
X128253641Y-97023114D01*
X128271037Y-96846487D01*
X128320427Y-96683670D01*
X128322557Y-96676647D01*
X128406221Y-96520125D01*
X128406222Y-96520123D01*
X128435552Y-96484385D01*
X128518814Y-96382928D01*
X128620271Y-96299666D01*
X128656009Y-96270336D01*
X128673913Y-96260766D01*
X128812533Y-96186671D01*
X128869147Y-96169498D01*
X128982373Y-96135151D01*
X129048558Y-96128632D01*
X129114740Y-96122114D01*
X129203260Y-96122114D01*
X129269443Y-96128633D01*
X129269443Y-96128633D01*
G37*
G36*
X167750442Y-95965813D02*
X167816627Y-95972332D01*
X167929853Y-96006679D01*
X167986467Y-96023852D01*
X168125087Y-96097947D01*
X168142991Y-96107517D01*
X168160777Y-96122114D01*
X168280186Y-96220109D01*
X168363448Y-96321566D01*
X168392778Y-96357304D01*
X168392779Y-96357306D01*
X168476443Y-96513828D01*
X168478353Y-96520125D01*
X168527963Y-96683668D01*
X168545359Y-96860295D01*
X168527963Y-97036922D01*
X168494268Y-97148000D01*
X168476443Y-97206762D01*
X168402348Y-97345382D01*
X168392778Y-97363286D01*
X168363448Y-97399024D01*
X168280186Y-97500481D01*
X168178729Y-97583743D01*
X168142991Y-97613073D01*
X168142989Y-97613074D01*
X167986467Y-97696738D01*
X167929853Y-97713911D01*
X167816627Y-97748258D01*
X167750442Y-97754777D01*
X167684260Y-97761295D01*
X167595740Y-97761295D01*
X167529558Y-97754777D01*
X167463373Y-97748258D01*
X167350147Y-97713911D01*
X167293533Y-97696738D01*
X167137011Y-97613074D01*
X167137009Y-97613073D01*
X167101271Y-97583743D01*
X166999814Y-97500481D01*
X166916552Y-97399024D01*
X166887222Y-97363286D01*
X166877652Y-97345382D01*
X166803557Y-97206762D01*
X166785732Y-97148000D01*
X166752037Y-97036922D01*
X166734641Y-96860295D01*
X166752037Y-96683668D01*
X166801647Y-96520125D01*
X166803557Y-96513828D01*
X166887221Y-96357306D01*
X166887222Y-96357304D01*
X166916552Y-96321566D01*
X166999814Y-96220109D01*
X167119223Y-96122114D01*
X167137009Y-96107517D01*
X167154913Y-96097947D01*
X167293533Y-96023852D01*
X167350147Y-96006679D01*
X167463373Y-95972332D01*
X167529557Y-95965814D01*
X167595740Y-95959295D01*
X167684260Y-95959295D01*
X167750442Y-95965813D01*
X167750442Y-95965813D01*
G37*
G36*
X158014000Y-97148000D02*
X155912000Y-97148000D01*
X155912000Y-96146000D01*
X158014000Y-96146000D01*
X158014000Y-97148000D01*
X158014000Y-97148000D01*
G37*
G36*
X141014000Y-97148000D02*
X138912000Y-97148000D01*
X138912000Y-96146000D01*
X141014000Y-96146000D01*
X141014000Y-97148000D01*
X141014000Y-97148000D01*
G37*
G36*
X150014000Y-96808000D02*
X144912000Y-96808000D01*
X144912000Y-91706000D01*
X150014000Y-91706000D01*
X150014000Y-96808000D01*
X150014000Y-96808000D01*
G37*
G36*
X141014000Y-95878000D02*
X138912000Y-95878000D01*
X138912000Y-94876000D01*
X141014000Y-94876000D01*
X141014000Y-95878000D01*
X141014000Y-95878000D01*
G37*
G36*
X158014000Y-95878000D02*
X155912000Y-95878000D01*
X155912000Y-94876000D01*
X158014000Y-94876000D01*
X158014000Y-95878000D01*
X158014000Y-95878000D01*
G37*
G36*
X130538239Y-93928809D02*
X130605627Y-93935446D01*
X130715587Y-93968802D01*
X130775467Y-93986966D01*
X130888958Y-94047629D01*
X130931991Y-94070631D01*
X130957477Y-94091547D01*
X131069186Y-94183223D01*
X131130239Y-94257618D01*
X131181778Y-94320418D01*
X131181779Y-94320420D01*
X131265443Y-94476942D01*
X131269143Y-94489141D01*
X131316963Y-94646782D01*
X131334359Y-94823409D01*
X131316963Y-95000036D01*
X131286677Y-95099875D01*
X131265443Y-95169876D01*
X131195474Y-95300776D01*
X131181778Y-95326400D01*
X131174615Y-95335128D01*
X131069186Y-95463595D01*
X130967729Y-95546857D01*
X130931991Y-95576187D01*
X130931989Y-95576188D01*
X130775467Y-95659852D01*
X130718853Y-95677025D01*
X130605627Y-95711372D01*
X130539443Y-95717890D01*
X130473260Y-95724409D01*
X130384740Y-95724409D01*
X130318558Y-95717891D01*
X130252373Y-95711372D01*
X130139147Y-95677025D01*
X130082533Y-95659852D01*
X129926011Y-95576188D01*
X129926009Y-95576187D01*
X129890271Y-95546857D01*
X129788814Y-95463595D01*
X129683385Y-95335128D01*
X129676222Y-95326400D01*
X129662526Y-95300776D01*
X129592557Y-95169876D01*
X129571323Y-95099875D01*
X129541037Y-95000036D01*
X129523641Y-94823409D01*
X129541037Y-94646782D01*
X129588857Y-94489141D01*
X129592557Y-94476942D01*
X129676221Y-94320420D01*
X129676222Y-94320418D01*
X129727761Y-94257618D01*
X129788814Y-94183223D01*
X129900523Y-94091547D01*
X129926009Y-94070631D01*
X129969042Y-94047629D01*
X130082533Y-93986966D01*
X130142413Y-93968802D01*
X130252373Y-93935446D01*
X130319761Y-93928809D01*
X130384740Y-93922409D01*
X130473260Y-93922409D01*
X130538239Y-93928809D01*
X130538239Y-93928809D01*
G37*
G36*
X166480443Y-93766110D02*
X166546627Y-93772628D01*
X166659853Y-93806975D01*
X166716467Y-93824148D01*
X166774053Y-93854929D01*
X166872991Y-93907813D01*
X166902335Y-93931895D01*
X167010186Y-94020405D01*
X167083134Y-94109294D01*
X167122778Y-94157600D01*
X167122779Y-94157602D01*
X167206443Y-94314124D01*
X167206443Y-94314125D01*
X167257963Y-94483964D01*
X167275359Y-94660591D01*
X167257963Y-94837218D01*
X167240210Y-94895741D01*
X167206443Y-95007058D01*
X167137624Y-95135807D01*
X167122778Y-95163582D01*
X167109650Y-95179578D01*
X167010186Y-95300777D01*
X166908862Y-95383930D01*
X166872991Y-95413369D01*
X166872989Y-95413370D01*
X166716467Y-95497034D01*
X166659853Y-95514207D01*
X166546627Y-95548554D01*
X166480443Y-95555072D01*
X166414260Y-95561591D01*
X166325740Y-95561591D01*
X166259557Y-95555072D01*
X166193373Y-95548554D01*
X166080147Y-95514207D01*
X166023533Y-95497034D01*
X165867011Y-95413370D01*
X165867009Y-95413369D01*
X165831138Y-95383930D01*
X165729814Y-95300777D01*
X165630350Y-95179578D01*
X165617222Y-95163582D01*
X165602376Y-95135807D01*
X165533557Y-95007058D01*
X165499790Y-94895741D01*
X165482037Y-94837218D01*
X165464641Y-94660591D01*
X165482037Y-94483964D01*
X165533557Y-94314125D01*
X165533557Y-94314124D01*
X165617221Y-94157602D01*
X165617222Y-94157600D01*
X165656866Y-94109294D01*
X165729814Y-94020405D01*
X165837665Y-93931895D01*
X165867009Y-93907813D01*
X165965947Y-93854929D01*
X166023533Y-93824148D01*
X166080147Y-93806975D01*
X166193373Y-93772628D01*
X166259558Y-93766109D01*
X166325740Y-93759591D01*
X166414260Y-93759591D01*
X166480443Y-93766110D01*
X166480443Y-93766110D01*
G37*
G36*
X127237576Y-94159918D02*
X127268583Y-94167148D01*
X127303197Y-94182832D01*
X127351999Y-94211008D01*
X127352006Y-94211011D01*
X128088994Y-94636511D01*
X128089002Y-94636517D01*
X128137796Y-94664688D01*
X128168697Y-94686831D01*
X128190455Y-94710062D01*
X128207267Y-94737099D01*
X128218482Y-94766894D01*
X128223667Y-94798304D01*
X128222626Y-94830120D01*
X128215396Y-94861127D01*
X128199712Y-94895741D01*
X128171536Y-94944543D01*
X128171533Y-94944550D01*
X127946033Y-95335128D01*
X127946027Y-95335136D01*
X127917856Y-95383930D01*
X127895713Y-95414831D01*
X127872482Y-95436589D01*
X127845445Y-95453401D01*
X127815650Y-95464616D01*
X127784240Y-95469801D01*
X127752424Y-95468760D01*
X127721417Y-95461530D01*
X127686803Y-95445846D01*
X127638001Y-95417670D01*
X127637994Y-95417667D01*
X126901006Y-94992167D01*
X126900998Y-94992161D01*
X126852204Y-94963990D01*
X126821303Y-94941847D01*
X126799545Y-94918616D01*
X126782733Y-94891579D01*
X126771518Y-94861784D01*
X126766333Y-94830374D01*
X126767374Y-94798558D01*
X126774604Y-94767551D01*
X126790288Y-94732937D01*
X126818464Y-94684135D01*
X126818467Y-94684128D01*
X127043967Y-94293550D01*
X127043973Y-94293542D01*
X127072144Y-94244748D01*
X127094287Y-94213847D01*
X127117518Y-94192089D01*
X127144555Y-94175277D01*
X127174350Y-94164062D01*
X127205760Y-94158877D01*
X127237576Y-94159918D01*
X127237576Y-94159918D01*
G37*
G36*
X169689150Y-93928809D02*
X169718945Y-93940024D01*
X169745982Y-93956836D01*
X169769213Y-93978594D01*
X169791356Y-94009495D01*
X169819527Y-94058289D01*
X169819533Y-94058297D01*
X170045033Y-94448875D01*
X170045036Y-94448882D01*
X170073212Y-94497684D01*
X170088896Y-94532298D01*
X170096126Y-94563305D01*
X170097167Y-94595121D01*
X170091982Y-94626531D01*
X170080767Y-94656326D01*
X170063955Y-94683363D01*
X170042197Y-94706594D01*
X170011296Y-94728737D01*
X169962502Y-94756908D01*
X169962494Y-94756914D01*
X169225506Y-95182414D01*
X169225499Y-95182417D01*
X169176697Y-95210593D01*
X169142083Y-95226277D01*
X169111076Y-95233507D01*
X169079260Y-95234548D01*
X169047850Y-95229363D01*
X169018055Y-95218148D01*
X168991018Y-95201336D01*
X168967787Y-95179578D01*
X168945644Y-95148677D01*
X168917473Y-95099883D01*
X168917467Y-95099875D01*
X168691967Y-94709297D01*
X168691964Y-94709290D01*
X168663788Y-94660488D01*
X168648104Y-94625874D01*
X168640874Y-94594867D01*
X168639833Y-94563051D01*
X168645018Y-94531641D01*
X168656233Y-94501846D01*
X168673045Y-94474809D01*
X168694803Y-94451578D01*
X168725704Y-94429435D01*
X168774498Y-94401264D01*
X168774506Y-94401258D01*
X169511494Y-93975758D01*
X169511501Y-93975755D01*
X169560303Y-93947579D01*
X169594917Y-93931895D01*
X169625924Y-93924665D01*
X169657740Y-93923624D01*
X169689150Y-93928809D01*
X169689150Y-93928809D01*
G37*
G36*
X158014000Y-94608000D02*
X155912000Y-94608000D01*
X155912000Y-93606000D01*
X158014000Y-93606000D01*
X158014000Y-94608000D01*
X158014000Y-94608000D01*
G37*
G36*
X141014000Y-94608000D02*
X138912000Y-94608000D01*
X138912000Y-93606000D01*
X141014000Y-93606000D01*
X141014000Y-94608000D01*
X141014000Y-94608000D01*
G37*
G36*
X127575419Y-93451290D02*
X127587334Y-93454069D01*
X127604099Y-93461665D01*
X128611901Y-94043519D01*
X128626863Y-94054241D01*
X128635224Y-94063168D01*
X128641684Y-94073556D01*
X128645991Y-94085001D01*
X128647984Y-94097075D01*
X128647585Y-94109294D01*
X128644806Y-94121209D01*
X128637210Y-94137974D01*
X128455356Y-94452956D01*
X128444634Y-94467918D01*
X128435707Y-94476279D01*
X128425319Y-94482739D01*
X128413874Y-94487046D01*
X128401800Y-94489039D01*
X128389581Y-94488640D01*
X128377666Y-94485861D01*
X128360901Y-94478265D01*
X127353099Y-93896411D01*
X127338137Y-93885689D01*
X127329776Y-93876762D01*
X127323316Y-93866374D01*
X127319009Y-93854929D01*
X127317016Y-93842855D01*
X127317415Y-93830636D01*
X127320194Y-93818721D01*
X127327790Y-93801956D01*
X127509644Y-93486974D01*
X127520366Y-93472012D01*
X127529293Y-93463651D01*
X127539681Y-93457191D01*
X127551126Y-93452884D01*
X127563200Y-93450891D01*
X127575419Y-93451290D01*
X127575419Y-93451290D01*
G37*
G36*
X169182010Y-93021128D02*
X169202636Y-93028891D01*
X169221342Y-93040524D01*
X169237424Y-93055586D01*
X169253856Y-93078516D01*
X169485712Y-93480104D01*
X169497353Y-93505795D01*
X169502356Y-93527250D01*
X169503076Y-93549274D01*
X169499488Y-93571010D01*
X169491725Y-93591636D01*
X169480092Y-93610342D01*
X169465030Y-93626424D01*
X169442100Y-93642856D01*
X168520897Y-94174712D01*
X168495205Y-94186353D01*
X168473750Y-94191356D01*
X168451726Y-94192076D01*
X168429990Y-94188488D01*
X168409364Y-94180725D01*
X168390658Y-94169092D01*
X168374576Y-94154030D01*
X168358144Y-94131100D01*
X168126288Y-93729512D01*
X168114647Y-93703821D01*
X168109644Y-93682366D01*
X168108924Y-93660342D01*
X168112512Y-93638606D01*
X168120275Y-93617980D01*
X168131908Y-93599274D01*
X168146970Y-93583192D01*
X168169900Y-93566760D01*
X169091103Y-93034904D01*
X169116795Y-93023263D01*
X169138250Y-93018260D01*
X169160274Y-93017540D01*
X169182010Y-93021128D01*
X169182010Y-93021128D01*
G37*
G36*
X128087750Y-92625644D02*
X128109205Y-92630647D01*
X128134897Y-92642288D01*
X129056100Y-93174144D01*
X129079030Y-93190576D01*
X129094092Y-93206658D01*
X129105725Y-93225364D01*
X129113488Y-93245990D01*
X129117076Y-93267726D01*
X129116356Y-93289750D01*
X129111353Y-93311205D01*
X129099712Y-93336896D01*
X128867856Y-93738484D01*
X128851424Y-93761414D01*
X128835342Y-93776476D01*
X128816636Y-93788109D01*
X128796010Y-93795872D01*
X128774274Y-93799460D01*
X128752250Y-93798740D01*
X128730795Y-93793737D01*
X128705103Y-93782096D01*
X127783900Y-93250240D01*
X127760970Y-93233808D01*
X127745908Y-93217726D01*
X127734275Y-93199020D01*
X127726512Y-93178394D01*
X127722924Y-93156658D01*
X127723644Y-93134634D01*
X127728647Y-93113179D01*
X127740288Y-93087488D01*
X127972144Y-92685900D01*
X127988576Y-92662970D01*
X128004658Y-92647908D01*
X128023364Y-92636275D01*
X128043990Y-92628512D01*
X128065726Y-92624924D01*
X128087750Y-92625644D01*
X128087750Y-92625644D01*
G37*
G36*
X131809443Y-91729224D02*
X131875627Y-91735742D01*
X131988853Y-91770089D01*
X132045467Y-91787262D01*
X132168471Y-91853010D01*
X132201991Y-91870927D01*
X132207140Y-91875153D01*
X132339186Y-91983519D01*
X132418283Y-92079901D01*
X132451778Y-92120714D01*
X132451779Y-92120716D01*
X132535443Y-92277238D01*
X132537906Y-92285359D01*
X132586963Y-92447078D01*
X132604359Y-92623705D01*
X132586963Y-92800332D01*
X132558738Y-92893376D01*
X132535443Y-92970172D01*
X132485780Y-93063084D01*
X132451778Y-93126696D01*
X132427189Y-93156658D01*
X132339186Y-93263891D01*
X132237729Y-93347153D01*
X132201991Y-93376483D01*
X132201989Y-93376484D01*
X132045467Y-93460148D01*
X131988907Y-93477305D01*
X131875627Y-93511668D01*
X131833866Y-93515781D01*
X131743260Y-93524705D01*
X131654740Y-93524705D01*
X131564134Y-93515781D01*
X131522373Y-93511668D01*
X131409093Y-93477305D01*
X131352533Y-93460148D01*
X131196011Y-93376484D01*
X131196009Y-93376483D01*
X131160271Y-93347153D01*
X131058814Y-93263891D01*
X130970811Y-93156658D01*
X130946222Y-93126696D01*
X130912220Y-93063084D01*
X130862557Y-92970172D01*
X130839262Y-92893376D01*
X130811037Y-92800332D01*
X130793641Y-92623705D01*
X130811037Y-92447078D01*
X130860094Y-92285359D01*
X130862557Y-92277238D01*
X130946221Y-92120716D01*
X130946222Y-92120714D01*
X130979717Y-92079901D01*
X131058814Y-91983519D01*
X131190860Y-91875153D01*
X131196009Y-91870927D01*
X131229529Y-91853010D01*
X131352533Y-91787262D01*
X131409147Y-91770089D01*
X131522373Y-91735742D01*
X131588557Y-91729224D01*
X131654740Y-91722705D01*
X131743260Y-91722705D01*
X131809443Y-91729224D01*
X131809443Y-91729224D01*
G37*
G36*
X168799874Y-92329954D02*
X168811319Y-92334261D01*
X168821707Y-92340721D01*
X168830634Y-92349082D01*
X168841356Y-92364044D01*
X169023210Y-92679026D01*
X169030806Y-92695791D01*
X169033585Y-92707706D01*
X169033984Y-92719925D01*
X169031991Y-92731999D01*
X169027684Y-92743444D01*
X169021224Y-92753832D01*
X169012863Y-92762759D01*
X168997901Y-92773481D01*
X167990099Y-93355335D01*
X167973334Y-93362931D01*
X167961419Y-93365710D01*
X167949200Y-93366109D01*
X167937126Y-93364116D01*
X167925681Y-93359809D01*
X167915293Y-93353349D01*
X167906366Y-93344988D01*
X167895644Y-93330026D01*
X167713790Y-93015044D01*
X167706194Y-92998279D01*
X167703415Y-92986364D01*
X167703016Y-92974145D01*
X167705009Y-92962071D01*
X167709316Y-92950626D01*
X167715776Y-92940238D01*
X167724137Y-92931311D01*
X167739099Y-92920589D01*
X168746901Y-92338735D01*
X168763666Y-92331139D01*
X168775581Y-92328360D01*
X168787800Y-92327961D01*
X168799874Y-92329954D01*
X168799874Y-92329954D01*
G37*
G36*
X165210442Y-91566404D02*
X165276627Y-91572923D01*
X165372049Y-91601869D01*
X165446467Y-91624443D01*
X165584698Y-91698330D01*
X165602991Y-91708108D01*
X165635965Y-91735169D01*
X165740186Y-91820700D01*
X165815523Y-91912500D01*
X165852778Y-91957895D01*
X165852779Y-91957897D01*
X165936443Y-92114419D01*
X165950474Y-92160674D01*
X165987963Y-92284259D01*
X166005359Y-92460886D01*
X165987963Y-92637513D01*
X165961287Y-92725453D01*
X165936443Y-92807353D01*
X165891018Y-92892335D01*
X165852778Y-92963877D01*
X165844351Y-92974145D01*
X165740186Y-93101072D01*
X165672453Y-93156658D01*
X165602991Y-93213664D01*
X165602989Y-93213665D01*
X165446467Y-93297329D01*
X165400723Y-93311205D01*
X165276627Y-93348849D01*
X165210772Y-93355335D01*
X165144260Y-93361886D01*
X165055740Y-93361886D01*
X164989228Y-93355335D01*
X164923373Y-93348849D01*
X164799277Y-93311205D01*
X164753533Y-93297329D01*
X164597011Y-93213665D01*
X164597009Y-93213664D01*
X164527547Y-93156658D01*
X164459814Y-93101072D01*
X164355649Y-92974145D01*
X164347222Y-92963877D01*
X164308982Y-92892335D01*
X164263557Y-92807353D01*
X164238713Y-92725453D01*
X164212037Y-92637513D01*
X164194641Y-92460886D01*
X164212037Y-92284259D01*
X164249526Y-92160674D01*
X164263557Y-92114419D01*
X164347221Y-91957897D01*
X164347222Y-91957895D01*
X164384477Y-91912500D01*
X164459814Y-91820700D01*
X164564035Y-91735169D01*
X164597009Y-91708108D01*
X164615302Y-91698330D01*
X164753533Y-91624443D01*
X164827951Y-91601869D01*
X164923373Y-91572923D01*
X164989558Y-91566404D01*
X165055740Y-91559886D01*
X165144260Y-91559886D01*
X165210442Y-91566404D01*
X165210442Y-91566404D01*
G37*
G36*
X158014000Y-93338000D02*
X155912000Y-93338000D01*
X155912000Y-92336000D01*
X158014000Y-92336000D01*
X158014000Y-93338000D01*
X158014000Y-93338000D01*
G37*
G36*
X141014000Y-93338000D02*
X138912000Y-93338000D01*
X138912000Y-92336000D01*
X141014000Y-92336000D01*
X141014000Y-93338000D01*
X141014000Y-93338000D01*
G37*
G36*
X128725076Y-91583493D02*
X128756083Y-91590723D01*
X128790697Y-91606407D01*
X128839499Y-91634583D01*
X128839506Y-91634586D01*
X129576494Y-92060086D01*
X129576502Y-92060092D01*
X129625296Y-92088263D01*
X129656197Y-92110406D01*
X129677955Y-92133637D01*
X129694767Y-92160674D01*
X129705982Y-92190469D01*
X129711167Y-92221879D01*
X129710126Y-92253695D01*
X129702896Y-92284702D01*
X129687212Y-92319316D01*
X129659036Y-92368118D01*
X129659033Y-92368125D01*
X129433533Y-92758703D01*
X129433527Y-92758711D01*
X129405356Y-92807505D01*
X129383213Y-92838406D01*
X129359982Y-92860164D01*
X129332945Y-92876976D01*
X129303150Y-92888191D01*
X129271740Y-92893376D01*
X129239924Y-92892335D01*
X129208917Y-92885105D01*
X129174303Y-92869421D01*
X129125501Y-92841245D01*
X129125494Y-92841242D01*
X128388506Y-92415742D01*
X128388498Y-92415736D01*
X128339704Y-92387565D01*
X128308803Y-92365422D01*
X128287045Y-92342191D01*
X128270233Y-92315154D01*
X128259018Y-92285359D01*
X128253833Y-92253949D01*
X128254874Y-92222133D01*
X128262104Y-92191126D01*
X128277788Y-92156512D01*
X128305964Y-92107710D01*
X128305967Y-92107703D01*
X128531467Y-91717125D01*
X128531473Y-91717117D01*
X128559644Y-91668323D01*
X128581787Y-91637422D01*
X128605018Y-91615664D01*
X128632055Y-91598852D01*
X128661850Y-91587637D01*
X128693260Y-91582452D01*
X128725076Y-91583493D01*
X128725076Y-91583493D01*
G37*
G36*
X168201650Y-91352384D02*
X168231445Y-91363599D01*
X168258482Y-91380411D01*
X168281713Y-91402169D01*
X168303856Y-91433070D01*
X168332027Y-91481864D01*
X168332033Y-91481872D01*
X168557533Y-91872450D01*
X168557536Y-91872457D01*
X168585712Y-91921259D01*
X168601396Y-91955873D01*
X168608626Y-91986880D01*
X168609667Y-92018696D01*
X168604482Y-92050106D01*
X168593267Y-92079901D01*
X168576455Y-92106938D01*
X168554697Y-92130169D01*
X168523796Y-92152312D01*
X168475002Y-92180483D01*
X168474994Y-92180489D01*
X167738006Y-92605989D01*
X167737999Y-92605992D01*
X167689197Y-92634168D01*
X167654583Y-92649852D01*
X167623576Y-92657082D01*
X167591760Y-92658123D01*
X167560350Y-92652938D01*
X167530555Y-92641723D01*
X167503518Y-92624911D01*
X167480287Y-92603153D01*
X167458144Y-92572252D01*
X167429973Y-92523458D01*
X167429967Y-92523450D01*
X167204467Y-92132872D01*
X167204464Y-92132865D01*
X167176288Y-92084063D01*
X167160604Y-92049449D01*
X167153374Y-92018442D01*
X167152333Y-91986626D01*
X167157518Y-91955216D01*
X167168733Y-91925421D01*
X167185545Y-91898384D01*
X167207303Y-91875153D01*
X167238204Y-91853010D01*
X167286998Y-91824839D01*
X167287006Y-91824833D01*
X168023994Y-91399333D01*
X168024001Y-91399330D01*
X168072803Y-91371154D01*
X168107417Y-91355470D01*
X168138424Y-91348240D01*
X168170240Y-91347199D01*
X168201650Y-91352384D01*
X168201650Y-91352384D01*
G37*
G36*
X136391560Y-91591205D02*
X136426711Y-91601869D01*
X136459109Y-91619186D01*
X136487508Y-91642492D01*
X136510814Y-91670891D01*
X136528131Y-91703289D01*
X136538795Y-91738440D01*
X136543000Y-91781140D01*
X136543000Y-92394860D01*
X136538795Y-92437560D01*
X136528131Y-92472711D01*
X136510814Y-92505109D01*
X136487508Y-92533508D01*
X136459109Y-92556814D01*
X136426711Y-92574131D01*
X136391560Y-92584795D01*
X136348860Y-92589000D01*
X135685140Y-92589000D01*
X135642440Y-92584795D01*
X135607289Y-92574131D01*
X135574891Y-92556814D01*
X135546492Y-92533508D01*
X135523186Y-92505109D01*
X135505869Y-92472711D01*
X135495205Y-92437560D01*
X135491000Y-92394860D01*
X135491000Y-91781140D01*
X135495205Y-91738440D01*
X135505869Y-91703289D01*
X135523186Y-91670891D01*
X135546492Y-91642492D01*
X135574891Y-91619186D01*
X135607289Y-91601869D01*
X135642440Y-91591205D01*
X135685140Y-91587000D01*
X136348860Y-91587000D01*
X136391560Y-91591205D01*
X136391560Y-91591205D01*
G37*
G36*
X138189683Y-91690725D02*
X138220144Y-91699966D01*
X138248223Y-91714975D01*
X138272831Y-91735169D01*
X138293025Y-91759777D01*
X138308034Y-91787856D01*
X138317275Y-91818317D01*
X138321000Y-91856140D01*
X138321000Y-92419860D01*
X138317275Y-92457683D01*
X138308034Y-92488144D01*
X138293025Y-92516223D01*
X138272831Y-92540831D01*
X138248223Y-92561025D01*
X138220144Y-92576034D01*
X138189683Y-92585275D01*
X138151860Y-92589000D01*
X137438140Y-92589000D01*
X137400317Y-92585275D01*
X137369856Y-92576034D01*
X137341777Y-92561025D01*
X137317169Y-92540831D01*
X137296975Y-92516223D01*
X137281966Y-92488144D01*
X137272725Y-92457683D01*
X137269000Y-92419860D01*
X137269000Y-91856140D01*
X137272725Y-91818317D01*
X137281966Y-91787856D01*
X137296975Y-91759777D01*
X137317169Y-91735169D01*
X137341777Y-91714975D01*
X137369856Y-91699966D01*
X137400317Y-91690725D01*
X137438140Y-91687000D01*
X138151860Y-91687000D01*
X138189683Y-91690725D01*
X138189683Y-91690725D01*
G37*
G36*
X158014000Y-92068000D02*
X155912000Y-92068000D01*
X155912000Y-91066000D01*
X158014000Y-91066000D01*
X158014000Y-92068000D01*
X158014000Y-92068000D01*
G37*
G36*
X141014000Y-92068000D02*
X138912000Y-92068000D01*
X138912000Y-91066000D01*
X141014000Y-91066000D01*
X141014000Y-92068000D01*
X141014000Y-92068000D01*
G37*
G36*
X134199789Y-90094211D02*
X133298789Y-91654789D01*
X131738211Y-90753789D01*
X132639211Y-89193211D01*
X134199789Y-90094211D01*
X134199789Y-90094211D01*
G37*
G36*
X163940442Y-89366700D02*
X164006627Y-89373219D01*
X164119853Y-89407566D01*
X164176467Y-89424739D01*
X164222203Y-89449186D01*
X164332991Y-89508404D01*
X164366844Y-89536187D01*
X164470186Y-89620996D01*
X164553448Y-89722453D01*
X164582778Y-89758191D01*
X164582779Y-89758193D01*
X164666443Y-89914715D01*
X164666443Y-89914716D01*
X164717963Y-90084555D01*
X164735359Y-90261182D01*
X164717963Y-90437809D01*
X164683616Y-90551035D01*
X164666443Y-90607649D01*
X164592348Y-90746269D01*
X164582778Y-90764173D01*
X164562813Y-90788500D01*
X164470186Y-90901368D01*
X164404701Y-90955109D01*
X164332991Y-91013960D01*
X164332989Y-91013961D01*
X164176467Y-91097625D01*
X164119853Y-91114798D01*
X164006627Y-91149145D01*
X163940442Y-91155664D01*
X163874260Y-91162182D01*
X163785740Y-91162182D01*
X163719558Y-91155664D01*
X163653373Y-91149145D01*
X163540147Y-91114798D01*
X163483533Y-91097625D01*
X163327011Y-91013961D01*
X163327009Y-91013960D01*
X163255299Y-90955109D01*
X163189814Y-90901368D01*
X163097187Y-90788500D01*
X163077222Y-90764173D01*
X163067652Y-90746269D01*
X162993557Y-90607649D01*
X162976384Y-90551035D01*
X162942037Y-90437809D01*
X162924641Y-90261182D01*
X162942037Y-90084555D01*
X162993557Y-89914716D01*
X162993557Y-89914715D01*
X163077221Y-89758193D01*
X163077222Y-89758191D01*
X163106552Y-89722453D01*
X163189814Y-89620996D01*
X163293156Y-89536187D01*
X163327009Y-89508404D01*
X163437797Y-89449186D01*
X163483533Y-89424739D01*
X163540147Y-89407566D01*
X163653373Y-89373219D01*
X163719558Y-89366700D01*
X163785740Y-89360182D01*
X163874260Y-89360182D01*
X163940442Y-89366700D01*
X163940442Y-89366700D01*
G37*
G36*
X136391560Y-90041205D02*
X136426711Y-90051869D01*
X136459109Y-90069186D01*
X136487508Y-90092492D01*
X136510814Y-90120891D01*
X136528131Y-90153289D01*
X136538795Y-90188440D01*
X136543000Y-90231140D01*
X136543000Y-90844860D01*
X136538795Y-90887560D01*
X136528131Y-90922711D01*
X136510814Y-90955109D01*
X136487508Y-90983508D01*
X136459109Y-91006814D01*
X136426711Y-91024131D01*
X136391560Y-91034795D01*
X136348860Y-91039000D01*
X135685140Y-91039000D01*
X135642440Y-91034795D01*
X135607289Y-91024131D01*
X135574891Y-91006814D01*
X135546492Y-90983508D01*
X135523186Y-90955109D01*
X135505869Y-90922711D01*
X135495205Y-90887560D01*
X135491000Y-90844860D01*
X135491000Y-90231140D01*
X135495205Y-90188440D01*
X135505869Y-90153289D01*
X135523186Y-90120891D01*
X135546492Y-90092492D01*
X135574891Y-90069186D01*
X135607289Y-90051869D01*
X135642440Y-90041205D01*
X135685140Y-90037000D01*
X136348860Y-90037000D01*
X136391560Y-90041205D01*
X136391560Y-90041205D01*
G37*
G36*
X138189683Y-90040725D02*
X138220144Y-90049966D01*
X138248223Y-90064975D01*
X138272831Y-90085169D01*
X138293025Y-90109777D01*
X138308034Y-90137856D01*
X138317275Y-90168317D01*
X138321000Y-90206140D01*
X138321000Y-90769860D01*
X138317275Y-90807683D01*
X138308034Y-90838144D01*
X138293025Y-90866223D01*
X138272831Y-90890831D01*
X138248223Y-90911025D01*
X138220144Y-90926034D01*
X138189683Y-90935275D01*
X138151860Y-90939000D01*
X137438140Y-90939000D01*
X137400317Y-90935275D01*
X137369856Y-90926034D01*
X137341777Y-90911025D01*
X137317169Y-90890831D01*
X137296975Y-90866223D01*
X137281966Y-90838144D01*
X137272725Y-90807683D01*
X137269000Y-90769860D01*
X137269000Y-90206140D01*
X137272725Y-90168317D01*
X137281966Y-90137856D01*
X137296975Y-90109777D01*
X137317169Y-90085169D01*
X137341777Y-90064975D01*
X137369856Y-90049966D01*
X137400317Y-90040725D01*
X137438140Y-90037000D01*
X138151860Y-90037000D01*
X138189683Y-90040725D01*
X138189683Y-90040725D01*
G37*
G36*
X141014000Y-90798000D02*
X138912000Y-90798000D01*
X138912000Y-89796000D01*
X141014000Y-89796000D01*
X141014000Y-90798000D01*
X141014000Y-90798000D01*
G37*
G36*
X158014000Y-90798000D02*
X155912000Y-90798000D01*
X155912000Y-89796000D01*
X158014000Y-89796000D01*
X158014000Y-90798000D01*
X158014000Y-90798000D01*
G37*
G36*
X138169560Y-88543205D02*
X138204711Y-88553869D01*
X138237109Y-88571186D01*
X138265508Y-88594492D01*
X138288814Y-88622891D01*
X138306131Y-88655289D01*
X138316795Y-88690440D01*
X138321000Y-88733140D01*
X138321000Y-89346860D01*
X138316795Y-89389560D01*
X138306131Y-89424711D01*
X138288814Y-89457109D01*
X138265508Y-89485508D01*
X138237109Y-89508814D01*
X138204711Y-89526131D01*
X138169560Y-89536795D01*
X138126860Y-89541000D01*
X137463140Y-89541000D01*
X137420440Y-89536795D01*
X137385289Y-89526131D01*
X137352891Y-89508814D01*
X137324492Y-89485508D01*
X137301186Y-89457109D01*
X137283869Y-89424711D01*
X137273205Y-89389560D01*
X137269000Y-89346860D01*
X137269000Y-88733140D01*
X137273205Y-88690440D01*
X137283869Y-88655289D01*
X137301186Y-88622891D01*
X137324492Y-88594492D01*
X137352891Y-88571186D01*
X137385289Y-88553869D01*
X137420440Y-88543205D01*
X137463140Y-88539000D01*
X138126860Y-88539000D01*
X138169560Y-88543205D01*
X138169560Y-88543205D01*
G37*
G36*
X158014000Y-89528000D02*
X155912000Y-89528000D01*
X155912000Y-88526000D01*
X158014000Y-88526000D01*
X158014000Y-89528000D01*
X158014000Y-89528000D01*
G37*
G36*
X141014000Y-89528000D02*
X138912000Y-89528000D01*
X138912000Y-88526000D01*
X141014000Y-88526000D01*
X141014000Y-89528000D01*
X141014000Y-89528000D01*
G37*
G36*
X136621433Y-88414686D02*
X136661281Y-88426774D01*
X136698001Y-88446401D01*
X136730186Y-88472814D01*
X136756599Y-88504999D01*
X136776226Y-88541719D01*
X136788314Y-88581567D01*
X136793000Y-88629141D01*
X136793000Y-89292859D01*
X136788314Y-89340433D01*
X136776226Y-89380281D01*
X136756599Y-89417001D01*
X136730186Y-89449186D01*
X136698001Y-89475599D01*
X136661281Y-89495226D01*
X136621433Y-89507314D01*
X136573859Y-89512000D01*
X135460141Y-89512000D01*
X135412567Y-89507314D01*
X135372719Y-89495226D01*
X135335999Y-89475599D01*
X135303814Y-89449186D01*
X135277401Y-89417001D01*
X135257774Y-89380281D01*
X135245686Y-89340433D01*
X135241000Y-89292859D01*
X135241000Y-88629141D01*
X135245686Y-88581567D01*
X135257774Y-88541719D01*
X135277401Y-88504999D01*
X135303814Y-88472814D01*
X135335999Y-88446401D01*
X135372719Y-88426774D01*
X135412567Y-88414686D01*
X135460141Y-88410000D01*
X136573859Y-88410000D01*
X136621433Y-88414686D01*
X136621433Y-88414686D01*
G37*
G36*
X141014000Y-88258000D02*
X138912000Y-88258000D01*
X138912000Y-87256000D01*
X141014000Y-87256000D01*
X141014000Y-88258000D01*
X141014000Y-88258000D01*
G37*
G36*
X158014000Y-88258000D02*
X155912000Y-88258000D01*
X155912000Y-87256000D01*
X158014000Y-87256000D01*
X158014000Y-88258000D01*
X158014000Y-88258000D01*
G37*
G36*
X138169560Y-86993205D02*
X138204711Y-87003869D01*
X138237109Y-87021186D01*
X138265508Y-87044492D01*
X138288814Y-87072891D01*
X138306131Y-87105289D01*
X138316795Y-87140440D01*
X138321000Y-87183140D01*
X138321000Y-87796860D01*
X138316795Y-87839560D01*
X138306131Y-87874711D01*
X138288814Y-87907109D01*
X138265508Y-87935508D01*
X138237109Y-87958814D01*
X138204711Y-87976131D01*
X138169560Y-87986795D01*
X138126860Y-87991000D01*
X137463140Y-87991000D01*
X137420440Y-87986795D01*
X137385289Y-87976131D01*
X137352891Y-87958814D01*
X137324492Y-87935508D01*
X137301186Y-87907109D01*
X137283869Y-87874711D01*
X137273205Y-87839560D01*
X137269000Y-87796860D01*
X137269000Y-87183140D01*
X137273205Y-87140440D01*
X137283869Y-87105289D01*
X137301186Y-87072891D01*
X137324492Y-87044492D01*
X137352891Y-87021186D01*
X137385289Y-87003869D01*
X137420440Y-86993205D01*
X137463140Y-86989000D01*
X138126860Y-86989000D01*
X138169560Y-86993205D01*
X138169560Y-86993205D01*
G37*
G36*
X136621433Y-86514686D02*
X136661281Y-86526774D01*
X136698001Y-86546401D01*
X136730186Y-86572814D01*
X136756599Y-86604999D01*
X136776226Y-86641719D01*
X136788314Y-86681567D01*
X136793000Y-86729141D01*
X136793000Y-87392859D01*
X136788314Y-87440433D01*
X136776226Y-87480281D01*
X136756599Y-87517001D01*
X136730186Y-87549186D01*
X136698001Y-87575599D01*
X136661281Y-87595226D01*
X136621433Y-87607314D01*
X136573859Y-87612000D01*
X135460141Y-87612000D01*
X135412567Y-87607314D01*
X135372719Y-87595226D01*
X135335999Y-87575599D01*
X135303814Y-87549186D01*
X135277401Y-87517001D01*
X135257774Y-87480281D01*
X135245686Y-87440433D01*
X135241000Y-87392859D01*
X135241000Y-86729141D01*
X135245686Y-86681567D01*
X135257774Y-86641719D01*
X135277401Y-86604999D01*
X135303814Y-86572814D01*
X135335999Y-86546401D01*
X135372719Y-86526774D01*
X135412567Y-86514686D01*
X135460141Y-86510000D01*
X136573859Y-86510000D01*
X136621433Y-86514686D01*
X136621433Y-86514686D01*
G37*
M02*
