G04 #@! TF.GenerationSoftware,KiCad,Pcbnew,5.0.2+dfsg1-1*
G04 #@! TF.CreationDate,2021-02-26T15:03:44+01:00*
G04 #@! TF.ProjectId,KiCAD_Board,4b694341-445f-4426-9f61-72642e6b6963,rev?*
G04 #@! TF.SameCoordinates,Original*
G04 #@! TF.FileFunction,Legend,Top*
G04 #@! TF.FilePolarity,Positive*
%FSLAX46Y46*%
G04 Gerber Fmt 4.6, Leading zero omitted, Abs format (unit mm)*
G04 Created by KiCad (PCBNEW 5.0.2+dfsg1-1) date Fri 26 Feb 2021 15:03:44 CET*
%MOMM*%
%LPD*%
G01*
G04 APERTURE LIST*
%ADD10C,0.300000*%
%ADD11C,0.120000*%
%ADD12C,0.100000*%
%ADD13C,0.150000*%
G04 APERTURE END LIST*
D10*
X141597285Y-122511428D02*
X141668714Y-122440000D01*
X141811571Y-122368571D01*
X142168714Y-122368571D01*
X142311571Y-122440000D01*
X142383000Y-122511428D01*
X142454428Y-122654285D01*
X142454428Y-122797142D01*
X142383000Y-123011428D01*
X141525857Y-123868571D01*
X142454428Y-123868571D01*
X143740142Y-122868571D02*
X143740142Y-123868571D01*
X143383000Y-122297142D02*
X143025857Y-123368571D01*
X143954428Y-123368571D01*
X144311571Y-122368571D02*
X144811571Y-123868571D01*
X145311571Y-122368571D01*
X137160142Y-122440000D02*
X137017285Y-122368571D01*
X136803000Y-122368571D01*
X136588714Y-122440000D01*
X136445857Y-122582857D01*
X136374428Y-122725714D01*
X136303000Y-123011428D01*
X136303000Y-123225714D01*
X136374428Y-123511428D01*
X136445857Y-123654285D01*
X136588714Y-123797142D01*
X136803000Y-123868571D01*
X136945857Y-123868571D01*
X137160142Y-123797142D01*
X137231571Y-123725714D01*
X137231571Y-123225714D01*
X136945857Y-123225714D01*
X137874428Y-123868571D02*
X137874428Y-122368571D01*
X138731571Y-123868571D01*
X138731571Y-122368571D01*
X139445857Y-123868571D02*
X139445857Y-122368571D01*
X139803000Y-122368571D01*
X140017285Y-122440000D01*
X140160142Y-122582857D01*
X140231571Y-122725714D01*
X140303000Y-123011428D01*
X140303000Y-123225714D01*
X140231571Y-123511428D01*
X140160142Y-123654285D01*
X140017285Y-123797142D01*
X139803000Y-123868571D01*
X139445857Y-123868571D01*
D11*
G04 #@! TO.C,D501*
X155026000Y-106188000D02*
X158876000Y-106188000D01*
X155026000Y-108188000D02*
X158876000Y-108188000D01*
X155026000Y-106188000D02*
X155026000Y-108188000D01*
G04 #@! TO.C,C301*
X160784000Y-124854580D02*
X160784000Y-124573420D01*
X159764000Y-124854580D02*
X159764000Y-124573420D01*
G04 #@! TO.C,R302*
X159272500Y-123300258D02*
X159272500Y-122825742D01*
X158227500Y-123300258D02*
X158227500Y-122825742D01*
G04 #@! TO.C,C501*
X138250600Y-115323252D02*
X138250600Y-114800748D01*
X136780600Y-115323252D02*
X136780600Y-114800748D01*
G04 #@! TO.C,C401*
X169171252Y-107850000D02*
X168648748Y-107850000D01*
X169171252Y-109320000D02*
X168648748Y-109320000D01*
D12*
G04 #@! TO.C,J101*
X175310838Y-107065900D02*
G75*
G03X175945838Y-105966046I317500J549927D01*
G01*
X175945838Y-105966046D02*
X175175942Y-105521546D01*
X175310838Y-107065899D02*
X174540942Y-106621399D01*
G04 #@! TO.C,U303*
X161087000Y-121602000D02*
X161387000Y-121452000D01*
X161087000Y-121902000D02*
X161087000Y-121602000D01*
X161087000Y-126302000D02*
X161087000Y-126002000D01*
X161087000Y-126302000D02*
X161387000Y-126452000D01*
D13*
X164237000Y-125902000D02*
G75*
G03X164287000Y-122052000I-1900000J1950000D01*
G01*
D11*
G04 #@! TO.C,C102*
X138305000Y-88405580D02*
X138305000Y-88124420D01*
X137285000Y-88405580D02*
X137285000Y-88124420D01*
G04 #@! TO.C,C103*
X135507000Y-91172420D02*
X135507000Y-91453580D01*
X136527000Y-91172420D02*
X136527000Y-91453580D01*
G04 #@! TO.C,C101*
X136752000Y-88272252D02*
X136752000Y-87749748D01*
X135282000Y-88272252D02*
X135282000Y-87749748D01*
G04 #@! TO.C,R101*
X138317500Y-91550258D02*
X138317500Y-91075742D01*
X137272500Y-91550258D02*
X137272500Y-91075742D01*
G04 #@! TO.C,R301*
X156744936Y-110082000D02*
X157199064Y-110082000D01*
X156744936Y-108612000D02*
X157199064Y-108612000D01*
G04 #@! TO.C,C402*
X165240580Y-108075000D02*
X164959420Y-108075000D01*
X165240580Y-109095000D02*
X164959420Y-109095000D01*
G04 #@! TO.C,D401*
X163537000Y-110390000D02*
X161252000Y-110390000D01*
X163537000Y-111860000D02*
X163537000Y-110390000D01*
X161252000Y-111860000D02*
X163537000Y-111860000D01*
G04 #@! TO.C,R402*
X164862741Y-111647500D02*
X165337257Y-111647500D01*
X164862741Y-110602500D02*
X165337257Y-110602500D01*
G04 #@! TO.C,R401*
X161814742Y-109107500D02*
X162289258Y-109107500D01*
X161814742Y-108062500D02*
X162289258Y-108062500D01*
G04 #@! TO.C,AMP401*
X161679000Y-99609000D02*
X161204000Y-99609000D01*
X164424000Y-102829000D02*
X164424000Y-102354000D01*
X163949000Y-102829000D02*
X164424000Y-102829000D01*
X161204000Y-102829000D02*
X161204000Y-102354000D01*
X161679000Y-102829000D02*
X161204000Y-102829000D01*
X164424000Y-99609000D02*
X164424000Y-100084000D01*
X163949000Y-99609000D02*
X164424000Y-99609000D01*
G04 #@! TO.C,F501*
X146976000Y-123080545D02*
X146976000Y-124061455D01*
X149696000Y-123080545D02*
X149696000Y-124061455D01*
G04 #@! TO.C,J501*
X135763000Y-129667000D02*
X145923000Y-129667000D01*
X135763000Y-122047000D02*
X135763000Y-129667000D01*
X145923000Y-122047000D02*
X135763000Y-122047000D01*
X145923000Y-129667000D02*
X145923000Y-122047000D01*
X145923000Y-128397000D02*
X135763000Y-128397000D01*
D13*
G04 #@! TO.C,PWR501*
X138938000Y-116713000D02*
X138938000Y-110617000D01*
X149098000Y-119761000D02*
X141986000Y-119761000D01*
X152146000Y-110617000D02*
X152146000Y-116713000D01*
X141986000Y-107569000D02*
X149098000Y-107569000D01*
X144685909Y-111365000D02*
G75*
G03X144685909Y-111365000I-1843909J0D01*
G01*
D11*
G04 #@! TO.C,D202*
X128641000Y-110601000D02*
X132941000Y-110601000D01*
X128641000Y-108601000D02*
X128641000Y-110601000D01*
X132941000Y-108601000D02*
X128641000Y-108601000D01*
G04 #@! TO.C,D203*
X128641001Y-107172000D02*
X132941001Y-107172000D01*
X128641001Y-105172000D02*
X128641001Y-107172000D01*
X132941001Y-105172000D02*
X128641001Y-105172000D01*
G04 #@! TO.C,D204*
X128514001Y-103870001D02*
X132814001Y-103870001D01*
X128514001Y-101870001D02*
X128514001Y-103870001D01*
X132814001Y-101870001D02*
X128514001Y-101870001D01*
G04 #@! TO.C,D201*
X128641000Y-114030000D02*
X132941000Y-114030000D01*
X128641000Y-112030000D02*
X128641000Y-114030000D01*
X132941000Y-112030000D02*
X128641000Y-112030000D01*
G04 #@! TO.C,U301*
X155391000Y-113708000D02*
X157591000Y-113708000D01*
X155611000Y-115908000D02*
X157581000Y-115908000D01*
G04 #@! TO.C,U302*
X155091000Y-119847000D02*
X158091000Y-119847000D01*
X156591000Y-116627000D02*
X158091000Y-116627000D01*
G04 #@! TO.C,Q301*
X161546000Y-112974000D02*
X163006000Y-112974000D01*
X161546000Y-116134000D02*
X163706000Y-116134000D01*
X161546000Y-116134000D02*
X161546000Y-115204000D01*
X161546000Y-112974000D02*
X161546000Y-113904000D01*
G04 #@! TO.C,Q204*
X134749000Y-109799000D02*
X136209000Y-109799000D01*
X134749000Y-112959000D02*
X136909000Y-112959000D01*
X134749000Y-112959000D02*
X134749000Y-112029000D01*
X134749000Y-109799000D02*
X134749000Y-110729000D01*
G04 #@! TO.C,Q203*
X134749000Y-106370000D02*
X136209000Y-106370000D01*
X134749000Y-109530000D02*
X136909000Y-109530000D01*
X134749000Y-109530000D02*
X134749000Y-108600000D01*
X134749000Y-106370000D02*
X134749000Y-107300000D01*
G04 #@! TO.C,Q202*
X134749000Y-102941000D02*
X136209000Y-102941000D01*
X134749000Y-106101000D02*
X136909000Y-106101000D01*
X134749000Y-106101000D02*
X134749000Y-105171000D01*
X134749000Y-102941000D02*
X134749000Y-103871000D01*
G04 #@! TO.C,Q201*
X134749000Y-99512000D02*
X136209000Y-99512000D01*
X134749000Y-102672000D02*
X136909000Y-102672000D01*
X134749000Y-102672000D02*
X134749000Y-101742000D01*
X134749000Y-99512000D02*
X134749000Y-100442000D01*
D13*
G04 #@! TO.C,U401*
X160738000Y-107364000D02*
X161338000Y-107364000D01*
X160738000Y-103964000D02*
X160738000Y-107364000D01*
X161338000Y-103964000D02*
X160738000Y-103964000D01*
X164938000Y-103964000D02*
X164238000Y-103964000D01*
X164938000Y-104564000D02*
X164938000Y-103964000D01*
X164938000Y-107364000D02*
X164938000Y-106764000D01*
X164938000Y-107364000D02*
X164238000Y-107364000D01*
G04 #@! TO.C,D106*
X170002970Y-114980949D02*
X171168641Y-115653949D01*
X169168641Y-119118051D02*
X168002970Y-118445051D01*
X171168641Y-115653949D02*
X169168641Y-119118051D01*
G04 #@! TO.C,D105*
X150590000Y-128524000D02*
X150590000Y-129870000D01*
X146590000Y-129870000D02*
X146590000Y-128524000D01*
X150590000Y-129870000D02*
X146590000Y-129870000D01*
G04 #@! TO.C,D104*
X129177030Y-118445051D02*
X128011359Y-119118051D01*
X126011359Y-115653949D02*
X127177030Y-114980949D01*
X128011359Y-119118051D02*
X126011359Y-115653949D01*
G04 #@! TO.C,D103*
X127050030Y-95077051D02*
X125884359Y-94404051D01*
X127884359Y-90939949D02*
X129050030Y-91612949D01*
X125884359Y-94404051D02*
X127884359Y-90939949D01*
G04 #@! TO.C,D101*
X167875970Y-91485949D02*
X169041641Y-90812949D01*
X171041641Y-94277051D02*
X169875970Y-94950051D01*
X169041641Y-90812949D02*
X171041641Y-94277051D01*
G04 #@! TO.C,D301*
X154491000Y-110233000D02*
X155291000Y-110233000D01*
X154491000Y-110833000D02*
X154491000Y-110233000D01*
X154491000Y-113033000D02*
X154491000Y-112433000D01*
X155291000Y-113033000D02*
X154491000Y-113033000D01*
X158791000Y-113033000D02*
X157991000Y-113033000D01*
X158791000Y-112433000D02*
X158791000Y-113033000D01*
D12*
G04 #@! TO.C,MOD101*
X139393000Y-105842000D02*
X142043000Y-105842000D01*
X139393000Y-104792000D02*
X139393000Y-105842000D01*
X157543000Y-105862000D02*
X154843000Y-105862000D01*
X157543000Y-104822000D02*
X157543000Y-105862000D01*
X139423000Y-80222000D02*
X141053000Y-80222000D01*
X139423000Y-81852000D02*
X139423000Y-80222000D01*
X157493000Y-80222000D02*
X155853000Y-80222000D01*
X157493000Y-81842000D02*
X157493000Y-80222000D01*
G04 #@! TO.C,D501*
X159955666Y-110022333D02*
X159255666Y-110022333D01*
X159255666Y-109855666D01*
X159289000Y-109755666D01*
X159355666Y-109689000D01*
X159422333Y-109655666D01*
X159555666Y-109622333D01*
X159655666Y-109622333D01*
X159789000Y-109655666D01*
X159855666Y-109689000D01*
X159922333Y-109755666D01*
X159955666Y-109855666D01*
X159955666Y-110022333D01*
X159255666Y-108989000D02*
X159255666Y-109322333D01*
X159589000Y-109355666D01*
X159555666Y-109322333D01*
X159522333Y-109255666D01*
X159522333Y-109089000D01*
X159555666Y-109022333D01*
X159589000Y-108989000D01*
X159655666Y-108955666D01*
X159822333Y-108955666D01*
X159889000Y-108989000D01*
X159922333Y-109022333D01*
X159955666Y-109089000D01*
X159955666Y-109255666D01*
X159922333Y-109322333D01*
X159889000Y-109355666D01*
X159255666Y-108522333D02*
X159255666Y-108455666D01*
X159289000Y-108389000D01*
X159322333Y-108355666D01*
X159389000Y-108322333D01*
X159522333Y-108289000D01*
X159689000Y-108289000D01*
X159822333Y-108322333D01*
X159889000Y-108355666D01*
X159922333Y-108389000D01*
X159955666Y-108455666D01*
X159955666Y-108522333D01*
X159922333Y-108589000D01*
X159889000Y-108622333D01*
X159822333Y-108655666D01*
X159689000Y-108689000D01*
X159522333Y-108689000D01*
X159389000Y-108655666D01*
X159322333Y-108622333D01*
X159289000Y-108589000D01*
X159255666Y-108522333D01*
X159955666Y-107622333D02*
X159955666Y-108022333D01*
X159955666Y-107822333D02*
X159255666Y-107822333D01*
X159355666Y-107889000D01*
X159422333Y-107955666D01*
X159455666Y-108022333D01*
G04 #@! TO.C,C301*
X159094000Y-126640333D02*
X159127333Y-126673666D01*
X159160666Y-126773666D01*
X159160666Y-126840333D01*
X159127333Y-126940333D01*
X159060666Y-127007000D01*
X158994000Y-127040333D01*
X158860666Y-127073666D01*
X158760666Y-127073666D01*
X158627333Y-127040333D01*
X158560666Y-127007000D01*
X158494000Y-126940333D01*
X158460666Y-126840333D01*
X158460666Y-126773666D01*
X158494000Y-126673666D01*
X158527333Y-126640333D01*
X158460666Y-126407000D02*
X158460666Y-125973666D01*
X158727333Y-126207000D01*
X158727333Y-126107000D01*
X158760666Y-126040333D01*
X158794000Y-126007000D01*
X158860666Y-125973666D01*
X159027333Y-125973666D01*
X159094000Y-126007000D01*
X159127333Y-126040333D01*
X159160666Y-126107000D01*
X159160666Y-126307000D01*
X159127333Y-126373666D01*
X159094000Y-126407000D01*
X158460666Y-125540333D02*
X158460666Y-125473666D01*
X158494000Y-125407000D01*
X158527333Y-125373666D01*
X158594000Y-125340333D01*
X158727333Y-125307000D01*
X158894000Y-125307000D01*
X159027333Y-125340333D01*
X159094000Y-125373666D01*
X159127333Y-125407000D01*
X159160666Y-125473666D01*
X159160666Y-125540333D01*
X159127333Y-125607000D01*
X159094000Y-125640333D01*
X159027333Y-125673666D01*
X158894000Y-125707000D01*
X158727333Y-125707000D01*
X158594000Y-125673666D01*
X158527333Y-125640333D01*
X158494000Y-125607000D01*
X158460666Y-125540333D01*
X159160666Y-124640333D02*
X159160666Y-125040333D01*
X159160666Y-124840333D02*
X158460666Y-124840333D01*
X158560666Y-124907000D01*
X158627333Y-124973666D01*
X158660666Y-125040333D01*
G04 #@! TO.C,R302*
X158050666Y-123846333D02*
X157717333Y-124079666D01*
X158050666Y-124246333D02*
X157350666Y-124246333D01*
X157350666Y-123979666D01*
X157384000Y-123913000D01*
X157417333Y-123879666D01*
X157484000Y-123846333D01*
X157584000Y-123846333D01*
X157650666Y-123879666D01*
X157684000Y-123913000D01*
X157717333Y-123979666D01*
X157717333Y-124246333D01*
X157350666Y-123613000D02*
X157350666Y-123179666D01*
X157617333Y-123413000D01*
X157617333Y-123313000D01*
X157650666Y-123246333D01*
X157684000Y-123213000D01*
X157750666Y-123179666D01*
X157917333Y-123179666D01*
X157984000Y-123213000D01*
X158017333Y-123246333D01*
X158050666Y-123313000D01*
X158050666Y-123513000D01*
X158017333Y-123579666D01*
X157984000Y-123613000D01*
X157350666Y-122746333D02*
X157350666Y-122679666D01*
X157384000Y-122613000D01*
X157417333Y-122579666D01*
X157484000Y-122546333D01*
X157617333Y-122513000D01*
X157784000Y-122513000D01*
X157917333Y-122546333D01*
X157984000Y-122579666D01*
X158017333Y-122613000D01*
X158050666Y-122679666D01*
X158050666Y-122746333D01*
X158017333Y-122813000D01*
X157984000Y-122846333D01*
X157917333Y-122879666D01*
X157784000Y-122913000D01*
X157617333Y-122913000D01*
X157484000Y-122879666D01*
X157417333Y-122846333D01*
X157384000Y-122813000D01*
X157350666Y-122746333D01*
X157417333Y-122246333D02*
X157384000Y-122213000D01*
X157350666Y-122146333D01*
X157350666Y-121979666D01*
X157384000Y-121913000D01*
X157417333Y-121879666D01*
X157484000Y-121846333D01*
X157550666Y-121846333D01*
X157650666Y-121879666D01*
X158050666Y-122279666D01*
X158050666Y-121846333D01*
G04 #@! TO.C,C501*
X136394000Y-115845333D02*
X136427333Y-115878666D01*
X136460666Y-115978666D01*
X136460666Y-116045333D01*
X136427333Y-116145333D01*
X136360666Y-116212000D01*
X136294000Y-116245333D01*
X136160666Y-116278666D01*
X136060666Y-116278666D01*
X135927333Y-116245333D01*
X135860666Y-116212000D01*
X135794000Y-116145333D01*
X135760666Y-116045333D01*
X135760666Y-115978666D01*
X135794000Y-115878666D01*
X135827333Y-115845333D01*
X135760666Y-115212000D02*
X135760666Y-115545333D01*
X136094000Y-115578666D01*
X136060666Y-115545333D01*
X136027333Y-115478666D01*
X136027333Y-115312000D01*
X136060666Y-115245333D01*
X136094000Y-115212000D01*
X136160666Y-115178666D01*
X136327333Y-115178666D01*
X136394000Y-115212000D01*
X136427333Y-115245333D01*
X136460666Y-115312000D01*
X136460666Y-115478666D01*
X136427333Y-115545333D01*
X136394000Y-115578666D01*
X135760666Y-114745333D02*
X135760666Y-114678666D01*
X135794000Y-114612000D01*
X135827333Y-114578666D01*
X135894000Y-114545333D01*
X136027333Y-114512000D01*
X136194000Y-114512000D01*
X136327333Y-114545333D01*
X136394000Y-114578666D01*
X136427333Y-114612000D01*
X136460666Y-114678666D01*
X136460666Y-114745333D01*
X136427333Y-114812000D01*
X136394000Y-114845333D01*
X136327333Y-114878666D01*
X136194000Y-114912000D01*
X136027333Y-114912000D01*
X135894000Y-114878666D01*
X135827333Y-114845333D01*
X135794000Y-114812000D01*
X135760666Y-114745333D01*
X136460666Y-113845333D02*
X136460666Y-114245333D01*
X136460666Y-114045333D02*
X135760666Y-114045333D01*
X135860666Y-114112000D01*
X135927333Y-114178666D01*
X135960666Y-114245333D01*
G04 #@! TO.C,C401*
X168126666Y-110232000D02*
X168093333Y-110265333D01*
X167993333Y-110298666D01*
X167926666Y-110298666D01*
X167826666Y-110265333D01*
X167760000Y-110198666D01*
X167726666Y-110132000D01*
X167693333Y-109998666D01*
X167693333Y-109898666D01*
X167726666Y-109765333D01*
X167760000Y-109698666D01*
X167826666Y-109632000D01*
X167926666Y-109598666D01*
X167993333Y-109598666D01*
X168093333Y-109632000D01*
X168126666Y-109665333D01*
X168726666Y-109832000D02*
X168726666Y-110298666D01*
X168560000Y-109565333D02*
X168393333Y-110065333D01*
X168826666Y-110065333D01*
X169226666Y-109598666D02*
X169293333Y-109598666D01*
X169360000Y-109632000D01*
X169393333Y-109665333D01*
X169426666Y-109732000D01*
X169460000Y-109865333D01*
X169460000Y-110032000D01*
X169426666Y-110165333D01*
X169393333Y-110232000D01*
X169360000Y-110265333D01*
X169293333Y-110298666D01*
X169226666Y-110298666D01*
X169160000Y-110265333D01*
X169126666Y-110232000D01*
X169093333Y-110165333D01*
X169060000Y-110032000D01*
X169060000Y-109865333D01*
X169093333Y-109732000D01*
X169126666Y-109665333D01*
X169160000Y-109632000D01*
X169226666Y-109598666D01*
X170126666Y-110298666D02*
X169726666Y-110298666D01*
X169926666Y-110298666D02*
X169926666Y-109598666D01*
X169860000Y-109698666D01*
X169793333Y-109765333D01*
X169726666Y-109798666D01*
G04 #@! TO.C,J101*
X171364201Y-107293007D02*
X171797214Y-107543007D01*
X171867150Y-107621874D01*
X171891551Y-107712943D01*
X171870419Y-107816212D01*
X171837086Y-107873947D01*
X172320419Y-107036789D02*
X172120419Y-107383199D01*
X172220419Y-107209994D02*
X171614201Y-106859994D01*
X171667470Y-106967729D01*
X171691872Y-107058797D01*
X171687406Y-107133199D01*
X171930868Y-106311511D02*
X171964201Y-106253776D01*
X172026402Y-106212708D01*
X172071936Y-106200507D01*
X172146338Y-106204973D01*
X172278475Y-106242772D01*
X172422812Y-106326105D01*
X172521615Y-106421639D01*
X172562684Y-106483840D01*
X172574885Y-106529375D01*
X172570419Y-106603776D01*
X172537086Y-106661511D01*
X172474885Y-106702580D01*
X172429351Y-106714780D01*
X172354949Y-106710315D01*
X172222812Y-106672515D01*
X172078475Y-106589182D01*
X171979671Y-106493648D01*
X171938603Y-106431447D01*
X171926402Y-106385913D01*
X171930868Y-106311511D01*
X172987086Y-105882088D02*
X172787086Y-106228499D01*
X172887086Y-106055293D02*
X172280868Y-105705293D01*
X172334137Y-105813028D01*
X172358539Y-105904097D01*
X172354073Y-105978499D01*
G04 #@! TO.C,U303*
X163827666Y-125152000D02*
X164394333Y-125152000D01*
X164461000Y-125118666D01*
X164494333Y-125085333D01*
X164527666Y-125018666D01*
X164527666Y-124885333D01*
X164494333Y-124818666D01*
X164461000Y-124785333D01*
X164394333Y-124752000D01*
X163827666Y-124752000D01*
X163827666Y-124485333D02*
X163827666Y-124052000D01*
X164094333Y-124285333D01*
X164094333Y-124185333D01*
X164127666Y-124118666D01*
X164161000Y-124085333D01*
X164227666Y-124052000D01*
X164394333Y-124052000D01*
X164461000Y-124085333D01*
X164494333Y-124118666D01*
X164527666Y-124185333D01*
X164527666Y-124385333D01*
X164494333Y-124452000D01*
X164461000Y-124485333D01*
X163827666Y-123618666D02*
X163827666Y-123552000D01*
X163861000Y-123485333D01*
X163894333Y-123452000D01*
X163961000Y-123418666D01*
X164094333Y-123385333D01*
X164261000Y-123385333D01*
X164394333Y-123418666D01*
X164461000Y-123452000D01*
X164494333Y-123485333D01*
X164527666Y-123552000D01*
X164527666Y-123618666D01*
X164494333Y-123685333D01*
X164461000Y-123718666D01*
X164394333Y-123752000D01*
X164261000Y-123785333D01*
X164094333Y-123785333D01*
X163961000Y-123752000D01*
X163894333Y-123718666D01*
X163861000Y-123685333D01*
X163827666Y-123618666D01*
X163827666Y-123152000D02*
X163827666Y-122718666D01*
X164094333Y-122952000D01*
X164094333Y-122852000D01*
X164127666Y-122785333D01*
X164161000Y-122752000D01*
X164227666Y-122718666D01*
X164394333Y-122718666D01*
X164461000Y-122752000D01*
X164494333Y-122785333D01*
X164527666Y-122852000D01*
X164527666Y-123052000D01*
X164494333Y-123118666D01*
X164461000Y-123152000D01*
G04 #@! TO.C,C102*
X138045000Y-85746333D02*
X138078333Y-85779666D01*
X138111666Y-85879666D01*
X138111666Y-85946333D01*
X138078333Y-86046333D01*
X138011666Y-86113000D01*
X137945000Y-86146333D01*
X137811666Y-86179666D01*
X137711666Y-86179666D01*
X137578333Y-86146333D01*
X137511666Y-86113000D01*
X137445000Y-86046333D01*
X137411666Y-85946333D01*
X137411666Y-85879666D01*
X137445000Y-85779666D01*
X137478333Y-85746333D01*
X138111666Y-85079666D02*
X138111666Y-85479666D01*
X138111666Y-85279666D02*
X137411666Y-85279666D01*
X137511666Y-85346333D01*
X137578333Y-85413000D01*
X137611666Y-85479666D01*
X137411666Y-84646333D02*
X137411666Y-84579666D01*
X137445000Y-84513000D01*
X137478333Y-84479666D01*
X137545000Y-84446333D01*
X137678333Y-84413000D01*
X137845000Y-84413000D01*
X137978333Y-84446333D01*
X138045000Y-84479666D01*
X138078333Y-84513000D01*
X138111666Y-84579666D01*
X138111666Y-84646333D01*
X138078333Y-84713000D01*
X138045000Y-84746333D01*
X137978333Y-84779666D01*
X137845000Y-84813000D01*
X137678333Y-84813000D01*
X137545000Y-84779666D01*
X137478333Y-84746333D01*
X137445000Y-84713000D01*
X137411666Y-84646333D01*
X137478333Y-84146333D02*
X137445000Y-84113000D01*
X137411666Y-84046333D01*
X137411666Y-83879666D01*
X137445000Y-83813000D01*
X137478333Y-83779666D01*
X137545000Y-83746333D01*
X137611666Y-83746333D01*
X137711666Y-83779666D01*
X138111666Y-84179666D01*
X138111666Y-83746333D01*
G04 #@! TO.C,C103*
X136267000Y-94890333D02*
X136300333Y-94923666D01*
X136333666Y-95023666D01*
X136333666Y-95090333D01*
X136300333Y-95190333D01*
X136233666Y-95257000D01*
X136167000Y-95290333D01*
X136033666Y-95323666D01*
X135933666Y-95323666D01*
X135800333Y-95290333D01*
X135733666Y-95257000D01*
X135667000Y-95190333D01*
X135633666Y-95090333D01*
X135633666Y-95023666D01*
X135667000Y-94923666D01*
X135700333Y-94890333D01*
X136333666Y-94223666D02*
X136333666Y-94623666D01*
X136333666Y-94423666D02*
X135633666Y-94423666D01*
X135733666Y-94490333D01*
X135800333Y-94557000D01*
X135833666Y-94623666D01*
X135633666Y-93790333D02*
X135633666Y-93723666D01*
X135667000Y-93657000D01*
X135700333Y-93623666D01*
X135767000Y-93590333D01*
X135900333Y-93557000D01*
X136067000Y-93557000D01*
X136200333Y-93590333D01*
X136267000Y-93623666D01*
X136300333Y-93657000D01*
X136333666Y-93723666D01*
X136333666Y-93790333D01*
X136300333Y-93857000D01*
X136267000Y-93890333D01*
X136200333Y-93923666D01*
X136067000Y-93957000D01*
X135900333Y-93957000D01*
X135767000Y-93923666D01*
X135700333Y-93890333D01*
X135667000Y-93857000D01*
X135633666Y-93790333D01*
X135633666Y-93323666D02*
X135633666Y-92890333D01*
X135900333Y-93123666D01*
X135900333Y-93023666D01*
X135933666Y-92957000D01*
X135967000Y-92923666D01*
X136033666Y-92890333D01*
X136200333Y-92890333D01*
X136267000Y-92923666D01*
X136300333Y-92957000D01*
X136333666Y-93023666D01*
X136333666Y-93223666D01*
X136300333Y-93290333D01*
X136267000Y-93323666D01*
G04 #@! TO.C,C101*
X136267000Y-85746333D02*
X136300333Y-85779666D01*
X136333666Y-85879666D01*
X136333666Y-85946333D01*
X136300333Y-86046333D01*
X136233666Y-86113000D01*
X136167000Y-86146333D01*
X136033666Y-86179666D01*
X135933666Y-86179666D01*
X135800333Y-86146333D01*
X135733666Y-86113000D01*
X135667000Y-86046333D01*
X135633666Y-85946333D01*
X135633666Y-85879666D01*
X135667000Y-85779666D01*
X135700333Y-85746333D01*
X136333666Y-85079666D02*
X136333666Y-85479666D01*
X136333666Y-85279666D02*
X135633666Y-85279666D01*
X135733666Y-85346333D01*
X135800333Y-85413000D01*
X135833666Y-85479666D01*
X135633666Y-84646333D02*
X135633666Y-84579666D01*
X135667000Y-84513000D01*
X135700333Y-84479666D01*
X135767000Y-84446333D01*
X135900333Y-84413000D01*
X136067000Y-84413000D01*
X136200333Y-84446333D01*
X136267000Y-84479666D01*
X136300333Y-84513000D01*
X136333666Y-84579666D01*
X136333666Y-84646333D01*
X136300333Y-84713000D01*
X136267000Y-84746333D01*
X136200333Y-84779666D01*
X136067000Y-84813000D01*
X135900333Y-84813000D01*
X135767000Y-84779666D01*
X135700333Y-84746333D01*
X135667000Y-84713000D01*
X135633666Y-84646333D01*
X136333666Y-83746333D02*
X136333666Y-84146333D01*
X136333666Y-83946333D02*
X135633666Y-83946333D01*
X135733666Y-84013000D01*
X135800333Y-84079666D01*
X135833666Y-84146333D01*
G04 #@! TO.C,R101*
X138111666Y-94890333D02*
X137778333Y-95123666D01*
X138111666Y-95290333D02*
X137411666Y-95290333D01*
X137411666Y-95023666D01*
X137445000Y-94957000D01*
X137478333Y-94923666D01*
X137545000Y-94890333D01*
X137645000Y-94890333D01*
X137711666Y-94923666D01*
X137745000Y-94957000D01*
X137778333Y-95023666D01*
X137778333Y-95290333D01*
X138111666Y-94223666D02*
X138111666Y-94623666D01*
X138111666Y-94423666D02*
X137411666Y-94423666D01*
X137511666Y-94490333D01*
X137578333Y-94557000D01*
X137611666Y-94623666D01*
X137411666Y-93790333D02*
X137411666Y-93723666D01*
X137445000Y-93657000D01*
X137478333Y-93623666D01*
X137545000Y-93590333D01*
X137678333Y-93557000D01*
X137845000Y-93557000D01*
X137978333Y-93590333D01*
X138045000Y-93623666D01*
X138078333Y-93657000D01*
X138111666Y-93723666D01*
X138111666Y-93790333D01*
X138078333Y-93857000D01*
X138045000Y-93890333D01*
X137978333Y-93923666D01*
X137845000Y-93957000D01*
X137678333Y-93957000D01*
X137545000Y-93923666D01*
X137478333Y-93890333D01*
X137445000Y-93857000D01*
X137411666Y-93790333D01*
X138111666Y-92890333D02*
X138111666Y-93290333D01*
X138111666Y-93090333D02*
X137411666Y-93090333D01*
X137511666Y-93157000D01*
X137578333Y-93223666D01*
X137611666Y-93290333D01*
G04 #@! TO.C,R301*
X153140666Y-109663666D02*
X152907333Y-109330333D01*
X152740666Y-109663666D02*
X152740666Y-108963666D01*
X153007333Y-108963666D01*
X153074000Y-108997000D01*
X153107333Y-109030333D01*
X153140666Y-109097000D01*
X153140666Y-109197000D01*
X153107333Y-109263666D01*
X153074000Y-109297000D01*
X153007333Y-109330333D01*
X152740666Y-109330333D01*
X153374000Y-108963666D02*
X153807333Y-108963666D01*
X153574000Y-109230333D01*
X153674000Y-109230333D01*
X153740666Y-109263666D01*
X153774000Y-109297000D01*
X153807333Y-109363666D01*
X153807333Y-109530333D01*
X153774000Y-109597000D01*
X153740666Y-109630333D01*
X153674000Y-109663666D01*
X153474000Y-109663666D01*
X153407333Y-109630333D01*
X153374000Y-109597000D01*
X154240666Y-108963666D02*
X154307333Y-108963666D01*
X154374000Y-108997000D01*
X154407333Y-109030333D01*
X154440666Y-109097000D01*
X154474000Y-109230333D01*
X154474000Y-109397000D01*
X154440666Y-109530333D01*
X154407333Y-109597000D01*
X154374000Y-109630333D01*
X154307333Y-109663666D01*
X154240666Y-109663666D01*
X154174000Y-109630333D01*
X154140666Y-109597000D01*
X154107333Y-109530333D01*
X154074000Y-109397000D01*
X154074000Y-109230333D01*
X154107333Y-109097000D01*
X154140666Y-109030333D01*
X154174000Y-108997000D01*
X154240666Y-108963666D01*
X155140666Y-109663666D02*
X154740666Y-109663666D01*
X154940666Y-109663666D02*
X154940666Y-108963666D01*
X154874000Y-109063666D01*
X154807333Y-109130333D01*
X154740666Y-109163666D01*
G04 #@! TO.C,C402*
X164316666Y-109978000D02*
X164283333Y-110011333D01*
X164183333Y-110044666D01*
X164116666Y-110044666D01*
X164016666Y-110011333D01*
X163950000Y-109944666D01*
X163916666Y-109878000D01*
X163883333Y-109744666D01*
X163883333Y-109644666D01*
X163916666Y-109511333D01*
X163950000Y-109444666D01*
X164016666Y-109378000D01*
X164116666Y-109344666D01*
X164183333Y-109344666D01*
X164283333Y-109378000D01*
X164316666Y-109411333D01*
X164916666Y-109578000D02*
X164916666Y-110044666D01*
X164750000Y-109311333D02*
X164583333Y-109811333D01*
X165016666Y-109811333D01*
X165416666Y-109344666D02*
X165483333Y-109344666D01*
X165550000Y-109378000D01*
X165583333Y-109411333D01*
X165616666Y-109478000D01*
X165650000Y-109611333D01*
X165650000Y-109778000D01*
X165616666Y-109911333D01*
X165583333Y-109978000D01*
X165550000Y-110011333D01*
X165483333Y-110044666D01*
X165416666Y-110044666D01*
X165350000Y-110011333D01*
X165316666Y-109978000D01*
X165283333Y-109911333D01*
X165250000Y-109778000D01*
X165250000Y-109611333D01*
X165283333Y-109478000D01*
X165316666Y-109411333D01*
X165350000Y-109378000D01*
X165416666Y-109344666D01*
X165916666Y-109411333D02*
X165950000Y-109378000D01*
X166016666Y-109344666D01*
X166183333Y-109344666D01*
X166250000Y-109378000D01*
X166283333Y-109411333D01*
X166316666Y-109478000D01*
X166316666Y-109544666D01*
X166283333Y-109644666D01*
X165883333Y-110044666D01*
X166316666Y-110044666D01*
G04 #@! TO.C,D401*
X160868666Y-112584666D02*
X160868666Y-111884666D01*
X161035333Y-111884666D01*
X161135333Y-111918000D01*
X161202000Y-111984666D01*
X161235333Y-112051333D01*
X161268666Y-112184666D01*
X161268666Y-112284666D01*
X161235333Y-112418000D01*
X161202000Y-112484666D01*
X161135333Y-112551333D01*
X161035333Y-112584666D01*
X160868666Y-112584666D01*
X161868666Y-112118000D02*
X161868666Y-112584666D01*
X161702000Y-111851333D02*
X161535333Y-112351333D01*
X161968666Y-112351333D01*
X162368666Y-111884666D02*
X162435333Y-111884666D01*
X162502000Y-111918000D01*
X162535333Y-111951333D01*
X162568666Y-112018000D01*
X162602000Y-112151333D01*
X162602000Y-112318000D01*
X162568666Y-112451333D01*
X162535333Y-112518000D01*
X162502000Y-112551333D01*
X162435333Y-112584666D01*
X162368666Y-112584666D01*
X162302000Y-112551333D01*
X162268666Y-112518000D01*
X162235333Y-112451333D01*
X162202000Y-112318000D01*
X162202000Y-112151333D01*
X162235333Y-112018000D01*
X162268666Y-111951333D01*
X162302000Y-111918000D01*
X162368666Y-111884666D01*
X163268666Y-112584666D02*
X162868666Y-112584666D01*
X163068666Y-112584666D02*
X163068666Y-111884666D01*
X163002000Y-111984666D01*
X162935333Y-112051333D01*
X162868666Y-112084666D01*
G04 #@! TO.C,R402*
X164316665Y-112584666D02*
X164083332Y-112251333D01*
X163916665Y-112584666D02*
X163916665Y-111884666D01*
X164183332Y-111884666D01*
X164249999Y-111918000D01*
X164283332Y-111951333D01*
X164316665Y-112018000D01*
X164316665Y-112118000D01*
X164283332Y-112184666D01*
X164249999Y-112218000D01*
X164183332Y-112251333D01*
X163916665Y-112251333D01*
X164916665Y-112118000D02*
X164916665Y-112584666D01*
X164749999Y-111851333D02*
X164583332Y-112351333D01*
X165016665Y-112351333D01*
X165416665Y-111884666D02*
X165483332Y-111884666D01*
X165549999Y-111918000D01*
X165583332Y-111951333D01*
X165616665Y-112018000D01*
X165649999Y-112151333D01*
X165649999Y-112318000D01*
X165616665Y-112451333D01*
X165583332Y-112518000D01*
X165549999Y-112551333D01*
X165483332Y-112584666D01*
X165416665Y-112584666D01*
X165349999Y-112551333D01*
X165316665Y-112518000D01*
X165283332Y-112451333D01*
X165249999Y-112318000D01*
X165249999Y-112151333D01*
X165283332Y-112018000D01*
X165316665Y-111951333D01*
X165349999Y-111918000D01*
X165416665Y-111884666D01*
X165916665Y-111951333D02*
X165949999Y-111918000D01*
X166016665Y-111884666D01*
X166183332Y-111884666D01*
X166249999Y-111918000D01*
X166283332Y-111951333D01*
X166316665Y-112018000D01*
X166316665Y-112084666D01*
X166283332Y-112184666D01*
X165883332Y-112584666D01*
X166316665Y-112584666D01*
G04 #@! TO.C,R401*
X161268666Y-110044666D02*
X161035333Y-109711333D01*
X160868666Y-110044666D02*
X160868666Y-109344666D01*
X161135333Y-109344666D01*
X161202000Y-109378000D01*
X161235333Y-109411333D01*
X161268666Y-109478000D01*
X161268666Y-109578000D01*
X161235333Y-109644666D01*
X161202000Y-109678000D01*
X161135333Y-109711333D01*
X160868666Y-109711333D01*
X161868666Y-109578000D02*
X161868666Y-110044666D01*
X161702000Y-109311333D02*
X161535333Y-109811333D01*
X161968666Y-109811333D01*
X162368666Y-109344666D02*
X162435333Y-109344666D01*
X162502000Y-109378000D01*
X162535333Y-109411333D01*
X162568666Y-109478000D01*
X162602000Y-109611333D01*
X162602000Y-109778000D01*
X162568666Y-109911333D01*
X162535333Y-109978000D01*
X162502000Y-110011333D01*
X162435333Y-110044666D01*
X162368666Y-110044666D01*
X162302000Y-110011333D01*
X162268666Y-109978000D01*
X162235333Y-109911333D01*
X162202000Y-109778000D01*
X162202000Y-109611333D01*
X162235333Y-109478000D01*
X162268666Y-109411333D01*
X162302000Y-109378000D01*
X162368666Y-109344666D01*
X163268666Y-110044666D02*
X162868666Y-110044666D01*
X163068666Y-110044666D02*
X163068666Y-109344666D01*
X163002000Y-109444666D01*
X162935333Y-109511333D01*
X162868666Y-109544666D01*
G04 #@! TO.C,AMP401*
X160136666Y-103135666D02*
X160136666Y-102802333D01*
X160336666Y-103202333D02*
X159636666Y-102969000D01*
X160336666Y-102735666D01*
X160336666Y-102502333D02*
X159636666Y-102502333D01*
X160136666Y-102269000D01*
X159636666Y-102035666D01*
X160336666Y-102035666D01*
X160336666Y-101702333D02*
X159636666Y-101702333D01*
X159636666Y-101435666D01*
X159670000Y-101369000D01*
X159703333Y-101335666D01*
X159770000Y-101302333D01*
X159870000Y-101302333D01*
X159936666Y-101335666D01*
X159970000Y-101369000D01*
X160003333Y-101435666D01*
X160003333Y-101702333D01*
X159870000Y-100702333D02*
X160336666Y-100702333D01*
X159603333Y-100869000D02*
X160103333Y-101035666D01*
X160103333Y-100602333D01*
X159636666Y-100202333D02*
X159636666Y-100135666D01*
X159670000Y-100069000D01*
X159703333Y-100035666D01*
X159770000Y-100002333D01*
X159903333Y-99969000D01*
X160070000Y-99969000D01*
X160203333Y-100002333D01*
X160270000Y-100035666D01*
X160303333Y-100069000D01*
X160336666Y-100135666D01*
X160336666Y-100202333D01*
X160303333Y-100269000D01*
X160270000Y-100302333D01*
X160203333Y-100335666D01*
X160070000Y-100369000D01*
X159903333Y-100369000D01*
X159770000Y-100335666D01*
X159703333Y-100302333D01*
X159670000Y-100269000D01*
X159636666Y-100202333D01*
X160336666Y-99302333D02*
X160336666Y-99702333D01*
X160336666Y-99502333D02*
X159636666Y-99502333D01*
X159736666Y-99569000D01*
X159803333Y-99635666D01*
X159836666Y-99702333D01*
G04 #@! TO.C,F501*
X147436000Y-123521000D02*
X147202666Y-123521000D01*
X147202666Y-123887666D02*
X147202666Y-123187666D01*
X147536000Y-123187666D01*
X148136000Y-123187666D02*
X147802666Y-123187666D01*
X147769333Y-123521000D01*
X147802666Y-123487666D01*
X147869333Y-123454333D01*
X148036000Y-123454333D01*
X148102666Y-123487666D01*
X148136000Y-123521000D01*
X148169333Y-123587666D01*
X148169333Y-123754333D01*
X148136000Y-123821000D01*
X148102666Y-123854333D01*
X148036000Y-123887666D01*
X147869333Y-123887666D01*
X147802666Y-123854333D01*
X147769333Y-123821000D01*
X148602666Y-123187666D02*
X148669333Y-123187666D01*
X148736000Y-123221000D01*
X148769333Y-123254333D01*
X148802666Y-123321000D01*
X148836000Y-123454333D01*
X148836000Y-123621000D01*
X148802666Y-123754333D01*
X148769333Y-123821000D01*
X148736000Y-123854333D01*
X148669333Y-123887666D01*
X148602666Y-123887666D01*
X148536000Y-123854333D01*
X148502666Y-123821000D01*
X148469333Y-123754333D01*
X148436000Y-123621000D01*
X148436000Y-123454333D01*
X148469333Y-123321000D01*
X148502666Y-123254333D01*
X148536000Y-123221000D01*
X148602666Y-123187666D01*
X149502666Y-123887666D02*
X149102666Y-123887666D01*
X149302666Y-123887666D02*
X149302666Y-123187666D01*
X149236000Y-123287666D01*
X149169333Y-123354333D01*
X149102666Y-123387666D01*
G04 #@! TO.C,J501*
X140070000Y-128648666D02*
X140070000Y-129148666D01*
X140036666Y-129248666D01*
X139970000Y-129315333D01*
X139870000Y-129348666D01*
X139803333Y-129348666D01*
X140736666Y-128648666D02*
X140403333Y-128648666D01*
X140370000Y-128982000D01*
X140403333Y-128948666D01*
X140470000Y-128915333D01*
X140636666Y-128915333D01*
X140703333Y-128948666D01*
X140736666Y-128982000D01*
X140770000Y-129048666D01*
X140770000Y-129215333D01*
X140736666Y-129282000D01*
X140703333Y-129315333D01*
X140636666Y-129348666D01*
X140470000Y-129348666D01*
X140403333Y-129315333D01*
X140370000Y-129282000D01*
X141203333Y-128648666D02*
X141270000Y-128648666D01*
X141336666Y-128682000D01*
X141370000Y-128715333D01*
X141403333Y-128782000D01*
X141436666Y-128915333D01*
X141436666Y-129082000D01*
X141403333Y-129215333D01*
X141370000Y-129282000D01*
X141336666Y-129315333D01*
X141270000Y-129348666D01*
X141203333Y-129348666D01*
X141136666Y-129315333D01*
X141103333Y-129282000D01*
X141070000Y-129215333D01*
X141036666Y-129082000D01*
X141036666Y-128915333D01*
X141070000Y-128782000D01*
X141103333Y-128715333D01*
X141136666Y-128682000D01*
X141203333Y-128648666D01*
X142103333Y-129348666D02*
X141703333Y-129348666D01*
X141903333Y-129348666D02*
X141903333Y-128648666D01*
X141836666Y-128748666D01*
X141770000Y-128815333D01*
X141703333Y-128848666D01*
G04 #@! TO.C,PWR501*
X153351666Y-115852333D02*
X152651666Y-115852333D01*
X152651666Y-115585666D01*
X152685000Y-115519000D01*
X152718333Y-115485666D01*
X152785000Y-115452333D01*
X152885000Y-115452333D01*
X152951666Y-115485666D01*
X152985000Y-115519000D01*
X153018333Y-115585666D01*
X153018333Y-115852333D01*
X152651666Y-115219000D02*
X153351666Y-115052333D01*
X152851666Y-114919000D01*
X153351666Y-114785666D01*
X152651666Y-114619000D01*
X153351666Y-113952333D02*
X153018333Y-114185666D01*
X153351666Y-114352333D02*
X152651666Y-114352333D01*
X152651666Y-114085666D01*
X152685000Y-114019000D01*
X152718333Y-113985666D01*
X152785000Y-113952333D01*
X152885000Y-113952333D01*
X152951666Y-113985666D01*
X152985000Y-114019000D01*
X153018333Y-114085666D01*
X153018333Y-114352333D01*
X152651666Y-113319000D02*
X152651666Y-113652333D01*
X152985000Y-113685666D01*
X152951666Y-113652333D01*
X152918333Y-113585666D01*
X152918333Y-113419000D01*
X152951666Y-113352333D01*
X152985000Y-113319000D01*
X153051666Y-113285666D01*
X153218333Y-113285666D01*
X153285000Y-113319000D01*
X153318333Y-113352333D01*
X153351666Y-113419000D01*
X153351666Y-113585666D01*
X153318333Y-113652333D01*
X153285000Y-113685666D01*
X152651666Y-112852333D02*
X152651666Y-112785666D01*
X152685000Y-112719000D01*
X152718333Y-112685666D01*
X152785000Y-112652333D01*
X152918333Y-112619000D01*
X153085000Y-112619000D01*
X153218333Y-112652333D01*
X153285000Y-112685666D01*
X153318333Y-112719000D01*
X153351666Y-112785666D01*
X153351666Y-112852333D01*
X153318333Y-112919000D01*
X153285000Y-112952333D01*
X153218333Y-112985666D01*
X153085000Y-113019000D01*
X152918333Y-113019000D01*
X152785000Y-112985666D01*
X152718333Y-112952333D01*
X152685000Y-112919000D01*
X152651666Y-112852333D01*
X153351666Y-111952333D02*
X153351666Y-112352333D01*
X153351666Y-112152333D02*
X152651666Y-112152333D01*
X152751666Y-112219000D01*
X152818333Y-112285666D01*
X152851666Y-112352333D01*
G04 #@! TO.C,D202*
X130007666Y-108393666D02*
X130007666Y-107693666D01*
X130174333Y-107693666D01*
X130274333Y-107727000D01*
X130341000Y-107793666D01*
X130374333Y-107860333D01*
X130407666Y-107993666D01*
X130407666Y-108093666D01*
X130374333Y-108227000D01*
X130341000Y-108293666D01*
X130274333Y-108360333D01*
X130174333Y-108393666D01*
X130007666Y-108393666D01*
X130674333Y-107760333D02*
X130707666Y-107727000D01*
X130774333Y-107693666D01*
X130941000Y-107693666D01*
X131007666Y-107727000D01*
X131041000Y-107760333D01*
X131074333Y-107827000D01*
X131074333Y-107893666D01*
X131041000Y-107993666D01*
X130641000Y-108393666D01*
X131074333Y-108393666D01*
X131507666Y-107693666D02*
X131574333Y-107693666D01*
X131641000Y-107727000D01*
X131674333Y-107760333D01*
X131707666Y-107827000D01*
X131741000Y-107960333D01*
X131741000Y-108127000D01*
X131707666Y-108260333D01*
X131674333Y-108327000D01*
X131641000Y-108360333D01*
X131574333Y-108393666D01*
X131507666Y-108393666D01*
X131441000Y-108360333D01*
X131407666Y-108327000D01*
X131374333Y-108260333D01*
X131341000Y-108127000D01*
X131341000Y-107960333D01*
X131374333Y-107827000D01*
X131407666Y-107760333D01*
X131441000Y-107727000D01*
X131507666Y-107693666D01*
X132007666Y-107760333D02*
X132041000Y-107727000D01*
X132107666Y-107693666D01*
X132274333Y-107693666D01*
X132341000Y-107727000D01*
X132374333Y-107760333D01*
X132407666Y-107827000D01*
X132407666Y-107893666D01*
X132374333Y-107993666D01*
X131974333Y-108393666D01*
X132407666Y-108393666D01*
G04 #@! TO.C,D203*
X130007666Y-104964666D02*
X130007666Y-104264666D01*
X130174333Y-104264666D01*
X130274333Y-104298000D01*
X130341000Y-104364666D01*
X130374333Y-104431333D01*
X130407666Y-104564666D01*
X130407666Y-104664666D01*
X130374333Y-104798000D01*
X130341000Y-104864666D01*
X130274333Y-104931333D01*
X130174333Y-104964666D01*
X130007666Y-104964666D01*
X130674333Y-104331333D02*
X130707666Y-104298000D01*
X130774333Y-104264666D01*
X130941000Y-104264666D01*
X131007666Y-104298000D01*
X131041000Y-104331333D01*
X131074333Y-104398000D01*
X131074333Y-104464666D01*
X131041000Y-104564666D01*
X130641000Y-104964666D01*
X131074333Y-104964666D01*
X131507666Y-104264666D02*
X131574333Y-104264666D01*
X131641000Y-104298000D01*
X131674333Y-104331333D01*
X131707666Y-104398000D01*
X131741000Y-104531333D01*
X131741000Y-104698000D01*
X131707666Y-104831333D01*
X131674333Y-104898000D01*
X131641000Y-104931333D01*
X131574333Y-104964666D01*
X131507666Y-104964666D01*
X131441000Y-104931333D01*
X131407666Y-104898000D01*
X131374333Y-104831333D01*
X131341000Y-104698000D01*
X131341000Y-104531333D01*
X131374333Y-104398000D01*
X131407666Y-104331333D01*
X131441000Y-104298000D01*
X131507666Y-104264666D01*
X131974333Y-104264666D02*
X132407666Y-104264666D01*
X132174333Y-104531333D01*
X132274333Y-104531333D01*
X132341000Y-104564666D01*
X132374333Y-104598000D01*
X132407666Y-104664666D01*
X132407666Y-104831333D01*
X132374333Y-104898000D01*
X132341000Y-104931333D01*
X132274333Y-104964666D01*
X132074333Y-104964666D01*
X132007666Y-104931333D01*
X131974333Y-104898000D01*
G04 #@! TO.C,D204*
X129880666Y-101662666D02*
X129880666Y-100962666D01*
X130047333Y-100962666D01*
X130147333Y-100996000D01*
X130214000Y-101062666D01*
X130247333Y-101129333D01*
X130280666Y-101262666D01*
X130280666Y-101362666D01*
X130247333Y-101496000D01*
X130214000Y-101562666D01*
X130147333Y-101629333D01*
X130047333Y-101662666D01*
X129880666Y-101662666D01*
X130547333Y-101029333D02*
X130580666Y-100996000D01*
X130647333Y-100962666D01*
X130814000Y-100962666D01*
X130880666Y-100996000D01*
X130914000Y-101029333D01*
X130947333Y-101096000D01*
X130947333Y-101162666D01*
X130914000Y-101262666D01*
X130514000Y-101662666D01*
X130947333Y-101662666D01*
X131380666Y-100962666D02*
X131447333Y-100962666D01*
X131514000Y-100996000D01*
X131547333Y-101029333D01*
X131580666Y-101096000D01*
X131614000Y-101229333D01*
X131614000Y-101396000D01*
X131580666Y-101529333D01*
X131547333Y-101596000D01*
X131514000Y-101629333D01*
X131447333Y-101662666D01*
X131380666Y-101662666D01*
X131314000Y-101629333D01*
X131280666Y-101596000D01*
X131247333Y-101529333D01*
X131214000Y-101396000D01*
X131214000Y-101229333D01*
X131247333Y-101096000D01*
X131280666Y-101029333D01*
X131314000Y-100996000D01*
X131380666Y-100962666D01*
X132214000Y-101196000D02*
X132214000Y-101662666D01*
X132047333Y-100929333D02*
X131880666Y-101429333D01*
X132314000Y-101429333D01*
G04 #@! TO.C,D201*
X130007666Y-111822666D02*
X130007666Y-111122666D01*
X130174333Y-111122666D01*
X130274333Y-111156000D01*
X130341000Y-111222666D01*
X130374333Y-111289333D01*
X130407666Y-111422666D01*
X130407666Y-111522666D01*
X130374333Y-111656000D01*
X130341000Y-111722666D01*
X130274333Y-111789333D01*
X130174333Y-111822666D01*
X130007666Y-111822666D01*
X130674333Y-111189333D02*
X130707666Y-111156000D01*
X130774333Y-111122666D01*
X130941000Y-111122666D01*
X131007666Y-111156000D01*
X131041000Y-111189333D01*
X131074333Y-111256000D01*
X131074333Y-111322666D01*
X131041000Y-111422666D01*
X130641000Y-111822666D01*
X131074333Y-111822666D01*
X131507666Y-111122666D02*
X131574333Y-111122666D01*
X131641000Y-111156000D01*
X131674333Y-111189333D01*
X131707666Y-111256000D01*
X131741000Y-111389333D01*
X131741000Y-111556000D01*
X131707666Y-111689333D01*
X131674333Y-111756000D01*
X131641000Y-111789333D01*
X131574333Y-111822666D01*
X131507666Y-111822666D01*
X131441000Y-111789333D01*
X131407666Y-111756000D01*
X131374333Y-111689333D01*
X131341000Y-111556000D01*
X131341000Y-111389333D01*
X131374333Y-111256000D01*
X131407666Y-111189333D01*
X131441000Y-111156000D01*
X131507666Y-111122666D01*
X132407666Y-111822666D02*
X132007666Y-111822666D01*
X132207666Y-111822666D02*
X132207666Y-111122666D01*
X132141000Y-111222666D01*
X132074333Y-111289333D01*
X132007666Y-111322666D01*
G04 #@! TO.C,U301*
X159001666Y-116008000D02*
X159568333Y-116008000D01*
X159635000Y-115974666D01*
X159668333Y-115941333D01*
X159701666Y-115874666D01*
X159701666Y-115741333D01*
X159668333Y-115674666D01*
X159635000Y-115641333D01*
X159568333Y-115608000D01*
X159001666Y-115608000D01*
X159001666Y-115341333D02*
X159001666Y-114908000D01*
X159268333Y-115141333D01*
X159268333Y-115041333D01*
X159301666Y-114974666D01*
X159335000Y-114941333D01*
X159401666Y-114908000D01*
X159568333Y-114908000D01*
X159635000Y-114941333D01*
X159668333Y-114974666D01*
X159701666Y-115041333D01*
X159701666Y-115241333D01*
X159668333Y-115308000D01*
X159635000Y-115341333D01*
X159001666Y-114474666D02*
X159001666Y-114408000D01*
X159035000Y-114341333D01*
X159068333Y-114308000D01*
X159135000Y-114274666D01*
X159268333Y-114241333D01*
X159435000Y-114241333D01*
X159568333Y-114274666D01*
X159635000Y-114308000D01*
X159668333Y-114341333D01*
X159701666Y-114408000D01*
X159701666Y-114474666D01*
X159668333Y-114541333D01*
X159635000Y-114574666D01*
X159568333Y-114608000D01*
X159435000Y-114641333D01*
X159268333Y-114641333D01*
X159135000Y-114608000D01*
X159068333Y-114574666D01*
X159035000Y-114541333D01*
X159001666Y-114474666D01*
X159701666Y-113574666D02*
X159701666Y-113974666D01*
X159701666Y-113774666D02*
X159001666Y-113774666D01*
X159101666Y-113841333D01*
X159168333Y-113908000D01*
X159201666Y-113974666D01*
G04 #@! TO.C,U302*
X159001666Y-119437000D02*
X159568333Y-119437000D01*
X159635000Y-119403666D01*
X159668333Y-119370333D01*
X159701666Y-119303666D01*
X159701666Y-119170333D01*
X159668333Y-119103666D01*
X159635000Y-119070333D01*
X159568333Y-119037000D01*
X159001666Y-119037000D01*
X159001666Y-118770333D02*
X159001666Y-118337000D01*
X159268333Y-118570333D01*
X159268333Y-118470333D01*
X159301666Y-118403666D01*
X159335000Y-118370333D01*
X159401666Y-118337000D01*
X159568333Y-118337000D01*
X159635000Y-118370333D01*
X159668333Y-118403666D01*
X159701666Y-118470333D01*
X159701666Y-118670333D01*
X159668333Y-118737000D01*
X159635000Y-118770333D01*
X159001666Y-117903666D02*
X159001666Y-117837000D01*
X159035000Y-117770333D01*
X159068333Y-117737000D01*
X159135000Y-117703666D01*
X159268333Y-117670333D01*
X159435000Y-117670333D01*
X159568333Y-117703666D01*
X159635000Y-117737000D01*
X159668333Y-117770333D01*
X159701666Y-117837000D01*
X159701666Y-117903666D01*
X159668333Y-117970333D01*
X159635000Y-118003666D01*
X159568333Y-118037000D01*
X159435000Y-118070333D01*
X159268333Y-118070333D01*
X159135000Y-118037000D01*
X159068333Y-118003666D01*
X159035000Y-117970333D01*
X159001666Y-117903666D01*
X159068333Y-117403666D02*
X159035000Y-117370333D01*
X159001666Y-117303666D01*
X159001666Y-117137000D01*
X159035000Y-117070333D01*
X159068333Y-117037000D01*
X159135000Y-117003666D01*
X159201666Y-117003666D01*
X159301666Y-117037000D01*
X159701666Y-117437000D01*
X159701666Y-117003666D01*
G04 #@! TO.C,Q301*
X164848333Y-115287333D02*
X164815000Y-115354000D01*
X164748333Y-115420666D01*
X164648333Y-115520666D01*
X164615000Y-115587333D01*
X164615000Y-115654000D01*
X164781666Y-115620666D02*
X164748333Y-115687333D01*
X164681666Y-115754000D01*
X164548333Y-115787333D01*
X164315000Y-115787333D01*
X164181666Y-115754000D01*
X164115000Y-115687333D01*
X164081666Y-115620666D01*
X164081666Y-115487333D01*
X164115000Y-115420666D01*
X164181666Y-115354000D01*
X164315000Y-115320666D01*
X164548333Y-115320666D01*
X164681666Y-115354000D01*
X164748333Y-115420666D01*
X164781666Y-115487333D01*
X164781666Y-115620666D01*
X164081666Y-115087333D02*
X164081666Y-114654000D01*
X164348333Y-114887333D01*
X164348333Y-114787333D01*
X164381666Y-114720666D01*
X164415000Y-114687333D01*
X164481666Y-114654000D01*
X164648333Y-114654000D01*
X164715000Y-114687333D01*
X164748333Y-114720666D01*
X164781666Y-114787333D01*
X164781666Y-114987333D01*
X164748333Y-115054000D01*
X164715000Y-115087333D01*
X164081666Y-114220666D02*
X164081666Y-114154000D01*
X164115000Y-114087333D01*
X164148333Y-114054000D01*
X164215000Y-114020666D01*
X164348333Y-113987333D01*
X164515000Y-113987333D01*
X164648333Y-114020666D01*
X164715000Y-114054000D01*
X164748333Y-114087333D01*
X164781666Y-114154000D01*
X164781666Y-114220666D01*
X164748333Y-114287333D01*
X164715000Y-114320666D01*
X164648333Y-114354000D01*
X164515000Y-114387333D01*
X164348333Y-114387333D01*
X164215000Y-114354000D01*
X164148333Y-114320666D01*
X164115000Y-114287333D01*
X164081666Y-114220666D01*
X164781666Y-113320666D02*
X164781666Y-113720666D01*
X164781666Y-113520666D02*
X164081666Y-113520666D01*
X164181666Y-113587333D01*
X164248333Y-113654000D01*
X164281666Y-113720666D01*
G04 #@! TO.C,Q204*
X137924333Y-112112333D02*
X137891000Y-112179000D01*
X137824333Y-112245666D01*
X137724333Y-112345666D01*
X137691000Y-112412333D01*
X137691000Y-112479000D01*
X137857666Y-112445666D02*
X137824333Y-112512333D01*
X137757666Y-112579000D01*
X137624333Y-112612333D01*
X137391000Y-112612333D01*
X137257666Y-112579000D01*
X137191000Y-112512333D01*
X137157666Y-112445666D01*
X137157666Y-112312333D01*
X137191000Y-112245666D01*
X137257666Y-112179000D01*
X137391000Y-112145666D01*
X137624333Y-112145666D01*
X137757666Y-112179000D01*
X137824333Y-112245666D01*
X137857666Y-112312333D01*
X137857666Y-112445666D01*
X137224333Y-111879000D02*
X137191000Y-111845666D01*
X137157666Y-111779000D01*
X137157666Y-111612333D01*
X137191000Y-111545666D01*
X137224333Y-111512333D01*
X137291000Y-111479000D01*
X137357666Y-111479000D01*
X137457666Y-111512333D01*
X137857666Y-111912333D01*
X137857666Y-111479000D01*
X137157666Y-111045666D02*
X137157666Y-110979000D01*
X137191000Y-110912333D01*
X137224333Y-110879000D01*
X137291000Y-110845666D01*
X137424333Y-110812333D01*
X137591000Y-110812333D01*
X137724333Y-110845666D01*
X137791000Y-110879000D01*
X137824333Y-110912333D01*
X137857666Y-110979000D01*
X137857666Y-111045666D01*
X137824333Y-111112333D01*
X137791000Y-111145666D01*
X137724333Y-111179000D01*
X137591000Y-111212333D01*
X137424333Y-111212333D01*
X137291000Y-111179000D01*
X137224333Y-111145666D01*
X137191000Y-111112333D01*
X137157666Y-111045666D01*
X137391000Y-110212333D02*
X137857666Y-110212333D01*
X137124333Y-110379000D02*
X137624333Y-110545666D01*
X137624333Y-110112333D01*
G04 #@! TO.C,Q203*
X137924333Y-108683333D02*
X137891000Y-108750000D01*
X137824333Y-108816666D01*
X137724333Y-108916666D01*
X137691000Y-108983333D01*
X137691000Y-109050000D01*
X137857666Y-109016666D02*
X137824333Y-109083333D01*
X137757666Y-109150000D01*
X137624333Y-109183333D01*
X137391000Y-109183333D01*
X137257666Y-109150000D01*
X137191000Y-109083333D01*
X137157666Y-109016666D01*
X137157666Y-108883333D01*
X137191000Y-108816666D01*
X137257666Y-108750000D01*
X137391000Y-108716666D01*
X137624333Y-108716666D01*
X137757666Y-108750000D01*
X137824333Y-108816666D01*
X137857666Y-108883333D01*
X137857666Y-109016666D01*
X137224333Y-108450000D02*
X137191000Y-108416666D01*
X137157666Y-108350000D01*
X137157666Y-108183333D01*
X137191000Y-108116666D01*
X137224333Y-108083333D01*
X137291000Y-108050000D01*
X137357666Y-108050000D01*
X137457666Y-108083333D01*
X137857666Y-108483333D01*
X137857666Y-108050000D01*
X137157666Y-107616666D02*
X137157666Y-107550000D01*
X137191000Y-107483333D01*
X137224333Y-107450000D01*
X137291000Y-107416666D01*
X137424333Y-107383333D01*
X137591000Y-107383333D01*
X137724333Y-107416666D01*
X137791000Y-107450000D01*
X137824333Y-107483333D01*
X137857666Y-107550000D01*
X137857666Y-107616666D01*
X137824333Y-107683333D01*
X137791000Y-107716666D01*
X137724333Y-107750000D01*
X137591000Y-107783333D01*
X137424333Y-107783333D01*
X137291000Y-107750000D01*
X137224333Y-107716666D01*
X137191000Y-107683333D01*
X137157666Y-107616666D01*
X137157666Y-107150000D02*
X137157666Y-106716666D01*
X137424333Y-106950000D01*
X137424333Y-106850000D01*
X137457666Y-106783333D01*
X137491000Y-106750000D01*
X137557666Y-106716666D01*
X137724333Y-106716666D01*
X137791000Y-106750000D01*
X137824333Y-106783333D01*
X137857666Y-106850000D01*
X137857666Y-107050000D01*
X137824333Y-107116666D01*
X137791000Y-107150000D01*
G04 #@! TO.C,Q202*
X137924333Y-105254333D02*
X137891000Y-105321000D01*
X137824333Y-105387666D01*
X137724333Y-105487666D01*
X137691000Y-105554333D01*
X137691000Y-105621000D01*
X137857666Y-105587666D02*
X137824333Y-105654333D01*
X137757666Y-105721000D01*
X137624333Y-105754333D01*
X137391000Y-105754333D01*
X137257666Y-105721000D01*
X137191000Y-105654333D01*
X137157666Y-105587666D01*
X137157666Y-105454333D01*
X137191000Y-105387666D01*
X137257666Y-105321000D01*
X137391000Y-105287666D01*
X137624333Y-105287666D01*
X137757666Y-105321000D01*
X137824333Y-105387666D01*
X137857666Y-105454333D01*
X137857666Y-105587666D01*
X137224333Y-105021000D02*
X137191000Y-104987666D01*
X137157666Y-104921000D01*
X137157666Y-104754333D01*
X137191000Y-104687666D01*
X137224333Y-104654333D01*
X137291000Y-104621000D01*
X137357666Y-104621000D01*
X137457666Y-104654333D01*
X137857666Y-105054333D01*
X137857666Y-104621000D01*
X137157666Y-104187666D02*
X137157666Y-104121000D01*
X137191000Y-104054333D01*
X137224333Y-104021000D01*
X137291000Y-103987666D01*
X137424333Y-103954333D01*
X137591000Y-103954333D01*
X137724333Y-103987666D01*
X137791000Y-104021000D01*
X137824333Y-104054333D01*
X137857666Y-104121000D01*
X137857666Y-104187666D01*
X137824333Y-104254333D01*
X137791000Y-104287666D01*
X137724333Y-104321000D01*
X137591000Y-104354333D01*
X137424333Y-104354333D01*
X137291000Y-104321000D01*
X137224333Y-104287666D01*
X137191000Y-104254333D01*
X137157666Y-104187666D01*
X137224333Y-103687666D02*
X137191000Y-103654333D01*
X137157666Y-103587666D01*
X137157666Y-103421000D01*
X137191000Y-103354333D01*
X137224333Y-103321000D01*
X137291000Y-103287666D01*
X137357666Y-103287666D01*
X137457666Y-103321000D01*
X137857666Y-103721000D01*
X137857666Y-103287666D01*
G04 #@! TO.C,Q201*
X137924333Y-101825333D02*
X137891000Y-101892000D01*
X137824333Y-101958666D01*
X137724333Y-102058666D01*
X137691000Y-102125333D01*
X137691000Y-102192000D01*
X137857666Y-102158666D02*
X137824333Y-102225333D01*
X137757666Y-102292000D01*
X137624333Y-102325333D01*
X137391000Y-102325333D01*
X137257666Y-102292000D01*
X137191000Y-102225333D01*
X137157666Y-102158666D01*
X137157666Y-102025333D01*
X137191000Y-101958666D01*
X137257666Y-101892000D01*
X137391000Y-101858666D01*
X137624333Y-101858666D01*
X137757666Y-101892000D01*
X137824333Y-101958666D01*
X137857666Y-102025333D01*
X137857666Y-102158666D01*
X137224333Y-101592000D02*
X137191000Y-101558666D01*
X137157666Y-101492000D01*
X137157666Y-101325333D01*
X137191000Y-101258666D01*
X137224333Y-101225333D01*
X137291000Y-101192000D01*
X137357666Y-101192000D01*
X137457666Y-101225333D01*
X137857666Y-101625333D01*
X137857666Y-101192000D01*
X137157666Y-100758666D02*
X137157666Y-100692000D01*
X137191000Y-100625333D01*
X137224333Y-100592000D01*
X137291000Y-100558666D01*
X137424333Y-100525333D01*
X137591000Y-100525333D01*
X137724333Y-100558666D01*
X137791000Y-100592000D01*
X137824333Y-100625333D01*
X137857666Y-100692000D01*
X137857666Y-100758666D01*
X137824333Y-100825333D01*
X137791000Y-100858666D01*
X137724333Y-100892000D01*
X137591000Y-100925333D01*
X137424333Y-100925333D01*
X137291000Y-100892000D01*
X137224333Y-100858666D01*
X137191000Y-100825333D01*
X137157666Y-100758666D01*
X137857666Y-99858666D02*
X137857666Y-100258666D01*
X137857666Y-100058666D02*
X137157666Y-100058666D01*
X137257666Y-100125333D01*
X137324333Y-100192000D01*
X137357666Y-100258666D01*
G04 #@! TO.C,U401*
X159636666Y-106864000D02*
X160203333Y-106864000D01*
X160270000Y-106830666D01*
X160303333Y-106797333D01*
X160336666Y-106730666D01*
X160336666Y-106597333D01*
X160303333Y-106530666D01*
X160270000Y-106497333D01*
X160203333Y-106464000D01*
X159636666Y-106464000D01*
X159870000Y-105830666D02*
X160336666Y-105830666D01*
X159603333Y-105997333D02*
X160103333Y-106164000D01*
X160103333Y-105730666D01*
X159636666Y-105330666D02*
X159636666Y-105264000D01*
X159670000Y-105197333D01*
X159703333Y-105164000D01*
X159770000Y-105130666D01*
X159903333Y-105097333D01*
X160070000Y-105097333D01*
X160203333Y-105130666D01*
X160270000Y-105164000D01*
X160303333Y-105197333D01*
X160336666Y-105264000D01*
X160336666Y-105330666D01*
X160303333Y-105397333D01*
X160270000Y-105430666D01*
X160203333Y-105464000D01*
X160070000Y-105497333D01*
X159903333Y-105497333D01*
X159770000Y-105464000D01*
X159703333Y-105430666D01*
X159670000Y-105397333D01*
X159636666Y-105330666D01*
X160336666Y-104430666D02*
X160336666Y-104830666D01*
X160336666Y-104630666D02*
X159636666Y-104630666D01*
X159736666Y-104697333D01*
X159803333Y-104764000D01*
X159836666Y-104830666D01*
G04 #@! TO.C,D106*
X167374229Y-116992395D02*
X166768011Y-116642395D01*
X166851345Y-116498057D01*
X166930212Y-116428121D01*
X167021281Y-116403719D01*
X167095682Y-116408185D01*
X167227819Y-116445984D01*
X167314422Y-116495984D01*
X167413225Y-116591519D01*
X167454293Y-116653719D01*
X167478695Y-116744788D01*
X167457563Y-116848057D01*
X167374229Y-116992395D01*
X167907563Y-116068634D02*
X167707563Y-116415044D01*
X167807563Y-116241839D02*
X167201345Y-115891839D01*
X167254614Y-115999574D01*
X167279016Y-116090643D01*
X167274550Y-116165044D01*
X167518011Y-115343356D02*
X167551345Y-115285621D01*
X167613546Y-115244553D01*
X167659080Y-115232352D01*
X167733481Y-115236818D01*
X167865618Y-115274617D01*
X168009956Y-115357951D01*
X168108759Y-115453485D01*
X168149828Y-115515686D01*
X168162028Y-115561220D01*
X168157563Y-115635621D01*
X168124229Y-115693356D01*
X168062028Y-115734425D01*
X168016494Y-115746626D01*
X167942092Y-115742160D01*
X167809956Y-115704361D01*
X167665618Y-115621027D01*
X167566815Y-115525493D01*
X167525746Y-115463292D01*
X167513546Y-115417758D01*
X167518011Y-115343356D01*
X167934678Y-114621669D02*
X167868011Y-114737139D01*
X167863546Y-114811540D01*
X167875746Y-114857075D01*
X167929016Y-114964810D01*
X168027819Y-115060344D01*
X168258759Y-115193677D01*
X168333161Y-115198143D01*
X168378695Y-115185942D01*
X168440896Y-115144874D01*
X168507563Y-115029404D01*
X168512028Y-114955002D01*
X168499828Y-114909468D01*
X168458759Y-114847267D01*
X168314422Y-114763934D01*
X168240020Y-114759468D01*
X168194486Y-114771669D01*
X168132285Y-114812737D01*
X168065618Y-114928207D01*
X168061152Y-115002609D01*
X168073353Y-115048143D01*
X168114422Y-115110344D01*
G04 #@! TO.C,D105*
X147406666Y-127443666D02*
X147406666Y-126743666D01*
X147573333Y-126743666D01*
X147673333Y-126777000D01*
X147740000Y-126843666D01*
X147773333Y-126910333D01*
X147806666Y-127043666D01*
X147806666Y-127143666D01*
X147773333Y-127277000D01*
X147740000Y-127343666D01*
X147673333Y-127410333D01*
X147573333Y-127443666D01*
X147406666Y-127443666D01*
X148473333Y-127443666D02*
X148073333Y-127443666D01*
X148273333Y-127443666D02*
X148273333Y-126743666D01*
X148206666Y-126843666D01*
X148140000Y-126910333D01*
X148073333Y-126943666D01*
X148906666Y-126743666D02*
X148973333Y-126743666D01*
X149040000Y-126777000D01*
X149073333Y-126810333D01*
X149106666Y-126877000D01*
X149140000Y-127010333D01*
X149140000Y-127177000D01*
X149106666Y-127310333D01*
X149073333Y-127377000D01*
X149040000Y-127410333D01*
X148973333Y-127443666D01*
X148906666Y-127443666D01*
X148840000Y-127410333D01*
X148806666Y-127377000D01*
X148773333Y-127310333D01*
X148740000Y-127177000D01*
X148740000Y-127010333D01*
X148773333Y-126877000D01*
X148806666Y-126810333D01*
X148840000Y-126777000D01*
X148906666Y-126743666D01*
X149773333Y-126743666D02*
X149440000Y-126743666D01*
X149406666Y-127077000D01*
X149440000Y-127043666D01*
X149506666Y-127010333D01*
X149673333Y-127010333D01*
X149740000Y-127043666D01*
X149773333Y-127077000D01*
X149806666Y-127143666D01*
X149806666Y-127310333D01*
X149773333Y-127377000D01*
X149740000Y-127410333D01*
X149673333Y-127443666D01*
X149506666Y-127443666D01*
X149440000Y-127410333D01*
X149406666Y-127377000D01*
G04 #@! TO.C,D104*
X128749436Y-115162771D02*
X129355654Y-114812771D01*
X129438988Y-114957109D01*
X129460120Y-115060378D01*
X129435718Y-115151446D01*
X129394650Y-115213647D01*
X129295847Y-115309181D01*
X129209244Y-115359181D01*
X129077107Y-115396980D01*
X129002706Y-115401446D01*
X128911637Y-115377045D01*
X128832770Y-115307109D01*
X128749436Y-115162771D01*
X129282770Y-116086532D02*
X129082770Y-115740121D01*
X129182770Y-115913326D02*
X129788988Y-115563326D01*
X129669052Y-115555591D01*
X129577983Y-115531190D01*
X129515782Y-115490121D01*
X130105654Y-116111809D02*
X130138988Y-116169544D01*
X130143453Y-116243946D01*
X130131253Y-116289480D01*
X130090184Y-116351681D01*
X129991381Y-116447215D01*
X129847043Y-116530548D01*
X129714907Y-116568348D01*
X129640505Y-116572813D01*
X129594971Y-116560613D01*
X129532770Y-116519544D01*
X129499436Y-116461809D01*
X129494971Y-116387408D01*
X129507171Y-116341873D01*
X129548240Y-116279672D01*
X129647043Y-116184138D01*
X129791381Y-116100805D01*
X129923518Y-116063006D01*
X129997919Y-116058540D01*
X130043453Y-116070741D01*
X130105654Y-116111809D01*
X130320248Y-116950164D02*
X129916103Y-117183497D01*
X130467855Y-116672493D02*
X129951509Y-116778155D01*
X130168176Y-117153433D01*
G04 #@! TO.C,D103*
X126301574Y-97830130D02*
X125695356Y-97480130D01*
X125778690Y-97335792D01*
X125857557Y-97265856D01*
X125948626Y-97241454D01*
X126023027Y-97245920D01*
X126155164Y-97283719D01*
X126241767Y-97333719D01*
X126340570Y-97429254D01*
X126381638Y-97491454D01*
X126406040Y-97582523D01*
X126384908Y-97685792D01*
X126301574Y-97830130D01*
X126834908Y-96906369D02*
X126634908Y-97252779D01*
X126734908Y-97079574D02*
X126128690Y-96729574D01*
X126181959Y-96837309D01*
X126206361Y-96928378D01*
X126201895Y-97002779D01*
X126445356Y-96181091D02*
X126478690Y-96123356D01*
X126540891Y-96082288D01*
X126586425Y-96070087D01*
X126660826Y-96074553D01*
X126792963Y-96112352D01*
X126937301Y-96195686D01*
X127036104Y-96291220D01*
X127077173Y-96353421D01*
X127089373Y-96398955D01*
X127084908Y-96473356D01*
X127051574Y-96531091D01*
X126989373Y-96572160D01*
X126943839Y-96584361D01*
X126869437Y-96579895D01*
X126737301Y-96542096D01*
X126592963Y-96458762D01*
X126494160Y-96363228D01*
X126453091Y-96301027D01*
X126440891Y-96255493D01*
X126445356Y-96181091D01*
X126678690Y-95776946D02*
X126895356Y-95401669D01*
X127009630Y-95737075D01*
X127059630Y-95650472D01*
X127121831Y-95609404D01*
X127167365Y-95597203D01*
X127241767Y-95601669D01*
X127386104Y-95685002D01*
X127427173Y-95747203D01*
X127439373Y-95792737D01*
X127434908Y-95867139D01*
X127334908Y-96040344D01*
X127272707Y-96081412D01*
X127227173Y-96093613D01*
G04 #@! TO.C,D101*
X166012091Y-89557536D02*
X166618309Y-89207536D01*
X166701643Y-89351874D01*
X166722775Y-89455143D01*
X166698373Y-89546211D01*
X166657305Y-89608412D01*
X166558502Y-89703946D01*
X166471899Y-89753946D01*
X166339762Y-89791745D01*
X166265361Y-89796211D01*
X166174292Y-89771810D01*
X166095425Y-89701874D01*
X166012091Y-89557536D01*
X166545425Y-90481297D02*
X166345425Y-90134886D01*
X166445425Y-90308091D02*
X167051643Y-89958091D01*
X166931707Y-89950356D01*
X166840638Y-89925955D01*
X166778437Y-89884886D01*
X167368309Y-90506574D02*
X167401643Y-90564309D01*
X167406108Y-90638711D01*
X167393908Y-90684245D01*
X167352839Y-90746446D01*
X167254036Y-90841980D01*
X167109698Y-90925313D01*
X166977562Y-90963113D01*
X166903160Y-90967578D01*
X166857626Y-90955378D01*
X166795425Y-90914309D01*
X166762091Y-90856574D01*
X166757626Y-90782173D01*
X166769826Y-90736638D01*
X166810895Y-90674437D01*
X166909698Y-90578903D01*
X167054036Y-90495570D01*
X167186173Y-90457771D01*
X167260574Y-90453305D01*
X167306108Y-90465506D01*
X167368309Y-90506574D01*
X167212091Y-91635997D02*
X167012091Y-91289587D01*
X167112091Y-91462792D02*
X167718309Y-91112792D01*
X167598373Y-91105057D01*
X167507305Y-91080655D01*
X167445104Y-91039587D01*
G04 #@! TO.C,D301*
X159701666Y-112816333D02*
X159001666Y-112816333D01*
X159001666Y-112649666D01*
X159035000Y-112549666D01*
X159101666Y-112483000D01*
X159168333Y-112449666D01*
X159301666Y-112416333D01*
X159401666Y-112416333D01*
X159535000Y-112449666D01*
X159601666Y-112483000D01*
X159668333Y-112549666D01*
X159701666Y-112649666D01*
X159701666Y-112816333D01*
X159001666Y-112183000D02*
X159001666Y-111749666D01*
X159268333Y-111983000D01*
X159268333Y-111883000D01*
X159301666Y-111816333D01*
X159335000Y-111783000D01*
X159401666Y-111749666D01*
X159568333Y-111749666D01*
X159635000Y-111783000D01*
X159668333Y-111816333D01*
X159701666Y-111883000D01*
X159701666Y-112083000D01*
X159668333Y-112149666D01*
X159635000Y-112183000D01*
X159001666Y-111316333D02*
X159001666Y-111249666D01*
X159035000Y-111183000D01*
X159068333Y-111149666D01*
X159135000Y-111116333D01*
X159268333Y-111083000D01*
X159435000Y-111083000D01*
X159568333Y-111116333D01*
X159635000Y-111149666D01*
X159668333Y-111183000D01*
X159701666Y-111249666D01*
X159701666Y-111316333D01*
X159668333Y-111383000D01*
X159635000Y-111416333D01*
X159568333Y-111449666D01*
X159435000Y-111483000D01*
X159268333Y-111483000D01*
X159135000Y-111449666D01*
X159068333Y-111416333D01*
X159035000Y-111383000D01*
X159001666Y-111316333D01*
X159701666Y-110416333D02*
X159701666Y-110816333D01*
X159701666Y-110616333D02*
X159001666Y-110616333D01*
X159101666Y-110683000D01*
X159168333Y-110749666D01*
X159201666Y-110816333D01*
G04 #@! TO.C,MOD101*
D13*
X144284428Y-100881571D02*
X144284428Y-99381571D01*
X144784428Y-100453000D01*
X145284428Y-99381571D01*
X145284428Y-100881571D01*
X146284428Y-99381571D02*
X146570142Y-99381571D01*
X146713000Y-99453000D01*
X146855857Y-99595857D01*
X146927285Y-99881571D01*
X146927285Y-100381571D01*
X146855857Y-100667285D01*
X146713000Y-100810142D01*
X146570142Y-100881571D01*
X146284428Y-100881571D01*
X146141571Y-100810142D01*
X145998714Y-100667285D01*
X145927285Y-100381571D01*
X145927285Y-99881571D01*
X145998714Y-99595857D01*
X146141571Y-99453000D01*
X146284428Y-99381571D01*
X147570142Y-100881571D02*
X147570142Y-99381571D01*
X147927285Y-99381571D01*
X148141571Y-99453000D01*
X148284428Y-99595857D01*
X148355857Y-99738714D01*
X148427285Y-100024428D01*
X148427285Y-100238714D01*
X148355857Y-100524428D01*
X148284428Y-100667285D01*
X148141571Y-100810142D01*
X147927285Y-100881571D01*
X147570142Y-100881571D01*
X149855857Y-100881571D02*
X148998714Y-100881571D01*
X149427285Y-100881571D02*
X149427285Y-99381571D01*
X149284428Y-99595857D01*
X149141571Y-99738714D01*
X148998714Y-99810142D01*
X150784428Y-99381571D02*
X150927285Y-99381571D01*
X151070142Y-99453000D01*
X151141571Y-99524428D01*
X151213000Y-99667285D01*
X151284428Y-99953000D01*
X151284428Y-100310142D01*
X151213000Y-100595857D01*
X151141571Y-100738714D01*
X151070142Y-100810142D01*
X150927285Y-100881571D01*
X150784428Y-100881571D01*
X150641571Y-100810142D01*
X150570142Y-100738714D01*
X150498714Y-100595857D01*
X150427285Y-100310142D01*
X150427285Y-99953000D01*
X150498714Y-99667285D01*
X150570142Y-99524428D01*
X150641571Y-99453000D01*
X150784428Y-99381571D01*
X152713000Y-100881571D02*
X151855857Y-100881571D01*
X152284428Y-100881571D02*
X152284428Y-99381571D01*
X152141571Y-99595857D01*
X151998714Y-99738714D01*
X151855857Y-99810142D01*
G04 #@! TD*
M02*
