M48
INCH,TZ
T1C0.0079
T2C0.0157
T3C0.0354
T4C0.0394
T5C0.0598
%
G90
G05
T1
X63824Y-39574
X63824Y-40126
X64376Y-39574
X64376Y-40126
T2
X50855Y-46428
X50900Y-40500
X50950Y-41800
X50950Y-43150
X50950Y-44500
X51740Y-46180
X53250Y-31773
X53300Y-40175
X53300Y-41525
X53300Y-42875
X53300Y-44225
X53375Y-39425
X53375Y-39800
X53375Y-40775
X53375Y-41150
X53375Y-42125
X53375Y-42500
X53375Y-43475
X53375Y-43850
X54250Y-36275
X54750Y-46550
X54750Y-47050
X55103Y-35585
X55300Y-46550
X55300Y-47050
X56025Y-36275
X58050Y-47900
X58050Y-48250
X58282Y-32150
X58400Y-47900
X58400Y-48250
X58750Y-47900
X58750Y-48250
X59100Y-50000
X59150Y-38500
X59150Y-39550
X59564Y-42675
X59950Y-45450
X60050Y-40050
X60400Y-45440
X60550Y-47250
X60700Y-41444
X61000Y-38800
X61000Y-45440
X61300Y-44775
X61441Y-43050
X61796Y-40550
X61850Y-50050
X62100Y-45750
X62221Y-46550
X62350Y-41050
X62475Y-31850
X62480Y-32260
X62849Y-42201
X62900Y-38826
X62950Y-46850
X62950Y-47250
X63475Y-42750
X63506Y-40441
X63519Y-41226
X63519Y-41974
X64170Y-46550
X64299Y-40460
X64700Y-41974
X65100Y-38650
X65140Y-41100
X65200Y-40260
X66150Y-45450
X66459Y-36852
X66700Y-42150
X67113Y-37926
X67150Y-40900
X67200Y-40400
X67400Y-41650
X67950Y-39650
T3
X64050Y-47776
X64050Y-48800
X64050Y-49824
T4
X66500Y-40400
X66500Y-41400
X60050Y-48500
X60050Y-49500
X60050Y-50500
X61050Y-48500
X61050Y-49500
X61050Y-50500
X64500Y-35536
X65000Y-36402
X65500Y-37268
X66000Y-38134
X66500Y-39000
X50350Y-39064
X50850Y-38198
X51350Y-37332
X51850Y-36466
X52350Y-35600
T5
X54450Y-49550
X56450Y-49550
T0
M30
