G04 #@! TF.GenerationSoftware,KiCad,Pcbnew,5.0.2+dfsg1-1*
G04 #@! TF.CreationDate,2021-02-26T15:03:44+01:00*
G04 #@! TF.ProjectId,KiCAD_Board,4b694341-445f-4426-9f61-72642e6b6963,rev?*
G04 #@! TF.SameCoordinates,Original*
G04 #@! TF.FileFunction,Copper,L2,Bot*
G04 #@! TF.FilePolarity,Positive*
%FSLAX46Y46*%
G04 Gerber Fmt 4.6, Leading zero omitted, Abs format (unit mm)*
G04 Created by KiCad (PCBNEW 5.0.2+dfsg1-1) date Fri 26 Feb 2021 15:03:44 CET*
%MOMM*%
%LPD*%
G01*
G04 APERTURE LIST*
G04 #@! TA.AperFunction,Conductor*
%ADD10C,0.100000*%
G04 #@! TD*
G04 #@! TA.AperFunction,SMDPad,CuDef*
%ADD11C,1.900000*%
G04 #@! TD*
G04 #@! TA.AperFunction,ComponentPad*
%ADD12O,1.700000X1.700000*%
G04 #@! TD*
G04 #@! TA.AperFunction,ComponentPad*
%ADD13R,1.700000X1.700000*%
G04 #@! TD*
G04 #@! TA.AperFunction,SMDPad,CuDef*
%ADD14C,0.800000*%
G04 #@! TD*
G04 #@! TA.AperFunction,Conductor*
%ADD15C,0.800000*%
G04 #@! TD*
G04 #@! TA.AperFunction,ComponentPad*
%ADD16R,1.500000X1.500000*%
G04 #@! TD*
G04 #@! TA.AperFunction,ComponentPad*
%ADD17C,1.500000*%
G04 #@! TD*
G04 #@! TA.AperFunction,Conductor*
%ADD18R,1.900000X1.900000*%
G04 #@! TD*
G04 #@! TA.AperFunction,ViaPad*
%ADD19C,0.500000*%
G04 #@! TD*
G04 #@! TA.AperFunction,ComponentPad*
%ADD20C,3.000000*%
G04 #@! TD*
G04 #@! TA.AperFunction,ComponentPad*
%ADD21R,3.000000X3.000000*%
G04 #@! TD*
G04 #@! TA.AperFunction,ComponentPad*
%ADD22C,1.700000*%
G04 #@! TD*
G04 #@! TA.AperFunction,Conductor*
%ADD23C,1.700000*%
G04 #@! TD*
G04 #@! TA.AperFunction,SMDPad,CuDef*
%ADD24C,0.400000*%
G04 #@! TD*
G04 #@! TA.AperFunction,SMDPad,CuDef*
%ADD25C,0.600000*%
G04 #@! TD*
G04 #@! TA.AperFunction,ViaPad*
%ADD26C,0.800000*%
G04 #@! TD*
G04 #@! TA.AperFunction,Conductor*
%ADD27C,0.250000*%
G04 #@! TD*
G04 #@! TA.AperFunction,Conductor*
%ADD28C,0.160000*%
G04 #@! TD*
G04 #@! TA.AperFunction,Conductor*
%ADD29C,1.400000*%
G04 #@! TD*
G04 #@! TA.AperFunction,Conductor*
%ADD30C,0.500000*%
G04 #@! TD*
G04 #@! TA.AperFunction,Conductor*
%ADD31C,0.400000*%
G04 #@! TD*
G04 #@! TA.AperFunction,Conductor*
%ADD32C,0.254000*%
G04 #@! TD*
G04 APERTURE END LIST*
D10*
G04 #@! TO.N,GND*
G04 #@! TO.C,C502*
G36*
X131534504Y-100258204D02*
X131558773Y-100261804D01*
X131582571Y-100267765D01*
X131605671Y-100276030D01*
X131627849Y-100286520D01*
X131648893Y-100299133D01*
X131668598Y-100313747D01*
X131686777Y-100330223D01*
X131703253Y-100348402D01*
X131717867Y-100368107D01*
X131730480Y-100389151D01*
X131740970Y-100411329D01*
X131749235Y-100434429D01*
X131755196Y-100458227D01*
X131758796Y-100482496D01*
X131760000Y-100507000D01*
X131760000Y-104407000D01*
X131758796Y-104431504D01*
X131755196Y-104455773D01*
X131749235Y-104479571D01*
X131740970Y-104502671D01*
X131730480Y-104524849D01*
X131717867Y-104545893D01*
X131703253Y-104565598D01*
X131686777Y-104583777D01*
X131668598Y-104600253D01*
X131648893Y-104614867D01*
X131627849Y-104627480D01*
X131605671Y-104637970D01*
X131582571Y-104646235D01*
X131558773Y-104652196D01*
X131534504Y-104655796D01*
X131510000Y-104657000D01*
X130110000Y-104657000D01*
X130085496Y-104655796D01*
X130061227Y-104652196D01*
X130037429Y-104646235D01*
X130014329Y-104637970D01*
X129992151Y-104627480D01*
X129971107Y-104614867D01*
X129951402Y-104600253D01*
X129933223Y-104583777D01*
X129916747Y-104565598D01*
X129902133Y-104545893D01*
X129889520Y-104524849D01*
X129879030Y-104502671D01*
X129870765Y-104479571D01*
X129864804Y-104455773D01*
X129861204Y-104431504D01*
X129860000Y-104407000D01*
X129860000Y-100507000D01*
X129861204Y-100482496D01*
X129864804Y-100458227D01*
X129870765Y-100434429D01*
X129879030Y-100411329D01*
X129889520Y-100389151D01*
X129902133Y-100368107D01*
X129916747Y-100348402D01*
X129933223Y-100330223D01*
X129951402Y-100313747D01*
X129971107Y-100299133D01*
X129992151Y-100286520D01*
X130014329Y-100276030D01*
X130037429Y-100267765D01*
X130061227Y-100261804D01*
X130085496Y-100258204D01*
X130110000Y-100257000D01*
X131510000Y-100257000D01*
X131534504Y-100258204D01*
X131534504Y-100258204D01*
G37*
D11*
G04 #@! TD*
G04 #@! TO.P,C502,2*
G04 #@! TO.N,GND*
X130810000Y-102457000D03*
D10*
G04 #@! TO.N,+VDC*
G04 #@! TO.C,C502*
G36*
X131534504Y-108958204D02*
X131558773Y-108961804D01*
X131582571Y-108967765D01*
X131605671Y-108976030D01*
X131627849Y-108986520D01*
X131648893Y-108999133D01*
X131668598Y-109013747D01*
X131686777Y-109030223D01*
X131703253Y-109048402D01*
X131717867Y-109068107D01*
X131730480Y-109089151D01*
X131740970Y-109111329D01*
X131749235Y-109134429D01*
X131755196Y-109158227D01*
X131758796Y-109182496D01*
X131760000Y-109207000D01*
X131760000Y-113107000D01*
X131758796Y-113131504D01*
X131755196Y-113155773D01*
X131749235Y-113179571D01*
X131740970Y-113202671D01*
X131730480Y-113224849D01*
X131717867Y-113245893D01*
X131703253Y-113265598D01*
X131686777Y-113283777D01*
X131668598Y-113300253D01*
X131648893Y-113314867D01*
X131627849Y-113327480D01*
X131605671Y-113337970D01*
X131582571Y-113346235D01*
X131558773Y-113352196D01*
X131534504Y-113355796D01*
X131510000Y-113357000D01*
X130110000Y-113357000D01*
X130085496Y-113355796D01*
X130061227Y-113352196D01*
X130037429Y-113346235D01*
X130014329Y-113337970D01*
X129992151Y-113327480D01*
X129971107Y-113314867D01*
X129951402Y-113300253D01*
X129933223Y-113283777D01*
X129916747Y-113265598D01*
X129902133Y-113245893D01*
X129889520Y-113224849D01*
X129879030Y-113202671D01*
X129870765Y-113179571D01*
X129864804Y-113155773D01*
X129861204Y-113131504D01*
X129860000Y-113107000D01*
X129860000Y-109207000D01*
X129861204Y-109182496D01*
X129864804Y-109158227D01*
X129870765Y-109134429D01*
X129879030Y-109111329D01*
X129889520Y-109089151D01*
X129902133Y-109068107D01*
X129916747Y-109048402D01*
X129933223Y-109030223D01*
X129951402Y-109013747D01*
X129971107Y-108999133D01*
X129992151Y-108986520D01*
X130014329Y-108976030D01*
X130037429Y-108967765D01*
X130061227Y-108961804D01*
X130085496Y-108958204D01*
X130110000Y-108957000D01*
X131510000Y-108957000D01*
X131534504Y-108958204D01*
X131534504Y-108958204D01*
G37*
D11*
G04 #@! TD*
G04 #@! TO.P,C502,1*
G04 #@! TO.N,+VDC*
X130810000Y-111157000D03*
D12*
G04 #@! TO.P,J102,6*
G04 #@! TO.N,/WS2812_AUX*
X155067000Y-123190000D03*
G04 #@! TO.P,J102,5*
G04 #@! TO.N,Net-(J102-Pad5)*
X152527000Y-123190000D03*
G04 #@! TO.P,J102,4*
G04 #@! TO.N,AUX_MOTION*
X155067000Y-125730000D03*
G04 #@! TO.P,J102,3*
G04 #@! TO.N,AUX_BTN*
X152527000Y-125730000D03*
G04 #@! TO.P,J102,2*
G04 #@! TO.N,+3V3*
X155067000Y-128270000D03*
D13*
G04 #@! TO.P,J102,1*
G04 #@! TO.N,GND*
X152527000Y-128270000D03*
G04 #@! TD*
D14*
G04 #@! TO.P,J101,8*
G04 #@! TO.N,+3V3*
X175308775Y-106331473D03*
D15*
G04 #@! TD*
G04 #@! TO.N,+3V3*
G04 #@! TO.C,J101*
X175005666Y-106156473D02*
X175611884Y-106506473D01*
D14*
G04 #@! TO.P,J101,7*
G04 #@! TO.N,GND*
X174673775Y-107431325D03*
D15*
G04 #@! TD*
G04 #@! TO.N,GND*
G04 #@! TO.C,J101*
X174370666Y-107256325D02*
X174976884Y-107606325D01*
D14*
G04 #@! TO.P,J101,6*
G04 #@! TO.N,/BOOT*
X174038775Y-108531177D03*
D15*
G04 #@! TD*
G04 #@! TO.N,/BOOT*
G04 #@! TO.C,J101*
X173735666Y-108356177D02*
X174341884Y-108706177D01*
D14*
G04 #@! TO.P,J101,5*
G04 #@! TO.N,Net-(J101-Pad5)*
X173403775Y-109631029D03*
D15*
G04 #@! TD*
G04 #@! TO.N,Net-(J101-Pad5)*
G04 #@! TO.C,J101*
X173100666Y-109456029D02*
X173706884Y-109806029D01*
D16*
G04 #@! TO.P,U303,1*
G04 #@! TO.N,IR>E*
X162687000Y-121352000D03*
D17*
G04 #@! TO.P,U303,3*
G04 #@! TO.N,GND*
X162687000Y-126552000D03*
G04 #@! TO.P,U303,2*
G04 #@! TO.N,Net-(C301-Pad2)*
X162687000Y-123952000D03*
G04 #@! TD*
D18*
G04 #@! TO.N,GND*
G04 #@! TO.C,AMP401*
X162814000Y-101219000D03*
D19*
X163514000Y-101919000D03*
X162114000Y-101919000D03*
X163514000Y-100519000D03*
X162114000Y-100519000D03*
G04 #@! TD*
D20*
G04 #@! TO.P,J501,2*
G04 #@! TO.N,Net-(F501-Pad2)*
X143383000Y-125857000D03*
D21*
G04 #@! TO.P,J501,1*
G04 #@! TO.N,GND*
X138303000Y-125857000D03*
G04 #@! TD*
D12*
G04 #@! TO.P,J401,2*
G04 #@! TO.N,Net-(AMP401-Pad10)*
X168910000Y-102616000D03*
D13*
G04 #@! TO.P,J401,1*
G04 #@! TO.N,Net-(AMP401-Pad9)*
X168910000Y-105156000D03*
G04 #@! TD*
D22*
G04 #@! TO.P,J202,5*
G04 #@! TO.N,Net-(D201-Pad2)*
X163830000Y-90261182D03*
D23*
G04 #@! TD*
G04 #@! TO.N,Net-(D201-Pad2)*
G04 #@! TO.C,J202*
X163830000Y-90261182D02*
X163830000Y-90261182D01*
D22*
G04 #@! TO.P,J202,4*
G04 #@! TO.N,Net-(D202-Pad2)*
X165100000Y-92460886D03*
D23*
G04 #@! TD*
G04 #@! TO.N,Net-(D202-Pad2)*
G04 #@! TO.C,J202*
X165100000Y-92460886D02*
X165100000Y-92460886D01*
D22*
G04 #@! TO.P,J202,3*
G04 #@! TO.N,Net-(D203-Pad2)*
X166370000Y-94660591D03*
D23*
G04 #@! TD*
G04 #@! TO.N,Net-(D203-Pad2)*
G04 #@! TO.C,J202*
X166370000Y-94660591D02*
X166370000Y-94660591D01*
D22*
G04 #@! TO.P,J202,2*
G04 #@! TO.N,Net-(D204-Pad2)*
X167640000Y-96860295D03*
D23*
G04 #@! TD*
G04 #@! TO.N,Net-(D204-Pad2)*
G04 #@! TO.C,J202*
X167640000Y-96860295D02*
X167640000Y-96860295D01*
D22*
G04 #@! TO.P,J202,1*
G04 #@! TO.N,+VDC*
X168910000Y-99060000D03*
D10*
G04 #@! TD*
G04 #@! TO.N,+VDC*
G04 #@! TO.C,J202*
G36*
X168598878Y-100221122D02*
X167748878Y-98748878D01*
X169221122Y-97898878D01*
X170071122Y-99371122D01*
X168598878Y-100221122D01*
X168598878Y-100221122D01*
G37*
D22*
G04 #@! TO.P,J201,5*
G04 #@! TO.N,Net-(D201-Pad2)*
X127889000Y-99222818D03*
D23*
G04 #@! TD*
G04 #@! TO.N,Net-(D201-Pad2)*
G04 #@! TO.C,J201*
X127889000Y-99222818D02*
X127889000Y-99222818D01*
D22*
G04 #@! TO.P,J201,4*
G04 #@! TO.N,Net-(D202-Pad2)*
X129159000Y-97023114D03*
D23*
G04 #@! TD*
G04 #@! TO.N,Net-(D202-Pad2)*
G04 #@! TO.C,J201*
X129159000Y-97023114D02*
X129159000Y-97023114D01*
D22*
G04 #@! TO.P,J201,3*
G04 #@! TO.N,Net-(D203-Pad2)*
X130429000Y-94823409D03*
D23*
G04 #@! TD*
G04 #@! TO.N,Net-(D203-Pad2)*
G04 #@! TO.C,J201*
X130429000Y-94823409D02*
X130429000Y-94823409D01*
D22*
G04 #@! TO.P,J201,2*
G04 #@! TO.N,Net-(D204-Pad2)*
X131699000Y-92623705D03*
D23*
G04 #@! TD*
G04 #@! TO.N,Net-(D204-Pad2)*
G04 #@! TO.C,J201*
X131699000Y-92623705D02*
X131699000Y-92623705D01*
D22*
G04 #@! TO.P,J201,1*
G04 #@! TO.N,+VDC*
X132969000Y-90424000D03*
D10*
G04 #@! TD*
G04 #@! TO.N,+VDC*
G04 #@! TO.C,J201*
G36*
X134130122Y-90112878D02*
X133280122Y-91585122D01*
X131807878Y-90735122D01*
X132657878Y-89262878D01*
X134130122Y-90112878D01*
X134130122Y-90112878D01*
G37*
G04 #@! TO.N,GND*
G04 #@! TO.C,D102*
G36*
X150105603Y-81061963D02*
X150125018Y-81064843D01*
X150144057Y-81069612D01*
X150162537Y-81076224D01*
X150180279Y-81084616D01*
X150197114Y-81094706D01*
X150212879Y-81106398D01*
X150227421Y-81119579D01*
X150240602Y-81134121D01*
X150252294Y-81149886D01*
X150262384Y-81166721D01*
X150270776Y-81184463D01*
X150277388Y-81202943D01*
X150282157Y-81221982D01*
X150285037Y-81241397D01*
X150286000Y-81261000D01*
X150286000Y-82061000D01*
X150285037Y-82080603D01*
X150282157Y-82100018D01*
X150277388Y-82119057D01*
X150270776Y-82137537D01*
X150262384Y-82155279D01*
X150252294Y-82172114D01*
X150240602Y-82187879D01*
X150227421Y-82202421D01*
X150212879Y-82215602D01*
X150197114Y-82227294D01*
X150180279Y-82237384D01*
X150162537Y-82245776D01*
X150144057Y-82252388D01*
X150125018Y-82257157D01*
X150105603Y-82260037D01*
X150086000Y-82261000D01*
X149686000Y-82261000D01*
X149666397Y-82260037D01*
X149646982Y-82257157D01*
X149627943Y-82252388D01*
X149609463Y-82245776D01*
X149591721Y-82237384D01*
X149574886Y-82227294D01*
X149559121Y-82215602D01*
X149544579Y-82202421D01*
X149531398Y-82187879D01*
X149519706Y-82172114D01*
X149509616Y-82155279D01*
X149501224Y-82137537D01*
X149494612Y-82119057D01*
X149489843Y-82100018D01*
X149486963Y-82080603D01*
X149486000Y-82061000D01*
X149486000Y-81261000D01*
X149486963Y-81241397D01*
X149489843Y-81221982D01*
X149494612Y-81202943D01*
X149501224Y-81184463D01*
X149509616Y-81166721D01*
X149519706Y-81149886D01*
X149531398Y-81134121D01*
X149544579Y-81119579D01*
X149559121Y-81106398D01*
X149574886Y-81094706D01*
X149591721Y-81084616D01*
X149609463Y-81076224D01*
X149627943Y-81069612D01*
X149646982Y-81064843D01*
X149666397Y-81061963D01*
X149686000Y-81061000D01*
X150086000Y-81061000D01*
X150105603Y-81061963D01*
X150105603Y-81061963D01*
G37*
D14*
G04 #@! TD*
G04 #@! TO.P,D102,3*
G04 #@! TO.N,GND*
X149886000Y-81661000D03*
D10*
G04 #@! TO.N,Net-(D101-Pad2)*
G04 #@! TO.C,D102*
G36*
X147130603Y-81061963D02*
X147150018Y-81064843D01*
X147169057Y-81069612D01*
X147187537Y-81076224D01*
X147205279Y-81084616D01*
X147222114Y-81094706D01*
X147237879Y-81106398D01*
X147252421Y-81119579D01*
X147265602Y-81134121D01*
X147277294Y-81149886D01*
X147287384Y-81166721D01*
X147295776Y-81184463D01*
X147302388Y-81202943D01*
X147307157Y-81221982D01*
X147310037Y-81241397D01*
X147311000Y-81261000D01*
X147311000Y-82061000D01*
X147310037Y-82080603D01*
X147307157Y-82100018D01*
X147302388Y-82119057D01*
X147295776Y-82137537D01*
X147287384Y-82155279D01*
X147277294Y-82172114D01*
X147265602Y-82187879D01*
X147252421Y-82202421D01*
X147237879Y-82215602D01*
X147222114Y-82227294D01*
X147205279Y-82237384D01*
X147187537Y-82245776D01*
X147169057Y-82252388D01*
X147150018Y-82257157D01*
X147130603Y-82260037D01*
X147111000Y-82261000D01*
X146711000Y-82261000D01*
X146691397Y-82260037D01*
X146671982Y-82257157D01*
X146652943Y-82252388D01*
X146634463Y-82245776D01*
X146616721Y-82237384D01*
X146599886Y-82227294D01*
X146584121Y-82215602D01*
X146569579Y-82202421D01*
X146556398Y-82187879D01*
X146544706Y-82172114D01*
X146534616Y-82155279D01*
X146526224Y-82137537D01*
X146519612Y-82119057D01*
X146514843Y-82100018D01*
X146511963Y-82080603D01*
X146511000Y-82061000D01*
X146511000Y-81261000D01*
X146511963Y-81241397D01*
X146514843Y-81221982D01*
X146519612Y-81202943D01*
X146526224Y-81184463D01*
X146534616Y-81166721D01*
X146544706Y-81149886D01*
X146556398Y-81134121D01*
X146569579Y-81119579D01*
X146584121Y-81106398D01*
X146599886Y-81094706D01*
X146616721Y-81084616D01*
X146634463Y-81076224D01*
X146652943Y-81069612D01*
X146671982Y-81064843D01*
X146691397Y-81061963D01*
X146711000Y-81061000D01*
X147111000Y-81061000D01*
X147130603Y-81061963D01*
X147130603Y-81061963D01*
G37*
D14*
G04 #@! TD*
G04 #@! TO.P,D102,4*
G04 #@! TO.N,Net-(D101-Pad2)*
X146911000Y-81661000D03*
D10*
G04 #@! TO.N,Net-(D102-Pad2)*
G04 #@! TO.C,D102*
G36*
X149020802Y-81061482D02*
X149030509Y-81062921D01*
X149040028Y-81065306D01*
X149049268Y-81068612D01*
X149058140Y-81072808D01*
X149066557Y-81077853D01*
X149074439Y-81083699D01*
X149081711Y-81090289D01*
X149088301Y-81097561D01*
X149094147Y-81105443D01*
X149099192Y-81113860D01*
X149103388Y-81122732D01*
X149106694Y-81131972D01*
X149109079Y-81141491D01*
X149110518Y-81151198D01*
X149111000Y-81161000D01*
X149111000Y-82161000D01*
X149110518Y-82170802D01*
X149109079Y-82180509D01*
X149106694Y-82190028D01*
X149103388Y-82199268D01*
X149099192Y-82208140D01*
X149094147Y-82216557D01*
X149088301Y-82224439D01*
X149081711Y-82231711D01*
X149074439Y-82238301D01*
X149066557Y-82244147D01*
X149058140Y-82249192D01*
X149049268Y-82253388D01*
X149040028Y-82256694D01*
X149030509Y-82259079D01*
X149020802Y-82260518D01*
X149011000Y-82261000D01*
X148811000Y-82261000D01*
X148801198Y-82260518D01*
X148791491Y-82259079D01*
X148781972Y-82256694D01*
X148772732Y-82253388D01*
X148763860Y-82249192D01*
X148755443Y-82244147D01*
X148747561Y-82238301D01*
X148740289Y-82231711D01*
X148733699Y-82224439D01*
X148727853Y-82216557D01*
X148722808Y-82208140D01*
X148718612Y-82199268D01*
X148715306Y-82190028D01*
X148712921Y-82180509D01*
X148711482Y-82170802D01*
X148711000Y-82161000D01*
X148711000Y-81161000D01*
X148711482Y-81151198D01*
X148712921Y-81141491D01*
X148715306Y-81131972D01*
X148718612Y-81122732D01*
X148722808Y-81113860D01*
X148727853Y-81105443D01*
X148733699Y-81097561D01*
X148740289Y-81090289D01*
X148747561Y-81083699D01*
X148755443Y-81077853D01*
X148763860Y-81072808D01*
X148772732Y-81068612D01*
X148781972Y-81065306D01*
X148791491Y-81062921D01*
X148801198Y-81061482D01*
X148811000Y-81061000D01*
X149011000Y-81061000D01*
X149020802Y-81061482D01*
X149020802Y-81061482D01*
G37*
D24*
G04 #@! TD*
G04 #@! TO.P,D102,2*
G04 #@! TO.N,Net-(D102-Pad2)*
X148911000Y-81661000D03*
D10*
G04 #@! TO.N,+3V3*
G04 #@! TO.C,D102*
G36*
X148200703Y-81061722D02*
X148215264Y-81063882D01*
X148229543Y-81067459D01*
X148243403Y-81072418D01*
X148256710Y-81078712D01*
X148269336Y-81086280D01*
X148281159Y-81095048D01*
X148292066Y-81104934D01*
X148301952Y-81115841D01*
X148310720Y-81127664D01*
X148318288Y-81140290D01*
X148324582Y-81153597D01*
X148329541Y-81167457D01*
X148333118Y-81181736D01*
X148335278Y-81196297D01*
X148336000Y-81211000D01*
X148336000Y-82111000D01*
X148335278Y-82125703D01*
X148333118Y-82140264D01*
X148329541Y-82154543D01*
X148324582Y-82168403D01*
X148318288Y-82181710D01*
X148310720Y-82194336D01*
X148301952Y-82206159D01*
X148292066Y-82217066D01*
X148281159Y-82226952D01*
X148269336Y-82235720D01*
X148256710Y-82243288D01*
X148243403Y-82249582D01*
X148229543Y-82254541D01*
X148215264Y-82258118D01*
X148200703Y-82260278D01*
X148186000Y-82261000D01*
X147886000Y-82261000D01*
X147871297Y-82260278D01*
X147856736Y-82258118D01*
X147842457Y-82254541D01*
X147828597Y-82249582D01*
X147815290Y-82243288D01*
X147802664Y-82235720D01*
X147790841Y-82226952D01*
X147779934Y-82217066D01*
X147770048Y-82206159D01*
X147761280Y-82194336D01*
X147753712Y-82181710D01*
X147747418Y-82168403D01*
X147742459Y-82154543D01*
X147738882Y-82140264D01*
X147736722Y-82125703D01*
X147736000Y-82111000D01*
X147736000Y-81211000D01*
X147736722Y-81196297D01*
X147738882Y-81181736D01*
X147742459Y-81167457D01*
X147747418Y-81153597D01*
X147753712Y-81140290D01*
X147761280Y-81127664D01*
X147770048Y-81115841D01*
X147779934Y-81104934D01*
X147790841Y-81095048D01*
X147802664Y-81086280D01*
X147815290Y-81078712D01*
X147828597Y-81072418D01*
X147842457Y-81067459D01*
X147856736Y-81063882D01*
X147871297Y-81061722D01*
X147886000Y-81061000D01*
X148186000Y-81061000D01*
X148200703Y-81061722D01*
X148200703Y-81061722D01*
G37*
D25*
G04 #@! TD*
G04 #@! TO.P,D102,1*
G04 #@! TO.N,+3V3*
X148036000Y-81661000D03*
D26*
G04 #@! TO.N,GND*
X159766000Y-98617000D03*
X154940000Y-98552000D03*
X170688000Y-102616000D03*
X172593000Y-100711000D03*
X135572500Y-101092000D03*
X135572500Y-100139500D03*
X135382000Y-102044500D03*
X135572500Y-103568500D03*
X135572500Y-104521000D03*
X135382000Y-105473500D03*
X135572500Y-106997500D03*
X135572500Y-107950000D03*
X135382000Y-108902500D03*
X135572500Y-110426500D03*
X135572500Y-111379000D03*
X135382000Y-112331500D03*
X154940000Y-115417600D03*
X153416000Y-115417600D03*
X129172000Y-117928339D03*
X131419600Y-117297200D03*
X158699200Y-81940400D03*
X171196000Y-105791000D03*
X161338000Y-106614000D03*
X159635524Y-107191476D03*
G04 #@! TO.N,+3V3*
X142303500Y-92138500D03*
X137795000Y-92138000D03*
X163318522Y-102769002D03*
X155702000Y-113728500D03*
X158041000Y-118237000D03*
X151292000Y-108394500D03*
X170561000Y-103886000D03*
X165608000Y-102260400D03*
X162991800Y-118237000D03*
X168806000Y-93604808D03*
X148036000Y-81661000D03*
X170467000Y-96332276D03*
X157099000Y-127127000D03*
X150114000Y-127000000D03*
X156059500Y-109347032D03*
X161305933Y-102720057D03*
G04 #@! TO.N,/RESET*
X165354000Y-98171000D03*
X139962099Y-90386521D03*
G04 #@! TO.N,/BOOT*
X165455600Y-104394000D03*
X169418000Y-107061000D03*
X158369006Y-104267000D03*
G04 #@! TO.N,Net-(D101-Pad2)*
X158686500Y-80899000D03*
G04 #@! TO.N,Net-(D102-Pad2)*
X135255000Y-80703600D03*
G04 #@! TO.N,+VDC*
X147447000Y-122555000D03*
X147447000Y-121666000D03*
X149225000Y-121666000D03*
X149225000Y-122555000D03*
X148336000Y-121666000D03*
X148336000Y-122555000D03*
X139065000Y-119507000D03*
X140462000Y-119507000D03*
X140462000Y-118237000D03*
X139065000Y-118237000D03*
X129286000Y-102870000D03*
X129413000Y-106172000D03*
X129413000Y-109601000D03*
X129413000Y-113030000D03*
G04 #@! TO.N,Net-(C402-Pad2)*
X164338000Y-106614000D03*
X161338000Y-104714000D03*
G04 #@! TO.N,I2C_SDA*
X154178000Y-105267000D03*
G04 #@! TO.N,I2C_SCL*
X157734000Y-116205000D03*
X156963000Y-102997000D03*
G04 #@! TO.N,MIC_3.3V*
X161227000Y-108585000D03*
X152527000Y-101727000D03*
G04 #@! TO.N,IR>E*
X159893000Y-120015000D03*
X150241000Y-100457000D03*
G04 #@! TO.N,E>IR*
X152273000Y-115443000D03*
X159893000Y-118999000D03*
G04 #@! TO.N,/WS2812_AUX*
X168021000Y-115443000D03*
G04 #@! TO.N,AUX_MOTION*
X150241000Y-97790000D03*
X153797000Y-120014992D03*
G04 #@! TD*
D27*
G04 #@! TO.N,GND*
X155005000Y-98617000D02*
X154940000Y-98552000D01*
X159766000Y-98617000D02*
X155005000Y-98617000D01*
X170688000Y-102616000D02*
X172593000Y-100711000D01*
D28*
X174673775Y-107431325D02*
X171831000Y-105791000D01*
D27*
X154940000Y-115417600D02*
X153416000Y-115417600D01*
X153416000Y-115417600D02*
X153416000Y-115417600D01*
X129172000Y-117928339D02*
X130788461Y-117928339D01*
X130788461Y-117928339D02*
X131419600Y-117297200D01*
X171196000Y-105791000D02*
X171831000Y-105791000D01*
X161338000Y-106614000D02*
X160213000Y-106614000D01*
X160213000Y-106614000D02*
X159635524Y-107191476D01*
X150600820Y-80946180D02*
X157704980Y-80946180D01*
X158299201Y-81540401D02*
X158699200Y-81940400D01*
X149886000Y-81661000D02*
X150600820Y-80946180D01*
X157704980Y-80946180D02*
X158299201Y-81540401D01*
D29*
X130810000Y-102425500D02*
X132302500Y-100933000D01*
X135413500Y-100933000D02*
X135572500Y-101092000D01*
X132302500Y-100933000D02*
X135413500Y-100933000D01*
D30*
G04 #@! TO.N,+3V3*
X151292000Y-94015000D02*
X149415500Y-92138500D01*
X149415500Y-92138500D02*
X142303500Y-92138500D01*
D27*
X142303000Y-92138000D02*
X142303500Y-92138500D01*
X137795000Y-92138000D02*
X142303000Y-92138000D01*
D30*
X151292000Y-108415000D02*
X151292000Y-108394500D01*
X151292000Y-100838000D02*
X151292000Y-94015000D01*
X151292000Y-108394500D02*
X151292000Y-100838000D01*
D31*
X157988000Y-100838000D02*
X151292000Y-100838000D01*
X163318522Y-102769002D02*
X159919002Y-102769002D01*
X159919002Y-102769002D02*
X157988000Y-100838000D01*
D27*
X157353000Y-118237000D02*
X158041000Y-118237000D01*
X155702000Y-113728500D02*
X155702000Y-116586000D01*
X155702000Y-116586000D02*
X157353000Y-118237000D01*
D28*
X175308775Y-106331473D02*
X173240000Y-105140000D01*
D27*
X171986000Y-103886000D02*
X173240000Y-105140000D01*
X170561000Y-103886000D02*
X171986000Y-103886000D01*
X165608000Y-102260400D02*
X165099398Y-102769002D01*
X165099398Y-102769002D02*
X163318522Y-102769002D01*
X158041000Y-118237000D02*
X162991800Y-118237000D01*
X169113200Y-93912008D02*
X168806000Y-93604808D01*
X169113200Y-97434400D02*
X169113200Y-93912008D01*
X165608000Y-102260400D02*
X165608000Y-99466400D01*
X165608000Y-99466400D02*
X166573200Y-98501200D01*
X167081200Y-98501200D02*
X169113200Y-97434400D01*
X166573200Y-98501200D02*
X167081200Y-98501200D01*
X170215324Y-96332276D02*
X169113200Y-97434400D01*
X170467000Y-96332276D02*
X170215324Y-96332276D01*
X156972000Y-127000000D02*
X157099000Y-127127000D01*
X153797000Y-127000000D02*
X155067000Y-128270000D01*
X150114000Y-127000000D02*
X153797000Y-127000000D01*
X157099000Y-127762000D02*
X157099000Y-127127000D01*
X155067000Y-128270000D02*
X156591000Y-128270000D01*
X156591000Y-128270000D02*
X157099000Y-127762000D01*
X154686032Y-109347032D02*
X156059500Y-109347032D01*
X153733500Y-108394500D02*
X154686032Y-109347032D01*
X151292000Y-108415000D02*
X151312500Y-108394500D01*
X151312500Y-108394500D02*
X153733500Y-108394500D01*
X156059500Y-113371000D02*
X156059500Y-109347032D01*
X155702000Y-113728500D02*
X156059500Y-113371000D01*
G04 #@! TO.N,/RESET*
X163703000Y-98171000D02*
X155918521Y-90386521D01*
X165354000Y-98171000D02*
X163703000Y-98171000D01*
X155918521Y-90386521D02*
X140527784Y-90386521D01*
X140527784Y-90386521D02*
X139962099Y-90386521D01*
D28*
G04 #@! TO.N,/BOOT*
X174038775Y-108531177D02*
X171960000Y-107330000D01*
D27*
X171691000Y-107061000D02*
X171960000Y-107330000D01*
X169418000Y-107061000D02*
X171691000Y-107061000D01*
X164928601Y-103867001D02*
X158769005Y-103867001D01*
X165455600Y-104394000D02*
X164928601Y-103867001D01*
X158769005Y-103867001D02*
X158369006Y-104267000D01*
G04 #@! TO.N,Net-(D101-Pad2)*
X158283669Y-80496169D02*
X147375831Y-80496169D01*
X147375831Y-80496169D02*
X146911000Y-80961000D01*
X146911000Y-80961000D02*
X146911000Y-81661000D01*
X158686500Y-80899000D02*
X158283669Y-80496169D01*
G04 #@! TO.N,Net-(D102-Pad2)*
X146177000Y-81026000D02*
X145669000Y-80518000D01*
X146185990Y-82278468D02*
X146185990Y-81043532D01*
X148911000Y-81661000D02*
X148911000Y-82356000D01*
X148653500Y-82613500D02*
X146521022Y-82613500D01*
X146521022Y-82613500D02*
X146185990Y-82278468D01*
X135440600Y-80518000D02*
X135255000Y-80703600D01*
X145669000Y-80518000D02*
X135440600Y-80518000D01*
X146177000Y-81034542D02*
X146177000Y-81026000D01*
X148911000Y-82356000D02*
X148653500Y-82613500D01*
X146185990Y-81043532D02*
X146177000Y-81034542D01*
D30*
G04 #@! TO.N,Net-(D204-Pad2)*
X155957511Y-89536511D02*
X135066008Y-89536511D01*
X132334000Y-88646001D02*
X130937000Y-91059000D01*
X130937000Y-91059000D02*
X130937000Y-91821000D01*
X130937000Y-91821000D02*
X131699000Y-92623705D01*
X163281295Y-96860295D02*
X155957511Y-89536511D01*
X167640000Y-96860295D02*
X163281295Y-96860295D01*
X134175500Y-88646001D02*
X132334000Y-88646001D01*
X135066008Y-89536511D02*
X134175500Y-88646001D01*
G04 #@! TO.N,Net-(D203-Pad2)*
X135355962Y-88836500D02*
X154495500Y-88836500D01*
X131889500Y-87947500D02*
X131891010Y-87945990D01*
X129984500Y-91313000D02*
X131889500Y-87947500D01*
X129921000Y-94315409D02*
X129984500Y-91313000D01*
X131891010Y-87945990D02*
X134465453Y-87945990D01*
X130429000Y-94823409D02*
X129921000Y-94315409D01*
X134465453Y-87945990D02*
X135355962Y-88836500D01*
X164955091Y-94660591D02*
X166370000Y-94660591D01*
X162071553Y-94660591D02*
X164955091Y-94660591D01*
X154495500Y-88836500D02*
X156247462Y-88836500D01*
X156247462Y-88836500D02*
X162071553Y-94660591D01*
G04 #@! TO.N,Net-(D202-Pad2)*
X165100000Y-92460886D02*
X163897919Y-92460886D01*
X160861810Y-92460886D02*
X165100000Y-92460886D01*
X156475424Y-88074500D02*
X160861810Y-92460886D01*
X135636000Y-88074500D02*
X156475424Y-88074500D01*
X134807480Y-87245980D02*
X135636000Y-88074500D01*
X129159000Y-95821033D02*
X129078999Y-95741032D01*
X129159000Y-97023114D02*
X129159000Y-95821033D01*
X129078999Y-95741032D02*
X129095500Y-91440000D01*
X131445000Y-87249000D02*
X131448020Y-87245980D01*
X129095500Y-91440000D02*
X131445000Y-87249000D01*
X131448020Y-87245980D02*
X134807480Y-87245980D01*
G04 #@! TO.N,Net-(D201-Pad2)*
X127858999Y-97990736D02*
X127825500Y-92265500D01*
X127889000Y-99222818D02*
X127889000Y-98020737D01*
X127889000Y-98020737D02*
X127858999Y-97990736D01*
X127825500Y-92202000D02*
X131064000Y-86423500D01*
X163830000Y-90261182D02*
X159652068Y-90261181D01*
X131064000Y-86423500D02*
X135128000Y-86423500D01*
X135128000Y-86423500D02*
X136017000Y-87312500D01*
X156703387Y-87312500D02*
X156908500Y-87517613D01*
X159652068Y-90261181D02*
X156908500Y-87517613D01*
X136017000Y-87312500D02*
X156703387Y-87312500D01*
D27*
G04 #@! TO.N,Net-(C402-Pad2)*
X164338000Y-106614000D02*
X163238000Y-106614000D01*
X163238000Y-106614000D02*
X161338000Y-104714000D01*
G04 #@! TO.N,I2C_SCL*
X156963000Y-106798000D02*
X156963000Y-102997000D01*
X157734000Y-116205000D02*
X158178500Y-115760500D01*
X158178500Y-108013500D02*
X156963000Y-106798000D01*
X158178500Y-115760500D02*
X158178500Y-108013500D01*
G04 #@! TO.N,MIC_3.3V*
X157644005Y-106842595D02*
X157644005Y-103594995D01*
X161227000Y-108585000D02*
X159386410Y-108585000D01*
X159386410Y-108585000D02*
X157644005Y-106842595D01*
X157644005Y-103594995D02*
X157861000Y-103378000D01*
X157861000Y-101981000D02*
X157243010Y-101363010D01*
X157861000Y-103378000D02*
X157861000Y-101981000D01*
X157243010Y-101363010D02*
X152890990Y-101363010D01*
X152890990Y-101363010D02*
X152527000Y-101727000D01*
G04 #@! TO.N,IR>E*
X150241000Y-101022685D02*
X150241000Y-100457000D01*
X150241000Y-114484002D02*
X150241000Y-101022685D01*
X159893000Y-120015000D02*
X155771998Y-120015000D01*
X155771998Y-120015000D02*
X150241000Y-114484002D01*
G04 #@! TO.N,E>IR*
X153797000Y-116967000D02*
X152273000Y-115443000D01*
X155446590Y-116967000D02*
X153797000Y-116967000D01*
X159856001Y-118962001D02*
X157441591Y-118962001D01*
X157441591Y-118962001D02*
X155446590Y-116967000D01*
X159893000Y-118999000D02*
X159856001Y-118962001D01*
G04 #@! TO.N,/WS2812_AUX*
X168783000Y-115443000D02*
X168021000Y-115443000D01*
X169545000Y-116205000D02*
X168783000Y-115443000D01*
X169545000Y-117221000D02*
X169545000Y-116205000D01*
X162433000Y-129540000D02*
X169545000Y-117221000D01*
X155067000Y-123190000D02*
X156337000Y-123190000D01*
X159004000Y-129540000D02*
X162433000Y-129540000D01*
X156337000Y-123190000D02*
X157824001Y-124677001D01*
X157824001Y-124677001D02*
X157824001Y-128360001D01*
X157824001Y-128360001D02*
X159004000Y-129540000D01*
G04 #@! TO.N,AUX_MOTION*
X149515999Y-115733991D02*
X153397001Y-119614993D01*
X153397001Y-119614993D02*
X153797000Y-120014992D01*
X149515999Y-98515001D02*
X149515999Y-115733991D01*
X150241000Y-97790000D02*
X149515999Y-98515001D01*
G04 #@! TD*
D32*
G04 #@! TO.N,+VDC*
G36*
X176813189Y-105003600D02*
X176231516Y-106011092D01*
X176068996Y-105868566D01*
X175329552Y-105441649D01*
X175320149Y-105438457D01*
X175357016Y-105349451D01*
X175357016Y-105058641D01*
X175245728Y-104789968D01*
X175040094Y-104584334D01*
X174771421Y-104473046D01*
X174480611Y-104473046D01*
X174211938Y-104584334D01*
X174006304Y-104789968D01*
X173919559Y-104999389D01*
X173651421Y-104844961D01*
X173633034Y-104817442D01*
X172379038Y-103563447D01*
X172350806Y-103521194D01*
X172183431Y-103409359D01*
X172035835Y-103380000D01*
X172035834Y-103380000D01*
X171986000Y-103370087D01*
X171936166Y-103380000D01*
X171159501Y-103380000D01*
X171078924Y-103299423D01*
X171130401Y-103278100D01*
X171350100Y-103058401D01*
X171469000Y-102771351D01*
X171469000Y-102550591D01*
X172527592Y-101492000D01*
X172748351Y-101492000D01*
X173035401Y-101373100D01*
X173255100Y-101153401D01*
X173374000Y-100866351D01*
X173374000Y-100555649D01*
X173255100Y-100268599D01*
X173035401Y-100048900D01*
X172748351Y-99930000D01*
X172437649Y-99930000D01*
X172150599Y-100048900D01*
X171930900Y-100268599D01*
X171812000Y-100555649D01*
X171812000Y-100776408D01*
X170753409Y-101835000D01*
X170532649Y-101835000D01*
X170245599Y-101953900D01*
X170067267Y-102132232D01*
X169797501Y-101728499D01*
X169390312Y-101456424D01*
X169031239Y-101385000D01*
X168788761Y-101385000D01*
X168429688Y-101456424D01*
X168022499Y-101728499D01*
X167750424Y-102135688D01*
X167654884Y-102616000D01*
X167750424Y-103096312D01*
X168022499Y-103503501D01*
X168429688Y-103775576D01*
X168788761Y-103847000D01*
X169031239Y-103847000D01*
X169390312Y-103775576D01*
X169797501Y-103503501D01*
X170067267Y-103099768D01*
X170170076Y-103202577D01*
X170118599Y-103223900D01*
X169898900Y-103443599D01*
X169780000Y-103730649D01*
X169780000Y-103921514D01*
X169760000Y-103917536D01*
X168060000Y-103917536D01*
X167911341Y-103947106D01*
X167785314Y-104031314D01*
X167701106Y-104157341D01*
X167671536Y-104306000D01*
X167671536Y-106006000D01*
X167701106Y-106154659D01*
X167785314Y-106280686D01*
X167911341Y-106364894D01*
X168060000Y-106394464D01*
X168986308Y-106394464D01*
X168975599Y-106398900D01*
X168755900Y-106618599D01*
X168637000Y-106905649D01*
X168637000Y-107216351D01*
X168755900Y-107503401D01*
X168975599Y-107723100D01*
X169262649Y-107842000D01*
X169573351Y-107842000D01*
X169860401Y-107723100D01*
X170016501Y-107567000D01*
X171481409Y-107567000D01*
X171637443Y-107723034D01*
X171762568Y-107806640D01*
X171916419Y-107837244D01*
X172193487Y-107997342D01*
X172101304Y-108089525D01*
X171990016Y-108358198D01*
X171990016Y-108649008D01*
X172082571Y-108872456D01*
X171940611Y-108872456D01*
X171671938Y-108983744D01*
X171466304Y-109189378D01*
X171355016Y-109458051D01*
X171355016Y-109748861D01*
X171466304Y-110017534D01*
X171671938Y-110223168D01*
X171940611Y-110334456D01*
X172231421Y-110334456D01*
X172500094Y-110223168D01*
X172635974Y-110087288D01*
X172643554Y-110093935D01*
X173382996Y-110520853D01*
X173587696Y-110590339D01*
X170051000Y-116716102D01*
X170051000Y-116254835D01*
X170060913Y-116205000D01*
X170021641Y-116007568D01*
X169962890Y-115919641D01*
X169909806Y-115840194D01*
X169867555Y-115811963D01*
X169176038Y-115120447D01*
X169147806Y-115078194D01*
X168980431Y-114966359D01*
X168832835Y-114937000D01*
X168832834Y-114937000D01*
X168783000Y-114927087D01*
X168733166Y-114937000D01*
X168619501Y-114937000D01*
X168463401Y-114780900D01*
X168176351Y-114662000D01*
X167865649Y-114662000D01*
X167578599Y-114780900D01*
X167358900Y-115000599D01*
X167240000Y-115287649D01*
X167240000Y-115598351D01*
X167358900Y-115885401D01*
X167578599Y-116105100D01*
X167865649Y-116224000D01*
X168176351Y-116224000D01*
X168463401Y-116105100D01*
X168596455Y-115972046D01*
X169039001Y-116414593D01*
X169039000Y-117085423D01*
X163770226Y-126211694D01*
X163645816Y-125911340D01*
X163327660Y-125593184D01*
X162911970Y-125421000D01*
X162462030Y-125421000D01*
X162046340Y-125593184D01*
X161728184Y-125911340D01*
X161556000Y-126327030D01*
X161556000Y-126776970D01*
X161728184Y-127192660D01*
X162046340Y-127510816D01*
X162462030Y-127683000D01*
X162911970Y-127683000D01*
X162923591Y-127678186D01*
X162140854Y-129034000D01*
X159213592Y-129034000D01*
X158330001Y-128150410D01*
X158330001Y-124726835D01*
X158339914Y-124677001D01*
X158318714Y-124570424D01*
X158300642Y-124479570D01*
X158188807Y-124312195D01*
X158146557Y-124283965D01*
X157589622Y-123727030D01*
X161556000Y-123727030D01*
X161556000Y-124176970D01*
X161728184Y-124592660D01*
X162046340Y-124910816D01*
X162462030Y-125083000D01*
X162911970Y-125083000D01*
X163327660Y-124910816D01*
X163645816Y-124592660D01*
X163818000Y-124176970D01*
X163818000Y-123727030D01*
X163645816Y-123311340D01*
X163327660Y-122993184D01*
X162911970Y-122821000D01*
X162462030Y-122821000D01*
X162046340Y-122993184D01*
X161728184Y-123311340D01*
X161556000Y-123727030D01*
X157589622Y-123727030D01*
X156730039Y-122867447D01*
X156701806Y-122825194D01*
X156534431Y-122713359D01*
X156386835Y-122684000D01*
X156386834Y-122684000D01*
X156337000Y-122674087D01*
X156287166Y-122684000D01*
X156209412Y-122684000D01*
X155954501Y-122302499D01*
X155547312Y-122030424D01*
X155188239Y-121959000D01*
X154945761Y-121959000D01*
X154586688Y-122030424D01*
X154179499Y-122302499D01*
X153907424Y-122709688D01*
X153811884Y-123190000D01*
X153907424Y-123670312D01*
X154179499Y-124077501D01*
X154586688Y-124349576D01*
X154945761Y-124421000D01*
X155188239Y-124421000D01*
X155547312Y-124349576D01*
X155954501Y-124077501D01*
X156176566Y-123745157D01*
X157318001Y-124886593D01*
X157318001Y-126372365D01*
X157254351Y-126346000D01*
X156943649Y-126346000D01*
X156656599Y-126464900D01*
X156436900Y-126684599D01*
X156318000Y-126971649D01*
X156318000Y-127282351D01*
X156436900Y-127569401D01*
X156506454Y-127638955D01*
X156381409Y-127764000D01*
X156209412Y-127764000D01*
X155954501Y-127382499D01*
X155547312Y-127110424D01*
X155188239Y-127039000D01*
X154945761Y-127039000D01*
X154616988Y-127104397D01*
X154190038Y-126677447D01*
X154161806Y-126635194D01*
X153994431Y-126523359D01*
X153846835Y-126494000D01*
X153846834Y-126494000D01*
X153797000Y-126484087D01*
X153747166Y-126494000D01*
X153497022Y-126494000D01*
X153686576Y-126210312D01*
X153782116Y-125730000D01*
X153811884Y-125730000D01*
X153907424Y-126210312D01*
X154179499Y-126617501D01*
X154586688Y-126889576D01*
X154945761Y-126961000D01*
X155188239Y-126961000D01*
X155547312Y-126889576D01*
X155954501Y-126617501D01*
X156226576Y-126210312D01*
X156322116Y-125730000D01*
X156226576Y-125249688D01*
X155954501Y-124842499D01*
X155547312Y-124570424D01*
X155188239Y-124499000D01*
X154945761Y-124499000D01*
X154586688Y-124570424D01*
X154179499Y-124842499D01*
X153907424Y-125249688D01*
X153811884Y-125730000D01*
X153782116Y-125730000D01*
X153686576Y-125249688D01*
X153414501Y-124842499D01*
X153007312Y-124570424D01*
X152648239Y-124499000D01*
X152405761Y-124499000D01*
X152046688Y-124570424D01*
X151639499Y-124842499D01*
X151367424Y-125249688D01*
X151271884Y-125730000D01*
X151367424Y-126210312D01*
X151556978Y-126494000D01*
X150712501Y-126494000D01*
X150556401Y-126337900D01*
X150269351Y-126219000D01*
X149958649Y-126219000D01*
X149671599Y-126337900D01*
X149451900Y-126557599D01*
X149333000Y-126844649D01*
X149333000Y-127155351D01*
X149451900Y-127442401D01*
X149671599Y-127662100D01*
X149958649Y-127781000D01*
X150269351Y-127781000D01*
X150556401Y-127662100D01*
X150712501Y-127506000D01*
X151288536Y-127506000D01*
X151288536Y-129120000D01*
X151318106Y-129268659D01*
X151402314Y-129394686D01*
X151528341Y-129478894D01*
X151677000Y-129508464D01*
X153377000Y-129508464D01*
X153525659Y-129478894D01*
X153651686Y-129394686D01*
X153735894Y-129268659D01*
X153765464Y-129120000D01*
X153765464Y-127684055D01*
X153901397Y-127819988D01*
X153811884Y-128270000D01*
X153907424Y-128750312D01*
X154179499Y-129157501D01*
X154586688Y-129429576D01*
X154945761Y-129501000D01*
X155188239Y-129501000D01*
X155547312Y-129429576D01*
X155954501Y-129157501D01*
X156209412Y-128776000D01*
X156541166Y-128776000D01*
X156591000Y-128785913D01*
X156640834Y-128776000D01*
X156640835Y-128776000D01*
X156788431Y-128746641D01*
X156955806Y-128634806D01*
X156984038Y-128592553D01*
X157318002Y-128258590D01*
X157318002Y-128310162D01*
X157308088Y-128360001D01*
X157329458Y-128467431D01*
X157347361Y-128557432D01*
X157459196Y-128724807D01*
X157501446Y-128753037D01*
X158271008Y-129522600D01*
X134345007Y-129522600D01*
X131362659Y-124357000D01*
X136414536Y-124357000D01*
X136414536Y-127357000D01*
X136444106Y-127505659D01*
X136528314Y-127631686D01*
X136654341Y-127715894D01*
X136803000Y-127745464D01*
X139803000Y-127745464D01*
X139951659Y-127715894D01*
X140077686Y-127631686D01*
X140161894Y-127505659D01*
X140191464Y-127357000D01*
X140191464Y-125482846D01*
X141502000Y-125482846D01*
X141502000Y-126231154D01*
X141788365Y-126922501D01*
X142317499Y-127451635D01*
X143008846Y-127738000D01*
X143757154Y-127738000D01*
X144448501Y-127451635D01*
X144977635Y-126922501D01*
X145264000Y-126231154D01*
X145264000Y-125482846D01*
X144977635Y-124791499D01*
X144448501Y-124262365D01*
X143757154Y-123976000D01*
X143008846Y-123976000D01*
X142317499Y-124262365D01*
X141788365Y-124791499D01*
X141502000Y-125482846D01*
X140191464Y-125482846D01*
X140191464Y-124357000D01*
X140161894Y-124208341D01*
X140077686Y-124082314D01*
X139951659Y-123998106D01*
X139803000Y-123968536D01*
X136803000Y-123968536D01*
X136654341Y-123998106D01*
X136528314Y-124082314D01*
X136444106Y-124208341D01*
X136414536Y-124357000D01*
X131362659Y-124357000D01*
X130688894Y-123190000D01*
X151271884Y-123190000D01*
X151367424Y-123670312D01*
X151639499Y-124077501D01*
X152046688Y-124349576D01*
X152405761Y-124421000D01*
X152648239Y-124421000D01*
X153007312Y-124349576D01*
X153414501Y-124077501D01*
X153686576Y-123670312D01*
X153782116Y-123190000D01*
X153686576Y-122709688D01*
X153414501Y-122302499D01*
X153007312Y-122030424D01*
X152648239Y-121959000D01*
X152405761Y-121959000D01*
X152046688Y-122030424D01*
X151639499Y-122302499D01*
X151367424Y-122709688D01*
X151271884Y-123190000D01*
X130688894Y-123190000D01*
X127561392Y-117772988D01*
X128391000Y-117772988D01*
X128391000Y-118083690D01*
X128509900Y-118370740D01*
X128729599Y-118590439D01*
X129016649Y-118709339D01*
X129327351Y-118709339D01*
X129614401Y-118590439D01*
X129770501Y-118434339D01*
X130738627Y-118434339D01*
X130788461Y-118444252D01*
X130838295Y-118434339D01*
X130838296Y-118434339D01*
X130985892Y-118404980D01*
X131153267Y-118293145D01*
X131181499Y-118250892D01*
X131354191Y-118078200D01*
X131574951Y-118078200D01*
X131862001Y-117959300D01*
X132081700Y-117739601D01*
X132200600Y-117452551D01*
X132200600Y-117141849D01*
X132081700Y-116854799D01*
X131862001Y-116635100D01*
X131574951Y-116516200D01*
X131264249Y-116516200D01*
X130977199Y-116635100D01*
X130757500Y-116854799D01*
X130638600Y-117141849D01*
X130638600Y-117362609D01*
X130578870Y-117422339D01*
X129770501Y-117422339D01*
X129614401Y-117266239D01*
X129327351Y-117147339D01*
X129016649Y-117147339D01*
X128729599Y-117266239D01*
X128509900Y-117485938D01*
X128391000Y-117772988D01*
X127561392Y-117772988D01*
X120189010Y-105003600D01*
X122785113Y-100507000D01*
X129471536Y-100507000D01*
X129471536Y-104407000D01*
X129520136Y-104651330D01*
X129658538Y-104858462D01*
X129865670Y-104996864D01*
X130110000Y-105045464D01*
X131510000Y-105045464D01*
X131754330Y-104996864D01*
X131961462Y-104858462D01*
X132099864Y-104651330D01*
X132148464Y-104407000D01*
X132148464Y-102615800D01*
X132750265Y-102014000D01*
X133431000Y-102014000D01*
X133431000Y-114300000D01*
X133463503Y-114463406D01*
X133556065Y-114601935D01*
X133694594Y-114694497D01*
X133858000Y-114727000D01*
X141732000Y-114727000D01*
X141895406Y-114694497D01*
X142033935Y-114601935D01*
X142126497Y-114463406D01*
X142159000Y-114300000D01*
X142159000Y-96647000D01*
X142126497Y-96483594D01*
X142033935Y-96345065D01*
X141895406Y-96252503D01*
X141732000Y-96220000D01*
X133858000Y-96220000D01*
X133694594Y-96252503D01*
X133556065Y-96345065D01*
X133463503Y-96483594D01*
X133431000Y-96647000D01*
X133431000Y-99852000D01*
X132408968Y-99852000D01*
X132302500Y-99830822D01*
X132196032Y-99852000D01*
X132196031Y-99852000D01*
X131880715Y-99914720D01*
X131815714Y-99958152D01*
X131754330Y-99917136D01*
X131510000Y-99868536D01*
X130110000Y-99868536D01*
X129865670Y-99917136D01*
X129658538Y-100055538D01*
X129520136Y-100262670D01*
X129471536Y-100507000D01*
X122785113Y-100507000D01*
X127197990Y-92863644D01*
X127227636Y-97930414D01*
X127215637Y-97990736D01*
X127228363Y-98054714D01*
X127228374Y-98056574D01*
X127240466Y-98115559D01*
X127251016Y-98168595D01*
X127001499Y-98335317D01*
X126729424Y-98742506D01*
X126633884Y-99222818D01*
X126729424Y-99703130D01*
X127001499Y-100110319D01*
X127408688Y-100382394D01*
X127767761Y-100453818D01*
X128010239Y-100453818D01*
X128369312Y-100382394D01*
X128776501Y-100110319D01*
X129048576Y-99703130D01*
X129144116Y-99222818D01*
X129048576Y-98742506D01*
X128776501Y-98335317D01*
X128520000Y-98163929D01*
X128520000Y-98082885D01*
X128521093Y-98077389D01*
X128678688Y-98182690D01*
X129037761Y-98254114D01*
X129280239Y-98254114D01*
X129639312Y-98182690D01*
X130046501Y-97910615D01*
X130318576Y-97503426D01*
X130414116Y-97023114D01*
X130318576Y-96542802D01*
X130046501Y-96135613D01*
X129790000Y-95964225D01*
X129790000Y-95883179D01*
X129791093Y-95877683D01*
X129948688Y-95982985D01*
X130307761Y-96054409D01*
X130550239Y-96054409D01*
X130909312Y-95982985D01*
X131316501Y-95710910D01*
X131588576Y-95303721D01*
X131684116Y-94823409D01*
X131588576Y-94343097D01*
X131316501Y-93935908D01*
X130909312Y-93663833D01*
X130567360Y-93595815D01*
X130576585Y-93159632D01*
X130811499Y-93511206D01*
X131218688Y-93783281D01*
X131577761Y-93854705D01*
X131820239Y-93854705D01*
X132179312Y-93783281D01*
X132586501Y-93511206D01*
X132858576Y-93104017D01*
X132954116Y-92623705D01*
X132858576Y-92143393D01*
X132586501Y-91736204D01*
X132179312Y-91464129D01*
X131820239Y-91392705D01*
X131577761Y-91392705D01*
X131568000Y-91394647D01*
X131568000Y-91228480D01*
X132697804Y-89277001D01*
X133914131Y-89277001D01*
X134575877Y-89938749D01*
X134611082Y-89991437D01*
X134819804Y-90130900D01*
X135003860Y-90167511D01*
X135066007Y-90179873D01*
X135128155Y-90167511D01*
X139207467Y-90167511D01*
X139181099Y-90231170D01*
X139181099Y-90541872D01*
X139299999Y-90828922D01*
X139519698Y-91048621D01*
X139806748Y-91167521D01*
X140117450Y-91167521D01*
X140404500Y-91048621D01*
X140560600Y-90892521D01*
X155708930Y-90892521D01*
X163309963Y-98493555D01*
X163338194Y-98535806D01*
X163450781Y-98611033D01*
X163505568Y-98647641D01*
X163703000Y-98686913D01*
X163752835Y-98677000D01*
X164755499Y-98677000D01*
X164774999Y-98696500D01*
X160718500Y-98696500D01*
X160555094Y-98729003D01*
X160547000Y-98734411D01*
X160547000Y-98461649D01*
X160428100Y-98174599D01*
X160208401Y-97954900D01*
X159921351Y-97836000D01*
X159610649Y-97836000D01*
X159323599Y-97954900D01*
X159167499Y-98111000D01*
X155602680Y-98111000D01*
X155602100Y-98109599D01*
X155382401Y-97889900D01*
X155095351Y-97771000D01*
X154784649Y-97771000D01*
X154497599Y-97889900D01*
X154277900Y-98109599D01*
X154159000Y-98396649D01*
X154159000Y-98707351D01*
X154277900Y-98994401D01*
X154497599Y-99214100D01*
X154784649Y-99333000D01*
X155095351Y-99333000D01*
X155382401Y-99214100D01*
X155473501Y-99123000D01*
X159167499Y-99123000D01*
X159323599Y-99279100D01*
X159610649Y-99398000D01*
X159921351Y-99398000D01*
X160208401Y-99279100D01*
X160291500Y-99196001D01*
X160291500Y-102188002D01*
X160159660Y-102188002D01*
X158439292Y-100467635D01*
X158406877Y-100419123D01*
X158214695Y-100290710D01*
X158045222Y-100257000D01*
X158045218Y-100257000D01*
X157988000Y-100245619D01*
X157930782Y-100257000D01*
X151923000Y-100257000D01*
X151923000Y-94077148D01*
X151935362Y-94015000D01*
X151886389Y-93768796D01*
X151850161Y-93714577D01*
X151746926Y-93560074D01*
X151694235Y-93524867D01*
X149905633Y-91736265D01*
X149870426Y-91683574D01*
X149661704Y-91544111D01*
X149477648Y-91507500D01*
X149415500Y-91495138D01*
X149353352Y-91507500D01*
X142777001Y-91507500D01*
X142745901Y-91476400D01*
X142458851Y-91357500D01*
X142148149Y-91357500D01*
X141861099Y-91476400D01*
X141705499Y-91632000D01*
X138393501Y-91632000D01*
X138237401Y-91475900D01*
X137950351Y-91357000D01*
X137639649Y-91357000D01*
X137352599Y-91475900D01*
X137132900Y-91695599D01*
X137014000Y-91982649D01*
X137014000Y-92293351D01*
X137132900Y-92580401D01*
X137352599Y-92800100D01*
X137639649Y-92919000D01*
X137950351Y-92919000D01*
X138237401Y-92800100D01*
X138393501Y-92644000D01*
X141704499Y-92644000D01*
X141861099Y-92800600D01*
X142148149Y-92919500D01*
X142458851Y-92919500D01*
X142745901Y-92800600D01*
X142777001Y-92769500D01*
X149154132Y-92769500D01*
X150661001Y-94276369D01*
X150661001Y-97118621D01*
X150396351Y-97009000D01*
X150085649Y-97009000D01*
X149798599Y-97127900D01*
X149578900Y-97347599D01*
X149460000Y-97634649D01*
X149460000Y-97855409D01*
X149193446Y-98121963D01*
X149151193Y-98150195D01*
X149039358Y-98317571D01*
X149019069Y-98419569D01*
X149000086Y-98515001D01*
X149009999Y-98564835D01*
X149010000Y-115684152D01*
X149000086Y-115733991D01*
X149031963Y-115894241D01*
X149039359Y-115931422D01*
X149151194Y-116098797D01*
X149193445Y-116127028D01*
X153016000Y-119949584D01*
X153016000Y-120170343D01*
X153134900Y-120457393D01*
X153354599Y-120677092D01*
X153641649Y-120795992D01*
X153952351Y-120795992D01*
X154239401Y-120677092D01*
X154459100Y-120457393D01*
X154578000Y-120170343D01*
X154578000Y-119859641D01*
X154459100Y-119572591D01*
X154239401Y-119352892D01*
X153952351Y-119233992D01*
X153731592Y-119233992D01*
X150021999Y-115524400D01*
X150021999Y-114980592D01*
X155378961Y-120337555D01*
X155407192Y-120379806D01*
X155574567Y-120491641D01*
X155722163Y-120521000D01*
X155771997Y-120530913D01*
X155821831Y-120521000D01*
X159294499Y-120521000D01*
X159450599Y-120677100D01*
X159737649Y-120796000D01*
X160048351Y-120796000D01*
X160335401Y-120677100D01*
X160410501Y-120602000D01*
X161548536Y-120602000D01*
X161548536Y-122102000D01*
X161578106Y-122250659D01*
X161662314Y-122376686D01*
X161788341Y-122460894D01*
X161937000Y-122490464D01*
X163437000Y-122490464D01*
X163585659Y-122460894D01*
X163711686Y-122376686D01*
X163795894Y-122250659D01*
X163825464Y-122102000D01*
X163825464Y-120602000D01*
X163795894Y-120453341D01*
X163711686Y-120327314D01*
X163585659Y-120243106D01*
X163437000Y-120213536D01*
X161937000Y-120213536D01*
X161788341Y-120243106D01*
X161662314Y-120327314D01*
X161578106Y-120453341D01*
X161548536Y-120602000D01*
X160410501Y-120602000D01*
X160555100Y-120457401D01*
X160674000Y-120170351D01*
X160674000Y-119859649D01*
X160555100Y-119572599D01*
X160489501Y-119507000D01*
X160555100Y-119441401D01*
X160674000Y-119154351D01*
X160674000Y-118843649D01*
X160632310Y-118743000D01*
X162393299Y-118743000D01*
X162549399Y-118899100D01*
X162836449Y-119018000D01*
X163147151Y-119018000D01*
X163434201Y-118899100D01*
X163653900Y-118679401D01*
X163772800Y-118392351D01*
X163772800Y-118081649D01*
X163653900Y-117794599D01*
X163434201Y-117574900D01*
X163147151Y-117456000D01*
X162836449Y-117456000D01*
X162549399Y-117574900D01*
X162393299Y-117731000D01*
X158639501Y-117731000D01*
X158483401Y-117574900D01*
X158196351Y-117456000D01*
X157885649Y-117456000D01*
X157598599Y-117574900D01*
X157502545Y-117670954D01*
X156208000Y-116376409D01*
X156208000Y-114327001D01*
X156364100Y-114170901D01*
X156483000Y-113883851D01*
X156483000Y-113647963D01*
X156536141Y-113568431D01*
X156565500Y-113420835D01*
X156565500Y-113420834D01*
X156575413Y-113371001D01*
X156565500Y-113321167D01*
X156565500Y-109945533D01*
X156721600Y-109789433D01*
X156840500Y-109502383D01*
X156840500Y-109191681D01*
X156721600Y-108904631D01*
X156501901Y-108684932D01*
X156214851Y-108566032D01*
X155904149Y-108566032D01*
X155617099Y-108684932D01*
X155460999Y-108841032D01*
X154895624Y-108841032D01*
X154126538Y-108071947D01*
X154098306Y-108029694D01*
X153930931Y-107917859D01*
X153783335Y-107888500D01*
X153783334Y-107888500D01*
X153733500Y-107878587D01*
X153683666Y-107888500D01*
X151923000Y-107888500D01*
X151923000Y-105111649D01*
X153397000Y-105111649D01*
X153397000Y-105422351D01*
X153515900Y-105709401D01*
X153735599Y-105929100D01*
X154022649Y-106048000D01*
X154333351Y-106048000D01*
X154620401Y-105929100D01*
X154840100Y-105709401D01*
X154959000Y-105422351D01*
X154959000Y-105111649D01*
X154840100Y-104824599D01*
X154620401Y-104604900D01*
X154333351Y-104486000D01*
X154022649Y-104486000D01*
X153735599Y-104604900D01*
X153515900Y-104824599D01*
X153397000Y-105111649D01*
X151923000Y-105111649D01*
X151923000Y-102227501D01*
X152084599Y-102389100D01*
X152371649Y-102508000D01*
X152682351Y-102508000D01*
X152969401Y-102389100D01*
X153189100Y-102169401D01*
X153308000Y-101882351D01*
X153308000Y-101869010D01*
X157033419Y-101869010D01*
X157355001Y-102190593D01*
X157355001Y-102314024D01*
X157118351Y-102216000D01*
X156807649Y-102216000D01*
X156520599Y-102334900D01*
X156300900Y-102554599D01*
X156182000Y-102841649D01*
X156182000Y-103152351D01*
X156300900Y-103439401D01*
X156457001Y-103595502D01*
X156457000Y-106748166D01*
X156447087Y-106798000D01*
X156457000Y-106847834D01*
X156486359Y-106995430D01*
X156598194Y-107162806D01*
X156640447Y-107191038D01*
X157672501Y-108223093D01*
X157672500Y-115424000D01*
X157578649Y-115424000D01*
X157291599Y-115542900D01*
X157071900Y-115762599D01*
X156953000Y-116049649D01*
X156953000Y-116360351D01*
X157071900Y-116647401D01*
X157291599Y-116867100D01*
X157578649Y-116986000D01*
X157889351Y-116986000D01*
X158176401Y-116867100D01*
X158396100Y-116647401D01*
X158515000Y-116360351D01*
X158515000Y-116144219D01*
X158543306Y-116125306D01*
X158655141Y-115957931D01*
X158684500Y-115810335D01*
X158684500Y-115810334D01*
X158694413Y-115760500D01*
X158684500Y-115710666D01*
X158684500Y-108598682D01*
X158993373Y-108907555D01*
X159021604Y-108949806D01*
X159133354Y-109024474D01*
X159188978Y-109061641D01*
X159386410Y-109100913D01*
X159436245Y-109091000D01*
X160628499Y-109091000D01*
X160784599Y-109247100D01*
X161071649Y-109366000D01*
X161382351Y-109366000D01*
X161669401Y-109247100D01*
X161889100Y-109027401D01*
X162008000Y-108740351D01*
X162008000Y-108429649D01*
X161889100Y-108142599D01*
X161669401Y-107922900D01*
X161382351Y-107804000D01*
X161071649Y-107804000D01*
X160784599Y-107922900D01*
X160628499Y-108079000D01*
X159596002Y-108079000D01*
X159489478Y-107972476D01*
X159790875Y-107972476D01*
X160077925Y-107853576D01*
X160297624Y-107633877D01*
X160416524Y-107346827D01*
X160416524Y-107126068D01*
X160422592Y-107120000D01*
X160739499Y-107120000D01*
X160895599Y-107276100D01*
X161182649Y-107395000D01*
X161493351Y-107395000D01*
X161780401Y-107276100D01*
X162000100Y-107056401D01*
X162119000Y-106769351D01*
X162119000Y-106458649D01*
X162000100Y-106171599D01*
X161780401Y-105951900D01*
X161493351Y-105833000D01*
X161182649Y-105833000D01*
X160895599Y-105951900D01*
X160739499Y-106108000D01*
X160262833Y-106108000D01*
X160212999Y-106098087D01*
X160163165Y-106108000D01*
X160015569Y-106137359D01*
X159848194Y-106249194D01*
X159819963Y-106291445D01*
X159700932Y-106410476D01*
X159480173Y-106410476D01*
X159193123Y-106529376D01*
X158973424Y-106749075D01*
X158854524Y-107036125D01*
X158854524Y-107337523D01*
X158150005Y-106633004D01*
X158150005Y-105021635D01*
X158213655Y-105048000D01*
X158524357Y-105048000D01*
X158811407Y-104929100D01*
X159031106Y-104709401D01*
X159150006Y-104422351D01*
X159150006Y-104373001D01*
X160633898Y-104373001D01*
X160557000Y-104558649D01*
X160557000Y-104869351D01*
X160675900Y-105156401D01*
X160895599Y-105376100D01*
X161182649Y-105495000D01*
X161403409Y-105495000D01*
X162844963Y-106936555D01*
X162873194Y-106978806D01*
X162985781Y-107054033D01*
X163040568Y-107090641D01*
X163238000Y-107129913D01*
X163287835Y-107120000D01*
X163739499Y-107120000D01*
X163895599Y-107276100D01*
X164182649Y-107395000D01*
X164493351Y-107395000D01*
X164780401Y-107276100D01*
X165000100Y-107056401D01*
X165119000Y-106769351D01*
X165119000Y-106458649D01*
X165000100Y-106171599D01*
X164780401Y-105951900D01*
X164493351Y-105833000D01*
X164182649Y-105833000D01*
X163895599Y-105951900D01*
X163739499Y-106108000D01*
X163447592Y-106108000D01*
X162119000Y-104779409D01*
X162119000Y-104558649D01*
X162042102Y-104373001D01*
X164674600Y-104373001D01*
X164674600Y-104549351D01*
X164793500Y-104836401D01*
X165013199Y-105056100D01*
X165300249Y-105175000D01*
X165610951Y-105175000D01*
X165898001Y-105056100D01*
X166117700Y-104836401D01*
X166236600Y-104549351D01*
X166236600Y-104238649D01*
X166117700Y-103951599D01*
X165898001Y-103731900D01*
X165610951Y-103613000D01*
X165390191Y-103613000D01*
X165321639Y-103544448D01*
X165293407Y-103502195D01*
X165289508Y-103499590D01*
X165303997Y-103477906D01*
X165336500Y-103314500D01*
X165336500Y-103219136D01*
X165464204Y-103133808D01*
X165492436Y-103091555D01*
X165542591Y-103041400D01*
X165763351Y-103041400D01*
X166050401Y-102922500D01*
X166270100Y-102702801D01*
X166389000Y-102415751D01*
X166389000Y-102105049D01*
X166270100Y-101817999D01*
X166114000Y-101661899D01*
X166114000Y-99675991D01*
X166782792Y-99007200D01*
X167054466Y-99007200D01*
X167127953Y-99014989D01*
X167202443Y-98992996D01*
X167278631Y-98977841D01*
X167340084Y-98936780D01*
X169283652Y-97916407D01*
X169310630Y-97911041D01*
X169372076Y-97869985D01*
X169392529Y-97859247D01*
X169413420Y-97842360D01*
X169478006Y-97799206D01*
X169491158Y-97779522D01*
X169509563Y-97764645D01*
X169522712Y-97740479D01*
X170197286Y-97065905D01*
X170311649Y-97113276D01*
X170622351Y-97113276D01*
X170909401Y-96994376D01*
X171129100Y-96774677D01*
X171248000Y-96487627D01*
X171248000Y-96176925D01*
X171129100Y-95889875D01*
X170909401Y-95670176D01*
X170622351Y-95551276D01*
X170311649Y-95551276D01*
X170024599Y-95670176D01*
X169804900Y-95889875D01*
X169707862Y-96124147D01*
X169619200Y-96212808D01*
X169619200Y-93961841D01*
X169629113Y-93912007D01*
X169618686Y-93859587D01*
X169589841Y-93714577D01*
X169587000Y-93710325D01*
X169587000Y-93449457D01*
X169468100Y-93162407D01*
X169248401Y-92942708D01*
X168961351Y-92823808D01*
X168650649Y-92823808D01*
X168363599Y-92942708D01*
X168143900Y-93162407D01*
X168025000Y-93449457D01*
X168025000Y-93760159D01*
X168143900Y-94047209D01*
X168363599Y-94266908D01*
X168607201Y-94367811D01*
X168607200Y-96092073D01*
X168527501Y-95972794D01*
X168120312Y-95700719D01*
X167761239Y-95629295D01*
X167518761Y-95629295D01*
X167159688Y-95700719D01*
X166752499Y-95972794D01*
X166581111Y-96229295D01*
X163542663Y-96229295D01*
X162604959Y-95291591D01*
X165311111Y-95291591D01*
X165482499Y-95548092D01*
X165889688Y-95820167D01*
X166248761Y-95891591D01*
X166491239Y-95891591D01*
X166850312Y-95820167D01*
X167257501Y-95548092D01*
X167529576Y-95140903D01*
X167625116Y-94660591D01*
X167529576Y-94180279D01*
X167257501Y-93773090D01*
X166850312Y-93501015D01*
X166491239Y-93429591D01*
X166248761Y-93429591D01*
X165889688Y-93501015D01*
X165482499Y-93773090D01*
X165311111Y-94029591D01*
X162332922Y-94029591D01*
X161395217Y-93091886D01*
X164041111Y-93091886D01*
X164212499Y-93348387D01*
X164619688Y-93620462D01*
X164978761Y-93691886D01*
X165221239Y-93691886D01*
X165580312Y-93620462D01*
X165987501Y-93348387D01*
X166259576Y-92941198D01*
X166355116Y-92460886D01*
X166259576Y-91980574D01*
X165987501Y-91573385D01*
X165580312Y-91301310D01*
X165221239Y-91229886D01*
X164978761Y-91229886D01*
X164619688Y-91301310D01*
X164212499Y-91573385D01*
X164041111Y-91829886D01*
X161123178Y-91829886D01*
X160185472Y-90892180D01*
X162771110Y-90892181D01*
X162942499Y-91148683D01*
X163349688Y-91420758D01*
X163708761Y-91492182D01*
X163951239Y-91492182D01*
X164310312Y-91420758D01*
X164717501Y-91148683D01*
X164989576Y-90741494D01*
X165085116Y-90261182D01*
X164989576Y-89780870D01*
X164717501Y-89373681D01*
X164310312Y-89101606D01*
X163951239Y-89030182D01*
X163708761Y-89030182D01*
X163349688Y-89101606D01*
X162942499Y-89373681D01*
X162771110Y-89630182D01*
X159913437Y-89630181D01*
X157310739Y-87027484D01*
X157310737Y-87027483D01*
X157278254Y-86995000D01*
X157480000Y-86995000D01*
X157528601Y-86985333D01*
X157569803Y-86957803D01*
X157597333Y-86916601D01*
X157607000Y-86868000D01*
X157607000Y-81563791D01*
X157918200Y-81874992D01*
X157918200Y-82095751D01*
X158037100Y-82382801D01*
X158256799Y-82602500D01*
X158543849Y-82721400D01*
X158854551Y-82721400D01*
X159141601Y-82602500D01*
X159361300Y-82382801D01*
X159480200Y-82095751D01*
X159480200Y-81785049D01*
X159361300Y-81497999D01*
X159276651Y-81413350D01*
X159348600Y-81341401D01*
X159467500Y-81054351D01*
X159467500Y-80743649D01*
X159360198Y-80484600D01*
X162657194Y-80484600D01*
X176813189Y-105003600D01*
X176813189Y-105003600D01*
G37*
X176813189Y-105003600D02*
X176231516Y-106011092D01*
X176068996Y-105868566D01*
X175329552Y-105441649D01*
X175320149Y-105438457D01*
X175357016Y-105349451D01*
X175357016Y-105058641D01*
X175245728Y-104789968D01*
X175040094Y-104584334D01*
X174771421Y-104473046D01*
X174480611Y-104473046D01*
X174211938Y-104584334D01*
X174006304Y-104789968D01*
X173919559Y-104999389D01*
X173651421Y-104844961D01*
X173633034Y-104817442D01*
X172379038Y-103563447D01*
X172350806Y-103521194D01*
X172183431Y-103409359D01*
X172035835Y-103380000D01*
X172035834Y-103380000D01*
X171986000Y-103370087D01*
X171936166Y-103380000D01*
X171159501Y-103380000D01*
X171078924Y-103299423D01*
X171130401Y-103278100D01*
X171350100Y-103058401D01*
X171469000Y-102771351D01*
X171469000Y-102550591D01*
X172527592Y-101492000D01*
X172748351Y-101492000D01*
X173035401Y-101373100D01*
X173255100Y-101153401D01*
X173374000Y-100866351D01*
X173374000Y-100555649D01*
X173255100Y-100268599D01*
X173035401Y-100048900D01*
X172748351Y-99930000D01*
X172437649Y-99930000D01*
X172150599Y-100048900D01*
X171930900Y-100268599D01*
X171812000Y-100555649D01*
X171812000Y-100776408D01*
X170753409Y-101835000D01*
X170532649Y-101835000D01*
X170245599Y-101953900D01*
X170067267Y-102132232D01*
X169797501Y-101728499D01*
X169390312Y-101456424D01*
X169031239Y-101385000D01*
X168788761Y-101385000D01*
X168429688Y-101456424D01*
X168022499Y-101728499D01*
X167750424Y-102135688D01*
X167654884Y-102616000D01*
X167750424Y-103096312D01*
X168022499Y-103503501D01*
X168429688Y-103775576D01*
X168788761Y-103847000D01*
X169031239Y-103847000D01*
X169390312Y-103775576D01*
X169797501Y-103503501D01*
X170067267Y-103099768D01*
X170170076Y-103202577D01*
X170118599Y-103223900D01*
X169898900Y-103443599D01*
X169780000Y-103730649D01*
X169780000Y-103921514D01*
X169760000Y-103917536D01*
X168060000Y-103917536D01*
X167911341Y-103947106D01*
X167785314Y-104031314D01*
X167701106Y-104157341D01*
X167671536Y-104306000D01*
X167671536Y-106006000D01*
X167701106Y-106154659D01*
X167785314Y-106280686D01*
X167911341Y-106364894D01*
X168060000Y-106394464D01*
X168986308Y-106394464D01*
X168975599Y-106398900D01*
X168755900Y-106618599D01*
X168637000Y-106905649D01*
X168637000Y-107216351D01*
X168755900Y-107503401D01*
X168975599Y-107723100D01*
X169262649Y-107842000D01*
X169573351Y-107842000D01*
X169860401Y-107723100D01*
X170016501Y-107567000D01*
X171481409Y-107567000D01*
X171637443Y-107723034D01*
X171762568Y-107806640D01*
X171916419Y-107837244D01*
X172193487Y-107997342D01*
X172101304Y-108089525D01*
X171990016Y-108358198D01*
X171990016Y-108649008D01*
X172082571Y-108872456D01*
X171940611Y-108872456D01*
X171671938Y-108983744D01*
X171466304Y-109189378D01*
X171355016Y-109458051D01*
X171355016Y-109748861D01*
X171466304Y-110017534D01*
X171671938Y-110223168D01*
X171940611Y-110334456D01*
X172231421Y-110334456D01*
X172500094Y-110223168D01*
X172635974Y-110087288D01*
X172643554Y-110093935D01*
X173382996Y-110520853D01*
X173587696Y-110590339D01*
X170051000Y-116716102D01*
X170051000Y-116254835D01*
X170060913Y-116205000D01*
X170021641Y-116007568D01*
X169962890Y-115919641D01*
X169909806Y-115840194D01*
X169867555Y-115811963D01*
X169176038Y-115120447D01*
X169147806Y-115078194D01*
X168980431Y-114966359D01*
X168832835Y-114937000D01*
X168832834Y-114937000D01*
X168783000Y-114927087D01*
X168733166Y-114937000D01*
X168619501Y-114937000D01*
X168463401Y-114780900D01*
X168176351Y-114662000D01*
X167865649Y-114662000D01*
X167578599Y-114780900D01*
X167358900Y-115000599D01*
X167240000Y-115287649D01*
X167240000Y-115598351D01*
X167358900Y-115885401D01*
X167578599Y-116105100D01*
X167865649Y-116224000D01*
X168176351Y-116224000D01*
X168463401Y-116105100D01*
X168596455Y-115972046D01*
X169039001Y-116414593D01*
X169039000Y-117085423D01*
X163770226Y-126211694D01*
X163645816Y-125911340D01*
X163327660Y-125593184D01*
X162911970Y-125421000D01*
X162462030Y-125421000D01*
X162046340Y-125593184D01*
X161728184Y-125911340D01*
X161556000Y-126327030D01*
X161556000Y-126776970D01*
X161728184Y-127192660D01*
X162046340Y-127510816D01*
X162462030Y-127683000D01*
X162911970Y-127683000D01*
X162923591Y-127678186D01*
X162140854Y-129034000D01*
X159213592Y-129034000D01*
X158330001Y-128150410D01*
X158330001Y-124726835D01*
X158339914Y-124677001D01*
X158318714Y-124570424D01*
X158300642Y-124479570D01*
X158188807Y-124312195D01*
X158146557Y-124283965D01*
X157589622Y-123727030D01*
X161556000Y-123727030D01*
X161556000Y-124176970D01*
X161728184Y-124592660D01*
X162046340Y-124910816D01*
X162462030Y-125083000D01*
X162911970Y-125083000D01*
X163327660Y-124910816D01*
X163645816Y-124592660D01*
X163818000Y-124176970D01*
X163818000Y-123727030D01*
X163645816Y-123311340D01*
X163327660Y-122993184D01*
X162911970Y-122821000D01*
X162462030Y-122821000D01*
X162046340Y-122993184D01*
X161728184Y-123311340D01*
X161556000Y-123727030D01*
X157589622Y-123727030D01*
X156730039Y-122867447D01*
X156701806Y-122825194D01*
X156534431Y-122713359D01*
X156386835Y-122684000D01*
X156386834Y-122684000D01*
X156337000Y-122674087D01*
X156287166Y-122684000D01*
X156209412Y-122684000D01*
X155954501Y-122302499D01*
X155547312Y-122030424D01*
X155188239Y-121959000D01*
X154945761Y-121959000D01*
X154586688Y-122030424D01*
X154179499Y-122302499D01*
X153907424Y-122709688D01*
X153811884Y-123190000D01*
X153907424Y-123670312D01*
X154179499Y-124077501D01*
X154586688Y-124349576D01*
X154945761Y-124421000D01*
X155188239Y-124421000D01*
X155547312Y-124349576D01*
X155954501Y-124077501D01*
X156176566Y-123745157D01*
X157318001Y-124886593D01*
X157318001Y-126372365D01*
X157254351Y-126346000D01*
X156943649Y-126346000D01*
X156656599Y-126464900D01*
X156436900Y-126684599D01*
X156318000Y-126971649D01*
X156318000Y-127282351D01*
X156436900Y-127569401D01*
X156506454Y-127638955D01*
X156381409Y-127764000D01*
X156209412Y-127764000D01*
X155954501Y-127382499D01*
X155547312Y-127110424D01*
X155188239Y-127039000D01*
X154945761Y-127039000D01*
X154616988Y-127104397D01*
X154190038Y-126677447D01*
X154161806Y-126635194D01*
X153994431Y-126523359D01*
X153846835Y-126494000D01*
X153846834Y-126494000D01*
X153797000Y-126484087D01*
X153747166Y-126494000D01*
X153497022Y-126494000D01*
X153686576Y-126210312D01*
X153782116Y-125730000D01*
X153811884Y-125730000D01*
X153907424Y-126210312D01*
X154179499Y-126617501D01*
X154586688Y-126889576D01*
X154945761Y-126961000D01*
X155188239Y-126961000D01*
X155547312Y-126889576D01*
X155954501Y-126617501D01*
X156226576Y-126210312D01*
X156322116Y-125730000D01*
X156226576Y-125249688D01*
X155954501Y-124842499D01*
X155547312Y-124570424D01*
X155188239Y-124499000D01*
X154945761Y-124499000D01*
X154586688Y-124570424D01*
X154179499Y-124842499D01*
X153907424Y-125249688D01*
X153811884Y-125730000D01*
X153782116Y-125730000D01*
X153686576Y-125249688D01*
X153414501Y-124842499D01*
X153007312Y-124570424D01*
X152648239Y-124499000D01*
X152405761Y-124499000D01*
X152046688Y-124570424D01*
X151639499Y-124842499D01*
X151367424Y-125249688D01*
X151271884Y-125730000D01*
X151367424Y-126210312D01*
X151556978Y-126494000D01*
X150712501Y-126494000D01*
X150556401Y-126337900D01*
X150269351Y-126219000D01*
X149958649Y-126219000D01*
X149671599Y-126337900D01*
X149451900Y-126557599D01*
X149333000Y-126844649D01*
X149333000Y-127155351D01*
X149451900Y-127442401D01*
X149671599Y-127662100D01*
X149958649Y-127781000D01*
X150269351Y-127781000D01*
X150556401Y-127662100D01*
X150712501Y-127506000D01*
X151288536Y-127506000D01*
X151288536Y-129120000D01*
X151318106Y-129268659D01*
X151402314Y-129394686D01*
X151528341Y-129478894D01*
X151677000Y-129508464D01*
X153377000Y-129508464D01*
X153525659Y-129478894D01*
X153651686Y-129394686D01*
X153735894Y-129268659D01*
X153765464Y-129120000D01*
X153765464Y-127684055D01*
X153901397Y-127819988D01*
X153811884Y-128270000D01*
X153907424Y-128750312D01*
X154179499Y-129157501D01*
X154586688Y-129429576D01*
X154945761Y-129501000D01*
X155188239Y-129501000D01*
X155547312Y-129429576D01*
X155954501Y-129157501D01*
X156209412Y-128776000D01*
X156541166Y-128776000D01*
X156591000Y-128785913D01*
X156640834Y-128776000D01*
X156640835Y-128776000D01*
X156788431Y-128746641D01*
X156955806Y-128634806D01*
X156984038Y-128592553D01*
X157318002Y-128258590D01*
X157318002Y-128310162D01*
X157308088Y-128360001D01*
X157329458Y-128467431D01*
X157347361Y-128557432D01*
X157459196Y-128724807D01*
X157501446Y-128753037D01*
X158271008Y-129522600D01*
X134345007Y-129522600D01*
X131362659Y-124357000D01*
X136414536Y-124357000D01*
X136414536Y-127357000D01*
X136444106Y-127505659D01*
X136528314Y-127631686D01*
X136654341Y-127715894D01*
X136803000Y-127745464D01*
X139803000Y-127745464D01*
X139951659Y-127715894D01*
X140077686Y-127631686D01*
X140161894Y-127505659D01*
X140191464Y-127357000D01*
X140191464Y-125482846D01*
X141502000Y-125482846D01*
X141502000Y-126231154D01*
X141788365Y-126922501D01*
X142317499Y-127451635D01*
X143008846Y-127738000D01*
X143757154Y-127738000D01*
X144448501Y-127451635D01*
X144977635Y-126922501D01*
X145264000Y-126231154D01*
X145264000Y-125482846D01*
X144977635Y-124791499D01*
X144448501Y-124262365D01*
X143757154Y-123976000D01*
X143008846Y-123976000D01*
X142317499Y-124262365D01*
X141788365Y-124791499D01*
X141502000Y-125482846D01*
X140191464Y-125482846D01*
X140191464Y-124357000D01*
X140161894Y-124208341D01*
X140077686Y-124082314D01*
X139951659Y-123998106D01*
X139803000Y-123968536D01*
X136803000Y-123968536D01*
X136654341Y-123998106D01*
X136528314Y-124082314D01*
X136444106Y-124208341D01*
X136414536Y-124357000D01*
X131362659Y-124357000D01*
X130688894Y-123190000D01*
X151271884Y-123190000D01*
X151367424Y-123670312D01*
X151639499Y-124077501D01*
X152046688Y-124349576D01*
X152405761Y-124421000D01*
X152648239Y-124421000D01*
X153007312Y-124349576D01*
X153414501Y-124077501D01*
X153686576Y-123670312D01*
X153782116Y-123190000D01*
X153686576Y-122709688D01*
X153414501Y-122302499D01*
X153007312Y-122030424D01*
X152648239Y-121959000D01*
X152405761Y-121959000D01*
X152046688Y-122030424D01*
X151639499Y-122302499D01*
X151367424Y-122709688D01*
X151271884Y-123190000D01*
X130688894Y-123190000D01*
X127561392Y-117772988D01*
X128391000Y-117772988D01*
X128391000Y-118083690D01*
X128509900Y-118370740D01*
X128729599Y-118590439D01*
X129016649Y-118709339D01*
X129327351Y-118709339D01*
X129614401Y-118590439D01*
X129770501Y-118434339D01*
X130738627Y-118434339D01*
X130788461Y-118444252D01*
X130838295Y-118434339D01*
X130838296Y-118434339D01*
X130985892Y-118404980D01*
X131153267Y-118293145D01*
X131181499Y-118250892D01*
X131354191Y-118078200D01*
X131574951Y-118078200D01*
X131862001Y-117959300D01*
X132081700Y-117739601D01*
X132200600Y-117452551D01*
X132200600Y-117141849D01*
X132081700Y-116854799D01*
X131862001Y-116635100D01*
X131574951Y-116516200D01*
X131264249Y-116516200D01*
X130977199Y-116635100D01*
X130757500Y-116854799D01*
X130638600Y-117141849D01*
X130638600Y-117362609D01*
X130578870Y-117422339D01*
X129770501Y-117422339D01*
X129614401Y-117266239D01*
X129327351Y-117147339D01*
X129016649Y-117147339D01*
X128729599Y-117266239D01*
X128509900Y-117485938D01*
X128391000Y-117772988D01*
X127561392Y-117772988D01*
X120189010Y-105003600D01*
X122785113Y-100507000D01*
X129471536Y-100507000D01*
X129471536Y-104407000D01*
X129520136Y-104651330D01*
X129658538Y-104858462D01*
X129865670Y-104996864D01*
X130110000Y-105045464D01*
X131510000Y-105045464D01*
X131754330Y-104996864D01*
X131961462Y-104858462D01*
X132099864Y-104651330D01*
X132148464Y-104407000D01*
X132148464Y-102615800D01*
X132750265Y-102014000D01*
X133431000Y-102014000D01*
X133431000Y-114300000D01*
X133463503Y-114463406D01*
X133556065Y-114601935D01*
X133694594Y-114694497D01*
X133858000Y-114727000D01*
X141732000Y-114727000D01*
X141895406Y-114694497D01*
X142033935Y-114601935D01*
X142126497Y-114463406D01*
X142159000Y-114300000D01*
X142159000Y-96647000D01*
X142126497Y-96483594D01*
X142033935Y-96345065D01*
X141895406Y-96252503D01*
X141732000Y-96220000D01*
X133858000Y-96220000D01*
X133694594Y-96252503D01*
X133556065Y-96345065D01*
X133463503Y-96483594D01*
X133431000Y-96647000D01*
X133431000Y-99852000D01*
X132408968Y-99852000D01*
X132302500Y-99830822D01*
X132196032Y-99852000D01*
X132196031Y-99852000D01*
X131880715Y-99914720D01*
X131815714Y-99958152D01*
X131754330Y-99917136D01*
X131510000Y-99868536D01*
X130110000Y-99868536D01*
X129865670Y-99917136D01*
X129658538Y-100055538D01*
X129520136Y-100262670D01*
X129471536Y-100507000D01*
X122785113Y-100507000D01*
X127197990Y-92863644D01*
X127227636Y-97930414D01*
X127215637Y-97990736D01*
X127228363Y-98054714D01*
X127228374Y-98056574D01*
X127240466Y-98115559D01*
X127251016Y-98168595D01*
X127001499Y-98335317D01*
X126729424Y-98742506D01*
X126633884Y-99222818D01*
X126729424Y-99703130D01*
X127001499Y-100110319D01*
X127408688Y-100382394D01*
X127767761Y-100453818D01*
X128010239Y-100453818D01*
X128369312Y-100382394D01*
X128776501Y-100110319D01*
X129048576Y-99703130D01*
X129144116Y-99222818D01*
X129048576Y-98742506D01*
X128776501Y-98335317D01*
X128520000Y-98163929D01*
X128520000Y-98082885D01*
X128521093Y-98077389D01*
X128678688Y-98182690D01*
X129037761Y-98254114D01*
X129280239Y-98254114D01*
X129639312Y-98182690D01*
X130046501Y-97910615D01*
X130318576Y-97503426D01*
X130414116Y-97023114D01*
X130318576Y-96542802D01*
X130046501Y-96135613D01*
X129790000Y-95964225D01*
X129790000Y-95883179D01*
X129791093Y-95877683D01*
X129948688Y-95982985D01*
X130307761Y-96054409D01*
X130550239Y-96054409D01*
X130909312Y-95982985D01*
X131316501Y-95710910D01*
X131588576Y-95303721D01*
X131684116Y-94823409D01*
X131588576Y-94343097D01*
X131316501Y-93935908D01*
X130909312Y-93663833D01*
X130567360Y-93595815D01*
X130576585Y-93159632D01*
X130811499Y-93511206D01*
X131218688Y-93783281D01*
X131577761Y-93854705D01*
X131820239Y-93854705D01*
X132179312Y-93783281D01*
X132586501Y-93511206D01*
X132858576Y-93104017D01*
X132954116Y-92623705D01*
X132858576Y-92143393D01*
X132586501Y-91736204D01*
X132179312Y-91464129D01*
X131820239Y-91392705D01*
X131577761Y-91392705D01*
X131568000Y-91394647D01*
X131568000Y-91228480D01*
X132697804Y-89277001D01*
X133914131Y-89277001D01*
X134575877Y-89938749D01*
X134611082Y-89991437D01*
X134819804Y-90130900D01*
X135003860Y-90167511D01*
X135066007Y-90179873D01*
X135128155Y-90167511D01*
X139207467Y-90167511D01*
X139181099Y-90231170D01*
X139181099Y-90541872D01*
X139299999Y-90828922D01*
X139519698Y-91048621D01*
X139806748Y-91167521D01*
X140117450Y-91167521D01*
X140404500Y-91048621D01*
X140560600Y-90892521D01*
X155708930Y-90892521D01*
X163309963Y-98493555D01*
X163338194Y-98535806D01*
X163450781Y-98611033D01*
X163505568Y-98647641D01*
X163703000Y-98686913D01*
X163752835Y-98677000D01*
X164755499Y-98677000D01*
X164774999Y-98696500D01*
X160718500Y-98696500D01*
X160555094Y-98729003D01*
X160547000Y-98734411D01*
X160547000Y-98461649D01*
X160428100Y-98174599D01*
X160208401Y-97954900D01*
X159921351Y-97836000D01*
X159610649Y-97836000D01*
X159323599Y-97954900D01*
X159167499Y-98111000D01*
X155602680Y-98111000D01*
X155602100Y-98109599D01*
X155382401Y-97889900D01*
X155095351Y-97771000D01*
X154784649Y-97771000D01*
X154497599Y-97889900D01*
X154277900Y-98109599D01*
X154159000Y-98396649D01*
X154159000Y-98707351D01*
X154277900Y-98994401D01*
X154497599Y-99214100D01*
X154784649Y-99333000D01*
X155095351Y-99333000D01*
X155382401Y-99214100D01*
X155473501Y-99123000D01*
X159167499Y-99123000D01*
X159323599Y-99279100D01*
X159610649Y-99398000D01*
X159921351Y-99398000D01*
X160208401Y-99279100D01*
X160291500Y-99196001D01*
X160291500Y-102188002D01*
X160159660Y-102188002D01*
X158439292Y-100467635D01*
X158406877Y-100419123D01*
X158214695Y-100290710D01*
X158045222Y-100257000D01*
X158045218Y-100257000D01*
X157988000Y-100245619D01*
X157930782Y-100257000D01*
X151923000Y-100257000D01*
X151923000Y-94077148D01*
X151935362Y-94015000D01*
X151886389Y-93768796D01*
X151850161Y-93714577D01*
X151746926Y-93560074D01*
X151694235Y-93524867D01*
X149905633Y-91736265D01*
X149870426Y-91683574D01*
X149661704Y-91544111D01*
X149477648Y-91507500D01*
X149415500Y-91495138D01*
X149353352Y-91507500D01*
X142777001Y-91507500D01*
X142745901Y-91476400D01*
X142458851Y-91357500D01*
X142148149Y-91357500D01*
X141861099Y-91476400D01*
X141705499Y-91632000D01*
X138393501Y-91632000D01*
X138237401Y-91475900D01*
X137950351Y-91357000D01*
X137639649Y-91357000D01*
X137352599Y-91475900D01*
X137132900Y-91695599D01*
X137014000Y-91982649D01*
X137014000Y-92293351D01*
X137132900Y-92580401D01*
X137352599Y-92800100D01*
X137639649Y-92919000D01*
X137950351Y-92919000D01*
X138237401Y-92800100D01*
X138393501Y-92644000D01*
X141704499Y-92644000D01*
X141861099Y-92800600D01*
X142148149Y-92919500D01*
X142458851Y-92919500D01*
X142745901Y-92800600D01*
X142777001Y-92769500D01*
X149154132Y-92769500D01*
X150661001Y-94276369D01*
X150661001Y-97118621D01*
X150396351Y-97009000D01*
X150085649Y-97009000D01*
X149798599Y-97127900D01*
X149578900Y-97347599D01*
X149460000Y-97634649D01*
X149460000Y-97855409D01*
X149193446Y-98121963D01*
X149151193Y-98150195D01*
X149039358Y-98317571D01*
X149019069Y-98419569D01*
X149000086Y-98515001D01*
X149009999Y-98564835D01*
X149010000Y-115684152D01*
X149000086Y-115733991D01*
X149031963Y-115894241D01*
X149039359Y-115931422D01*
X149151194Y-116098797D01*
X149193445Y-116127028D01*
X153016000Y-119949584D01*
X153016000Y-120170343D01*
X153134900Y-120457393D01*
X153354599Y-120677092D01*
X153641649Y-120795992D01*
X153952351Y-120795992D01*
X154239401Y-120677092D01*
X154459100Y-120457393D01*
X154578000Y-120170343D01*
X154578000Y-119859641D01*
X154459100Y-119572591D01*
X154239401Y-119352892D01*
X153952351Y-119233992D01*
X153731592Y-119233992D01*
X150021999Y-115524400D01*
X150021999Y-114980592D01*
X155378961Y-120337555D01*
X155407192Y-120379806D01*
X155574567Y-120491641D01*
X155722163Y-120521000D01*
X155771997Y-120530913D01*
X155821831Y-120521000D01*
X159294499Y-120521000D01*
X159450599Y-120677100D01*
X159737649Y-120796000D01*
X160048351Y-120796000D01*
X160335401Y-120677100D01*
X160410501Y-120602000D01*
X161548536Y-120602000D01*
X161548536Y-122102000D01*
X161578106Y-122250659D01*
X161662314Y-122376686D01*
X161788341Y-122460894D01*
X161937000Y-122490464D01*
X163437000Y-122490464D01*
X163585659Y-122460894D01*
X163711686Y-122376686D01*
X163795894Y-122250659D01*
X163825464Y-122102000D01*
X163825464Y-120602000D01*
X163795894Y-120453341D01*
X163711686Y-120327314D01*
X163585659Y-120243106D01*
X163437000Y-120213536D01*
X161937000Y-120213536D01*
X161788341Y-120243106D01*
X161662314Y-120327314D01*
X161578106Y-120453341D01*
X161548536Y-120602000D01*
X160410501Y-120602000D01*
X160555100Y-120457401D01*
X160674000Y-120170351D01*
X160674000Y-119859649D01*
X160555100Y-119572599D01*
X160489501Y-119507000D01*
X160555100Y-119441401D01*
X160674000Y-119154351D01*
X160674000Y-118843649D01*
X160632310Y-118743000D01*
X162393299Y-118743000D01*
X162549399Y-118899100D01*
X162836449Y-119018000D01*
X163147151Y-119018000D01*
X163434201Y-118899100D01*
X163653900Y-118679401D01*
X163772800Y-118392351D01*
X163772800Y-118081649D01*
X163653900Y-117794599D01*
X163434201Y-117574900D01*
X163147151Y-117456000D01*
X162836449Y-117456000D01*
X162549399Y-117574900D01*
X162393299Y-117731000D01*
X158639501Y-117731000D01*
X158483401Y-117574900D01*
X158196351Y-117456000D01*
X157885649Y-117456000D01*
X157598599Y-117574900D01*
X157502545Y-117670954D01*
X156208000Y-116376409D01*
X156208000Y-114327001D01*
X156364100Y-114170901D01*
X156483000Y-113883851D01*
X156483000Y-113647963D01*
X156536141Y-113568431D01*
X156565500Y-113420835D01*
X156565500Y-113420834D01*
X156575413Y-113371001D01*
X156565500Y-113321167D01*
X156565500Y-109945533D01*
X156721600Y-109789433D01*
X156840500Y-109502383D01*
X156840500Y-109191681D01*
X156721600Y-108904631D01*
X156501901Y-108684932D01*
X156214851Y-108566032D01*
X155904149Y-108566032D01*
X155617099Y-108684932D01*
X155460999Y-108841032D01*
X154895624Y-108841032D01*
X154126538Y-108071947D01*
X154098306Y-108029694D01*
X153930931Y-107917859D01*
X153783335Y-107888500D01*
X153783334Y-107888500D01*
X153733500Y-107878587D01*
X153683666Y-107888500D01*
X151923000Y-107888500D01*
X151923000Y-105111649D01*
X153397000Y-105111649D01*
X153397000Y-105422351D01*
X153515900Y-105709401D01*
X153735599Y-105929100D01*
X154022649Y-106048000D01*
X154333351Y-106048000D01*
X154620401Y-105929100D01*
X154840100Y-105709401D01*
X154959000Y-105422351D01*
X154959000Y-105111649D01*
X154840100Y-104824599D01*
X154620401Y-104604900D01*
X154333351Y-104486000D01*
X154022649Y-104486000D01*
X153735599Y-104604900D01*
X153515900Y-104824599D01*
X153397000Y-105111649D01*
X151923000Y-105111649D01*
X151923000Y-102227501D01*
X152084599Y-102389100D01*
X152371649Y-102508000D01*
X152682351Y-102508000D01*
X152969401Y-102389100D01*
X153189100Y-102169401D01*
X153308000Y-101882351D01*
X153308000Y-101869010D01*
X157033419Y-101869010D01*
X157355001Y-102190593D01*
X157355001Y-102314024D01*
X157118351Y-102216000D01*
X156807649Y-102216000D01*
X156520599Y-102334900D01*
X156300900Y-102554599D01*
X156182000Y-102841649D01*
X156182000Y-103152351D01*
X156300900Y-103439401D01*
X156457001Y-103595502D01*
X156457000Y-106748166D01*
X156447087Y-106798000D01*
X156457000Y-106847834D01*
X156486359Y-106995430D01*
X156598194Y-107162806D01*
X156640447Y-107191038D01*
X157672501Y-108223093D01*
X157672500Y-115424000D01*
X157578649Y-115424000D01*
X157291599Y-115542900D01*
X157071900Y-115762599D01*
X156953000Y-116049649D01*
X156953000Y-116360351D01*
X157071900Y-116647401D01*
X157291599Y-116867100D01*
X157578649Y-116986000D01*
X157889351Y-116986000D01*
X158176401Y-116867100D01*
X158396100Y-116647401D01*
X158515000Y-116360351D01*
X158515000Y-116144219D01*
X158543306Y-116125306D01*
X158655141Y-115957931D01*
X158684500Y-115810335D01*
X158684500Y-115810334D01*
X158694413Y-115760500D01*
X158684500Y-115710666D01*
X158684500Y-108598682D01*
X158993373Y-108907555D01*
X159021604Y-108949806D01*
X159133354Y-109024474D01*
X159188978Y-109061641D01*
X159386410Y-109100913D01*
X159436245Y-109091000D01*
X160628499Y-109091000D01*
X160784599Y-109247100D01*
X161071649Y-109366000D01*
X161382351Y-109366000D01*
X161669401Y-109247100D01*
X161889100Y-109027401D01*
X162008000Y-108740351D01*
X162008000Y-108429649D01*
X161889100Y-108142599D01*
X161669401Y-107922900D01*
X161382351Y-107804000D01*
X161071649Y-107804000D01*
X160784599Y-107922900D01*
X160628499Y-108079000D01*
X159596002Y-108079000D01*
X159489478Y-107972476D01*
X159790875Y-107972476D01*
X160077925Y-107853576D01*
X160297624Y-107633877D01*
X160416524Y-107346827D01*
X160416524Y-107126068D01*
X160422592Y-107120000D01*
X160739499Y-107120000D01*
X160895599Y-107276100D01*
X161182649Y-107395000D01*
X161493351Y-107395000D01*
X161780401Y-107276100D01*
X162000100Y-107056401D01*
X162119000Y-106769351D01*
X162119000Y-106458649D01*
X162000100Y-106171599D01*
X161780401Y-105951900D01*
X161493351Y-105833000D01*
X161182649Y-105833000D01*
X160895599Y-105951900D01*
X160739499Y-106108000D01*
X160262833Y-106108000D01*
X160212999Y-106098087D01*
X160163165Y-106108000D01*
X160015569Y-106137359D01*
X159848194Y-106249194D01*
X159819963Y-106291445D01*
X159700932Y-106410476D01*
X159480173Y-106410476D01*
X159193123Y-106529376D01*
X158973424Y-106749075D01*
X158854524Y-107036125D01*
X158854524Y-107337523D01*
X158150005Y-106633004D01*
X158150005Y-105021635D01*
X158213655Y-105048000D01*
X158524357Y-105048000D01*
X158811407Y-104929100D01*
X159031106Y-104709401D01*
X159150006Y-104422351D01*
X159150006Y-104373001D01*
X160633898Y-104373001D01*
X160557000Y-104558649D01*
X160557000Y-104869351D01*
X160675900Y-105156401D01*
X160895599Y-105376100D01*
X161182649Y-105495000D01*
X161403409Y-105495000D01*
X162844963Y-106936555D01*
X162873194Y-106978806D01*
X162985781Y-107054033D01*
X163040568Y-107090641D01*
X163238000Y-107129913D01*
X163287835Y-107120000D01*
X163739499Y-107120000D01*
X163895599Y-107276100D01*
X164182649Y-107395000D01*
X164493351Y-107395000D01*
X164780401Y-107276100D01*
X165000100Y-107056401D01*
X165119000Y-106769351D01*
X165119000Y-106458649D01*
X165000100Y-106171599D01*
X164780401Y-105951900D01*
X164493351Y-105833000D01*
X164182649Y-105833000D01*
X163895599Y-105951900D01*
X163739499Y-106108000D01*
X163447592Y-106108000D01*
X162119000Y-104779409D01*
X162119000Y-104558649D01*
X162042102Y-104373001D01*
X164674600Y-104373001D01*
X164674600Y-104549351D01*
X164793500Y-104836401D01*
X165013199Y-105056100D01*
X165300249Y-105175000D01*
X165610951Y-105175000D01*
X165898001Y-105056100D01*
X166117700Y-104836401D01*
X166236600Y-104549351D01*
X166236600Y-104238649D01*
X166117700Y-103951599D01*
X165898001Y-103731900D01*
X165610951Y-103613000D01*
X165390191Y-103613000D01*
X165321639Y-103544448D01*
X165293407Y-103502195D01*
X165289508Y-103499590D01*
X165303997Y-103477906D01*
X165336500Y-103314500D01*
X165336500Y-103219136D01*
X165464204Y-103133808D01*
X165492436Y-103091555D01*
X165542591Y-103041400D01*
X165763351Y-103041400D01*
X166050401Y-102922500D01*
X166270100Y-102702801D01*
X166389000Y-102415751D01*
X166389000Y-102105049D01*
X166270100Y-101817999D01*
X166114000Y-101661899D01*
X166114000Y-99675991D01*
X166782792Y-99007200D01*
X167054466Y-99007200D01*
X167127953Y-99014989D01*
X167202443Y-98992996D01*
X167278631Y-98977841D01*
X167340084Y-98936780D01*
X169283652Y-97916407D01*
X169310630Y-97911041D01*
X169372076Y-97869985D01*
X169392529Y-97859247D01*
X169413420Y-97842360D01*
X169478006Y-97799206D01*
X169491158Y-97779522D01*
X169509563Y-97764645D01*
X169522712Y-97740479D01*
X170197286Y-97065905D01*
X170311649Y-97113276D01*
X170622351Y-97113276D01*
X170909401Y-96994376D01*
X171129100Y-96774677D01*
X171248000Y-96487627D01*
X171248000Y-96176925D01*
X171129100Y-95889875D01*
X170909401Y-95670176D01*
X170622351Y-95551276D01*
X170311649Y-95551276D01*
X170024599Y-95670176D01*
X169804900Y-95889875D01*
X169707862Y-96124147D01*
X169619200Y-96212808D01*
X169619200Y-93961841D01*
X169629113Y-93912007D01*
X169618686Y-93859587D01*
X169589841Y-93714577D01*
X169587000Y-93710325D01*
X169587000Y-93449457D01*
X169468100Y-93162407D01*
X169248401Y-92942708D01*
X168961351Y-92823808D01*
X168650649Y-92823808D01*
X168363599Y-92942708D01*
X168143900Y-93162407D01*
X168025000Y-93449457D01*
X168025000Y-93760159D01*
X168143900Y-94047209D01*
X168363599Y-94266908D01*
X168607201Y-94367811D01*
X168607200Y-96092073D01*
X168527501Y-95972794D01*
X168120312Y-95700719D01*
X167761239Y-95629295D01*
X167518761Y-95629295D01*
X167159688Y-95700719D01*
X166752499Y-95972794D01*
X166581111Y-96229295D01*
X163542663Y-96229295D01*
X162604959Y-95291591D01*
X165311111Y-95291591D01*
X165482499Y-95548092D01*
X165889688Y-95820167D01*
X166248761Y-95891591D01*
X166491239Y-95891591D01*
X166850312Y-95820167D01*
X167257501Y-95548092D01*
X167529576Y-95140903D01*
X167625116Y-94660591D01*
X167529576Y-94180279D01*
X167257501Y-93773090D01*
X166850312Y-93501015D01*
X166491239Y-93429591D01*
X166248761Y-93429591D01*
X165889688Y-93501015D01*
X165482499Y-93773090D01*
X165311111Y-94029591D01*
X162332922Y-94029591D01*
X161395217Y-93091886D01*
X164041111Y-93091886D01*
X164212499Y-93348387D01*
X164619688Y-93620462D01*
X164978761Y-93691886D01*
X165221239Y-93691886D01*
X165580312Y-93620462D01*
X165987501Y-93348387D01*
X166259576Y-92941198D01*
X166355116Y-92460886D01*
X166259576Y-91980574D01*
X165987501Y-91573385D01*
X165580312Y-91301310D01*
X165221239Y-91229886D01*
X164978761Y-91229886D01*
X164619688Y-91301310D01*
X164212499Y-91573385D01*
X164041111Y-91829886D01*
X161123178Y-91829886D01*
X160185472Y-90892180D01*
X162771110Y-90892181D01*
X162942499Y-91148683D01*
X163349688Y-91420758D01*
X163708761Y-91492182D01*
X163951239Y-91492182D01*
X164310312Y-91420758D01*
X164717501Y-91148683D01*
X164989576Y-90741494D01*
X165085116Y-90261182D01*
X164989576Y-89780870D01*
X164717501Y-89373681D01*
X164310312Y-89101606D01*
X163951239Y-89030182D01*
X163708761Y-89030182D01*
X163349688Y-89101606D01*
X162942499Y-89373681D01*
X162771110Y-89630182D01*
X159913437Y-89630181D01*
X157310739Y-87027484D01*
X157310737Y-87027483D01*
X157278254Y-86995000D01*
X157480000Y-86995000D01*
X157528601Y-86985333D01*
X157569803Y-86957803D01*
X157597333Y-86916601D01*
X157607000Y-86868000D01*
X157607000Y-81563791D01*
X157918200Y-81874992D01*
X157918200Y-82095751D01*
X158037100Y-82382801D01*
X158256799Y-82602500D01*
X158543849Y-82721400D01*
X158854551Y-82721400D01*
X159141601Y-82602500D01*
X159361300Y-82382801D01*
X159480200Y-82095751D01*
X159480200Y-81785049D01*
X159361300Y-81497999D01*
X159276651Y-81413350D01*
X159348600Y-81341401D01*
X159467500Y-81054351D01*
X159467500Y-80743649D01*
X159360198Y-80484600D01*
X162657194Y-80484600D01*
X176813189Y-105003600D01*
G04 #@! TO.N,GND*
G36*
X164782500Y-102092278D02*
X164781000Y-102095899D01*
X164781000Y-102217002D01*
X163936077Y-102217002D01*
X163786980Y-102067905D01*
X163483023Y-101942002D01*
X163154021Y-101942002D01*
X162850064Y-102067905D01*
X162775967Y-102142002D01*
X161897433Y-102142002D01*
X161774391Y-102018960D01*
X161470434Y-101893057D01*
X161141432Y-101893057D01*
X160845500Y-102015636D01*
X160845500Y-99250500D01*
X164782500Y-99250500D01*
X164782500Y-102092278D01*
X164782500Y-102092278D01*
G37*
X164782500Y-102092278D02*
X164781000Y-102095899D01*
X164781000Y-102217002D01*
X163936077Y-102217002D01*
X163786980Y-102067905D01*
X163483023Y-101942002D01*
X163154021Y-101942002D01*
X162850064Y-102067905D01*
X162775967Y-102142002D01*
X161897433Y-102142002D01*
X161774391Y-102018960D01*
X161470434Y-101893057D01*
X161141432Y-101893057D01*
X160845500Y-102015636D01*
X160845500Y-99250500D01*
X164782500Y-99250500D01*
X164782500Y-102092278D01*
G36*
X141605000Y-114173000D02*
X133985000Y-114173000D01*
X133985000Y-96774000D01*
X141605000Y-96774000D01*
X141605000Y-114173000D01*
X141605000Y-114173000D01*
G37*
X141605000Y-114173000D02*
X133985000Y-114173000D01*
X133985000Y-96774000D01*
X141605000Y-96774000D01*
X141605000Y-114173000D01*
G04 #@! TD*
M02*
