G04 #@! TF.GenerationSoftware,KiCad,Pcbnew,5.0.2+dfsg1-1*
G04 #@! TF.CreationDate,2021-02-26T15:03:44+01:00*
G04 #@! TF.ProjectId,KiCAD_Board,4b694341-445f-4426-9f61-72642e6b6963,rev?*
G04 #@! TF.SameCoordinates,Original*
G04 #@! TF.FileFunction,Paste,Top*
G04 #@! TF.FilePolarity,Positive*
%FSLAX46Y46*%
G04 Gerber Fmt 4.6, Leading zero omitted, Abs format (unit mm)*
G04 Created by KiCad (PCBNEW 5.0.2+dfsg1-1) date Fri 26 Feb 2021 15:03:44 CET*
%MOMM*%
%LPD*%
G01*
G04 APERTURE LIST*
%ADD10R,1.100000X1.100000*%
%ADD11C,0.100000*%
%ADD12C,0.900000*%
%ADD13C,0.800000*%
%ADD14C,1.000000*%
%ADD15C,1.025000*%
%ADD16C,0.875000*%
%ADD17C,0.820000*%
%ADD18C,0.250000*%
%ADD19C,1.600000*%
%ADD20C,2.500000*%
%ADD21R,1.300000X1.700000*%
%ADD22C,0.300000*%
%ADD23C,0.600000*%
%ADD24C,0.400000*%
%ADD25R,0.900000X0.800000*%
%ADD26R,0.600000X0.900000*%
%ADD27R,1.200000X0.800000*%
%ADD28R,5.000000X5.000000*%
%ADD29R,2.000000X0.900000*%
%ADD30R,0.900000X2.000000*%
G04 APERTURE END LIST*
D10*
G04 #@! TO.C,D501*
X158626000Y-107188000D03*
X155826000Y-107188000D03*
G04 #@! TD*
D11*
G04 #@! TO.C,C301*
G36*
X160546054Y-123490083D02*
X160567895Y-123493323D01*
X160589314Y-123498688D01*
X160610104Y-123506127D01*
X160630064Y-123515568D01*
X160649003Y-123526919D01*
X160666738Y-123540073D01*
X160683099Y-123554901D01*
X160697927Y-123571262D01*
X160711081Y-123588997D01*
X160722432Y-123607936D01*
X160731873Y-123627896D01*
X160739312Y-123648686D01*
X160744677Y-123670105D01*
X160747917Y-123691946D01*
X160749000Y-123714000D01*
X160749000Y-124164000D01*
X160747917Y-124186054D01*
X160744677Y-124207895D01*
X160739312Y-124229314D01*
X160731873Y-124250104D01*
X160722432Y-124270064D01*
X160711081Y-124289003D01*
X160697927Y-124306738D01*
X160683099Y-124323099D01*
X160666738Y-124337927D01*
X160649003Y-124351081D01*
X160630064Y-124362432D01*
X160610104Y-124371873D01*
X160589314Y-124379312D01*
X160567895Y-124384677D01*
X160546054Y-124387917D01*
X160524000Y-124389000D01*
X160024000Y-124389000D01*
X160001946Y-124387917D01*
X159980105Y-124384677D01*
X159958686Y-124379312D01*
X159937896Y-124371873D01*
X159917936Y-124362432D01*
X159898997Y-124351081D01*
X159881262Y-124337927D01*
X159864901Y-124323099D01*
X159850073Y-124306738D01*
X159836919Y-124289003D01*
X159825568Y-124270064D01*
X159816127Y-124250104D01*
X159808688Y-124229314D01*
X159803323Y-124207895D01*
X159800083Y-124186054D01*
X159799000Y-124164000D01*
X159799000Y-123714000D01*
X159800083Y-123691946D01*
X159803323Y-123670105D01*
X159808688Y-123648686D01*
X159816127Y-123627896D01*
X159825568Y-123607936D01*
X159836919Y-123588997D01*
X159850073Y-123571262D01*
X159864901Y-123554901D01*
X159881262Y-123540073D01*
X159898997Y-123526919D01*
X159917936Y-123515568D01*
X159937896Y-123506127D01*
X159958686Y-123498688D01*
X159980105Y-123493323D01*
X160001946Y-123490083D01*
X160024000Y-123489000D01*
X160524000Y-123489000D01*
X160546054Y-123490083D01*
X160546054Y-123490083D01*
G37*
D12*
X160274000Y-123939000D03*
D11*
G36*
X160546054Y-125040083D02*
X160567895Y-125043323D01*
X160589314Y-125048688D01*
X160610104Y-125056127D01*
X160630064Y-125065568D01*
X160649003Y-125076919D01*
X160666738Y-125090073D01*
X160683099Y-125104901D01*
X160697927Y-125121262D01*
X160711081Y-125138997D01*
X160722432Y-125157936D01*
X160731873Y-125177896D01*
X160739312Y-125198686D01*
X160744677Y-125220105D01*
X160747917Y-125241946D01*
X160749000Y-125264000D01*
X160749000Y-125714000D01*
X160747917Y-125736054D01*
X160744677Y-125757895D01*
X160739312Y-125779314D01*
X160731873Y-125800104D01*
X160722432Y-125820064D01*
X160711081Y-125839003D01*
X160697927Y-125856738D01*
X160683099Y-125873099D01*
X160666738Y-125887927D01*
X160649003Y-125901081D01*
X160630064Y-125912432D01*
X160610104Y-125921873D01*
X160589314Y-125929312D01*
X160567895Y-125934677D01*
X160546054Y-125937917D01*
X160524000Y-125939000D01*
X160024000Y-125939000D01*
X160001946Y-125937917D01*
X159980105Y-125934677D01*
X159958686Y-125929312D01*
X159937896Y-125921873D01*
X159917936Y-125912432D01*
X159898997Y-125901081D01*
X159881262Y-125887927D01*
X159864901Y-125873099D01*
X159850073Y-125856738D01*
X159836919Y-125839003D01*
X159825568Y-125820064D01*
X159816127Y-125800104D01*
X159808688Y-125779314D01*
X159803323Y-125757895D01*
X159800083Y-125736054D01*
X159799000Y-125714000D01*
X159799000Y-125264000D01*
X159800083Y-125241946D01*
X159803323Y-125220105D01*
X159808688Y-125198686D01*
X159816127Y-125177896D01*
X159825568Y-125157936D01*
X159836919Y-125138997D01*
X159850073Y-125121262D01*
X159864901Y-125104901D01*
X159881262Y-125090073D01*
X159898997Y-125076919D01*
X159917936Y-125065568D01*
X159937896Y-125056127D01*
X159958686Y-125048688D01*
X159980105Y-125043323D01*
X160001946Y-125040083D01*
X160024000Y-125039000D01*
X160524000Y-125039000D01*
X160546054Y-125040083D01*
X160546054Y-125040083D01*
G37*
D12*
X160274000Y-125489000D03*
G04 #@! TD*
D11*
G04 #@! TO.C,R302*
G36*
X159044603Y-121838963D02*
X159064018Y-121841843D01*
X159083057Y-121846612D01*
X159101537Y-121853224D01*
X159119279Y-121861616D01*
X159136114Y-121871706D01*
X159151879Y-121883398D01*
X159166421Y-121896579D01*
X159179602Y-121911121D01*
X159191294Y-121926886D01*
X159201384Y-121943721D01*
X159209776Y-121961463D01*
X159216388Y-121979943D01*
X159221157Y-121998982D01*
X159224037Y-122018397D01*
X159225000Y-122038000D01*
X159225000Y-122438000D01*
X159224037Y-122457603D01*
X159221157Y-122477018D01*
X159216388Y-122496057D01*
X159209776Y-122514537D01*
X159201384Y-122532279D01*
X159191294Y-122549114D01*
X159179602Y-122564879D01*
X159166421Y-122579421D01*
X159151879Y-122592602D01*
X159136114Y-122604294D01*
X159119279Y-122614384D01*
X159101537Y-122622776D01*
X159083057Y-122629388D01*
X159064018Y-122634157D01*
X159044603Y-122637037D01*
X159025000Y-122638000D01*
X158475000Y-122638000D01*
X158455397Y-122637037D01*
X158435982Y-122634157D01*
X158416943Y-122629388D01*
X158398463Y-122622776D01*
X158380721Y-122614384D01*
X158363886Y-122604294D01*
X158348121Y-122592602D01*
X158333579Y-122579421D01*
X158320398Y-122564879D01*
X158308706Y-122549114D01*
X158298616Y-122532279D01*
X158290224Y-122514537D01*
X158283612Y-122496057D01*
X158278843Y-122477018D01*
X158275963Y-122457603D01*
X158275000Y-122438000D01*
X158275000Y-122038000D01*
X158275963Y-122018397D01*
X158278843Y-121998982D01*
X158283612Y-121979943D01*
X158290224Y-121961463D01*
X158298616Y-121943721D01*
X158308706Y-121926886D01*
X158320398Y-121911121D01*
X158333579Y-121896579D01*
X158348121Y-121883398D01*
X158363886Y-121871706D01*
X158380721Y-121861616D01*
X158398463Y-121853224D01*
X158416943Y-121846612D01*
X158435982Y-121841843D01*
X158455397Y-121838963D01*
X158475000Y-121838000D01*
X159025000Y-121838000D01*
X159044603Y-121838963D01*
X159044603Y-121838963D01*
G37*
D13*
X158750000Y-122238000D03*
D11*
G36*
X159044603Y-123488963D02*
X159064018Y-123491843D01*
X159083057Y-123496612D01*
X159101537Y-123503224D01*
X159119279Y-123511616D01*
X159136114Y-123521706D01*
X159151879Y-123533398D01*
X159166421Y-123546579D01*
X159179602Y-123561121D01*
X159191294Y-123576886D01*
X159201384Y-123593721D01*
X159209776Y-123611463D01*
X159216388Y-123629943D01*
X159221157Y-123648982D01*
X159224037Y-123668397D01*
X159225000Y-123688000D01*
X159225000Y-124088000D01*
X159224037Y-124107603D01*
X159221157Y-124127018D01*
X159216388Y-124146057D01*
X159209776Y-124164537D01*
X159201384Y-124182279D01*
X159191294Y-124199114D01*
X159179602Y-124214879D01*
X159166421Y-124229421D01*
X159151879Y-124242602D01*
X159136114Y-124254294D01*
X159119279Y-124264384D01*
X159101537Y-124272776D01*
X159083057Y-124279388D01*
X159064018Y-124284157D01*
X159044603Y-124287037D01*
X159025000Y-124288000D01*
X158475000Y-124288000D01*
X158455397Y-124287037D01*
X158435982Y-124284157D01*
X158416943Y-124279388D01*
X158398463Y-124272776D01*
X158380721Y-124264384D01*
X158363886Y-124254294D01*
X158348121Y-124242602D01*
X158333579Y-124229421D01*
X158320398Y-124214879D01*
X158308706Y-124199114D01*
X158298616Y-124182279D01*
X158290224Y-124164537D01*
X158283612Y-124146057D01*
X158278843Y-124127018D01*
X158275963Y-124107603D01*
X158275000Y-124088000D01*
X158275000Y-123688000D01*
X158275963Y-123668397D01*
X158278843Y-123648982D01*
X158283612Y-123629943D01*
X158290224Y-123611463D01*
X158298616Y-123593721D01*
X158308706Y-123576886D01*
X158320398Y-123561121D01*
X158333579Y-123546579D01*
X158348121Y-123533398D01*
X158363886Y-123521706D01*
X158380721Y-123511616D01*
X158398463Y-123503224D01*
X158416943Y-123496612D01*
X158435982Y-123491843D01*
X158455397Y-123488963D01*
X158475000Y-123488000D01*
X159025000Y-123488000D01*
X159044603Y-123488963D01*
X159044603Y-123488963D01*
G37*
D13*
X158750000Y-123888000D03*
G04 #@! TD*
D11*
G04 #@! TO.C,C501*
G36*
X138015104Y-113613204D02*
X138039373Y-113616804D01*
X138063171Y-113622765D01*
X138086271Y-113631030D01*
X138108449Y-113641520D01*
X138129493Y-113654133D01*
X138149198Y-113668747D01*
X138167377Y-113685223D01*
X138183853Y-113703402D01*
X138198467Y-113723107D01*
X138211080Y-113744151D01*
X138221570Y-113766329D01*
X138229835Y-113789429D01*
X138235796Y-113813227D01*
X138239396Y-113837496D01*
X138240600Y-113862000D01*
X138240600Y-114362000D01*
X138239396Y-114386504D01*
X138235796Y-114410773D01*
X138229835Y-114434571D01*
X138221570Y-114457671D01*
X138211080Y-114479849D01*
X138198467Y-114500893D01*
X138183853Y-114520598D01*
X138167377Y-114538777D01*
X138149198Y-114555253D01*
X138129493Y-114569867D01*
X138108449Y-114582480D01*
X138086271Y-114592970D01*
X138063171Y-114601235D01*
X138039373Y-114607196D01*
X138015104Y-114610796D01*
X137990600Y-114612000D01*
X137040600Y-114612000D01*
X137016096Y-114610796D01*
X136991827Y-114607196D01*
X136968029Y-114601235D01*
X136944929Y-114592970D01*
X136922751Y-114582480D01*
X136901707Y-114569867D01*
X136882002Y-114555253D01*
X136863823Y-114538777D01*
X136847347Y-114520598D01*
X136832733Y-114500893D01*
X136820120Y-114479849D01*
X136809630Y-114457671D01*
X136801365Y-114434571D01*
X136795404Y-114410773D01*
X136791804Y-114386504D01*
X136790600Y-114362000D01*
X136790600Y-113862000D01*
X136791804Y-113837496D01*
X136795404Y-113813227D01*
X136801365Y-113789429D01*
X136809630Y-113766329D01*
X136820120Y-113744151D01*
X136832733Y-113723107D01*
X136847347Y-113703402D01*
X136863823Y-113685223D01*
X136882002Y-113668747D01*
X136901707Y-113654133D01*
X136922751Y-113641520D01*
X136944929Y-113631030D01*
X136968029Y-113622765D01*
X136991827Y-113616804D01*
X137016096Y-113613204D01*
X137040600Y-113612000D01*
X137990600Y-113612000D01*
X138015104Y-113613204D01*
X138015104Y-113613204D01*
G37*
D14*
X137515600Y-114112000D03*
D11*
G36*
X138015104Y-115513204D02*
X138039373Y-115516804D01*
X138063171Y-115522765D01*
X138086271Y-115531030D01*
X138108449Y-115541520D01*
X138129493Y-115554133D01*
X138149198Y-115568747D01*
X138167377Y-115585223D01*
X138183853Y-115603402D01*
X138198467Y-115623107D01*
X138211080Y-115644151D01*
X138221570Y-115666329D01*
X138229835Y-115689429D01*
X138235796Y-115713227D01*
X138239396Y-115737496D01*
X138240600Y-115762000D01*
X138240600Y-116262000D01*
X138239396Y-116286504D01*
X138235796Y-116310773D01*
X138229835Y-116334571D01*
X138221570Y-116357671D01*
X138211080Y-116379849D01*
X138198467Y-116400893D01*
X138183853Y-116420598D01*
X138167377Y-116438777D01*
X138149198Y-116455253D01*
X138129493Y-116469867D01*
X138108449Y-116482480D01*
X138086271Y-116492970D01*
X138063171Y-116501235D01*
X138039373Y-116507196D01*
X138015104Y-116510796D01*
X137990600Y-116512000D01*
X137040600Y-116512000D01*
X137016096Y-116510796D01*
X136991827Y-116507196D01*
X136968029Y-116501235D01*
X136944929Y-116492970D01*
X136922751Y-116482480D01*
X136901707Y-116469867D01*
X136882002Y-116455253D01*
X136863823Y-116438777D01*
X136847347Y-116420598D01*
X136832733Y-116400893D01*
X136820120Y-116379849D01*
X136809630Y-116357671D01*
X136801365Y-116334571D01*
X136795404Y-116310773D01*
X136791804Y-116286504D01*
X136790600Y-116262000D01*
X136790600Y-115762000D01*
X136791804Y-115737496D01*
X136795404Y-115713227D01*
X136801365Y-115689429D01*
X136809630Y-115666329D01*
X136820120Y-115644151D01*
X136832733Y-115623107D01*
X136847347Y-115603402D01*
X136863823Y-115585223D01*
X136882002Y-115568747D01*
X136901707Y-115554133D01*
X136922751Y-115541520D01*
X136944929Y-115531030D01*
X136968029Y-115522765D01*
X136991827Y-115516804D01*
X137016096Y-115513204D01*
X137040600Y-115512000D01*
X137990600Y-115512000D01*
X138015104Y-115513204D01*
X138015104Y-115513204D01*
G37*
D14*
X137515600Y-116012000D03*
G04 #@! TD*
D11*
G04 #@! TO.C,C401*
G36*
X168234504Y-107861204D02*
X168258773Y-107864804D01*
X168282571Y-107870765D01*
X168305671Y-107879030D01*
X168327849Y-107889520D01*
X168348893Y-107902133D01*
X168368598Y-107916747D01*
X168386777Y-107933223D01*
X168403253Y-107951402D01*
X168417867Y-107971107D01*
X168430480Y-107992151D01*
X168440970Y-108014329D01*
X168449235Y-108037429D01*
X168455196Y-108061227D01*
X168458796Y-108085496D01*
X168460000Y-108110000D01*
X168460000Y-109060000D01*
X168458796Y-109084504D01*
X168455196Y-109108773D01*
X168449235Y-109132571D01*
X168440970Y-109155671D01*
X168430480Y-109177849D01*
X168417867Y-109198893D01*
X168403253Y-109218598D01*
X168386777Y-109236777D01*
X168368598Y-109253253D01*
X168348893Y-109267867D01*
X168327849Y-109280480D01*
X168305671Y-109290970D01*
X168282571Y-109299235D01*
X168258773Y-109305196D01*
X168234504Y-109308796D01*
X168210000Y-109310000D01*
X167710000Y-109310000D01*
X167685496Y-109308796D01*
X167661227Y-109305196D01*
X167637429Y-109299235D01*
X167614329Y-109290970D01*
X167592151Y-109280480D01*
X167571107Y-109267867D01*
X167551402Y-109253253D01*
X167533223Y-109236777D01*
X167516747Y-109218598D01*
X167502133Y-109198893D01*
X167489520Y-109177849D01*
X167479030Y-109155671D01*
X167470765Y-109132571D01*
X167464804Y-109108773D01*
X167461204Y-109084504D01*
X167460000Y-109060000D01*
X167460000Y-108110000D01*
X167461204Y-108085496D01*
X167464804Y-108061227D01*
X167470765Y-108037429D01*
X167479030Y-108014329D01*
X167489520Y-107992151D01*
X167502133Y-107971107D01*
X167516747Y-107951402D01*
X167533223Y-107933223D01*
X167551402Y-107916747D01*
X167571107Y-107902133D01*
X167592151Y-107889520D01*
X167614329Y-107879030D01*
X167637429Y-107870765D01*
X167661227Y-107864804D01*
X167685496Y-107861204D01*
X167710000Y-107860000D01*
X168210000Y-107860000D01*
X168234504Y-107861204D01*
X168234504Y-107861204D01*
G37*
D14*
X167960000Y-108585000D03*
D11*
G36*
X170134504Y-107861204D02*
X170158773Y-107864804D01*
X170182571Y-107870765D01*
X170205671Y-107879030D01*
X170227849Y-107889520D01*
X170248893Y-107902133D01*
X170268598Y-107916747D01*
X170286777Y-107933223D01*
X170303253Y-107951402D01*
X170317867Y-107971107D01*
X170330480Y-107992151D01*
X170340970Y-108014329D01*
X170349235Y-108037429D01*
X170355196Y-108061227D01*
X170358796Y-108085496D01*
X170360000Y-108110000D01*
X170360000Y-109060000D01*
X170358796Y-109084504D01*
X170355196Y-109108773D01*
X170349235Y-109132571D01*
X170340970Y-109155671D01*
X170330480Y-109177849D01*
X170317867Y-109198893D01*
X170303253Y-109218598D01*
X170286777Y-109236777D01*
X170268598Y-109253253D01*
X170248893Y-109267867D01*
X170227849Y-109280480D01*
X170205671Y-109290970D01*
X170182571Y-109299235D01*
X170158773Y-109305196D01*
X170134504Y-109308796D01*
X170110000Y-109310000D01*
X169610000Y-109310000D01*
X169585496Y-109308796D01*
X169561227Y-109305196D01*
X169537429Y-109299235D01*
X169514329Y-109290970D01*
X169492151Y-109280480D01*
X169471107Y-109267867D01*
X169451402Y-109253253D01*
X169433223Y-109236777D01*
X169416747Y-109218598D01*
X169402133Y-109198893D01*
X169389520Y-109177849D01*
X169379030Y-109155671D01*
X169370765Y-109132571D01*
X169364804Y-109108773D01*
X169361204Y-109084504D01*
X169360000Y-109060000D01*
X169360000Y-108110000D01*
X169361204Y-108085496D01*
X169364804Y-108061227D01*
X169370765Y-108037429D01*
X169379030Y-108014329D01*
X169389520Y-107992151D01*
X169402133Y-107971107D01*
X169416747Y-107951402D01*
X169433223Y-107933223D01*
X169451402Y-107916747D01*
X169471107Y-107902133D01*
X169492151Y-107889520D01*
X169514329Y-107879030D01*
X169537429Y-107870765D01*
X169561227Y-107864804D01*
X169585496Y-107861204D01*
X169610000Y-107860000D01*
X170110000Y-107860000D01*
X170134504Y-107861204D01*
X170134504Y-107861204D01*
G37*
D14*
X169860000Y-108585000D03*
G04 #@! TD*
D11*
G04 #@! TO.C,C102*
G36*
X138067054Y-87041083D02*
X138088895Y-87044323D01*
X138110314Y-87049688D01*
X138131104Y-87057127D01*
X138151064Y-87066568D01*
X138170003Y-87077919D01*
X138187738Y-87091073D01*
X138204099Y-87105901D01*
X138218927Y-87122262D01*
X138232081Y-87139997D01*
X138243432Y-87158936D01*
X138252873Y-87178896D01*
X138260312Y-87199686D01*
X138265677Y-87221105D01*
X138268917Y-87242946D01*
X138270000Y-87265000D01*
X138270000Y-87715000D01*
X138268917Y-87737054D01*
X138265677Y-87758895D01*
X138260312Y-87780314D01*
X138252873Y-87801104D01*
X138243432Y-87821064D01*
X138232081Y-87840003D01*
X138218927Y-87857738D01*
X138204099Y-87874099D01*
X138187738Y-87888927D01*
X138170003Y-87902081D01*
X138151064Y-87913432D01*
X138131104Y-87922873D01*
X138110314Y-87930312D01*
X138088895Y-87935677D01*
X138067054Y-87938917D01*
X138045000Y-87940000D01*
X137545000Y-87940000D01*
X137522946Y-87938917D01*
X137501105Y-87935677D01*
X137479686Y-87930312D01*
X137458896Y-87922873D01*
X137438936Y-87913432D01*
X137419997Y-87902081D01*
X137402262Y-87888927D01*
X137385901Y-87874099D01*
X137371073Y-87857738D01*
X137357919Y-87840003D01*
X137346568Y-87821064D01*
X137337127Y-87801104D01*
X137329688Y-87780314D01*
X137324323Y-87758895D01*
X137321083Y-87737054D01*
X137320000Y-87715000D01*
X137320000Y-87265000D01*
X137321083Y-87242946D01*
X137324323Y-87221105D01*
X137329688Y-87199686D01*
X137337127Y-87178896D01*
X137346568Y-87158936D01*
X137357919Y-87139997D01*
X137371073Y-87122262D01*
X137385901Y-87105901D01*
X137402262Y-87091073D01*
X137419997Y-87077919D01*
X137438936Y-87066568D01*
X137458896Y-87057127D01*
X137479686Y-87049688D01*
X137501105Y-87044323D01*
X137522946Y-87041083D01*
X137545000Y-87040000D01*
X138045000Y-87040000D01*
X138067054Y-87041083D01*
X138067054Y-87041083D01*
G37*
D12*
X137795000Y-87490000D03*
D11*
G36*
X138067054Y-88591083D02*
X138088895Y-88594323D01*
X138110314Y-88599688D01*
X138131104Y-88607127D01*
X138151064Y-88616568D01*
X138170003Y-88627919D01*
X138187738Y-88641073D01*
X138204099Y-88655901D01*
X138218927Y-88672262D01*
X138232081Y-88689997D01*
X138243432Y-88708936D01*
X138252873Y-88728896D01*
X138260312Y-88749686D01*
X138265677Y-88771105D01*
X138268917Y-88792946D01*
X138270000Y-88815000D01*
X138270000Y-89265000D01*
X138268917Y-89287054D01*
X138265677Y-89308895D01*
X138260312Y-89330314D01*
X138252873Y-89351104D01*
X138243432Y-89371064D01*
X138232081Y-89390003D01*
X138218927Y-89407738D01*
X138204099Y-89424099D01*
X138187738Y-89438927D01*
X138170003Y-89452081D01*
X138151064Y-89463432D01*
X138131104Y-89472873D01*
X138110314Y-89480312D01*
X138088895Y-89485677D01*
X138067054Y-89488917D01*
X138045000Y-89490000D01*
X137545000Y-89490000D01*
X137522946Y-89488917D01*
X137501105Y-89485677D01*
X137479686Y-89480312D01*
X137458896Y-89472873D01*
X137438936Y-89463432D01*
X137419997Y-89452081D01*
X137402262Y-89438927D01*
X137385901Y-89424099D01*
X137371073Y-89407738D01*
X137357919Y-89390003D01*
X137346568Y-89371064D01*
X137337127Y-89351104D01*
X137329688Y-89330314D01*
X137324323Y-89308895D01*
X137321083Y-89287054D01*
X137320000Y-89265000D01*
X137320000Y-88815000D01*
X137321083Y-88792946D01*
X137324323Y-88771105D01*
X137329688Y-88749686D01*
X137337127Y-88728896D01*
X137346568Y-88708936D01*
X137357919Y-88689997D01*
X137371073Y-88672262D01*
X137385901Y-88655901D01*
X137402262Y-88641073D01*
X137419997Y-88627919D01*
X137438936Y-88616568D01*
X137458896Y-88607127D01*
X137479686Y-88599688D01*
X137501105Y-88594323D01*
X137522946Y-88591083D01*
X137545000Y-88590000D01*
X138045000Y-88590000D01*
X138067054Y-88591083D01*
X138067054Y-88591083D01*
G37*
D12*
X137795000Y-89040000D03*
G04 #@! TD*
D11*
G04 #@! TO.C,C103*
G36*
X136289054Y-91639083D02*
X136310895Y-91642323D01*
X136332314Y-91647688D01*
X136353104Y-91655127D01*
X136373064Y-91664568D01*
X136392003Y-91675919D01*
X136409738Y-91689073D01*
X136426099Y-91703901D01*
X136440927Y-91720262D01*
X136454081Y-91737997D01*
X136465432Y-91756936D01*
X136474873Y-91776896D01*
X136482312Y-91797686D01*
X136487677Y-91819105D01*
X136490917Y-91840946D01*
X136492000Y-91863000D01*
X136492000Y-92313000D01*
X136490917Y-92335054D01*
X136487677Y-92356895D01*
X136482312Y-92378314D01*
X136474873Y-92399104D01*
X136465432Y-92419064D01*
X136454081Y-92438003D01*
X136440927Y-92455738D01*
X136426099Y-92472099D01*
X136409738Y-92486927D01*
X136392003Y-92500081D01*
X136373064Y-92511432D01*
X136353104Y-92520873D01*
X136332314Y-92528312D01*
X136310895Y-92533677D01*
X136289054Y-92536917D01*
X136267000Y-92538000D01*
X135767000Y-92538000D01*
X135744946Y-92536917D01*
X135723105Y-92533677D01*
X135701686Y-92528312D01*
X135680896Y-92520873D01*
X135660936Y-92511432D01*
X135641997Y-92500081D01*
X135624262Y-92486927D01*
X135607901Y-92472099D01*
X135593073Y-92455738D01*
X135579919Y-92438003D01*
X135568568Y-92419064D01*
X135559127Y-92399104D01*
X135551688Y-92378314D01*
X135546323Y-92356895D01*
X135543083Y-92335054D01*
X135542000Y-92313000D01*
X135542000Y-91863000D01*
X135543083Y-91840946D01*
X135546323Y-91819105D01*
X135551688Y-91797686D01*
X135559127Y-91776896D01*
X135568568Y-91756936D01*
X135579919Y-91737997D01*
X135593073Y-91720262D01*
X135607901Y-91703901D01*
X135624262Y-91689073D01*
X135641997Y-91675919D01*
X135660936Y-91664568D01*
X135680896Y-91655127D01*
X135701686Y-91647688D01*
X135723105Y-91642323D01*
X135744946Y-91639083D01*
X135767000Y-91638000D01*
X136267000Y-91638000D01*
X136289054Y-91639083D01*
X136289054Y-91639083D01*
G37*
D12*
X136017000Y-92088000D03*
D11*
G36*
X136289054Y-90089083D02*
X136310895Y-90092323D01*
X136332314Y-90097688D01*
X136353104Y-90105127D01*
X136373064Y-90114568D01*
X136392003Y-90125919D01*
X136409738Y-90139073D01*
X136426099Y-90153901D01*
X136440927Y-90170262D01*
X136454081Y-90187997D01*
X136465432Y-90206936D01*
X136474873Y-90226896D01*
X136482312Y-90247686D01*
X136487677Y-90269105D01*
X136490917Y-90290946D01*
X136492000Y-90313000D01*
X136492000Y-90763000D01*
X136490917Y-90785054D01*
X136487677Y-90806895D01*
X136482312Y-90828314D01*
X136474873Y-90849104D01*
X136465432Y-90869064D01*
X136454081Y-90888003D01*
X136440927Y-90905738D01*
X136426099Y-90922099D01*
X136409738Y-90936927D01*
X136392003Y-90950081D01*
X136373064Y-90961432D01*
X136353104Y-90970873D01*
X136332314Y-90978312D01*
X136310895Y-90983677D01*
X136289054Y-90986917D01*
X136267000Y-90988000D01*
X135767000Y-90988000D01*
X135744946Y-90986917D01*
X135723105Y-90983677D01*
X135701686Y-90978312D01*
X135680896Y-90970873D01*
X135660936Y-90961432D01*
X135641997Y-90950081D01*
X135624262Y-90936927D01*
X135607901Y-90922099D01*
X135593073Y-90905738D01*
X135579919Y-90888003D01*
X135568568Y-90869064D01*
X135559127Y-90849104D01*
X135551688Y-90828314D01*
X135546323Y-90806895D01*
X135543083Y-90785054D01*
X135542000Y-90763000D01*
X135542000Y-90313000D01*
X135543083Y-90290946D01*
X135546323Y-90269105D01*
X135551688Y-90247686D01*
X135559127Y-90226896D01*
X135568568Y-90206936D01*
X135579919Y-90187997D01*
X135593073Y-90170262D01*
X135607901Y-90153901D01*
X135624262Y-90139073D01*
X135641997Y-90125919D01*
X135660936Y-90114568D01*
X135680896Y-90105127D01*
X135701686Y-90097688D01*
X135723105Y-90092323D01*
X135744946Y-90089083D01*
X135767000Y-90088000D01*
X136267000Y-90088000D01*
X136289054Y-90089083D01*
X136289054Y-90089083D01*
G37*
D12*
X136017000Y-90538000D03*
G04 #@! TD*
D11*
G04 #@! TO.C,C101*
G36*
X136516504Y-86562204D02*
X136540773Y-86565804D01*
X136564571Y-86571765D01*
X136587671Y-86580030D01*
X136609849Y-86590520D01*
X136630893Y-86603133D01*
X136650598Y-86617747D01*
X136668777Y-86634223D01*
X136685253Y-86652402D01*
X136699867Y-86672107D01*
X136712480Y-86693151D01*
X136722970Y-86715329D01*
X136731235Y-86738429D01*
X136737196Y-86762227D01*
X136740796Y-86786496D01*
X136742000Y-86811000D01*
X136742000Y-87311000D01*
X136740796Y-87335504D01*
X136737196Y-87359773D01*
X136731235Y-87383571D01*
X136722970Y-87406671D01*
X136712480Y-87428849D01*
X136699867Y-87449893D01*
X136685253Y-87469598D01*
X136668777Y-87487777D01*
X136650598Y-87504253D01*
X136630893Y-87518867D01*
X136609849Y-87531480D01*
X136587671Y-87541970D01*
X136564571Y-87550235D01*
X136540773Y-87556196D01*
X136516504Y-87559796D01*
X136492000Y-87561000D01*
X135542000Y-87561000D01*
X135517496Y-87559796D01*
X135493227Y-87556196D01*
X135469429Y-87550235D01*
X135446329Y-87541970D01*
X135424151Y-87531480D01*
X135403107Y-87518867D01*
X135383402Y-87504253D01*
X135365223Y-87487777D01*
X135348747Y-87469598D01*
X135334133Y-87449893D01*
X135321520Y-87428849D01*
X135311030Y-87406671D01*
X135302765Y-87383571D01*
X135296804Y-87359773D01*
X135293204Y-87335504D01*
X135292000Y-87311000D01*
X135292000Y-86811000D01*
X135293204Y-86786496D01*
X135296804Y-86762227D01*
X135302765Y-86738429D01*
X135311030Y-86715329D01*
X135321520Y-86693151D01*
X135334133Y-86672107D01*
X135348747Y-86652402D01*
X135365223Y-86634223D01*
X135383402Y-86617747D01*
X135403107Y-86603133D01*
X135424151Y-86590520D01*
X135446329Y-86580030D01*
X135469429Y-86571765D01*
X135493227Y-86565804D01*
X135517496Y-86562204D01*
X135542000Y-86561000D01*
X136492000Y-86561000D01*
X136516504Y-86562204D01*
X136516504Y-86562204D01*
G37*
D14*
X136017000Y-87061000D03*
D11*
G36*
X136516504Y-88462204D02*
X136540773Y-88465804D01*
X136564571Y-88471765D01*
X136587671Y-88480030D01*
X136609849Y-88490520D01*
X136630893Y-88503133D01*
X136650598Y-88517747D01*
X136668777Y-88534223D01*
X136685253Y-88552402D01*
X136699867Y-88572107D01*
X136712480Y-88593151D01*
X136722970Y-88615329D01*
X136731235Y-88638429D01*
X136737196Y-88662227D01*
X136740796Y-88686496D01*
X136742000Y-88711000D01*
X136742000Y-89211000D01*
X136740796Y-89235504D01*
X136737196Y-89259773D01*
X136731235Y-89283571D01*
X136722970Y-89306671D01*
X136712480Y-89328849D01*
X136699867Y-89349893D01*
X136685253Y-89369598D01*
X136668777Y-89387777D01*
X136650598Y-89404253D01*
X136630893Y-89418867D01*
X136609849Y-89431480D01*
X136587671Y-89441970D01*
X136564571Y-89450235D01*
X136540773Y-89456196D01*
X136516504Y-89459796D01*
X136492000Y-89461000D01*
X135542000Y-89461000D01*
X135517496Y-89459796D01*
X135493227Y-89456196D01*
X135469429Y-89450235D01*
X135446329Y-89441970D01*
X135424151Y-89431480D01*
X135403107Y-89418867D01*
X135383402Y-89404253D01*
X135365223Y-89387777D01*
X135348747Y-89369598D01*
X135334133Y-89349893D01*
X135321520Y-89328849D01*
X135311030Y-89306671D01*
X135302765Y-89283571D01*
X135296804Y-89259773D01*
X135293204Y-89235504D01*
X135292000Y-89211000D01*
X135292000Y-88711000D01*
X135293204Y-88686496D01*
X135296804Y-88662227D01*
X135302765Y-88638429D01*
X135311030Y-88615329D01*
X135321520Y-88593151D01*
X135334133Y-88572107D01*
X135348747Y-88552402D01*
X135365223Y-88534223D01*
X135383402Y-88517747D01*
X135403107Y-88503133D01*
X135424151Y-88490520D01*
X135446329Y-88480030D01*
X135469429Y-88471765D01*
X135493227Y-88465804D01*
X135517496Y-88462204D01*
X135542000Y-88461000D01*
X136492000Y-88461000D01*
X136516504Y-88462204D01*
X136516504Y-88462204D01*
G37*
D14*
X136017000Y-88961000D03*
G04 #@! TD*
D11*
G04 #@! TO.C,R101*
G36*
X138089603Y-90088963D02*
X138109018Y-90091843D01*
X138128057Y-90096612D01*
X138146537Y-90103224D01*
X138164279Y-90111616D01*
X138181114Y-90121706D01*
X138196879Y-90133398D01*
X138211421Y-90146579D01*
X138224602Y-90161121D01*
X138236294Y-90176886D01*
X138246384Y-90193721D01*
X138254776Y-90211463D01*
X138261388Y-90229943D01*
X138266157Y-90248982D01*
X138269037Y-90268397D01*
X138270000Y-90288000D01*
X138270000Y-90688000D01*
X138269037Y-90707603D01*
X138266157Y-90727018D01*
X138261388Y-90746057D01*
X138254776Y-90764537D01*
X138246384Y-90782279D01*
X138236294Y-90799114D01*
X138224602Y-90814879D01*
X138211421Y-90829421D01*
X138196879Y-90842602D01*
X138181114Y-90854294D01*
X138164279Y-90864384D01*
X138146537Y-90872776D01*
X138128057Y-90879388D01*
X138109018Y-90884157D01*
X138089603Y-90887037D01*
X138070000Y-90888000D01*
X137520000Y-90888000D01*
X137500397Y-90887037D01*
X137480982Y-90884157D01*
X137461943Y-90879388D01*
X137443463Y-90872776D01*
X137425721Y-90864384D01*
X137408886Y-90854294D01*
X137393121Y-90842602D01*
X137378579Y-90829421D01*
X137365398Y-90814879D01*
X137353706Y-90799114D01*
X137343616Y-90782279D01*
X137335224Y-90764537D01*
X137328612Y-90746057D01*
X137323843Y-90727018D01*
X137320963Y-90707603D01*
X137320000Y-90688000D01*
X137320000Y-90288000D01*
X137320963Y-90268397D01*
X137323843Y-90248982D01*
X137328612Y-90229943D01*
X137335224Y-90211463D01*
X137343616Y-90193721D01*
X137353706Y-90176886D01*
X137365398Y-90161121D01*
X137378579Y-90146579D01*
X137393121Y-90133398D01*
X137408886Y-90121706D01*
X137425721Y-90111616D01*
X137443463Y-90103224D01*
X137461943Y-90096612D01*
X137480982Y-90091843D01*
X137500397Y-90088963D01*
X137520000Y-90088000D01*
X138070000Y-90088000D01*
X138089603Y-90088963D01*
X138089603Y-90088963D01*
G37*
D13*
X137795000Y-90488000D03*
D11*
G36*
X138089603Y-91738963D02*
X138109018Y-91741843D01*
X138128057Y-91746612D01*
X138146537Y-91753224D01*
X138164279Y-91761616D01*
X138181114Y-91771706D01*
X138196879Y-91783398D01*
X138211421Y-91796579D01*
X138224602Y-91811121D01*
X138236294Y-91826886D01*
X138246384Y-91843721D01*
X138254776Y-91861463D01*
X138261388Y-91879943D01*
X138266157Y-91898982D01*
X138269037Y-91918397D01*
X138270000Y-91938000D01*
X138270000Y-92338000D01*
X138269037Y-92357603D01*
X138266157Y-92377018D01*
X138261388Y-92396057D01*
X138254776Y-92414537D01*
X138246384Y-92432279D01*
X138236294Y-92449114D01*
X138224602Y-92464879D01*
X138211421Y-92479421D01*
X138196879Y-92492602D01*
X138181114Y-92504294D01*
X138164279Y-92514384D01*
X138146537Y-92522776D01*
X138128057Y-92529388D01*
X138109018Y-92534157D01*
X138089603Y-92537037D01*
X138070000Y-92538000D01*
X137520000Y-92538000D01*
X137500397Y-92537037D01*
X137480982Y-92534157D01*
X137461943Y-92529388D01*
X137443463Y-92522776D01*
X137425721Y-92514384D01*
X137408886Y-92504294D01*
X137393121Y-92492602D01*
X137378579Y-92479421D01*
X137365398Y-92464879D01*
X137353706Y-92449114D01*
X137343616Y-92432279D01*
X137335224Y-92414537D01*
X137328612Y-92396057D01*
X137323843Y-92377018D01*
X137320963Y-92357603D01*
X137320000Y-92338000D01*
X137320000Y-91938000D01*
X137320963Y-91918397D01*
X137323843Y-91898982D01*
X137328612Y-91879943D01*
X137335224Y-91861463D01*
X137343616Y-91843721D01*
X137353706Y-91826886D01*
X137365398Y-91811121D01*
X137378579Y-91796579D01*
X137393121Y-91783398D01*
X137408886Y-91771706D01*
X137425721Y-91761616D01*
X137443463Y-91753224D01*
X137461943Y-91746612D01*
X137480982Y-91741843D01*
X137500397Y-91738963D01*
X137520000Y-91738000D01*
X138070000Y-91738000D01*
X138089603Y-91738963D01*
X138089603Y-91738963D01*
G37*
D13*
X137795000Y-92138000D03*
G04 #@! TD*
D11*
G04 #@! TO.C,R301*
G36*
X158171505Y-108648204D02*
X158195773Y-108651804D01*
X158219572Y-108657765D01*
X158242671Y-108666030D01*
X158264850Y-108676520D01*
X158285893Y-108689132D01*
X158305599Y-108703747D01*
X158323777Y-108720223D01*
X158340253Y-108738401D01*
X158354868Y-108758107D01*
X158367480Y-108779150D01*
X158377970Y-108801329D01*
X158386235Y-108824428D01*
X158392196Y-108848227D01*
X158395796Y-108872495D01*
X158397000Y-108896999D01*
X158397000Y-109797001D01*
X158395796Y-109821505D01*
X158392196Y-109845773D01*
X158386235Y-109869572D01*
X158377970Y-109892671D01*
X158367480Y-109914850D01*
X158354868Y-109935893D01*
X158340253Y-109955599D01*
X158323777Y-109973777D01*
X158305599Y-109990253D01*
X158285893Y-110004868D01*
X158264850Y-110017480D01*
X158242671Y-110027970D01*
X158219572Y-110036235D01*
X158195773Y-110042196D01*
X158171505Y-110045796D01*
X158147001Y-110047000D01*
X157621999Y-110047000D01*
X157597495Y-110045796D01*
X157573227Y-110042196D01*
X157549428Y-110036235D01*
X157526329Y-110027970D01*
X157504150Y-110017480D01*
X157483107Y-110004868D01*
X157463401Y-109990253D01*
X157445223Y-109973777D01*
X157428747Y-109955599D01*
X157414132Y-109935893D01*
X157401520Y-109914850D01*
X157391030Y-109892671D01*
X157382765Y-109869572D01*
X157376804Y-109845773D01*
X157373204Y-109821505D01*
X157372000Y-109797001D01*
X157372000Y-108896999D01*
X157373204Y-108872495D01*
X157376804Y-108848227D01*
X157382765Y-108824428D01*
X157391030Y-108801329D01*
X157401520Y-108779150D01*
X157414132Y-108758107D01*
X157428747Y-108738401D01*
X157445223Y-108720223D01*
X157463401Y-108703747D01*
X157483107Y-108689132D01*
X157504150Y-108676520D01*
X157526329Y-108666030D01*
X157549428Y-108657765D01*
X157573227Y-108651804D01*
X157597495Y-108648204D01*
X157621999Y-108647000D01*
X158147001Y-108647000D01*
X158171505Y-108648204D01*
X158171505Y-108648204D01*
G37*
D15*
X157884500Y-109347000D03*
D11*
G36*
X156346505Y-108648204D02*
X156370773Y-108651804D01*
X156394572Y-108657765D01*
X156417671Y-108666030D01*
X156439850Y-108676520D01*
X156460893Y-108689132D01*
X156480599Y-108703747D01*
X156498777Y-108720223D01*
X156515253Y-108738401D01*
X156529868Y-108758107D01*
X156542480Y-108779150D01*
X156552970Y-108801329D01*
X156561235Y-108824428D01*
X156567196Y-108848227D01*
X156570796Y-108872495D01*
X156572000Y-108896999D01*
X156572000Y-109797001D01*
X156570796Y-109821505D01*
X156567196Y-109845773D01*
X156561235Y-109869572D01*
X156552970Y-109892671D01*
X156542480Y-109914850D01*
X156529868Y-109935893D01*
X156515253Y-109955599D01*
X156498777Y-109973777D01*
X156480599Y-109990253D01*
X156460893Y-110004868D01*
X156439850Y-110017480D01*
X156417671Y-110027970D01*
X156394572Y-110036235D01*
X156370773Y-110042196D01*
X156346505Y-110045796D01*
X156322001Y-110047000D01*
X155796999Y-110047000D01*
X155772495Y-110045796D01*
X155748227Y-110042196D01*
X155724428Y-110036235D01*
X155701329Y-110027970D01*
X155679150Y-110017480D01*
X155658107Y-110004868D01*
X155638401Y-109990253D01*
X155620223Y-109973777D01*
X155603747Y-109955599D01*
X155589132Y-109935893D01*
X155576520Y-109914850D01*
X155566030Y-109892671D01*
X155557765Y-109869572D01*
X155551804Y-109845773D01*
X155548204Y-109821505D01*
X155547000Y-109797001D01*
X155547000Y-108896999D01*
X155548204Y-108872495D01*
X155551804Y-108848227D01*
X155557765Y-108824428D01*
X155566030Y-108801329D01*
X155576520Y-108779150D01*
X155589132Y-108758107D01*
X155603747Y-108738401D01*
X155620223Y-108720223D01*
X155638401Y-108703747D01*
X155658107Y-108689132D01*
X155679150Y-108676520D01*
X155701329Y-108666030D01*
X155724428Y-108657765D01*
X155748227Y-108651804D01*
X155772495Y-108648204D01*
X155796999Y-108647000D01*
X156322001Y-108647000D01*
X156346505Y-108648204D01*
X156346505Y-108648204D01*
G37*
D15*
X156059500Y-109347000D03*
G04 #@! TD*
D11*
G04 #@! TO.C,C402*
G36*
X164572054Y-108111083D02*
X164593895Y-108114323D01*
X164615314Y-108119688D01*
X164636104Y-108127127D01*
X164656064Y-108136568D01*
X164675003Y-108147919D01*
X164692738Y-108161073D01*
X164709099Y-108175901D01*
X164723927Y-108192262D01*
X164737081Y-108209997D01*
X164748432Y-108228936D01*
X164757873Y-108248896D01*
X164765312Y-108269686D01*
X164770677Y-108291105D01*
X164773917Y-108312946D01*
X164775000Y-108335000D01*
X164775000Y-108835000D01*
X164773917Y-108857054D01*
X164770677Y-108878895D01*
X164765312Y-108900314D01*
X164757873Y-108921104D01*
X164748432Y-108941064D01*
X164737081Y-108960003D01*
X164723927Y-108977738D01*
X164709099Y-108994099D01*
X164692738Y-109008927D01*
X164675003Y-109022081D01*
X164656064Y-109033432D01*
X164636104Y-109042873D01*
X164615314Y-109050312D01*
X164593895Y-109055677D01*
X164572054Y-109058917D01*
X164550000Y-109060000D01*
X164100000Y-109060000D01*
X164077946Y-109058917D01*
X164056105Y-109055677D01*
X164034686Y-109050312D01*
X164013896Y-109042873D01*
X163993936Y-109033432D01*
X163974997Y-109022081D01*
X163957262Y-109008927D01*
X163940901Y-108994099D01*
X163926073Y-108977738D01*
X163912919Y-108960003D01*
X163901568Y-108941064D01*
X163892127Y-108921104D01*
X163884688Y-108900314D01*
X163879323Y-108878895D01*
X163876083Y-108857054D01*
X163875000Y-108835000D01*
X163875000Y-108335000D01*
X163876083Y-108312946D01*
X163879323Y-108291105D01*
X163884688Y-108269686D01*
X163892127Y-108248896D01*
X163901568Y-108228936D01*
X163912919Y-108209997D01*
X163926073Y-108192262D01*
X163940901Y-108175901D01*
X163957262Y-108161073D01*
X163974997Y-108147919D01*
X163993936Y-108136568D01*
X164013896Y-108127127D01*
X164034686Y-108119688D01*
X164056105Y-108114323D01*
X164077946Y-108111083D01*
X164100000Y-108110000D01*
X164550000Y-108110000D01*
X164572054Y-108111083D01*
X164572054Y-108111083D01*
G37*
D12*
X164325000Y-108585000D03*
D11*
G36*
X166122054Y-108111083D02*
X166143895Y-108114323D01*
X166165314Y-108119688D01*
X166186104Y-108127127D01*
X166206064Y-108136568D01*
X166225003Y-108147919D01*
X166242738Y-108161073D01*
X166259099Y-108175901D01*
X166273927Y-108192262D01*
X166287081Y-108209997D01*
X166298432Y-108228936D01*
X166307873Y-108248896D01*
X166315312Y-108269686D01*
X166320677Y-108291105D01*
X166323917Y-108312946D01*
X166325000Y-108335000D01*
X166325000Y-108835000D01*
X166323917Y-108857054D01*
X166320677Y-108878895D01*
X166315312Y-108900314D01*
X166307873Y-108921104D01*
X166298432Y-108941064D01*
X166287081Y-108960003D01*
X166273927Y-108977738D01*
X166259099Y-108994099D01*
X166242738Y-109008927D01*
X166225003Y-109022081D01*
X166206064Y-109033432D01*
X166186104Y-109042873D01*
X166165314Y-109050312D01*
X166143895Y-109055677D01*
X166122054Y-109058917D01*
X166100000Y-109060000D01*
X165650000Y-109060000D01*
X165627946Y-109058917D01*
X165606105Y-109055677D01*
X165584686Y-109050312D01*
X165563896Y-109042873D01*
X165543936Y-109033432D01*
X165524997Y-109022081D01*
X165507262Y-109008927D01*
X165490901Y-108994099D01*
X165476073Y-108977738D01*
X165462919Y-108960003D01*
X165451568Y-108941064D01*
X165442127Y-108921104D01*
X165434688Y-108900314D01*
X165429323Y-108878895D01*
X165426083Y-108857054D01*
X165425000Y-108835000D01*
X165425000Y-108335000D01*
X165426083Y-108312946D01*
X165429323Y-108291105D01*
X165434688Y-108269686D01*
X165442127Y-108248896D01*
X165451568Y-108228936D01*
X165462919Y-108209997D01*
X165476073Y-108192262D01*
X165490901Y-108175901D01*
X165507262Y-108161073D01*
X165524997Y-108147919D01*
X165543936Y-108136568D01*
X165563896Y-108127127D01*
X165584686Y-108119688D01*
X165606105Y-108114323D01*
X165627946Y-108111083D01*
X165650000Y-108110000D01*
X166100000Y-108110000D01*
X166122054Y-108111083D01*
X166122054Y-108111083D01*
G37*
D12*
X165875000Y-108585000D03*
G04 #@! TD*
D11*
G04 #@! TO.C,D401*
G36*
X161504691Y-110651053D02*
X161525926Y-110654203D01*
X161546750Y-110659419D01*
X161566962Y-110666651D01*
X161586368Y-110675830D01*
X161604781Y-110686866D01*
X161622024Y-110699654D01*
X161637930Y-110714070D01*
X161652346Y-110729976D01*
X161665134Y-110747219D01*
X161676170Y-110765632D01*
X161685349Y-110785038D01*
X161692581Y-110805250D01*
X161697797Y-110826074D01*
X161700947Y-110847309D01*
X161702000Y-110868750D01*
X161702000Y-111381250D01*
X161700947Y-111402691D01*
X161697797Y-111423926D01*
X161692581Y-111444750D01*
X161685349Y-111464962D01*
X161676170Y-111484368D01*
X161665134Y-111502781D01*
X161652346Y-111520024D01*
X161637930Y-111535930D01*
X161622024Y-111550346D01*
X161604781Y-111563134D01*
X161586368Y-111574170D01*
X161566962Y-111583349D01*
X161546750Y-111590581D01*
X161525926Y-111595797D01*
X161504691Y-111598947D01*
X161483250Y-111600000D01*
X161045750Y-111600000D01*
X161024309Y-111598947D01*
X161003074Y-111595797D01*
X160982250Y-111590581D01*
X160962038Y-111583349D01*
X160942632Y-111574170D01*
X160924219Y-111563134D01*
X160906976Y-111550346D01*
X160891070Y-111535930D01*
X160876654Y-111520024D01*
X160863866Y-111502781D01*
X160852830Y-111484368D01*
X160843651Y-111464962D01*
X160836419Y-111444750D01*
X160831203Y-111423926D01*
X160828053Y-111402691D01*
X160827000Y-111381250D01*
X160827000Y-110868750D01*
X160828053Y-110847309D01*
X160831203Y-110826074D01*
X160836419Y-110805250D01*
X160843651Y-110785038D01*
X160852830Y-110765632D01*
X160863866Y-110747219D01*
X160876654Y-110729976D01*
X160891070Y-110714070D01*
X160906976Y-110699654D01*
X160924219Y-110686866D01*
X160942632Y-110675830D01*
X160962038Y-110666651D01*
X160982250Y-110659419D01*
X161003074Y-110654203D01*
X161024309Y-110651053D01*
X161045750Y-110650000D01*
X161483250Y-110650000D01*
X161504691Y-110651053D01*
X161504691Y-110651053D01*
G37*
D16*
X161264500Y-111125000D03*
D11*
G36*
X163079691Y-110651053D02*
X163100926Y-110654203D01*
X163121750Y-110659419D01*
X163141962Y-110666651D01*
X163161368Y-110675830D01*
X163179781Y-110686866D01*
X163197024Y-110699654D01*
X163212930Y-110714070D01*
X163227346Y-110729976D01*
X163240134Y-110747219D01*
X163251170Y-110765632D01*
X163260349Y-110785038D01*
X163267581Y-110805250D01*
X163272797Y-110826074D01*
X163275947Y-110847309D01*
X163277000Y-110868750D01*
X163277000Y-111381250D01*
X163275947Y-111402691D01*
X163272797Y-111423926D01*
X163267581Y-111444750D01*
X163260349Y-111464962D01*
X163251170Y-111484368D01*
X163240134Y-111502781D01*
X163227346Y-111520024D01*
X163212930Y-111535930D01*
X163197024Y-111550346D01*
X163179781Y-111563134D01*
X163161368Y-111574170D01*
X163141962Y-111583349D01*
X163121750Y-111590581D01*
X163100926Y-111595797D01*
X163079691Y-111598947D01*
X163058250Y-111600000D01*
X162620750Y-111600000D01*
X162599309Y-111598947D01*
X162578074Y-111595797D01*
X162557250Y-111590581D01*
X162537038Y-111583349D01*
X162517632Y-111574170D01*
X162499219Y-111563134D01*
X162481976Y-111550346D01*
X162466070Y-111535930D01*
X162451654Y-111520024D01*
X162438866Y-111502781D01*
X162427830Y-111484368D01*
X162418651Y-111464962D01*
X162411419Y-111444750D01*
X162406203Y-111423926D01*
X162403053Y-111402691D01*
X162402000Y-111381250D01*
X162402000Y-110868750D01*
X162403053Y-110847309D01*
X162406203Y-110826074D01*
X162411419Y-110805250D01*
X162418651Y-110785038D01*
X162427830Y-110765632D01*
X162438866Y-110747219D01*
X162451654Y-110729976D01*
X162466070Y-110714070D01*
X162481976Y-110699654D01*
X162499219Y-110686866D01*
X162517632Y-110675830D01*
X162537038Y-110666651D01*
X162557250Y-110659419D01*
X162578074Y-110654203D01*
X162599309Y-110651053D01*
X162620750Y-110650000D01*
X163058250Y-110650000D01*
X163079691Y-110651053D01*
X163079691Y-110651053D01*
G37*
D16*
X162839500Y-111125000D03*
G04 #@! TD*
D11*
G04 #@! TO.C,R402*
G36*
X166144602Y-110650963D02*
X166164017Y-110653843D01*
X166183056Y-110658612D01*
X166201536Y-110665224D01*
X166219278Y-110673616D01*
X166236113Y-110683706D01*
X166251878Y-110695398D01*
X166266420Y-110708579D01*
X166279601Y-110723121D01*
X166291293Y-110738886D01*
X166301383Y-110755721D01*
X166309775Y-110773463D01*
X166316387Y-110791943D01*
X166321156Y-110810982D01*
X166324036Y-110830397D01*
X166324999Y-110850000D01*
X166324999Y-111400000D01*
X166324036Y-111419603D01*
X166321156Y-111439018D01*
X166316387Y-111458057D01*
X166309775Y-111476537D01*
X166301383Y-111494279D01*
X166291293Y-111511114D01*
X166279601Y-111526879D01*
X166266420Y-111541421D01*
X166251878Y-111554602D01*
X166236113Y-111566294D01*
X166219278Y-111576384D01*
X166201536Y-111584776D01*
X166183056Y-111591388D01*
X166164017Y-111596157D01*
X166144602Y-111599037D01*
X166124999Y-111600000D01*
X165724999Y-111600000D01*
X165705396Y-111599037D01*
X165685981Y-111596157D01*
X165666942Y-111591388D01*
X165648462Y-111584776D01*
X165630720Y-111576384D01*
X165613885Y-111566294D01*
X165598120Y-111554602D01*
X165583578Y-111541421D01*
X165570397Y-111526879D01*
X165558705Y-111511114D01*
X165548615Y-111494279D01*
X165540223Y-111476537D01*
X165533611Y-111458057D01*
X165528842Y-111439018D01*
X165525962Y-111419603D01*
X165524999Y-111400000D01*
X165524999Y-110850000D01*
X165525962Y-110830397D01*
X165528842Y-110810982D01*
X165533611Y-110791943D01*
X165540223Y-110773463D01*
X165548615Y-110755721D01*
X165558705Y-110738886D01*
X165570397Y-110723121D01*
X165583578Y-110708579D01*
X165598120Y-110695398D01*
X165613885Y-110683706D01*
X165630720Y-110673616D01*
X165648462Y-110665224D01*
X165666942Y-110658612D01*
X165685981Y-110653843D01*
X165705396Y-110650963D01*
X165724999Y-110650000D01*
X166124999Y-110650000D01*
X166144602Y-110650963D01*
X166144602Y-110650963D01*
G37*
D13*
X165924999Y-111125000D03*
D11*
G36*
X164494602Y-110650963D02*
X164514017Y-110653843D01*
X164533056Y-110658612D01*
X164551536Y-110665224D01*
X164569278Y-110673616D01*
X164586113Y-110683706D01*
X164601878Y-110695398D01*
X164616420Y-110708579D01*
X164629601Y-110723121D01*
X164641293Y-110738886D01*
X164651383Y-110755721D01*
X164659775Y-110773463D01*
X164666387Y-110791943D01*
X164671156Y-110810982D01*
X164674036Y-110830397D01*
X164674999Y-110850000D01*
X164674999Y-111400000D01*
X164674036Y-111419603D01*
X164671156Y-111439018D01*
X164666387Y-111458057D01*
X164659775Y-111476537D01*
X164651383Y-111494279D01*
X164641293Y-111511114D01*
X164629601Y-111526879D01*
X164616420Y-111541421D01*
X164601878Y-111554602D01*
X164586113Y-111566294D01*
X164569278Y-111576384D01*
X164551536Y-111584776D01*
X164533056Y-111591388D01*
X164514017Y-111596157D01*
X164494602Y-111599037D01*
X164474999Y-111600000D01*
X164074999Y-111600000D01*
X164055396Y-111599037D01*
X164035981Y-111596157D01*
X164016942Y-111591388D01*
X163998462Y-111584776D01*
X163980720Y-111576384D01*
X163963885Y-111566294D01*
X163948120Y-111554602D01*
X163933578Y-111541421D01*
X163920397Y-111526879D01*
X163908705Y-111511114D01*
X163898615Y-111494279D01*
X163890223Y-111476537D01*
X163883611Y-111458057D01*
X163878842Y-111439018D01*
X163875962Y-111419603D01*
X163874999Y-111400000D01*
X163874999Y-110850000D01*
X163875962Y-110830397D01*
X163878842Y-110810982D01*
X163883611Y-110791943D01*
X163890223Y-110773463D01*
X163898615Y-110755721D01*
X163908705Y-110738886D01*
X163920397Y-110723121D01*
X163933578Y-110708579D01*
X163948120Y-110695398D01*
X163963885Y-110683706D01*
X163980720Y-110673616D01*
X163998462Y-110665224D01*
X164016942Y-110658612D01*
X164035981Y-110653843D01*
X164055396Y-110650963D01*
X164074999Y-110650000D01*
X164474999Y-110650000D01*
X164494602Y-110650963D01*
X164494602Y-110650963D01*
G37*
D13*
X164274999Y-111125000D03*
G04 #@! TD*
D11*
G04 #@! TO.C,R401*
G36*
X163096603Y-108110963D02*
X163116018Y-108113843D01*
X163135057Y-108118612D01*
X163153537Y-108125224D01*
X163171279Y-108133616D01*
X163188114Y-108143706D01*
X163203879Y-108155398D01*
X163218421Y-108168579D01*
X163231602Y-108183121D01*
X163243294Y-108198886D01*
X163253384Y-108215721D01*
X163261776Y-108233463D01*
X163268388Y-108251943D01*
X163273157Y-108270982D01*
X163276037Y-108290397D01*
X163277000Y-108310000D01*
X163277000Y-108860000D01*
X163276037Y-108879603D01*
X163273157Y-108899018D01*
X163268388Y-108918057D01*
X163261776Y-108936537D01*
X163253384Y-108954279D01*
X163243294Y-108971114D01*
X163231602Y-108986879D01*
X163218421Y-109001421D01*
X163203879Y-109014602D01*
X163188114Y-109026294D01*
X163171279Y-109036384D01*
X163153537Y-109044776D01*
X163135057Y-109051388D01*
X163116018Y-109056157D01*
X163096603Y-109059037D01*
X163077000Y-109060000D01*
X162677000Y-109060000D01*
X162657397Y-109059037D01*
X162637982Y-109056157D01*
X162618943Y-109051388D01*
X162600463Y-109044776D01*
X162582721Y-109036384D01*
X162565886Y-109026294D01*
X162550121Y-109014602D01*
X162535579Y-109001421D01*
X162522398Y-108986879D01*
X162510706Y-108971114D01*
X162500616Y-108954279D01*
X162492224Y-108936537D01*
X162485612Y-108918057D01*
X162480843Y-108899018D01*
X162477963Y-108879603D01*
X162477000Y-108860000D01*
X162477000Y-108310000D01*
X162477963Y-108290397D01*
X162480843Y-108270982D01*
X162485612Y-108251943D01*
X162492224Y-108233463D01*
X162500616Y-108215721D01*
X162510706Y-108198886D01*
X162522398Y-108183121D01*
X162535579Y-108168579D01*
X162550121Y-108155398D01*
X162565886Y-108143706D01*
X162582721Y-108133616D01*
X162600463Y-108125224D01*
X162618943Y-108118612D01*
X162637982Y-108113843D01*
X162657397Y-108110963D01*
X162677000Y-108110000D01*
X163077000Y-108110000D01*
X163096603Y-108110963D01*
X163096603Y-108110963D01*
G37*
D13*
X162877000Y-108585000D03*
D11*
G36*
X161446603Y-108110963D02*
X161466018Y-108113843D01*
X161485057Y-108118612D01*
X161503537Y-108125224D01*
X161521279Y-108133616D01*
X161538114Y-108143706D01*
X161553879Y-108155398D01*
X161568421Y-108168579D01*
X161581602Y-108183121D01*
X161593294Y-108198886D01*
X161603384Y-108215721D01*
X161611776Y-108233463D01*
X161618388Y-108251943D01*
X161623157Y-108270982D01*
X161626037Y-108290397D01*
X161627000Y-108310000D01*
X161627000Y-108860000D01*
X161626037Y-108879603D01*
X161623157Y-108899018D01*
X161618388Y-108918057D01*
X161611776Y-108936537D01*
X161603384Y-108954279D01*
X161593294Y-108971114D01*
X161581602Y-108986879D01*
X161568421Y-109001421D01*
X161553879Y-109014602D01*
X161538114Y-109026294D01*
X161521279Y-109036384D01*
X161503537Y-109044776D01*
X161485057Y-109051388D01*
X161466018Y-109056157D01*
X161446603Y-109059037D01*
X161427000Y-109060000D01*
X161027000Y-109060000D01*
X161007397Y-109059037D01*
X160987982Y-109056157D01*
X160968943Y-109051388D01*
X160950463Y-109044776D01*
X160932721Y-109036384D01*
X160915886Y-109026294D01*
X160900121Y-109014602D01*
X160885579Y-109001421D01*
X160872398Y-108986879D01*
X160860706Y-108971114D01*
X160850616Y-108954279D01*
X160842224Y-108936537D01*
X160835612Y-108918057D01*
X160830843Y-108899018D01*
X160827963Y-108879603D01*
X160827000Y-108860000D01*
X160827000Y-108310000D01*
X160827963Y-108290397D01*
X160830843Y-108270982D01*
X160835612Y-108251943D01*
X160842224Y-108233463D01*
X160850616Y-108215721D01*
X160860706Y-108198886D01*
X160872398Y-108183121D01*
X160885579Y-108168579D01*
X160900121Y-108155398D01*
X160915886Y-108143706D01*
X160932721Y-108133616D01*
X160950463Y-108125224D01*
X160968943Y-108118612D01*
X160987982Y-108113843D01*
X161007397Y-108110963D01*
X161027000Y-108110000D01*
X161427000Y-108110000D01*
X161446603Y-108110963D01*
X161446603Y-108110963D01*
G37*
D13*
X161227000Y-108585000D03*
G04 #@! TD*
D11*
G04 #@! TO.C,AMP401*
G36*
X163514094Y-101284987D02*
X163533994Y-101287939D01*
X163553508Y-101292827D01*
X163572450Y-101299605D01*
X163590636Y-101308206D01*
X163607892Y-101318549D01*
X163624051Y-101330533D01*
X163638957Y-101344043D01*
X163652467Y-101358949D01*
X163664451Y-101375108D01*
X163674794Y-101392364D01*
X163683395Y-101410550D01*
X163690173Y-101429492D01*
X163695061Y-101449006D01*
X163698013Y-101468906D01*
X163699000Y-101489000D01*
X163699000Y-101899000D01*
X163698013Y-101919094D01*
X163695061Y-101938994D01*
X163690173Y-101958508D01*
X163683395Y-101977450D01*
X163674794Y-101995636D01*
X163664451Y-102012892D01*
X163652467Y-102029051D01*
X163638957Y-102043957D01*
X163624051Y-102057467D01*
X163607892Y-102069451D01*
X163590636Y-102079794D01*
X163572450Y-102088395D01*
X163553508Y-102095173D01*
X163533994Y-102100061D01*
X163514094Y-102103013D01*
X163494000Y-102104000D01*
X163084000Y-102104000D01*
X163063906Y-102103013D01*
X163044006Y-102100061D01*
X163024492Y-102095173D01*
X163005550Y-102088395D01*
X162987364Y-102079794D01*
X162970108Y-102069451D01*
X162953949Y-102057467D01*
X162939043Y-102043957D01*
X162925533Y-102029051D01*
X162913549Y-102012892D01*
X162903206Y-101995636D01*
X162894605Y-101977450D01*
X162887827Y-101958508D01*
X162882939Y-101938994D01*
X162879987Y-101919094D01*
X162879000Y-101899000D01*
X162879000Y-101489000D01*
X162879987Y-101468906D01*
X162882939Y-101449006D01*
X162887827Y-101429492D01*
X162894605Y-101410550D01*
X162903206Y-101392364D01*
X162913549Y-101375108D01*
X162925533Y-101358949D01*
X162939043Y-101344043D01*
X162953949Y-101330533D01*
X162970108Y-101318549D01*
X162987364Y-101308206D01*
X163005550Y-101299605D01*
X163024492Y-101292827D01*
X163044006Y-101287939D01*
X163063906Y-101284987D01*
X163084000Y-101284000D01*
X163494000Y-101284000D01*
X163514094Y-101284987D01*
X163514094Y-101284987D01*
G37*
D17*
X163289000Y-101694000D03*
D11*
G36*
X163514094Y-100334987D02*
X163533994Y-100337939D01*
X163553508Y-100342827D01*
X163572450Y-100349605D01*
X163590636Y-100358206D01*
X163607892Y-100368549D01*
X163624051Y-100380533D01*
X163638957Y-100394043D01*
X163652467Y-100408949D01*
X163664451Y-100425108D01*
X163674794Y-100442364D01*
X163683395Y-100460550D01*
X163690173Y-100479492D01*
X163695061Y-100499006D01*
X163698013Y-100518906D01*
X163699000Y-100539000D01*
X163699000Y-100949000D01*
X163698013Y-100969094D01*
X163695061Y-100988994D01*
X163690173Y-101008508D01*
X163683395Y-101027450D01*
X163674794Y-101045636D01*
X163664451Y-101062892D01*
X163652467Y-101079051D01*
X163638957Y-101093957D01*
X163624051Y-101107467D01*
X163607892Y-101119451D01*
X163590636Y-101129794D01*
X163572450Y-101138395D01*
X163553508Y-101145173D01*
X163533994Y-101150061D01*
X163514094Y-101153013D01*
X163494000Y-101154000D01*
X163084000Y-101154000D01*
X163063906Y-101153013D01*
X163044006Y-101150061D01*
X163024492Y-101145173D01*
X163005550Y-101138395D01*
X162987364Y-101129794D01*
X162970108Y-101119451D01*
X162953949Y-101107467D01*
X162939043Y-101093957D01*
X162925533Y-101079051D01*
X162913549Y-101062892D01*
X162903206Y-101045636D01*
X162894605Y-101027450D01*
X162887827Y-101008508D01*
X162882939Y-100988994D01*
X162879987Y-100969094D01*
X162879000Y-100949000D01*
X162879000Y-100539000D01*
X162879987Y-100518906D01*
X162882939Y-100499006D01*
X162887827Y-100479492D01*
X162894605Y-100460550D01*
X162903206Y-100442364D01*
X162913549Y-100425108D01*
X162925533Y-100408949D01*
X162939043Y-100394043D01*
X162953949Y-100380533D01*
X162970108Y-100368549D01*
X162987364Y-100358206D01*
X163005550Y-100349605D01*
X163024492Y-100342827D01*
X163044006Y-100337939D01*
X163063906Y-100334987D01*
X163084000Y-100334000D01*
X163494000Y-100334000D01*
X163514094Y-100334987D01*
X163514094Y-100334987D01*
G37*
D17*
X163289000Y-100744000D03*
D11*
G36*
X162564094Y-101284987D02*
X162583994Y-101287939D01*
X162603508Y-101292827D01*
X162622450Y-101299605D01*
X162640636Y-101308206D01*
X162657892Y-101318549D01*
X162674051Y-101330533D01*
X162688957Y-101344043D01*
X162702467Y-101358949D01*
X162714451Y-101375108D01*
X162724794Y-101392364D01*
X162733395Y-101410550D01*
X162740173Y-101429492D01*
X162745061Y-101449006D01*
X162748013Y-101468906D01*
X162749000Y-101489000D01*
X162749000Y-101899000D01*
X162748013Y-101919094D01*
X162745061Y-101938994D01*
X162740173Y-101958508D01*
X162733395Y-101977450D01*
X162724794Y-101995636D01*
X162714451Y-102012892D01*
X162702467Y-102029051D01*
X162688957Y-102043957D01*
X162674051Y-102057467D01*
X162657892Y-102069451D01*
X162640636Y-102079794D01*
X162622450Y-102088395D01*
X162603508Y-102095173D01*
X162583994Y-102100061D01*
X162564094Y-102103013D01*
X162544000Y-102104000D01*
X162134000Y-102104000D01*
X162113906Y-102103013D01*
X162094006Y-102100061D01*
X162074492Y-102095173D01*
X162055550Y-102088395D01*
X162037364Y-102079794D01*
X162020108Y-102069451D01*
X162003949Y-102057467D01*
X161989043Y-102043957D01*
X161975533Y-102029051D01*
X161963549Y-102012892D01*
X161953206Y-101995636D01*
X161944605Y-101977450D01*
X161937827Y-101958508D01*
X161932939Y-101938994D01*
X161929987Y-101919094D01*
X161929000Y-101899000D01*
X161929000Y-101489000D01*
X161929987Y-101468906D01*
X161932939Y-101449006D01*
X161937827Y-101429492D01*
X161944605Y-101410550D01*
X161953206Y-101392364D01*
X161963549Y-101375108D01*
X161975533Y-101358949D01*
X161989043Y-101344043D01*
X162003949Y-101330533D01*
X162020108Y-101318549D01*
X162037364Y-101308206D01*
X162055550Y-101299605D01*
X162074492Y-101292827D01*
X162094006Y-101287939D01*
X162113906Y-101284987D01*
X162134000Y-101284000D01*
X162544000Y-101284000D01*
X162564094Y-101284987D01*
X162564094Y-101284987D01*
G37*
D17*
X162339000Y-101694000D03*
D11*
G36*
X162564094Y-100334987D02*
X162583994Y-100337939D01*
X162603508Y-100342827D01*
X162622450Y-100349605D01*
X162640636Y-100358206D01*
X162657892Y-100368549D01*
X162674051Y-100380533D01*
X162688957Y-100394043D01*
X162702467Y-100408949D01*
X162714451Y-100425108D01*
X162724794Y-100442364D01*
X162733395Y-100460550D01*
X162740173Y-100479492D01*
X162745061Y-100499006D01*
X162748013Y-100518906D01*
X162749000Y-100539000D01*
X162749000Y-100949000D01*
X162748013Y-100969094D01*
X162745061Y-100988994D01*
X162740173Y-101008508D01*
X162733395Y-101027450D01*
X162724794Y-101045636D01*
X162714451Y-101062892D01*
X162702467Y-101079051D01*
X162688957Y-101093957D01*
X162674051Y-101107467D01*
X162657892Y-101119451D01*
X162640636Y-101129794D01*
X162622450Y-101138395D01*
X162603508Y-101145173D01*
X162583994Y-101150061D01*
X162564094Y-101153013D01*
X162544000Y-101154000D01*
X162134000Y-101154000D01*
X162113906Y-101153013D01*
X162094006Y-101150061D01*
X162074492Y-101145173D01*
X162055550Y-101138395D01*
X162037364Y-101129794D01*
X162020108Y-101119451D01*
X162003949Y-101107467D01*
X161989043Y-101093957D01*
X161975533Y-101079051D01*
X161963549Y-101062892D01*
X161953206Y-101045636D01*
X161944605Y-101027450D01*
X161937827Y-101008508D01*
X161932939Y-100988994D01*
X161929987Y-100969094D01*
X161929000Y-100949000D01*
X161929000Y-100539000D01*
X161929987Y-100518906D01*
X161932939Y-100499006D01*
X161937827Y-100479492D01*
X161944605Y-100460550D01*
X161953206Y-100442364D01*
X161963549Y-100425108D01*
X161975533Y-100408949D01*
X161989043Y-100394043D01*
X162003949Y-100380533D01*
X162020108Y-100368549D01*
X162037364Y-100358206D01*
X162055550Y-100349605D01*
X162074492Y-100342827D01*
X162094006Y-100337939D01*
X162113906Y-100334987D01*
X162134000Y-100334000D01*
X162544000Y-100334000D01*
X162564094Y-100334987D01*
X162564094Y-100334987D01*
G37*
D17*
X162339000Y-100744000D03*
D11*
G36*
X162132626Y-99369301D02*
X162138693Y-99370201D01*
X162144643Y-99371691D01*
X162150418Y-99373758D01*
X162155962Y-99376380D01*
X162161223Y-99379533D01*
X162166150Y-99383187D01*
X162170694Y-99387306D01*
X162174813Y-99391850D01*
X162178467Y-99396777D01*
X162181620Y-99402038D01*
X162184242Y-99407582D01*
X162186309Y-99413357D01*
X162187799Y-99419307D01*
X162188699Y-99425374D01*
X162189000Y-99431500D01*
X162189000Y-99981500D01*
X162188699Y-99987626D01*
X162187799Y-99993693D01*
X162186309Y-99999643D01*
X162184242Y-100005418D01*
X162181620Y-100010962D01*
X162178467Y-100016223D01*
X162174813Y-100021150D01*
X162170694Y-100025694D01*
X162166150Y-100029813D01*
X162161223Y-100033467D01*
X162155962Y-100036620D01*
X162150418Y-100039242D01*
X162144643Y-100041309D01*
X162138693Y-100042799D01*
X162132626Y-100043699D01*
X162126500Y-100044000D01*
X162001500Y-100044000D01*
X161995374Y-100043699D01*
X161989307Y-100042799D01*
X161983357Y-100041309D01*
X161977582Y-100039242D01*
X161972038Y-100036620D01*
X161966777Y-100033467D01*
X161961850Y-100029813D01*
X161957306Y-100025694D01*
X161953187Y-100021150D01*
X161949533Y-100016223D01*
X161946380Y-100010962D01*
X161943758Y-100005418D01*
X161941691Y-99999643D01*
X161940201Y-99993693D01*
X161939301Y-99987626D01*
X161939000Y-99981500D01*
X161939000Y-99431500D01*
X161939301Y-99425374D01*
X161940201Y-99419307D01*
X161941691Y-99413357D01*
X161943758Y-99407582D01*
X161946380Y-99402038D01*
X161949533Y-99396777D01*
X161953187Y-99391850D01*
X161957306Y-99387306D01*
X161961850Y-99383187D01*
X161966777Y-99379533D01*
X161972038Y-99376380D01*
X161977582Y-99373758D01*
X161983357Y-99371691D01*
X161989307Y-99370201D01*
X161995374Y-99369301D01*
X162001500Y-99369000D01*
X162126500Y-99369000D01*
X162132626Y-99369301D01*
X162132626Y-99369301D01*
G37*
D18*
X162064000Y-99706500D03*
D11*
G36*
X162632626Y-99369301D02*
X162638693Y-99370201D01*
X162644643Y-99371691D01*
X162650418Y-99373758D01*
X162655962Y-99376380D01*
X162661223Y-99379533D01*
X162666150Y-99383187D01*
X162670694Y-99387306D01*
X162674813Y-99391850D01*
X162678467Y-99396777D01*
X162681620Y-99402038D01*
X162684242Y-99407582D01*
X162686309Y-99413357D01*
X162687799Y-99419307D01*
X162688699Y-99425374D01*
X162689000Y-99431500D01*
X162689000Y-99981500D01*
X162688699Y-99987626D01*
X162687799Y-99993693D01*
X162686309Y-99999643D01*
X162684242Y-100005418D01*
X162681620Y-100010962D01*
X162678467Y-100016223D01*
X162674813Y-100021150D01*
X162670694Y-100025694D01*
X162666150Y-100029813D01*
X162661223Y-100033467D01*
X162655962Y-100036620D01*
X162650418Y-100039242D01*
X162644643Y-100041309D01*
X162638693Y-100042799D01*
X162632626Y-100043699D01*
X162626500Y-100044000D01*
X162501500Y-100044000D01*
X162495374Y-100043699D01*
X162489307Y-100042799D01*
X162483357Y-100041309D01*
X162477582Y-100039242D01*
X162472038Y-100036620D01*
X162466777Y-100033467D01*
X162461850Y-100029813D01*
X162457306Y-100025694D01*
X162453187Y-100021150D01*
X162449533Y-100016223D01*
X162446380Y-100010962D01*
X162443758Y-100005418D01*
X162441691Y-99999643D01*
X162440201Y-99993693D01*
X162439301Y-99987626D01*
X162439000Y-99981500D01*
X162439000Y-99431500D01*
X162439301Y-99425374D01*
X162440201Y-99419307D01*
X162441691Y-99413357D01*
X162443758Y-99407582D01*
X162446380Y-99402038D01*
X162449533Y-99396777D01*
X162453187Y-99391850D01*
X162457306Y-99387306D01*
X162461850Y-99383187D01*
X162466777Y-99379533D01*
X162472038Y-99376380D01*
X162477582Y-99373758D01*
X162483357Y-99371691D01*
X162489307Y-99370201D01*
X162495374Y-99369301D01*
X162501500Y-99369000D01*
X162626500Y-99369000D01*
X162632626Y-99369301D01*
X162632626Y-99369301D01*
G37*
D18*
X162564000Y-99706500D03*
D11*
G36*
X163132626Y-99369301D02*
X163138693Y-99370201D01*
X163144643Y-99371691D01*
X163150418Y-99373758D01*
X163155962Y-99376380D01*
X163161223Y-99379533D01*
X163166150Y-99383187D01*
X163170694Y-99387306D01*
X163174813Y-99391850D01*
X163178467Y-99396777D01*
X163181620Y-99402038D01*
X163184242Y-99407582D01*
X163186309Y-99413357D01*
X163187799Y-99419307D01*
X163188699Y-99425374D01*
X163189000Y-99431500D01*
X163189000Y-99981500D01*
X163188699Y-99987626D01*
X163187799Y-99993693D01*
X163186309Y-99999643D01*
X163184242Y-100005418D01*
X163181620Y-100010962D01*
X163178467Y-100016223D01*
X163174813Y-100021150D01*
X163170694Y-100025694D01*
X163166150Y-100029813D01*
X163161223Y-100033467D01*
X163155962Y-100036620D01*
X163150418Y-100039242D01*
X163144643Y-100041309D01*
X163138693Y-100042799D01*
X163132626Y-100043699D01*
X163126500Y-100044000D01*
X163001500Y-100044000D01*
X162995374Y-100043699D01*
X162989307Y-100042799D01*
X162983357Y-100041309D01*
X162977582Y-100039242D01*
X162972038Y-100036620D01*
X162966777Y-100033467D01*
X162961850Y-100029813D01*
X162957306Y-100025694D01*
X162953187Y-100021150D01*
X162949533Y-100016223D01*
X162946380Y-100010962D01*
X162943758Y-100005418D01*
X162941691Y-99999643D01*
X162940201Y-99993693D01*
X162939301Y-99987626D01*
X162939000Y-99981500D01*
X162939000Y-99431500D01*
X162939301Y-99425374D01*
X162940201Y-99419307D01*
X162941691Y-99413357D01*
X162943758Y-99407582D01*
X162946380Y-99402038D01*
X162949533Y-99396777D01*
X162953187Y-99391850D01*
X162957306Y-99387306D01*
X162961850Y-99383187D01*
X162966777Y-99379533D01*
X162972038Y-99376380D01*
X162977582Y-99373758D01*
X162983357Y-99371691D01*
X162989307Y-99370201D01*
X162995374Y-99369301D01*
X163001500Y-99369000D01*
X163126500Y-99369000D01*
X163132626Y-99369301D01*
X163132626Y-99369301D01*
G37*
D18*
X163064000Y-99706500D03*
D11*
G36*
X163632626Y-99369301D02*
X163638693Y-99370201D01*
X163644643Y-99371691D01*
X163650418Y-99373758D01*
X163655962Y-99376380D01*
X163661223Y-99379533D01*
X163666150Y-99383187D01*
X163670694Y-99387306D01*
X163674813Y-99391850D01*
X163678467Y-99396777D01*
X163681620Y-99402038D01*
X163684242Y-99407582D01*
X163686309Y-99413357D01*
X163687799Y-99419307D01*
X163688699Y-99425374D01*
X163689000Y-99431500D01*
X163689000Y-99981500D01*
X163688699Y-99987626D01*
X163687799Y-99993693D01*
X163686309Y-99999643D01*
X163684242Y-100005418D01*
X163681620Y-100010962D01*
X163678467Y-100016223D01*
X163674813Y-100021150D01*
X163670694Y-100025694D01*
X163666150Y-100029813D01*
X163661223Y-100033467D01*
X163655962Y-100036620D01*
X163650418Y-100039242D01*
X163644643Y-100041309D01*
X163638693Y-100042799D01*
X163632626Y-100043699D01*
X163626500Y-100044000D01*
X163501500Y-100044000D01*
X163495374Y-100043699D01*
X163489307Y-100042799D01*
X163483357Y-100041309D01*
X163477582Y-100039242D01*
X163472038Y-100036620D01*
X163466777Y-100033467D01*
X163461850Y-100029813D01*
X163457306Y-100025694D01*
X163453187Y-100021150D01*
X163449533Y-100016223D01*
X163446380Y-100010962D01*
X163443758Y-100005418D01*
X163441691Y-99999643D01*
X163440201Y-99993693D01*
X163439301Y-99987626D01*
X163439000Y-99981500D01*
X163439000Y-99431500D01*
X163439301Y-99425374D01*
X163440201Y-99419307D01*
X163441691Y-99413357D01*
X163443758Y-99407582D01*
X163446380Y-99402038D01*
X163449533Y-99396777D01*
X163453187Y-99391850D01*
X163457306Y-99387306D01*
X163461850Y-99383187D01*
X163466777Y-99379533D01*
X163472038Y-99376380D01*
X163477582Y-99373758D01*
X163483357Y-99371691D01*
X163489307Y-99370201D01*
X163495374Y-99369301D01*
X163501500Y-99369000D01*
X163626500Y-99369000D01*
X163632626Y-99369301D01*
X163632626Y-99369301D01*
G37*
D18*
X163564000Y-99706500D03*
D11*
G36*
X164607626Y-100344301D02*
X164613693Y-100345201D01*
X164619643Y-100346691D01*
X164625418Y-100348758D01*
X164630962Y-100351380D01*
X164636223Y-100354533D01*
X164641150Y-100358187D01*
X164645694Y-100362306D01*
X164649813Y-100366850D01*
X164653467Y-100371777D01*
X164656620Y-100377038D01*
X164659242Y-100382582D01*
X164661309Y-100388357D01*
X164662799Y-100394307D01*
X164663699Y-100400374D01*
X164664000Y-100406500D01*
X164664000Y-100531500D01*
X164663699Y-100537626D01*
X164662799Y-100543693D01*
X164661309Y-100549643D01*
X164659242Y-100555418D01*
X164656620Y-100560962D01*
X164653467Y-100566223D01*
X164649813Y-100571150D01*
X164645694Y-100575694D01*
X164641150Y-100579813D01*
X164636223Y-100583467D01*
X164630962Y-100586620D01*
X164625418Y-100589242D01*
X164619643Y-100591309D01*
X164613693Y-100592799D01*
X164607626Y-100593699D01*
X164601500Y-100594000D01*
X164051500Y-100594000D01*
X164045374Y-100593699D01*
X164039307Y-100592799D01*
X164033357Y-100591309D01*
X164027582Y-100589242D01*
X164022038Y-100586620D01*
X164016777Y-100583467D01*
X164011850Y-100579813D01*
X164007306Y-100575694D01*
X164003187Y-100571150D01*
X163999533Y-100566223D01*
X163996380Y-100560962D01*
X163993758Y-100555418D01*
X163991691Y-100549643D01*
X163990201Y-100543693D01*
X163989301Y-100537626D01*
X163989000Y-100531500D01*
X163989000Y-100406500D01*
X163989301Y-100400374D01*
X163990201Y-100394307D01*
X163991691Y-100388357D01*
X163993758Y-100382582D01*
X163996380Y-100377038D01*
X163999533Y-100371777D01*
X164003187Y-100366850D01*
X164007306Y-100362306D01*
X164011850Y-100358187D01*
X164016777Y-100354533D01*
X164022038Y-100351380D01*
X164027582Y-100348758D01*
X164033357Y-100346691D01*
X164039307Y-100345201D01*
X164045374Y-100344301D01*
X164051500Y-100344000D01*
X164601500Y-100344000D01*
X164607626Y-100344301D01*
X164607626Y-100344301D01*
G37*
D18*
X164326500Y-100469000D03*
D11*
G36*
X164607626Y-100844301D02*
X164613693Y-100845201D01*
X164619643Y-100846691D01*
X164625418Y-100848758D01*
X164630962Y-100851380D01*
X164636223Y-100854533D01*
X164641150Y-100858187D01*
X164645694Y-100862306D01*
X164649813Y-100866850D01*
X164653467Y-100871777D01*
X164656620Y-100877038D01*
X164659242Y-100882582D01*
X164661309Y-100888357D01*
X164662799Y-100894307D01*
X164663699Y-100900374D01*
X164664000Y-100906500D01*
X164664000Y-101031500D01*
X164663699Y-101037626D01*
X164662799Y-101043693D01*
X164661309Y-101049643D01*
X164659242Y-101055418D01*
X164656620Y-101060962D01*
X164653467Y-101066223D01*
X164649813Y-101071150D01*
X164645694Y-101075694D01*
X164641150Y-101079813D01*
X164636223Y-101083467D01*
X164630962Y-101086620D01*
X164625418Y-101089242D01*
X164619643Y-101091309D01*
X164613693Y-101092799D01*
X164607626Y-101093699D01*
X164601500Y-101094000D01*
X164051500Y-101094000D01*
X164045374Y-101093699D01*
X164039307Y-101092799D01*
X164033357Y-101091309D01*
X164027582Y-101089242D01*
X164022038Y-101086620D01*
X164016777Y-101083467D01*
X164011850Y-101079813D01*
X164007306Y-101075694D01*
X164003187Y-101071150D01*
X163999533Y-101066223D01*
X163996380Y-101060962D01*
X163993758Y-101055418D01*
X163991691Y-101049643D01*
X163990201Y-101043693D01*
X163989301Y-101037626D01*
X163989000Y-101031500D01*
X163989000Y-100906500D01*
X163989301Y-100900374D01*
X163990201Y-100894307D01*
X163991691Y-100888357D01*
X163993758Y-100882582D01*
X163996380Y-100877038D01*
X163999533Y-100871777D01*
X164003187Y-100866850D01*
X164007306Y-100862306D01*
X164011850Y-100858187D01*
X164016777Y-100854533D01*
X164022038Y-100851380D01*
X164027582Y-100848758D01*
X164033357Y-100846691D01*
X164039307Y-100845201D01*
X164045374Y-100844301D01*
X164051500Y-100844000D01*
X164601500Y-100844000D01*
X164607626Y-100844301D01*
X164607626Y-100844301D01*
G37*
D18*
X164326500Y-100969000D03*
D11*
G36*
X164607626Y-101344301D02*
X164613693Y-101345201D01*
X164619643Y-101346691D01*
X164625418Y-101348758D01*
X164630962Y-101351380D01*
X164636223Y-101354533D01*
X164641150Y-101358187D01*
X164645694Y-101362306D01*
X164649813Y-101366850D01*
X164653467Y-101371777D01*
X164656620Y-101377038D01*
X164659242Y-101382582D01*
X164661309Y-101388357D01*
X164662799Y-101394307D01*
X164663699Y-101400374D01*
X164664000Y-101406500D01*
X164664000Y-101531500D01*
X164663699Y-101537626D01*
X164662799Y-101543693D01*
X164661309Y-101549643D01*
X164659242Y-101555418D01*
X164656620Y-101560962D01*
X164653467Y-101566223D01*
X164649813Y-101571150D01*
X164645694Y-101575694D01*
X164641150Y-101579813D01*
X164636223Y-101583467D01*
X164630962Y-101586620D01*
X164625418Y-101589242D01*
X164619643Y-101591309D01*
X164613693Y-101592799D01*
X164607626Y-101593699D01*
X164601500Y-101594000D01*
X164051500Y-101594000D01*
X164045374Y-101593699D01*
X164039307Y-101592799D01*
X164033357Y-101591309D01*
X164027582Y-101589242D01*
X164022038Y-101586620D01*
X164016777Y-101583467D01*
X164011850Y-101579813D01*
X164007306Y-101575694D01*
X164003187Y-101571150D01*
X163999533Y-101566223D01*
X163996380Y-101560962D01*
X163993758Y-101555418D01*
X163991691Y-101549643D01*
X163990201Y-101543693D01*
X163989301Y-101537626D01*
X163989000Y-101531500D01*
X163989000Y-101406500D01*
X163989301Y-101400374D01*
X163990201Y-101394307D01*
X163991691Y-101388357D01*
X163993758Y-101382582D01*
X163996380Y-101377038D01*
X163999533Y-101371777D01*
X164003187Y-101366850D01*
X164007306Y-101362306D01*
X164011850Y-101358187D01*
X164016777Y-101354533D01*
X164022038Y-101351380D01*
X164027582Y-101348758D01*
X164033357Y-101346691D01*
X164039307Y-101345201D01*
X164045374Y-101344301D01*
X164051500Y-101344000D01*
X164601500Y-101344000D01*
X164607626Y-101344301D01*
X164607626Y-101344301D01*
G37*
D18*
X164326500Y-101469000D03*
D11*
G36*
X164607626Y-101844301D02*
X164613693Y-101845201D01*
X164619643Y-101846691D01*
X164625418Y-101848758D01*
X164630962Y-101851380D01*
X164636223Y-101854533D01*
X164641150Y-101858187D01*
X164645694Y-101862306D01*
X164649813Y-101866850D01*
X164653467Y-101871777D01*
X164656620Y-101877038D01*
X164659242Y-101882582D01*
X164661309Y-101888357D01*
X164662799Y-101894307D01*
X164663699Y-101900374D01*
X164664000Y-101906500D01*
X164664000Y-102031500D01*
X164663699Y-102037626D01*
X164662799Y-102043693D01*
X164661309Y-102049643D01*
X164659242Y-102055418D01*
X164656620Y-102060962D01*
X164653467Y-102066223D01*
X164649813Y-102071150D01*
X164645694Y-102075694D01*
X164641150Y-102079813D01*
X164636223Y-102083467D01*
X164630962Y-102086620D01*
X164625418Y-102089242D01*
X164619643Y-102091309D01*
X164613693Y-102092799D01*
X164607626Y-102093699D01*
X164601500Y-102094000D01*
X164051500Y-102094000D01*
X164045374Y-102093699D01*
X164039307Y-102092799D01*
X164033357Y-102091309D01*
X164027582Y-102089242D01*
X164022038Y-102086620D01*
X164016777Y-102083467D01*
X164011850Y-102079813D01*
X164007306Y-102075694D01*
X164003187Y-102071150D01*
X163999533Y-102066223D01*
X163996380Y-102060962D01*
X163993758Y-102055418D01*
X163991691Y-102049643D01*
X163990201Y-102043693D01*
X163989301Y-102037626D01*
X163989000Y-102031500D01*
X163989000Y-101906500D01*
X163989301Y-101900374D01*
X163990201Y-101894307D01*
X163991691Y-101888357D01*
X163993758Y-101882582D01*
X163996380Y-101877038D01*
X163999533Y-101871777D01*
X164003187Y-101866850D01*
X164007306Y-101862306D01*
X164011850Y-101858187D01*
X164016777Y-101854533D01*
X164022038Y-101851380D01*
X164027582Y-101848758D01*
X164033357Y-101846691D01*
X164039307Y-101845201D01*
X164045374Y-101844301D01*
X164051500Y-101844000D01*
X164601500Y-101844000D01*
X164607626Y-101844301D01*
X164607626Y-101844301D01*
G37*
D18*
X164326500Y-101969000D03*
D11*
G36*
X163632626Y-102394301D02*
X163638693Y-102395201D01*
X163644643Y-102396691D01*
X163650418Y-102398758D01*
X163655962Y-102401380D01*
X163661223Y-102404533D01*
X163666150Y-102408187D01*
X163670694Y-102412306D01*
X163674813Y-102416850D01*
X163678467Y-102421777D01*
X163681620Y-102427038D01*
X163684242Y-102432582D01*
X163686309Y-102438357D01*
X163687799Y-102444307D01*
X163688699Y-102450374D01*
X163689000Y-102456500D01*
X163689000Y-103006500D01*
X163688699Y-103012626D01*
X163687799Y-103018693D01*
X163686309Y-103024643D01*
X163684242Y-103030418D01*
X163681620Y-103035962D01*
X163678467Y-103041223D01*
X163674813Y-103046150D01*
X163670694Y-103050694D01*
X163666150Y-103054813D01*
X163661223Y-103058467D01*
X163655962Y-103061620D01*
X163650418Y-103064242D01*
X163644643Y-103066309D01*
X163638693Y-103067799D01*
X163632626Y-103068699D01*
X163626500Y-103069000D01*
X163501500Y-103069000D01*
X163495374Y-103068699D01*
X163489307Y-103067799D01*
X163483357Y-103066309D01*
X163477582Y-103064242D01*
X163472038Y-103061620D01*
X163466777Y-103058467D01*
X163461850Y-103054813D01*
X163457306Y-103050694D01*
X163453187Y-103046150D01*
X163449533Y-103041223D01*
X163446380Y-103035962D01*
X163443758Y-103030418D01*
X163441691Y-103024643D01*
X163440201Y-103018693D01*
X163439301Y-103012626D01*
X163439000Y-103006500D01*
X163439000Y-102456500D01*
X163439301Y-102450374D01*
X163440201Y-102444307D01*
X163441691Y-102438357D01*
X163443758Y-102432582D01*
X163446380Y-102427038D01*
X163449533Y-102421777D01*
X163453187Y-102416850D01*
X163457306Y-102412306D01*
X163461850Y-102408187D01*
X163466777Y-102404533D01*
X163472038Y-102401380D01*
X163477582Y-102398758D01*
X163483357Y-102396691D01*
X163489307Y-102395201D01*
X163495374Y-102394301D01*
X163501500Y-102394000D01*
X163626500Y-102394000D01*
X163632626Y-102394301D01*
X163632626Y-102394301D01*
G37*
D18*
X163564000Y-102731500D03*
D11*
G36*
X163132626Y-102394301D02*
X163138693Y-102395201D01*
X163144643Y-102396691D01*
X163150418Y-102398758D01*
X163155962Y-102401380D01*
X163161223Y-102404533D01*
X163166150Y-102408187D01*
X163170694Y-102412306D01*
X163174813Y-102416850D01*
X163178467Y-102421777D01*
X163181620Y-102427038D01*
X163184242Y-102432582D01*
X163186309Y-102438357D01*
X163187799Y-102444307D01*
X163188699Y-102450374D01*
X163189000Y-102456500D01*
X163189000Y-103006500D01*
X163188699Y-103012626D01*
X163187799Y-103018693D01*
X163186309Y-103024643D01*
X163184242Y-103030418D01*
X163181620Y-103035962D01*
X163178467Y-103041223D01*
X163174813Y-103046150D01*
X163170694Y-103050694D01*
X163166150Y-103054813D01*
X163161223Y-103058467D01*
X163155962Y-103061620D01*
X163150418Y-103064242D01*
X163144643Y-103066309D01*
X163138693Y-103067799D01*
X163132626Y-103068699D01*
X163126500Y-103069000D01*
X163001500Y-103069000D01*
X162995374Y-103068699D01*
X162989307Y-103067799D01*
X162983357Y-103066309D01*
X162977582Y-103064242D01*
X162972038Y-103061620D01*
X162966777Y-103058467D01*
X162961850Y-103054813D01*
X162957306Y-103050694D01*
X162953187Y-103046150D01*
X162949533Y-103041223D01*
X162946380Y-103035962D01*
X162943758Y-103030418D01*
X162941691Y-103024643D01*
X162940201Y-103018693D01*
X162939301Y-103012626D01*
X162939000Y-103006500D01*
X162939000Y-102456500D01*
X162939301Y-102450374D01*
X162940201Y-102444307D01*
X162941691Y-102438357D01*
X162943758Y-102432582D01*
X162946380Y-102427038D01*
X162949533Y-102421777D01*
X162953187Y-102416850D01*
X162957306Y-102412306D01*
X162961850Y-102408187D01*
X162966777Y-102404533D01*
X162972038Y-102401380D01*
X162977582Y-102398758D01*
X162983357Y-102396691D01*
X162989307Y-102395201D01*
X162995374Y-102394301D01*
X163001500Y-102394000D01*
X163126500Y-102394000D01*
X163132626Y-102394301D01*
X163132626Y-102394301D01*
G37*
D18*
X163064000Y-102731500D03*
D11*
G36*
X162632626Y-102394301D02*
X162638693Y-102395201D01*
X162644643Y-102396691D01*
X162650418Y-102398758D01*
X162655962Y-102401380D01*
X162661223Y-102404533D01*
X162666150Y-102408187D01*
X162670694Y-102412306D01*
X162674813Y-102416850D01*
X162678467Y-102421777D01*
X162681620Y-102427038D01*
X162684242Y-102432582D01*
X162686309Y-102438357D01*
X162687799Y-102444307D01*
X162688699Y-102450374D01*
X162689000Y-102456500D01*
X162689000Y-103006500D01*
X162688699Y-103012626D01*
X162687799Y-103018693D01*
X162686309Y-103024643D01*
X162684242Y-103030418D01*
X162681620Y-103035962D01*
X162678467Y-103041223D01*
X162674813Y-103046150D01*
X162670694Y-103050694D01*
X162666150Y-103054813D01*
X162661223Y-103058467D01*
X162655962Y-103061620D01*
X162650418Y-103064242D01*
X162644643Y-103066309D01*
X162638693Y-103067799D01*
X162632626Y-103068699D01*
X162626500Y-103069000D01*
X162501500Y-103069000D01*
X162495374Y-103068699D01*
X162489307Y-103067799D01*
X162483357Y-103066309D01*
X162477582Y-103064242D01*
X162472038Y-103061620D01*
X162466777Y-103058467D01*
X162461850Y-103054813D01*
X162457306Y-103050694D01*
X162453187Y-103046150D01*
X162449533Y-103041223D01*
X162446380Y-103035962D01*
X162443758Y-103030418D01*
X162441691Y-103024643D01*
X162440201Y-103018693D01*
X162439301Y-103012626D01*
X162439000Y-103006500D01*
X162439000Y-102456500D01*
X162439301Y-102450374D01*
X162440201Y-102444307D01*
X162441691Y-102438357D01*
X162443758Y-102432582D01*
X162446380Y-102427038D01*
X162449533Y-102421777D01*
X162453187Y-102416850D01*
X162457306Y-102412306D01*
X162461850Y-102408187D01*
X162466777Y-102404533D01*
X162472038Y-102401380D01*
X162477582Y-102398758D01*
X162483357Y-102396691D01*
X162489307Y-102395201D01*
X162495374Y-102394301D01*
X162501500Y-102394000D01*
X162626500Y-102394000D01*
X162632626Y-102394301D01*
X162632626Y-102394301D01*
G37*
D18*
X162564000Y-102731500D03*
D11*
G36*
X162132626Y-102394301D02*
X162138693Y-102395201D01*
X162144643Y-102396691D01*
X162150418Y-102398758D01*
X162155962Y-102401380D01*
X162161223Y-102404533D01*
X162166150Y-102408187D01*
X162170694Y-102412306D01*
X162174813Y-102416850D01*
X162178467Y-102421777D01*
X162181620Y-102427038D01*
X162184242Y-102432582D01*
X162186309Y-102438357D01*
X162187799Y-102444307D01*
X162188699Y-102450374D01*
X162189000Y-102456500D01*
X162189000Y-103006500D01*
X162188699Y-103012626D01*
X162187799Y-103018693D01*
X162186309Y-103024643D01*
X162184242Y-103030418D01*
X162181620Y-103035962D01*
X162178467Y-103041223D01*
X162174813Y-103046150D01*
X162170694Y-103050694D01*
X162166150Y-103054813D01*
X162161223Y-103058467D01*
X162155962Y-103061620D01*
X162150418Y-103064242D01*
X162144643Y-103066309D01*
X162138693Y-103067799D01*
X162132626Y-103068699D01*
X162126500Y-103069000D01*
X162001500Y-103069000D01*
X161995374Y-103068699D01*
X161989307Y-103067799D01*
X161983357Y-103066309D01*
X161977582Y-103064242D01*
X161972038Y-103061620D01*
X161966777Y-103058467D01*
X161961850Y-103054813D01*
X161957306Y-103050694D01*
X161953187Y-103046150D01*
X161949533Y-103041223D01*
X161946380Y-103035962D01*
X161943758Y-103030418D01*
X161941691Y-103024643D01*
X161940201Y-103018693D01*
X161939301Y-103012626D01*
X161939000Y-103006500D01*
X161939000Y-102456500D01*
X161939301Y-102450374D01*
X161940201Y-102444307D01*
X161941691Y-102438357D01*
X161943758Y-102432582D01*
X161946380Y-102427038D01*
X161949533Y-102421777D01*
X161953187Y-102416850D01*
X161957306Y-102412306D01*
X161961850Y-102408187D01*
X161966777Y-102404533D01*
X161972038Y-102401380D01*
X161977582Y-102398758D01*
X161983357Y-102396691D01*
X161989307Y-102395201D01*
X161995374Y-102394301D01*
X162001500Y-102394000D01*
X162126500Y-102394000D01*
X162132626Y-102394301D01*
X162132626Y-102394301D01*
G37*
D18*
X162064000Y-102731500D03*
D11*
G36*
X161582626Y-101844301D02*
X161588693Y-101845201D01*
X161594643Y-101846691D01*
X161600418Y-101848758D01*
X161605962Y-101851380D01*
X161611223Y-101854533D01*
X161616150Y-101858187D01*
X161620694Y-101862306D01*
X161624813Y-101866850D01*
X161628467Y-101871777D01*
X161631620Y-101877038D01*
X161634242Y-101882582D01*
X161636309Y-101888357D01*
X161637799Y-101894307D01*
X161638699Y-101900374D01*
X161639000Y-101906500D01*
X161639000Y-102031500D01*
X161638699Y-102037626D01*
X161637799Y-102043693D01*
X161636309Y-102049643D01*
X161634242Y-102055418D01*
X161631620Y-102060962D01*
X161628467Y-102066223D01*
X161624813Y-102071150D01*
X161620694Y-102075694D01*
X161616150Y-102079813D01*
X161611223Y-102083467D01*
X161605962Y-102086620D01*
X161600418Y-102089242D01*
X161594643Y-102091309D01*
X161588693Y-102092799D01*
X161582626Y-102093699D01*
X161576500Y-102094000D01*
X161026500Y-102094000D01*
X161020374Y-102093699D01*
X161014307Y-102092799D01*
X161008357Y-102091309D01*
X161002582Y-102089242D01*
X160997038Y-102086620D01*
X160991777Y-102083467D01*
X160986850Y-102079813D01*
X160982306Y-102075694D01*
X160978187Y-102071150D01*
X160974533Y-102066223D01*
X160971380Y-102060962D01*
X160968758Y-102055418D01*
X160966691Y-102049643D01*
X160965201Y-102043693D01*
X160964301Y-102037626D01*
X160964000Y-102031500D01*
X160964000Y-101906500D01*
X160964301Y-101900374D01*
X160965201Y-101894307D01*
X160966691Y-101888357D01*
X160968758Y-101882582D01*
X160971380Y-101877038D01*
X160974533Y-101871777D01*
X160978187Y-101866850D01*
X160982306Y-101862306D01*
X160986850Y-101858187D01*
X160991777Y-101854533D01*
X160997038Y-101851380D01*
X161002582Y-101848758D01*
X161008357Y-101846691D01*
X161014307Y-101845201D01*
X161020374Y-101844301D01*
X161026500Y-101844000D01*
X161576500Y-101844000D01*
X161582626Y-101844301D01*
X161582626Y-101844301D01*
G37*
D18*
X161301500Y-101969000D03*
D11*
G36*
X161582626Y-101344301D02*
X161588693Y-101345201D01*
X161594643Y-101346691D01*
X161600418Y-101348758D01*
X161605962Y-101351380D01*
X161611223Y-101354533D01*
X161616150Y-101358187D01*
X161620694Y-101362306D01*
X161624813Y-101366850D01*
X161628467Y-101371777D01*
X161631620Y-101377038D01*
X161634242Y-101382582D01*
X161636309Y-101388357D01*
X161637799Y-101394307D01*
X161638699Y-101400374D01*
X161639000Y-101406500D01*
X161639000Y-101531500D01*
X161638699Y-101537626D01*
X161637799Y-101543693D01*
X161636309Y-101549643D01*
X161634242Y-101555418D01*
X161631620Y-101560962D01*
X161628467Y-101566223D01*
X161624813Y-101571150D01*
X161620694Y-101575694D01*
X161616150Y-101579813D01*
X161611223Y-101583467D01*
X161605962Y-101586620D01*
X161600418Y-101589242D01*
X161594643Y-101591309D01*
X161588693Y-101592799D01*
X161582626Y-101593699D01*
X161576500Y-101594000D01*
X161026500Y-101594000D01*
X161020374Y-101593699D01*
X161014307Y-101592799D01*
X161008357Y-101591309D01*
X161002582Y-101589242D01*
X160997038Y-101586620D01*
X160991777Y-101583467D01*
X160986850Y-101579813D01*
X160982306Y-101575694D01*
X160978187Y-101571150D01*
X160974533Y-101566223D01*
X160971380Y-101560962D01*
X160968758Y-101555418D01*
X160966691Y-101549643D01*
X160965201Y-101543693D01*
X160964301Y-101537626D01*
X160964000Y-101531500D01*
X160964000Y-101406500D01*
X160964301Y-101400374D01*
X160965201Y-101394307D01*
X160966691Y-101388357D01*
X160968758Y-101382582D01*
X160971380Y-101377038D01*
X160974533Y-101371777D01*
X160978187Y-101366850D01*
X160982306Y-101362306D01*
X160986850Y-101358187D01*
X160991777Y-101354533D01*
X160997038Y-101351380D01*
X161002582Y-101348758D01*
X161008357Y-101346691D01*
X161014307Y-101345201D01*
X161020374Y-101344301D01*
X161026500Y-101344000D01*
X161576500Y-101344000D01*
X161582626Y-101344301D01*
X161582626Y-101344301D01*
G37*
D18*
X161301500Y-101469000D03*
D11*
G36*
X161582626Y-100844301D02*
X161588693Y-100845201D01*
X161594643Y-100846691D01*
X161600418Y-100848758D01*
X161605962Y-100851380D01*
X161611223Y-100854533D01*
X161616150Y-100858187D01*
X161620694Y-100862306D01*
X161624813Y-100866850D01*
X161628467Y-100871777D01*
X161631620Y-100877038D01*
X161634242Y-100882582D01*
X161636309Y-100888357D01*
X161637799Y-100894307D01*
X161638699Y-100900374D01*
X161639000Y-100906500D01*
X161639000Y-101031500D01*
X161638699Y-101037626D01*
X161637799Y-101043693D01*
X161636309Y-101049643D01*
X161634242Y-101055418D01*
X161631620Y-101060962D01*
X161628467Y-101066223D01*
X161624813Y-101071150D01*
X161620694Y-101075694D01*
X161616150Y-101079813D01*
X161611223Y-101083467D01*
X161605962Y-101086620D01*
X161600418Y-101089242D01*
X161594643Y-101091309D01*
X161588693Y-101092799D01*
X161582626Y-101093699D01*
X161576500Y-101094000D01*
X161026500Y-101094000D01*
X161020374Y-101093699D01*
X161014307Y-101092799D01*
X161008357Y-101091309D01*
X161002582Y-101089242D01*
X160997038Y-101086620D01*
X160991777Y-101083467D01*
X160986850Y-101079813D01*
X160982306Y-101075694D01*
X160978187Y-101071150D01*
X160974533Y-101066223D01*
X160971380Y-101060962D01*
X160968758Y-101055418D01*
X160966691Y-101049643D01*
X160965201Y-101043693D01*
X160964301Y-101037626D01*
X160964000Y-101031500D01*
X160964000Y-100906500D01*
X160964301Y-100900374D01*
X160965201Y-100894307D01*
X160966691Y-100888357D01*
X160968758Y-100882582D01*
X160971380Y-100877038D01*
X160974533Y-100871777D01*
X160978187Y-100866850D01*
X160982306Y-100862306D01*
X160986850Y-100858187D01*
X160991777Y-100854533D01*
X160997038Y-100851380D01*
X161002582Y-100848758D01*
X161008357Y-100846691D01*
X161014307Y-100845201D01*
X161020374Y-100844301D01*
X161026500Y-100844000D01*
X161576500Y-100844000D01*
X161582626Y-100844301D01*
X161582626Y-100844301D01*
G37*
D18*
X161301500Y-100969000D03*
D11*
G36*
X161582626Y-100344301D02*
X161588693Y-100345201D01*
X161594643Y-100346691D01*
X161600418Y-100348758D01*
X161605962Y-100351380D01*
X161611223Y-100354533D01*
X161616150Y-100358187D01*
X161620694Y-100362306D01*
X161624813Y-100366850D01*
X161628467Y-100371777D01*
X161631620Y-100377038D01*
X161634242Y-100382582D01*
X161636309Y-100388357D01*
X161637799Y-100394307D01*
X161638699Y-100400374D01*
X161639000Y-100406500D01*
X161639000Y-100531500D01*
X161638699Y-100537626D01*
X161637799Y-100543693D01*
X161636309Y-100549643D01*
X161634242Y-100555418D01*
X161631620Y-100560962D01*
X161628467Y-100566223D01*
X161624813Y-100571150D01*
X161620694Y-100575694D01*
X161616150Y-100579813D01*
X161611223Y-100583467D01*
X161605962Y-100586620D01*
X161600418Y-100589242D01*
X161594643Y-100591309D01*
X161588693Y-100592799D01*
X161582626Y-100593699D01*
X161576500Y-100594000D01*
X161026500Y-100594000D01*
X161020374Y-100593699D01*
X161014307Y-100592799D01*
X161008357Y-100591309D01*
X161002582Y-100589242D01*
X160997038Y-100586620D01*
X160991777Y-100583467D01*
X160986850Y-100579813D01*
X160982306Y-100575694D01*
X160978187Y-100571150D01*
X160974533Y-100566223D01*
X160971380Y-100560962D01*
X160968758Y-100555418D01*
X160966691Y-100549643D01*
X160965201Y-100543693D01*
X160964301Y-100537626D01*
X160964000Y-100531500D01*
X160964000Y-100406500D01*
X160964301Y-100400374D01*
X160965201Y-100394307D01*
X160966691Y-100388357D01*
X160968758Y-100382582D01*
X160971380Y-100377038D01*
X160974533Y-100371777D01*
X160978187Y-100366850D01*
X160982306Y-100362306D01*
X160986850Y-100358187D01*
X160991777Y-100354533D01*
X160997038Y-100351380D01*
X161002582Y-100348758D01*
X161008357Y-100346691D01*
X161014307Y-100345201D01*
X161020374Y-100344301D01*
X161026500Y-100344000D01*
X161576500Y-100344000D01*
X161582626Y-100344301D01*
X161582626Y-100344301D01*
G37*
D18*
X161301500Y-100469000D03*
G04 #@! TD*
D11*
G04 #@! TO.C,F501*
G36*
X149385504Y-124197204D02*
X149409773Y-124200804D01*
X149433571Y-124206765D01*
X149456671Y-124215030D01*
X149478849Y-124225520D01*
X149499893Y-124238133D01*
X149519598Y-124252747D01*
X149537777Y-124269223D01*
X149554253Y-124287402D01*
X149568867Y-124307107D01*
X149581480Y-124328151D01*
X149591970Y-124350329D01*
X149600235Y-124373429D01*
X149606196Y-124397227D01*
X149609796Y-124421496D01*
X149611000Y-124446000D01*
X149611000Y-125546000D01*
X149609796Y-125570504D01*
X149606196Y-125594773D01*
X149600235Y-125618571D01*
X149591970Y-125641671D01*
X149581480Y-125663849D01*
X149568867Y-125684893D01*
X149554253Y-125704598D01*
X149537777Y-125722777D01*
X149519598Y-125739253D01*
X149499893Y-125753867D01*
X149478849Y-125766480D01*
X149456671Y-125776970D01*
X149433571Y-125785235D01*
X149409773Y-125791196D01*
X149385504Y-125794796D01*
X149361000Y-125796000D01*
X147311000Y-125796000D01*
X147286496Y-125794796D01*
X147262227Y-125791196D01*
X147238429Y-125785235D01*
X147215329Y-125776970D01*
X147193151Y-125766480D01*
X147172107Y-125753867D01*
X147152402Y-125739253D01*
X147134223Y-125722777D01*
X147117747Y-125704598D01*
X147103133Y-125684893D01*
X147090520Y-125663849D01*
X147080030Y-125641671D01*
X147071765Y-125618571D01*
X147065804Y-125594773D01*
X147062204Y-125570504D01*
X147061000Y-125546000D01*
X147061000Y-124446000D01*
X147062204Y-124421496D01*
X147065804Y-124397227D01*
X147071765Y-124373429D01*
X147080030Y-124350329D01*
X147090520Y-124328151D01*
X147103133Y-124307107D01*
X147117747Y-124287402D01*
X147134223Y-124269223D01*
X147152402Y-124252747D01*
X147172107Y-124238133D01*
X147193151Y-124225520D01*
X147215329Y-124215030D01*
X147238429Y-124206765D01*
X147262227Y-124200804D01*
X147286496Y-124197204D01*
X147311000Y-124196000D01*
X149361000Y-124196000D01*
X149385504Y-124197204D01*
X149385504Y-124197204D01*
G37*
D19*
X148336000Y-124996000D03*
D11*
G36*
X149385504Y-121347204D02*
X149409773Y-121350804D01*
X149433571Y-121356765D01*
X149456671Y-121365030D01*
X149478849Y-121375520D01*
X149499893Y-121388133D01*
X149519598Y-121402747D01*
X149537777Y-121419223D01*
X149554253Y-121437402D01*
X149568867Y-121457107D01*
X149581480Y-121478151D01*
X149591970Y-121500329D01*
X149600235Y-121523429D01*
X149606196Y-121547227D01*
X149609796Y-121571496D01*
X149611000Y-121596000D01*
X149611000Y-122696000D01*
X149609796Y-122720504D01*
X149606196Y-122744773D01*
X149600235Y-122768571D01*
X149591970Y-122791671D01*
X149581480Y-122813849D01*
X149568867Y-122834893D01*
X149554253Y-122854598D01*
X149537777Y-122872777D01*
X149519598Y-122889253D01*
X149499893Y-122903867D01*
X149478849Y-122916480D01*
X149456671Y-122926970D01*
X149433571Y-122935235D01*
X149409773Y-122941196D01*
X149385504Y-122944796D01*
X149361000Y-122946000D01*
X147311000Y-122946000D01*
X147286496Y-122944796D01*
X147262227Y-122941196D01*
X147238429Y-122935235D01*
X147215329Y-122926970D01*
X147193151Y-122916480D01*
X147172107Y-122903867D01*
X147152402Y-122889253D01*
X147134223Y-122872777D01*
X147117747Y-122854598D01*
X147103133Y-122834893D01*
X147090520Y-122813849D01*
X147080030Y-122791671D01*
X147071765Y-122768571D01*
X147065804Y-122744773D01*
X147062204Y-122720504D01*
X147061000Y-122696000D01*
X147061000Y-121596000D01*
X147062204Y-121571496D01*
X147065804Y-121547227D01*
X147071765Y-121523429D01*
X147080030Y-121500329D01*
X147090520Y-121478151D01*
X147103133Y-121457107D01*
X147117747Y-121437402D01*
X147134223Y-121419223D01*
X147152402Y-121402747D01*
X147172107Y-121388133D01*
X147193151Y-121375520D01*
X147215329Y-121365030D01*
X147238429Y-121356765D01*
X147262227Y-121350804D01*
X147286496Y-121347204D01*
X147311000Y-121346000D01*
X149361000Y-121346000D01*
X149385504Y-121347204D01*
X149385504Y-121347204D01*
G37*
D19*
X148336000Y-122146000D03*
G04 #@! TD*
D11*
G04 #@! TO.C,PWR501*
G36*
X140478261Y-117668010D02*
X140538931Y-117677009D01*
X140598428Y-117691912D01*
X140656177Y-117712575D01*
X140711623Y-117738799D01*
X140764231Y-117770331D01*
X140813496Y-117806868D01*
X140858942Y-117848058D01*
X140900132Y-117893504D01*
X140936669Y-117942769D01*
X140968201Y-117995377D01*
X140994425Y-118050823D01*
X141015088Y-118108572D01*
X141029991Y-118168069D01*
X141038990Y-118228739D01*
X141042000Y-118290000D01*
X141042000Y-119540000D01*
X141038990Y-119601261D01*
X141029991Y-119661931D01*
X141015088Y-119721428D01*
X140994425Y-119779177D01*
X140968201Y-119834623D01*
X140936669Y-119887231D01*
X140900132Y-119936496D01*
X140858942Y-119981942D01*
X140813496Y-120023132D01*
X140764231Y-120059669D01*
X140711623Y-120091201D01*
X140656177Y-120117425D01*
X140598428Y-120138088D01*
X140538931Y-120152991D01*
X140478261Y-120161990D01*
X140417000Y-120165000D01*
X139167000Y-120165000D01*
X139105739Y-120161990D01*
X139045069Y-120152991D01*
X138985572Y-120138088D01*
X138927823Y-120117425D01*
X138872377Y-120091201D01*
X138819769Y-120059669D01*
X138770504Y-120023132D01*
X138725058Y-119981942D01*
X138683868Y-119936496D01*
X138647331Y-119887231D01*
X138615799Y-119834623D01*
X138589575Y-119779177D01*
X138568912Y-119721428D01*
X138554009Y-119661931D01*
X138545010Y-119601261D01*
X138542000Y-119540000D01*
X138542000Y-118290000D01*
X138545010Y-118228739D01*
X138554009Y-118168069D01*
X138568912Y-118108572D01*
X138589575Y-118050823D01*
X138615799Y-117995377D01*
X138647331Y-117942769D01*
X138683868Y-117893504D01*
X138725058Y-117848058D01*
X138770504Y-117806868D01*
X138819769Y-117770331D01*
X138872377Y-117738799D01*
X138927823Y-117712575D01*
X138985572Y-117691912D01*
X139045069Y-117677009D01*
X139105739Y-117668010D01*
X139167000Y-117665000D01*
X140417000Y-117665000D01*
X140478261Y-117668010D01*
X140478261Y-117668010D01*
G37*
D20*
X139792000Y-118915000D03*
D11*
G36*
X151978261Y-117668010D02*
X152038931Y-117677009D01*
X152098428Y-117691912D01*
X152156177Y-117712575D01*
X152211623Y-117738799D01*
X152264231Y-117770331D01*
X152313496Y-117806868D01*
X152358942Y-117848058D01*
X152400132Y-117893504D01*
X152436669Y-117942769D01*
X152468201Y-117995377D01*
X152494425Y-118050823D01*
X152515088Y-118108572D01*
X152529991Y-118168069D01*
X152538990Y-118228739D01*
X152542000Y-118290000D01*
X152542000Y-119540000D01*
X152538990Y-119601261D01*
X152529991Y-119661931D01*
X152515088Y-119721428D01*
X152494425Y-119779177D01*
X152468201Y-119834623D01*
X152436669Y-119887231D01*
X152400132Y-119936496D01*
X152358942Y-119981942D01*
X152313496Y-120023132D01*
X152264231Y-120059669D01*
X152211623Y-120091201D01*
X152156177Y-120117425D01*
X152098428Y-120138088D01*
X152038931Y-120152991D01*
X151978261Y-120161990D01*
X151917000Y-120165000D01*
X150667000Y-120165000D01*
X150605739Y-120161990D01*
X150545069Y-120152991D01*
X150485572Y-120138088D01*
X150427823Y-120117425D01*
X150372377Y-120091201D01*
X150319769Y-120059669D01*
X150270504Y-120023132D01*
X150225058Y-119981942D01*
X150183868Y-119936496D01*
X150147331Y-119887231D01*
X150115799Y-119834623D01*
X150089575Y-119779177D01*
X150068912Y-119721428D01*
X150054009Y-119661931D01*
X150045010Y-119601261D01*
X150042000Y-119540000D01*
X150042000Y-118290000D01*
X150045010Y-118228739D01*
X150054009Y-118168069D01*
X150068912Y-118108572D01*
X150089575Y-118050823D01*
X150115799Y-117995377D01*
X150147331Y-117942769D01*
X150183868Y-117893504D01*
X150225058Y-117848058D01*
X150270504Y-117806868D01*
X150319769Y-117770331D01*
X150372377Y-117738799D01*
X150427823Y-117712575D01*
X150485572Y-117691912D01*
X150545069Y-117677009D01*
X150605739Y-117668010D01*
X150667000Y-117665000D01*
X151917000Y-117665000D01*
X151978261Y-117668010D01*
X151978261Y-117668010D01*
G37*
D20*
X151292000Y-118915000D03*
D11*
G36*
X140478261Y-107168010D02*
X140538931Y-107177009D01*
X140598428Y-107191912D01*
X140656177Y-107212575D01*
X140711623Y-107238799D01*
X140764231Y-107270331D01*
X140813496Y-107306868D01*
X140858942Y-107348058D01*
X140900132Y-107393504D01*
X140936669Y-107442769D01*
X140968201Y-107495377D01*
X140994425Y-107550823D01*
X141015088Y-107608572D01*
X141029991Y-107668069D01*
X141038990Y-107728739D01*
X141042000Y-107790000D01*
X141042000Y-109040000D01*
X141038990Y-109101261D01*
X141029991Y-109161931D01*
X141015088Y-109221428D01*
X140994425Y-109279177D01*
X140968201Y-109334623D01*
X140936669Y-109387231D01*
X140900132Y-109436496D01*
X140858942Y-109481942D01*
X140813496Y-109523132D01*
X140764231Y-109559669D01*
X140711623Y-109591201D01*
X140656177Y-109617425D01*
X140598428Y-109638088D01*
X140538931Y-109652991D01*
X140478261Y-109661990D01*
X140417000Y-109665000D01*
X139167000Y-109665000D01*
X139105739Y-109661990D01*
X139045069Y-109652991D01*
X138985572Y-109638088D01*
X138927823Y-109617425D01*
X138872377Y-109591201D01*
X138819769Y-109559669D01*
X138770504Y-109523132D01*
X138725058Y-109481942D01*
X138683868Y-109436496D01*
X138647331Y-109387231D01*
X138615799Y-109334623D01*
X138589575Y-109279177D01*
X138568912Y-109221428D01*
X138554009Y-109161931D01*
X138545010Y-109101261D01*
X138542000Y-109040000D01*
X138542000Y-107790000D01*
X138545010Y-107728739D01*
X138554009Y-107668069D01*
X138568912Y-107608572D01*
X138589575Y-107550823D01*
X138615799Y-107495377D01*
X138647331Y-107442769D01*
X138683868Y-107393504D01*
X138725058Y-107348058D01*
X138770504Y-107306868D01*
X138819769Y-107270331D01*
X138872377Y-107238799D01*
X138927823Y-107212575D01*
X138985572Y-107191912D01*
X139045069Y-107177009D01*
X139105739Y-107168010D01*
X139167000Y-107165000D01*
X140417000Y-107165000D01*
X140478261Y-107168010D01*
X140478261Y-107168010D01*
G37*
D20*
X139792000Y-108415000D03*
D11*
G36*
X151978261Y-107168010D02*
X152038931Y-107177009D01*
X152098428Y-107191912D01*
X152156177Y-107212575D01*
X152211623Y-107238799D01*
X152264231Y-107270331D01*
X152313496Y-107306868D01*
X152358942Y-107348058D01*
X152400132Y-107393504D01*
X152436669Y-107442769D01*
X152468201Y-107495377D01*
X152494425Y-107550823D01*
X152515088Y-107608572D01*
X152529991Y-107668069D01*
X152538990Y-107728739D01*
X152542000Y-107790000D01*
X152542000Y-109040000D01*
X152538990Y-109101261D01*
X152529991Y-109161931D01*
X152515088Y-109221428D01*
X152494425Y-109279177D01*
X152468201Y-109334623D01*
X152436669Y-109387231D01*
X152400132Y-109436496D01*
X152358942Y-109481942D01*
X152313496Y-109523132D01*
X152264231Y-109559669D01*
X152211623Y-109591201D01*
X152156177Y-109617425D01*
X152098428Y-109638088D01*
X152038931Y-109652991D01*
X151978261Y-109661990D01*
X151917000Y-109665000D01*
X150667000Y-109665000D01*
X150605739Y-109661990D01*
X150545069Y-109652991D01*
X150485572Y-109638088D01*
X150427823Y-109617425D01*
X150372377Y-109591201D01*
X150319769Y-109559669D01*
X150270504Y-109523132D01*
X150225058Y-109481942D01*
X150183868Y-109436496D01*
X150147331Y-109387231D01*
X150115799Y-109334623D01*
X150089575Y-109279177D01*
X150068912Y-109221428D01*
X150054009Y-109161931D01*
X150045010Y-109101261D01*
X150042000Y-109040000D01*
X150042000Y-107790000D01*
X150045010Y-107728739D01*
X150054009Y-107668069D01*
X150068912Y-107608572D01*
X150089575Y-107550823D01*
X150115799Y-107495377D01*
X150147331Y-107442769D01*
X150183868Y-107393504D01*
X150225058Y-107348058D01*
X150270504Y-107306868D01*
X150319769Y-107270331D01*
X150372377Y-107238799D01*
X150427823Y-107212575D01*
X150485572Y-107191912D01*
X150545069Y-107177009D01*
X150605739Y-107168010D01*
X150667000Y-107165000D01*
X151917000Y-107165000D01*
X151978261Y-107168010D01*
X151978261Y-107168010D01*
G37*
D20*
X151292000Y-108415000D03*
G04 #@! TD*
D21*
G04 #@! TO.C,D202*
X132941000Y-109601000D03*
X129441000Y-109601000D03*
G04 #@! TD*
G04 #@! TO.C,D203*
X132941001Y-106172000D03*
X129441001Y-106172000D03*
G04 #@! TD*
G04 #@! TO.C,D204*
X132814001Y-102870001D03*
X129314001Y-102870001D03*
G04 #@! TD*
G04 #@! TO.C,D201*
X132941000Y-113030000D03*
X129441000Y-113030000D03*
G04 #@! TD*
D11*
G04 #@! TO.C,U301*
G36*
X157748351Y-114008361D02*
X157755632Y-114009441D01*
X157762771Y-114011229D01*
X157769701Y-114013709D01*
X157776355Y-114016856D01*
X157782668Y-114020640D01*
X157788579Y-114025024D01*
X157794033Y-114029967D01*
X157798976Y-114035421D01*
X157803360Y-114041332D01*
X157807144Y-114047645D01*
X157810291Y-114054299D01*
X157812771Y-114061229D01*
X157814559Y-114068368D01*
X157815639Y-114075649D01*
X157816000Y-114083000D01*
X157816000Y-114233000D01*
X157815639Y-114240351D01*
X157814559Y-114247632D01*
X157812771Y-114254771D01*
X157810291Y-114261701D01*
X157807144Y-114268355D01*
X157803360Y-114274668D01*
X157798976Y-114280579D01*
X157794033Y-114286033D01*
X157788579Y-114290976D01*
X157782668Y-114295360D01*
X157776355Y-114299144D01*
X157769701Y-114302291D01*
X157762771Y-114304771D01*
X157755632Y-114306559D01*
X157748351Y-114307639D01*
X157741000Y-114308000D01*
X157241000Y-114308000D01*
X157233649Y-114307639D01*
X157226368Y-114306559D01*
X157219229Y-114304771D01*
X157212299Y-114302291D01*
X157205645Y-114299144D01*
X157199332Y-114295360D01*
X157193421Y-114290976D01*
X157187967Y-114286033D01*
X157183024Y-114280579D01*
X157178640Y-114274668D01*
X157174856Y-114268355D01*
X157171709Y-114261701D01*
X157169229Y-114254771D01*
X157167441Y-114247632D01*
X157166361Y-114240351D01*
X157166000Y-114233000D01*
X157166000Y-114083000D01*
X157166361Y-114075649D01*
X157167441Y-114068368D01*
X157169229Y-114061229D01*
X157171709Y-114054299D01*
X157174856Y-114047645D01*
X157178640Y-114041332D01*
X157183024Y-114035421D01*
X157187967Y-114029967D01*
X157193421Y-114025024D01*
X157199332Y-114020640D01*
X157205645Y-114016856D01*
X157212299Y-114013709D01*
X157219229Y-114011229D01*
X157226368Y-114009441D01*
X157233649Y-114008361D01*
X157241000Y-114008000D01*
X157741000Y-114008000D01*
X157748351Y-114008361D01*
X157748351Y-114008361D01*
G37*
D22*
X157491000Y-114158000D03*
D11*
G36*
X157748351Y-114658361D02*
X157755632Y-114659441D01*
X157762771Y-114661229D01*
X157769701Y-114663709D01*
X157776355Y-114666856D01*
X157782668Y-114670640D01*
X157788579Y-114675024D01*
X157794033Y-114679967D01*
X157798976Y-114685421D01*
X157803360Y-114691332D01*
X157807144Y-114697645D01*
X157810291Y-114704299D01*
X157812771Y-114711229D01*
X157814559Y-114718368D01*
X157815639Y-114725649D01*
X157816000Y-114733000D01*
X157816000Y-114883000D01*
X157815639Y-114890351D01*
X157814559Y-114897632D01*
X157812771Y-114904771D01*
X157810291Y-114911701D01*
X157807144Y-114918355D01*
X157803360Y-114924668D01*
X157798976Y-114930579D01*
X157794033Y-114936033D01*
X157788579Y-114940976D01*
X157782668Y-114945360D01*
X157776355Y-114949144D01*
X157769701Y-114952291D01*
X157762771Y-114954771D01*
X157755632Y-114956559D01*
X157748351Y-114957639D01*
X157741000Y-114958000D01*
X157241000Y-114958000D01*
X157233649Y-114957639D01*
X157226368Y-114956559D01*
X157219229Y-114954771D01*
X157212299Y-114952291D01*
X157205645Y-114949144D01*
X157199332Y-114945360D01*
X157193421Y-114940976D01*
X157187967Y-114936033D01*
X157183024Y-114930579D01*
X157178640Y-114924668D01*
X157174856Y-114918355D01*
X157171709Y-114911701D01*
X157169229Y-114904771D01*
X157167441Y-114897632D01*
X157166361Y-114890351D01*
X157166000Y-114883000D01*
X157166000Y-114733000D01*
X157166361Y-114725649D01*
X157167441Y-114718368D01*
X157169229Y-114711229D01*
X157171709Y-114704299D01*
X157174856Y-114697645D01*
X157178640Y-114691332D01*
X157183024Y-114685421D01*
X157187967Y-114679967D01*
X157193421Y-114675024D01*
X157199332Y-114670640D01*
X157205645Y-114666856D01*
X157212299Y-114663709D01*
X157219229Y-114661229D01*
X157226368Y-114659441D01*
X157233649Y-114658361D01*
X157241000Y-114658000D01*
X157741000Y-114658000D01*
X157748351Y-114658361D01*
X157748351Y-114658361D01*
G37*
D22*
X157491000Y-114808000D03*
D11*
G36*
X157748351Y-115308361D02*
X157755632Y-115309441D01*
X157762771Y-115311229D01*
X157769701Y-115313709D01*
X157776355Y-115316856D01*
X157782668Y-115320640D01*
X157788579Y-115325024D01*
X157794033Y-115329967D01*
X157798976Y-115335421D01*
X157803360Y-115341332D01*
X157807144Y-115347645D01*
X157810291Y-115354299D01*
X157812771Y-115361229D01*
X157814559Y-115368368D01*
X157815639Y-115375649D01*
X157816000Y-115383000D01*
X157816000Y-115533000D01*
X157815639Y-115540351D01*
X157814559Y-115547632D01*
X157812771Y-115554771D01*
X157810291Y-115561701D01*
X157807144Y-115568355D01*
X157803360Y-115574668D01*
X157798976Y-115580579D01*
X157794033Y-115586033D01*
X157788579Y-115590976D01*
X157782668Y-115595360D01*
X157776355Y-115599144D01*
X157769701Y-115602291D01*
X157762771Y-115604771D01*
X157755632Y-115606559D01*
X157748351Y-115607639D01*
X157741000Y-115608000D01*
X157241000Y-115608000D01*
X157233649Y-115607639D01*
X157226368Y-115606559D01*
X157219229Y-115604771D01*
X157212299Y-115602291D01*
X157205645Y-115599144D01*
X157199332Y-115595360D01*
X157193421Y-115590976D01*
X157187967Y-115586033D01*
X157183024Y-115580579D01*
X157178640Y-115574668D01*
X157174856Y-115568355D01*
X157171709Y-115561701D01*
X157169229Y-115554771D01*
X157167441Y-115547632D01*
X157166361Y-115540351D01*
X157166000Y-115533000D01*
X157166000Y-115383000D01*
X157166361Y-115375649D01*
X157167441Y-115368368D01*
X157169229Y-115361229D01*
X157171709Y-115354299D01*
X157174856Y-115347645D01*
X157178640Y-115341332D01*
X157183024Y-115335421D01*
X157187967Y-115329967D01*
X157193421Y-115325024D01*
X157199332Y-115320640D01*
X157205645Y-115316856D01*
X157212299Y-115313709D01*
X157219229Y-115311229D01*
X157226368Y-115309441D01*
X157233649Y-115308361D01*
X157241000Y-115308000D01*
X157741000Y-115308000D01*
X157748351Y-115308361D01*
X157748351Y-115308361D01*
G37*
D22*
X157491000Y-115458000D03*
D11*
G36*
X155948351Y-115308361D02*
X155955632Y-115309441D01*
X155962771Y-115311229D01*
X155969701Y-115313709D01*
X155976355Y-115316856D01*
X155982668Y-115320640D01*
X155988579Y-115325024D01*
X155994033Y-115329967D01*
X155998976Y-115335421D01*
X156003360Y-115341332D01*
X156007144Y-115347645D01*
X156010291Y-115354299D01*
X156012771Y-115361229D01*
X156014559Y-115368368D01*
X156015639Y-115375649D01*
X156016000Y-115383000D01*
X156016000Y-115533000D01*
X156015639Y-115540351D01*
X156014559Y-115547632D01*
X156012771Y-115554771D01*
X156010291Y-115561701D01*
X156007144Y-115568355D01*
X156003360Y-115574668D01*
X155998976Y-115580579D01*
X155994033Y-115586033D01*
X155988579Y-115590976D01*
X155982668Y-115595360D01*
X155976355Y-115599144D01*
X155969701Y-115602291D01*
X155962771Y-115604771D01*
X155955632Y-115606559D01*
X155948351Y-115607639D01*
X155941000Y-115608000D01*
X155441000Y-115608000D01*
X155433649Y-115607639D01*
X155426368Y-115606559D01*
X155419229Y-115604771D01*
X155412299Y-115602291D01*
X155405645Y-115599144D01*
X155399332Y-115595360D01*
X155393421Y-115590976D01*
X155387967Y-115586033D01*
X155383024Y-115580579D01*
X155378640Y-115574668D01*
X155374856Y-115568355D01*
X155371709Y-115561701D01*
X155369229Y-115554771D01*
X155367441Y-115547632D01*
X155366361Y-115540351D01*
X155366000Y-115533000D01*
X155366000Y-115383000D01*
X155366361Y-115375649D01*
X155367441Y-115368368D01*
X155369229Y-115361229D01*
X155371709Y-115354299D01*
X155374856Y-115347645D01*
X155378640Y-115341332D01*
X155383024Y-115335421D01*
X155387967Y-115329967D01*
X155393421Y-115325024D01*
X155399332Y-115320640D01*
X155405645Y-115316856D01*
X155412299Y-115313709D01*
X155419229Y-115311229D01*
X155426368Y-115309441D01*
X155433649Y-115308361D01*
X155441000Y-115308000D01*
X155941000Y-115308000D01*
X155948351Y-115308361D01*
X155948351Y-115308361D01*
G37*
D22*
X155691000Y-115458000D03*
D11*
G36*
X155948351Y-114658361D02*
X155955632Y-114659441D01*
X155962771Y-114661229D01*
X155969701Y-114663709D01*
X155976355Y-114666856D01*
X155982668Y-114670640D01*
X155988579Y-114675024D01*
X155994033Y-114679967D01*
X155998976Y-114685421D01*
X156003360Y-114691332D01*
X156007144Y-114697645D01*
X156010291Y-114704299D01*
X156012771Y-114711229D01*
X156014559Y-114718368D01*
X156015639Y-114725649D01*
X156016000Y-114733000D01*
X156016000Y-114883000D01*
X156015639Y-114890351D01*
X156014559Y-114897632D01*
X156012771Y-114904771D01*
X156010291Y-114911701D01*
X156007144Y-114918355D01*
X156003360Y-114924668D01*
X155998976Y-114930579D01*
X155994033Y-114936033D01*
X155988579Y-114940976D01*
X155982668Y-114945360D01*
X155976355Y-114949144D01*
X155969701Y-114952291D01*
X155962771Y-114954771D01*
X155955632Y-114956559D01*
X155948351Y-114957639D01*
X155941000Y-114958000D01*
X155441000Y-114958000D01*
X155433649Y-114957639D01*
X155426368Y-114956559D01*
X155419229Y-114954771D01*
X155412299Y-114952291D01*
X155405645Y-114949144D01*
X155399332Y-114945360D01*
X155393421Y-114940976D01*
X155387967Y-114936033D01*
X155383024Y-114930579D01*
X155378640Y-114924668D01*
X155374856Y-114918355D01*
X155371709Y-114911701D01*
X155369229Y-114904771D01*
X155367441Y-114897632D01*
X155366361Y-114890351D01*
X155366000Y-114883000D01*
X155366000Y-114733000D01*
X155366361Y-114725649D01*
X155367441Y-114718368D01*
X155369229Y-114711229D01*
X155371709Y-114704299D01*
X155374856Y-114697645D01*
X155378640Y-114691332D01*
X155383024Y-114685421D01*
X155387967Y-114679967D01*
X155393421Y-114675024D01*
X155399332Y-114670640D01*
X155405645Y-114666856D01*
X155412299Y-114663709D01*
X155419229Y-114661229D01*
X155426368Y-114659441D01*
X155433649Y-114658361D01*
X155441000Y-114658000D01*
X155941000Y-114658000D01*
X155948351Y-114658361D01*
X155948351Y-114658361D01*
G37*
D22*
X155691000Y-114808000D03*
D11*
G36*
X155948351Y-114008361D02*
X155955632Y-114009441D01*
X155962771Y-114011229D01*
X155969701Y-114013709D01*
X155976355Y-114016856D01*
X155982668Y-114020640D01*
X155988579Y-114025024D01*
X155994033Y-114029967D01*
X155998976Y-114035421D01*
X156003360Y-114041332D01*
X156007144Y-114047645D01*
X156010291Y-114054299D01*
X156012771Y-114061229D01*
X156014559Y-114068368D01*
X156015639Y-114075649D01*
X156016000Y-114083000D01*
X156016000Y-114233000D01*
X156015639Y-114240351D01*
X156014559Y-114247632D01*
X156012771Y-114254771D01*
X156010291Y-114261701D01*
X156007144Y-114268355D01*
X156003360Y-114274668D01*
X155998976Y-114280579D01*
X155994033Y-114286033D01*
X155988579Y-114290976D01*
X155982668Y-114295360D01*
X155976355Y-114299144D01*
X155969701Y-114302291D01*
X155962771Y-114304771D01*
X155955632Y-114306559D01*
X155948351Y-114307639D01*
X155941000Y-114308000D01*
X155441000Y-114308000D01*
X155433649Y-114307639D01*
X155426368Y-114306559D01*
X155419229Y-114304771D01*
X155412299Y-114302291D01*
X155405645Y-114299144D01*
X155399332Y-114295360D01*
X155393421Y-114290976D01*
X155387967Y-114286033D01*
X155383024Y-114280579D01*
X155378640Y-114274668D01*
X155374856Y-114268355D01*
X155371709Y-114261701D01*
X155369229Y-114254771D01*
X155367441Y-114247632D01*
X155366361Y-114240351D01*
X155366000Y-114233000D01*
X155366000Y-114083000D01*
X155366361Y-114075649D01*
X155367441Y-114068368D01*
X155369229Y-114061229D01*
X155371709Y-114054299D01*
X155374856Y-114047645D01*
X155378640Y-114041332D01*
X155383024Y-114035421D01*
X155387967Y-114029967D01*
X155393421Y-114025024D01*
X155399332Y-114020640D01*
X155405645Y-114016856D01*
X155412299Y-114013709D01*
X155419229Y-114011229D01*
X155426368Y-114009441D01*
X155433649Y-114008361D01*
X155441000Y-114008000D01*
X155941000Y-114008000D01*
X155948351Y-114008361D01*
X155948351Y-114008361D01*
G37*
D22*
X155691000Y-114158000D03*
G04 #@! TD*
D11*
G04 #@! TO.C,U302*
G36*
X157130703Y-118352722D02*
X157145264Y-118354882D01*
X157159543Y-118358459D01*
X157173403Y-118363418D01*
X157186710Y-118369712D01*
X157199336Y-118377280D01*
X157211159Y-118386048D01*
X157222066Y-118395934D01*
X157231952Y-118406841D01*
X157240720Y-118418664D01*
X157248288Y-118431290D01*
X157254582Y-118444597D01*
X157259541Y-118458457D01*
X157263118Y-118472736D01*
X157265278Y-118487297D01*
X157266000Y-118502000D01*
X157266000Y-119172000D01*
X157265278Y-119186703D01*
X157263118Y-119201264D01*
X157259541Y-119215543D01*
X157254582Y-119229403D01*
X157248288Y-119242710D01*
X157240720Y-119255336D01*
X157231952Y-119267159D01*
X157222066Y-119278066D01*
X157211159Y-119287952D01*
X157199336Y-119296720D01*
X157186710Y-119304288D01*
X157173403Y-119310582D01*
X157159543Y-119315541D01*
X157145264Y-119319118D01*
X157130703Y-119321278D01*
X157116000Y-119322000D01*
X156816000Y-119322000D01*
X156801297Y-119321278D01*
X156786736Y-119319118D01*
X156772457Y-119315541D01*
X156758597Y-119310582D01*
X156745290Y-119304288D01*
X156732664Y-119296720D01*
X156720841Y-119287952D01*
X156709934Y-119278066D01*
X156700048Y-119267159D01*
X156691280Y-119255336D01*
X156683712Y-119242710D01*
X156677418Y-119229403D01*
X156672459Y-119215543D01*
X156668882Y-119201264D01*
X156666722Y-119186703D01*
X156666000Y-119172000D01*
X156666000Y-118502000D01*
X156666722Y-118487297D01*
X156668882Y-118472736D01*
X156672459Y-118458457D01*
X156677418Y-118444597D01*
X156683712Y-118431290D01*
X156691280Y-118418664D01*
X156700048Y-118406841D01*
X156709934Y-118395934D01*
X156720841Y-118386048D01*
X156732664Y-118377280D01*
X156745290Y-118369712D01*
X156758597Y-118363418D01*
X156772457Y-118358459D01*
X156786736Y-118354882D01*
X156801297Y-118352722D01*
X156816000Y-118352000D01*
X157116000Y-118352000D01*
X157130703Y-118352722D01*
X157130703Y-118352722D01*
G37*
D23*
X156966000Y-118837000D03*
D11*
G36*
X157130703Y-117152722D02*
X157145264Y-117154882D01*
X157159543Y-117158459D01*
X157173403Y-117163418D01*
X157186710Y-117169712D01*
X157199336Y-117177280D01*
X157211159Y-117186048D01*
X157222066Y-117195934D01*
X157231952Y-117206841D01*
X157240720Y-117218664D01*
X157248288Y-117231290D01*
X157254582Y-117244597D01*
X157259541Y-117258457D01*
X157263118Y-117272736D01*
X157265278Y-117287297D01*
X157266000Y-117302000D01*
X157266000Y-117972000D01*
X157265278Y-117986703D01*
X157263118Y-118001264D01*
X157259541Y-118015543D01*
X157254582Y-118029403D01*
X157248288Y-118042710D01*
X157240720Y-118055336D01*
X157231952Y-118067159D01*
X157222066Y-118078066D01*
X157211159Y-118087952D01*
X157199336Y-118096720D01*
X157186710Y-118104288D01*
X157173403Y-118110582D01*
X157159543Y-118115541D01*
X157145264Y-118119118D01*
X157130703Y-118121278D01*
X157116000Y-118122000D01*
X156816000Y-118122000D01*
X156801297Y-118121278D01*
X156786736Y-118119118D01*
X156772457Y-118115541D01*
X156758597Y-118110582D01*
X156745290Y-118104288D01*
X156732664Y-118096720D01*
X156720841Y-118087952D01*
X156709934Y-118078066D01*
X156700048Y-118067159D01*
X156691280Y-118055336D01*
X156683712Y-118042710D01*
X156677418Y-118029403D01*
X156672459Y-118015543D01*
X156668882Y-118001264D01*
X156666722Y-117986703D01*
X156666000Y-117972000D01*
X156666000Y-117302000D01*
X156666722Y-117287297D01*
X156668882Y-117272736D01*
X156672459Y-117258457D01*
X156677418Y-117244597D01*
X156683712Y-117231290D01*
X156691280Y-117218664D01*
X156700048Y-117206841D01*
X156709934Y-117195934D01*
X156720841Y-117186048D01*
X156732664Y-117177280D01*
X156745290Y-117169712D01*
X156758597Y-117163418D01*
X156772457Y-117158459D01*
X156786736Y-117154882D01*
X156801297Y-117152722D01*
X156816000Y-117152000D01*
X157116000Y-117152000D01*
X157130703Y-117152722D01*
X157130703Y-117152722D01*
G37*
D23*
X156966000Y-117637000D03*
D11*
G36*
X156380703Y-118352722D02*
X156395264Y-118354882D01*
X156409543Y-118358459D01*
X156423403Y-118363418D01*
X156436710Y-118369712D01*
X156449336Y-118377280D01*
X156461159Y-118386048D01*
X156472066Y-118395934D01*
X156481952Y-118406841D01*
X156490720Y-118418664D01*
X156498288Y-118431290D01*
X156504582Y-118444597D01*
X156509541Y-118458457D01*
X156513118Y-118472736D01*
X156515278Y-118487297D01*
X156516000Y-118502000D01*
X156516000Y-119172000D01*
X156515278Y-119186703D01*
X156513118Y-119201264D01*
X156509541Y-119215543D01*
X156504582Y-119229403D01*
X156498288Y-119242710D01*
X156490720Y-119255336D01*
X156481952Y-119267159D01*
X156472066Y-119278066D01*
X156461159Y-119287952D01*
X156449336Y-119296720D01*
X156436710Y-119304288D01*
X156423403Y-119310582D01*
X156409543Y-119315541D01*
X156395264Y-119319118D01*
X156380703Y-119321278D01*
X156366000Y-119322000D01*
X156066000Y-119322000D01*
X156051297Y-119321278D01*
X156036736Y-119319118D01*
X156022457Y-119315541D01*
X156008597Y-119310582D01*
X155995290Y-119304288D01*
X155982664Y-119296720D01*
X155970841Y-119287952D01*
X155959934Y-119278066D01*
X155950048Y-119267159D01*
X155941280Y-119255336D01*
X155933712Y-119242710D01*
X155927418Y-119229403D01*
X155922459Y-119215543D01*
X155918882Y-119201264D01*
X155916722Y-119186703D01*
X155916000Y-119172000D01*
X155916000Y-118502000D01*
X155916722Y-118487297D01*
X155918882Y-118472736D01*
X155922459Y-118458457D01*
X155927418Y-118444597D01*
X155933712Y-118431290D01*
X155941280Y-118418664D01*
X155950048Y-118406841D01*
X155959934Y-118395934D01*
X155970841Y-118386048D01*
X155982664Y-118377280D01*
X155995290Y-118369712D01*
X156008597Y-118363418D01*
X156022457Y-118358459D01*
X156036736Y-118354882D01*
X156051297Y-118352722D01*
X156066000Y-118352000D01*
X156366000Y-118352000D01*
X156380703Y-118352722D01*
X156380703Y-118352722D01*
G37*
D23*
X156216000Y-118837000D03*
D11*
G36*
X156380703Y-117152722D02*
X156395264Y-117154882D01*
X156409543Y-117158459D01*
X156423403Y-117163418D01*
X156436710Y-117169712D01*
X156449336Y-117177280D01*
X156461159Y-117186048D01*
X156472066Y-117195934D01*
X156481952Y-117206841D01*
X156490720Y-117218664D01*
X156498288Y-117231290D01*
X156504582Y-117244597D01*
X156509541Y-117258457D01*
X156513118Y-117272736D01*
X156515278Y-117287297D01*
X156516000Y-117302000D01*
X156516000Y-117972000D01*
X156515278Y-117986703D01*
X156513118Y-118001264D01*
X156509541Y-118015543D01*
X156504582Y-118029403D01*
X156498288Y-118042710D01*
X156490720Y-118055336D01*
X156481952Y-118067159D01*
X156472066Y-118078066D01*
X156461159Y-118087952D01*
X156449336Y-118096720D01*
X156436710Y-118104288D01*
X156423403Y-118110582D01*
X156409543Y-118115541D01*
X156395264Y-118119118D01*
X156380703Y-118121278D01*
X156366000Y-118122000D01*
X156066000Y-118122000D01*
X156051297Y-118121278D01*
X156036736Y-118119118D01*
X156022457Y-118115541D01*
X156008597Y-118110582D01*
X155995290Y-118104288D01*
X155982664Y-118096720D01*
X155970841Y-118087952D01*
X155959934Y-118078066D01*
X155950048Y-118067159D01*
X155941280Y-118055336D01*
X155933712Y-118042710D01*
X155927418Y-118029403D01*
X155922459Y-118015543D01*
X155918882Y-118001264D01*
X155916722Y-117986703D01*
X155916000Y-117972000D01*
X155916000Y-117302000D01*
X155916722Y-117287297D01*
X155918882Y-117272736D01*
X155922459Y-117258457D01*
X155927418Y-117244597D01*
X155933712Y-117231290D01*
X155941280Y-117218664D01*
X155950048Y-117206841D01*
X155959934Y-117195934D01*
X155970841Y-117186048D01*
X155982664Y-117177280D01*
X155995290Y-117169712D01*
X156008597Y-117163418D01*
X156022457Y-117158459D01*
X156036736Y-117154882D01*
X156051297Y-117152722D01*
X156066000Y-117152000D01*
X156366000Y-117152000D01*
X156380703Y-117152722D01*
X156380703Y-117152722D01*
G37*
D23*
X156216000Y-117637000D03*
D11*
G36*
X158350802Y-117037482D02*
X158360509Y-117038921D01*
X158370028Y-117041306D01*
X158379268Y-117044612D01*
X158388140Y-117048808D01*
X158396557Y-117053853D01*
X158404439Y-117059699D01*
X158411711Y-117066289D01*
X158418301Y-117073561D01*
X158424147Y-117081443D01*
X158429192Y-117089860D01*
X158433388Y-117098732D01*
X158436694Y-117107972D01*
X158439079Y-117117491D01*
X158440518Y-117127198D01*
X158441000Y-117137000D01*
X158441000Y-117337000D01*
X158440518Y-117346802D01*
X158439079Y-117356509D01*
X158436694Y-117366028D01*
X158433388Y-117375268D01*
X158429192Y-117384140D01*
X158424147Y-117392557D01*
X158418301Y-117400439D01*
X158411711Y-117407711D01*
X158404439Y-117414301D01*
X158396557Y-117420147D01*
X158388140Y-117425192D01*
X158379268Y-117429388D01*
X158370028Y-117432694D01*
X158360509Y-117435079D01*
X158350802Y-117436518D01*
X158341000Y-117437000D01*
X157741000Y-117437000D01*
X157731198Y-117436518D01*
X157721491Y-117435079D01*
X157711972Y-117432694D01*
X157702732Y-117429388D01*
X157693860Y-117425192D01*
X157685443Y-117420147D01*
X157677561Y-117414301D01*
X157670289Y-117407711D01*
X157663699Y-117400439D01*
X157657853Y-117392557D01*
X157652808Y-117384140D01*
X157648612Y-117375268D01*
X157645306Y-117366028D01*
X157642921Y-117356509D01*
X157641482Y-117346802D01*
X157641000Y-117337000D01*
X157641000Y-117137000D01*
X157641482Y-117127198D01*
X157642921Y-117117491D01*
X157645306Y-117107972D01*
X157648612Y-117098732D01*
X157652808Y-117089860D01*
X157657853Y-117081443D01*
X157663699Y-117073561D01*
X157670289Y-117066289D01*
X157677561Y-117059699D01*
X157685443Y-117053853D01*
X157693860Y-117048808D01*
X157702732Y-117044612D01*
X157711972Y-117041306D01*
X157721491Y-117038921D01*
X157731198Y-117037482D01*
X157741000Y-117037000D01*
X158341000Y-117037000D01*
X158350802Y-117037482D01*
X158350802Y-117037482D01*
G37*
D24*
X158041000Y-117237000D03*
D11*
G36*
X158350802Y-118037482D02*
X158360509Y-118038921D01*
X158370028Y-118041306D01*
X158379268Y-118044612D01*
X158388140Y-118048808D01*
X158396557Y-118053853D01*
X158404439Y-118059699D01*
X158411711Y-118066289D01*
X158418301Y-118073561D01*
X158424147Y-118081443D01*
X158429192Y-118089860D01*
X158433388Y-118098732D01*
X158436694Y-118107972D01*
X158439079Y-118117491D01*
X158440518Y-118127198D01*
X158441000Y-118137000D01*
X158441000Y-118337000D01*
X158440518Y-118346802D01*
X158439079Y-118356509D01*
X158436694Y-118366028D01*
X158433388Y-118375268D01*
X158429192Y-118384140D01*
X158424147Y-118392557D01*
X158418301Y-118400439D01*
X158411711Y-118407711D01*
X158404439Y-118414301D01*
X158396557Y-118420147D01*
X158388140Y-118425192D01*
X158379268Y-118429388D01*
X158370028Y-118432694D01*
X158360509Y-118435079D01*
X158350802Y-118436518D01*
X158341000Y-118437000D01*
X157741000Y-118437000D01*
X157731198Y-118436518D01*
X157721491Y-118435079D01*
X157711972Y-118432694D01*
X157702732Y-118429388D01*
X157693860Y-118425192D01*
X157685443Y-118420147D01*
X157677561Y-118414301D01*
X157670289Y-118407711D01*
X157663699Y-118400439D01*
X157657853Y-118392557D01*
X157652808Y-118384140D01*
X157648612Y-118375268D01*
X157645306Y-118366028D01*
X157642921Y-118356509D01*
X157641482Y-118346802D01*
X157641000Y-118337000D01*
X157641000Y-118137000D01*
X157641482Y-118127198D01*
X157642921Y-118117491D01*
X157645306Y-118107972D01*
X157648612Y-118098732D01*
X157652808Y-118089860D01*
X157657853Y-118081443D01*
X157663699Y-118073561D01*
X157670289Y-118066289D01*
X157677561Y-118059699D01*
X157685443Y-118053853D01*
X157693860Y-118048808D01*
X157702732Y-118044612D01*
X157711972Y-118041306D01*
X157721491Y-118038921D01*
X157731198Y-118037482D01*
X157741000Y-118037000D01*
X158341000Y-118037000D01*
X158350802Y-118037482D01*
X158350802Y-118037482D01*
G37*
D24*
X158041000Y-118237000D03*
D11*
G36*
X158350802Y-119037482D02*
X158360509Y-119038921D01*
X158370028Y-119041306D01*
X158379268Y-119044612D01*
X158388140Y-119048808D01*
X158396557Y-119053853D01*
X158404439Y-119059699D01*
X158411711Y-119066289D01*
X158418301Y-119073561D01*
X158424147Y-119081443D01*
X158429192Y-119089860D01*
X158433388Y-119098732D01*
X158436694Y-119107972D01*
X158439079Y-119117491D01*
X158440518Y-119127198D01*
X158441000Y-119137000D01*
X158441000Y-119337000D01*
X158440518Y-119346802D01*
X158439079Y-119356509D01*
X158436694Y-119366028D01*
X158433388Y-119375268D01*
X158429192Y-119384140D01*
X158424147Y-119392557D01*
X158418301Y-119400439D01*
X158411711Y-119407711D01*
X158404439Y-119414301D01*
X158396557Y-119420147D01*
X158388140Y-119425192D01*
X158379268Y-119429388D01*
X158370028Y-119432694D01*
X158360509Y-119435079D01*
X158350802Y-119436518D01*
X158341000Y-119437000D01*
X157741000Y-119437000D01*
X157731198Y-119436518D01*
X157721491Y-119435079D01*
X157711972Y-119432694D01*
X157702732Y-119429388D01*
X157693860Y-119425192D01*
X157685443Y-119420147D01*
X157677561Y-119414301D01*
X157670289Y-119407711D01*
X157663699Y-119400439D01*
X157657853Y-119392557D01*
X157652808Y-119384140D01*
X157648612Y-119375268D01*
X157645306Y-119366028D01*
X157642921Y-119356509D01*
X157641482Y-119346802D01*
X157641000Y-119337000D01*
X157641000Y-119137000D01*
X157641482Y-119127198D01*
X157642921Y-119117491D01*
X157645306Y-119107972D01*
X157648612Y-119098732D01*
X157652808Y-119089860D01*
X157657853Y-119081443D01*
X157663699Y-119073561D01*
X157670289Y-119066289D01*
X157677561Y-119059699D01*
X157685443Y-119053853D01*
X157693860Y-119048808D01*
X157702732Y-119044612D01*
X157711972Y-119041306D01*
X157721491Y-119038921D01*
X157731198Y-119037482D01*
X157741000Y-119037000D01*
X158341000Y-119037000D01*
X158350802Y-119037482D01*
X158350802Y-119037482D01*
G37*
D24*
X158041000Y-119237000D03*
D11*
G36*
X155450802Y-119037482D02*
X155460509Y-119038921D01*
X155470028Y-119041306D01*
X155479268Y-119044612D01*
X155488140Y-119048808D01*
X155496557Y-119053853D01*
X155504439Y-119059699D01*
X155511711Y-119066289D01*
X155518301Y-119073561D01*
X155524147Y-119081443D01*
X155529192Y-119089860D01*
X155533388Y-119098732D01*
X155536694Y-119107972D01*
X155539079Y-119117491D01*
X155540518Y-119127198D01*
X155541000Y-119137000D01*
X155541000Y-119337000D01*
X155540518Y-119346802D01*
X155539079Y-119356509D01*
X155536694Y-119366028D01*
X155533388Y-119375268D01*
X155529192Y-119384140D01*
X155524147Y-119392557D01*
X155518301Y-119400439D01*
X155511711Y-119407711D01*
X155504439Y-119414301D01*
X155496557Y-119420147D01*
X155488140Y-119425192D01*
X155479268Y-119429388D01*
X155470028Y-119432694D01*
X155460509Y-119435079D01*
X155450802Y-119436518D01*
X155441000Y-119437000D01*
X154841000Y-119437000D01*
X154831198Y-119436518D01*
X154821491Y-119435079D01*
X154811972Y-119432694D01*
X154802732Y-119429388D01*
X154793860Y-119425192D01*
X154785443Y-119420147D01*
X154777561Y-119414301D01*
X154770289Y-119407711D01*
X154763699Y-119400439D01*
X154757853Y-119392557D01*
X154752808Y-119384140D01*
X154748612Y-119375268D01*
X154745306Y-119366028D01*
X154742921Y-119356509D01*
X154741482Y-119346802D01*
X154741000Y-119337000D01*
X154741000Y-119137000D01*
X154741482Y-119127198D01*
X154742921Y-119117491D01*
X154745306Y-119107972D01*
X154748612Y-119098732D01*
X154752808Y-119089860D01*
X154757853Y-119081443D01*
X154763699Y-119073561D01*
X154770289Y-119066289D01*
X154777561Y-119059699D01*
X154785443Y-119053853D01*
X154793860Y-119048808D01*
X154802732Y-119044612D01*
X154811972Y-119041306D01*
X154821491Y-119038921D01*
X154831198Y-119037482D01*
X154841000Y-119037000D01*
X155441000Y-119037000D01*
X155450802Y-119037482D01*
X155450802Y-119037482D01*
G37*
D24*
X155141000Y-119237000D03*
D11*
G36*
X155450802Y-118037482D02*
X155460509Y-118038921D01*
X155470028Y-118041306D01*
X155479268Y-118044612D01*
X155488140Y-118048808D01*
X155496557Y-118053853D01*
X155504439Y-118059699D01*
X155511711Y-118066289D01*
X155518301Y-118073561D01*
X155524147Y-118081443D01*
X155529192Y-118089860D01*
X155533388Y-118098732D01*
X155536694Y-118107972D01*
X155539079Y-118117491D01*
X155540518Y-118127198D01*
X155541000Y-118137000D01*
X155541000Y-118337000D01*
X155540518Y-118346802D01*
X155539079Y-118356509D01*
X155536694Y-118366028D01*
X155533388Y-118375268D01*
X155529192Y-118384140D01*
X155524147Y-118392557D01*
X155518301Y-118400439D01*
X155511711Y-118407711D01*
X155504439Y-118414301D01*
X155496557Y-118420147D01*
X155488140Y-118425192D01*
X155479268Y-118429388D01*
X155470028Y-118432694D01*
X155460509Y-118435079D01*
X155450802Y-118436518D01*
X155441000Y-118437000D01*
X154841000Y-118437000D01*
X154831198Y-118436518D01*
X154821491Y-118435079D01*
X154811972Y-118432694D01*
X154802732Y-118429388D01*
X154793860Y-118425192D01*
X154785443Y-118420147D01*
X154777561Y-118414301D01*
X154770289Y-118407711D01*
X154763699Y-118400439D01*
X154757853Y-118392557D01*
X154752808Y-118384140D01*
X154748612Y-118375268D01*
X154745306Y-118366028D01*
X154742921Y-118356509D01*
X154741482Y-118346802D01*
X154741000Y-118337000D01*
X154741000Y-118137000D01*
X154741482Y-118127198D01*
X154742921Y-118117491D01*
X154745306Y-118107972D01*
X154748612Y-118098732D01*
X154752808Y-118089860D01*
X154757853Y-118081443D01*
X154763699Y-118073561D01*
X154770289Y-118066289D01*
X154777561Y-118059699D01*
X154785443Y-118053853D01*
X154793860Y-118048808D01*
X154802732Y-118044612D01*
X154811972Y-118041306D01*
X154821491Y-118038921D01*
X154831198Y-118037482D01*
X154841000Y-118037000D01*
X155441000Y-118037000D01*
X155450802Y-118037482D01*
X155450802Y-118037482D01*
G37*
D24*
X155141000Y-118237000D03*
D11*
G36*
X155450802Y-117037482D02*
X155460509Y-117038921D01*
X155470028Y-117041306D01*
X155479268Y-117044612D01*
X155488140Y-117048808D01*
X155496557Y-117053853D01*
X155504439Y-117059699D01*
X155511711Y-117066289D01*
X155518301Y-117073561D01*
X155524147Y-117081443D01*
X155529192Y-117089860D01*
X155533388Y-117098732D01*
X155536694Y-117107972D01*
X155539079Y-117117491D01*
X155540518Y-117127198D01*
X155541000Y-117137000D01*
X155541000Y-117337000D01*
X155540518Y-117346802D01*
X155539079Y-117356509D01*
X155536694Y-117366028D01*
X155533388Y-117375268D01*
X155529192Y-117384140D01*
X155524147Y-117392557D01*
X155518301Y-117400439D01*
X155511711Y-117407711D01*
X155504439Y-117414301D01*
X155496557Y-117420147D01*
X155488140Y-117425192D01*
X155479268Y-117429388D01*
X155470028Y-117432694D01*
X155460509Y-117435079D01*
X155450802Y-117436518D01*
X155441000Y-117437000D01*
X154841000Y-117437000D01*
X154831198Y-117436518D01*
X154821491Y-117435079D01*
X154811972Y-117432694D01*
X154802732Y-117429388D01*
X154793860Y-117425192D01*
X154785443Y-117420147D01*
X154777561Y-117414301D01*
X154770289Y-117407711D01*
X154763699Y-117400439D01*
X154757853Y-117392557D01*
X154752808Y-117384140D01*
X154748612Y-117375268D01*
X154745306Y-117366028D01*
X154742921Y-117356509D01*
X154741482Y-117346802D01*
X154741000Y-117337000D01*
X154741000Y-117137000D01*
X154741482Y-117127198D01*
X154742921Y-117117491D01*
X154745306Y-117107972D01*
X154748612Y-117098732D01*
X154752808Y-117089860D01*
X154757853Y-117081443D01*
X154763699Y-117073561D01*
X154770289Y-117066289D01*
X154777561Y-117059699D01*
X154785443Y-117053853D01*
X154793860Y-117048808D01*
X154802732Y-117044612D01*
X154811972Y-117041306D01*
X154821491Y-117038921D01*
X154831198Y-117037482D01*
X154841000Y-117037000D01*
X155441000Y-117037000D01*
X155450802Y-117037482D01*
X155450802Y-117037482D01*
G37*
D24*
X155141000Y-117237000D03*
G04 #@! TD*
D25*
G04 #@! TO.C,Q301*
X161306000Y-114554000D03*
X163306000Y-113604000D03*
X163306000Y-115504000D03*
G04 #@! TD*
G04 #@! TO.C,Q204*
X134509000Y-111379000D03*
X136509000Y-110429000D03*
X136509000Y-112329000D03*
G04 #@! TD*
G04 #@! TO.C,Q203*
X134509000Y-107950000D03*
X136509000Y-107000000D03*
X136509000Y-108900000D03*
G04 #@! TD*
G04 #@! TO.C,Q202*
X134509000Y-104521000D03*
X136509000Y-103571000D03*
X136509000Y-105471000D03*
G04 #@! TD*
G04 #@! TO.C,Q201*
X134509000Y-101092000D03*
X136509000Y-100142000D03*
X136509000Y-102042000D03*
G04 #@! TD*
D26*
G04 #@! TO.C,U401*
X164338000Y-106614000D03*
X163338000Y-106614000D03*
X162338000Y-106614000D03*
X161338000Y-106614000D03*
X161338000Y-104714000D03*
X162338000Y-104714000D03*
X163338000Y-104714000D03*
X164338000Y-104714000D03*
G04 #@! TD*
D11*
G04 #@! TO.C,D106*
G36*
X169337695Y-114672167D02*
X169357005Y-114675681D01*
X169375878Y-114681070D01*
X169394131Y-114688283D01*
X169411590Y-114697251D01*
X170104410Y-115097251D01*
X170120906Y-115107887D01*
X170136279Y-115120088D01*
X170150383Y-115133738D01*
X170163081Y-115148704D01*
X170174250Y-115164842D01*
X170183785Y-115181998D01*
X170191591Y-115200006D01*
X170197595Y-115218692D01*
X170201739Y-115237877D01*
X170203982Y-115257375D01*
X170204303Y-115277000D01*
X170202699Y-115296561D01*
X170199185Y-115315871D01*
X170193796Y-115334744D01*
X170186583Y-115352997D01*
X170177615Y-115370456D01*
X169977615Y-115716866D01*
X169966979Y-115733362D01*
X169954778Y-115748735D01*
X169941128Y-115762839D01*
X169926162Y-115775537D01*
X169910024Y-115786706D01*
X169892868Y-115796241D01*
X169874860Y-115804047D01*
X169856174Y-115810051D01*
X169836989Y-115814195D01*
X169817491Y-115816438D01*
X169797866Y-115816759D01*
X169778305Y-115815155D01*
X169758995Y-115811641D01*
X169740122Y-115806252D01*
X169721869Y-115799039D01*
X169704410Y-115790071D01*
X169011590Y-115390071D01*
X168995094Y-115379435D01*
X168979721Y-115367234D01*
X168965617Y-115353584D01*
X168952919Y-115338618D01*
X168941750Y-115322480D01*
X168932215Y-115305324D01*
X168924409Y-115287316D01*
X168918405Y-115268630D01*
X168914261Y-115249445D01*
X168912018Y-115229947D01*
X168911697Y-115210322D01*
X168913301Y-115190761D01*
X168916815Y-115171451D01*
X168922204Y-115152578D01*
X168929417Y-115134325D01*
X168938385Y-115116866D01*
X169138385Y-114770456D01*
X169149021Y-114753960D01*
X169161222Y-114738587D01*
X169174872Y-114724483D01*
X169189838Y-114711785D01*
X169205976Y-114700616D01*
X169223132Y-114691081D01*
X169241140Y-114683275D01*
X169259826Y-114677271D01*
X169279011Y-114673127D01*
X169298509Y-114670884D01*
X169318134Y-114670563D01*
X169337695Y-114672167D01*
X169337695Y-114672167D01*
G37*
D13*
X169558000Y-115243661D03*
D11*
G36*
X167850195Y-117248592D02*
X167869505Y-117252106D01*
X167888378Y-117257495D01*
X167906631Y-117264708D01*
X167924090Y-117273676D01*
X168616910Y-117673676D01*
X168633406Y-117684312D01*
X168648779Y-117696513D01*
X168662883Y-117710163D01*
X168675581Y-117725129D01*
X168686750Y-117741267D01*
X168696285Y-117758423D01*
X168704091Y-117776431D01*
X168710095Y-117795117D01*
X168714239Y-117814302D01*
X168716482Y-117833800D01*
X168716803Y-117853425D01*
X168715199Y-117872986D01*
X168711685Y-117892296D01*
X168706296Y-117911169D01*
X168699083Y-117929422D01*
X168690115Y-117946881D01*
X168490115Y-118293291D01*
X168479479Y-118309787D01*
X168467278Y-118325160D01*
X168453628Y-118339264D01*
X168438662Y-118351962D01*
X168422524Y-118363131D01*
X168405368Y-118372666D01*
X168387360Y-118380472D01*
X168368674Y-118386476D01*
X168349489Y-118390620D01*
X168329991Y-118392863D01*
X168310366Y-118393184D01*
X168290805Y-118391580D01*
X168271495Y-118388066D01*
X168252622Y-118382677D01*
X168234369Y-118375464D01*
X168216910Y-118366496D01*
X167524090Y-117966496D01*
X167507594Y-117955860D01*
X167492221Y-117943659D01*
X167478117Y-117930009D01*
X167465419Y-117915043D01*
X167454250Y-117898905D01*
X167444715Y-117881749D01*
X167436909Y-117863741D01*
X167430905Y-117845055D01*
X167426761Y-117825870D01*
X167424518Y-117806372D01*
X167424197Y-117786747D01*
X167425801Y-117767186D01*
X167429315Y-117747876D01*
X167434704Y-117729003D01*
X167441917Y-117710750D01*
X167450885Y-117693291D01*
X167650885Y-117346881D01*
X167661521Y-117330385D01*
X167673722Y-117315012D01*
X167687372Y-117300908D01*
X167702338Y-117288210D01*
X167718476Y-117277041D01*
X167735632Y-117267506D01*
X167753640Y-117259700D01*
X167772326Y-117253696D01*
X167791511Y-117249552D01*
X167811009Y-117247309D01*
X167830634Y-117246988D01*
X167850195Y-117248592D01*
X167850195Y-117248592D01*
G37*
D13*
X168070500Y-117820086D03*
D11*
G36*
X168700539Y-115652287D02*
X168710194Y-115654044D01*
X168719631Y-115656739D01*
X168728757Y-115660346D01*
X168737487Y-115664829D01*
X169603513Y-116164829D01*
X169611761Y-116170147D01*
X169619448Y-116176248D01*
X169626499Y-116183073D01*
X169632848Y-116190556D01*
X169638433Y-116198625D01*
X169643200Y-116207203D01*
X169647104Y-116216207D01*
X169650106Y-116225550D01*
X169652177Y-116235142D01*
X169653299Y-116244892D01*
X169653459Y-116254704D01*
X169652657Y-116264485D01*
X169650901Y-116274140D01*
X169648206Y-116283576D01*
X169644599Y-116292703D01*
X169640116Y-116301432D01*
X169540116Y-116474638D01*
X169534798Y-116482886D01*
X169528697Y-116490572D01*
X169521872Y-116497624D01*
X169514389Y-116503973D01*
X169506320Y-116509558D01*
X169497742Y-116514325D01*
X169488738Y-116518229D01*
X169479395Y-116521231D01*
X169469803Y-116523302D01*
X169460054Y-116524424D01*
X169450241Y-116524584D01*
X169440461Y-116523783D01*
X169430806Y-116522026D01*
X169421369Y-116519331D01*
X169412243Y-116515724D01*
X169403513Y-116511241D01*
X168537487Y-116011241D01*
X168529239Y-116005923D01*
X168521552Y-115999822D01*
X168514501Y-115992997D01*
X168508152Y-115985514D01*
X168502567Y-115977445D01*
X168497800Y-115968867D01*
X168493896Y-115959863D01*
X168490894Y-115950520D01*
X168488823Y-115940928D01*
X168487701Y-115931178D01*
X168487541Y-115921366D01*
X168488343Y-115911585D01*
X168490099Y-115901930D01*
X168492794Y-115892494D01*
X168496401Y-115883367D01*
X168500884Y-115874638D01*
X168600884Y-115701432D01*
X168606202Y-115693184D01*
X168612303Y-115685498D01*
X168619128Y-115678446D01*
X168626611Y-115672097D01*
X168634680Y-115666512D01*
X168643258Y-115661745D01*
X168652262Y-115657841D01*
X168661605Y-115654839D01*
X168671197Y-115652768D01*
X168680946Y-115651646D01*
X168690759Y-115651486D01*
X168700539Y-115652287D01*
X168700539Y-115652287D01*
G37*
D24*
X169070500Y-116088035D03*
D11*
G36*
X168337868Y-116342187D02*
X168352350Y-116344822D01*
X168366505Y-116348864D01*
X168380195Y-116354274D01*
X168393289Y-116361000D01*
X169172711Y-116811000D01*
X169185083Y-116818977D01*
X169196613Y-116828128D01*
X169207191Y-116838365D01*
X169216714Y-116849590D01*
X169225091Y-116861694D01*
X169232242Y-116874561D01*
X169238097Y-116888067D01*
X169242600Y-116902081D01*
X169245708Y-116916470D01*
X169247390Y-116931094D01*
X169247631Y-116945812D01*
X169246428Y-116960483D01*
X169243793Y-116974966D01*
X169239750Y-116989120D01*
X169234341Y-117002810D01*
X169227615Y-117015904D01*
X169077615Y-117275712D01*
X169069638Y-117288084D01*
X169060487Y-117299614D01*
X169050250Y-117310192D01*
X169039025Y-117319715D01*
X169026921Y-117328092D01*
X169014054Y-117335243D01*
X169000549Y-117341098D01*
X168986534Y-117345601D01*
X168972145Y-117348708D01*
X168957522Y-117350391D01*
X168942803Y-117350632D01*
X168928132Y-117349429D01*
X168913650Y-117346794D01*
X168899495Y-117342752D01*
X168885805Y-117337342D01*
X168872711Y-117330616D01*
X168093289Y-116880616D01*
X168080917Y-116872639D01*
X168069387Y-116863488D01*
X168058809Y-116853251D01*
X168049286Y-116842026D01*
X168040909Y-116829922D01*
X168033758Y-116817055D01*
X168027903Y-116803549D01*
X168023400Y-116789535D01*
X168020292Y-116775146D01*
X168018610Y-116760522D01*
X168018369Y-116745804D01*
X168019572Y-116731133D01*
X168022207Y-116716650D01*
X168026250Y-116702496D01*
X168031659Y-116688806D01*
X168038385Y-116675712D01*
X168188385Y-116415904D01*
X168196362Y-116403532D01*
X168205513Y-116392002D01*
X168215750Y-116381424D01*
X168226975Y-116371901D01*
X168239079Y-116363524D01*
X168251946Y-116356373D01*
X168265451Y-116350518D01*
X168279466Y-116346015D01*
X168293855Y-116342908D01*
X168308478Y-116341225D01*
X168323197Y-116340984D01*
X168337868Y-116342187D01*
X168337868Y-116342187D01*
G37*
D23*
X168633000Y-116845808D03*
G04 #@! TD*
D11*
G04 #@! TO.C,D105*
G36*
X150359603Y-127670963D02*
X150379018Y-127673843D01*
X150398057Y-127678612D01*
X150416537Y-127685224D01*
X150434279Y-127693616D01*
X150451114Y-127703706D01*
X150466879Y-127715398D01*
X150481421Y-127728579D01*
X150494602Y-127743121D01*
X150506294Y-127758886D01*
X150516384Y-127775721D01*
X150524776Y-127793463D01*
X150531388Y-127811943D01*
X150536157Y-127830982D01*
X150539037Y-127850397D01*
X150540000Y-127870000D01*
X150540000Y-128670000D01*
X150539037Y-128689603D01*
X150536157Y-128709018D01*
X150531388Y-128728057D01*
X150524776Y-128746537D01*
X150516384Y-128764279D01*
X150506294Y-128781114D01*
X150494602Y-128796879D01*
X150481421Y-128811421D01*
X150466879Y-128824602D01*
X150451114Y-128836294D01*
X150434279Y-128846384D01*
X150416537Y-128854776D01*
X150398057Y-128861388D01*
X150379018Y-128866157D01*
X150359603Y-128869037D01*
X150340000Y-128870000D01*
X149940000Y-128870000D01*
X149920397Y-128869037D01*
X149900982Y-128866157D01*
X149881943Y-128861388D01*
X149863463Y-128854776D01*
X149845721Y-128846384D01*
X149828886Y-128836294D01*
X149813121Y-128824602D01*
X149798579Y-128811421D01*
X149785398Y-128796879D01*
X149773706Y-128781114D01*
X149763616Y-128764279D01*
X149755224Y-128746537D01*
X149748612Y-128728057D01*
X149743843Y-128709018D01*
X149740963Y-128689603D01*
X149740000Y-128670000D01*
X149740000Y-127870000D01*
X149740963Y-127850397D01*
X149743843Y-127830982D01*
X149748612Y-127811943D01*
X149755224Y-127793463D01*
X149763616Y-127775721D01*
X149773706Y-127758886D01*
X149785398Y-127743121D01*
X149798579Y-127728579D01*
X149813121Y-127715398D01*
X149828886Y-127703706D01*
X149845721Y-127693616D01*
X149863463Y-127685224D01*
X149881943Y-127678612D01*
X149900982Y-127673843D01*
X149920397Y-127670963D01*
X149940000Y-127670000D01*
X150340000Y-127670000D01*
X150359603Y-127670963D01*
X150359603Y-127670963D01*
G37*
D13*
X150140000Y-128270000D03*
D11*
G36*
X147384603Y-127670963D02*
X147404018Y-127673843D01*
X147423057Y-127678612D01*
X147441537Y-127685224D01*
X147459279Y-127693616D01*
X147476114Y-127703706D01*
X147491879Y-127715398D01*
X147506421Y-127728579D01*
X147519602Y-127743121D01*
X147531294Y-127758886D01*
X147541384Y-127775721D01*
X147549776Y-127793463D01*
X147556388Y-127811943D01*
X147561157Y-127830982D01*
X147564037Y-127850397D01*
X147565000Y-127870000D01*
X147565000Y-128670000D01*
X147564037Y-128689603D01*
X147561157Y-128709018D01*
X147556388Y-128728057D01*
X147549776Y-128746537D01*
X147541384Y-128764279D01*
X147531294Y-128781114D01*
X147519602Y-128796879D01*
X147506421Y-128811421D01*
X147491879Y-128824602D01*
X147476114Y-128836294D01*
X147459279Y-128846384D01*
X147441537Y-128854776D01*
X147423057Y-128861388D01*
X147404018Y-128866157D01*
X147384603Y-128869037D01*
X147365000Y-128870000D01*
X146965000Y-128870000D01*
X146945397Y-128869037D01*
X146925982Y-128866157D01*
X146906943Y-128861388D01*
X146888463Y-128854776D01*
X146870721Y-128846384D01*
X146853886Y-128836294D01*
X146838121Y-128824602D01*
X146823579Y-128811421D01*
X146810398Y-128796879D01*
X146798706Y-128781114D01*
X146788616Y-128764279D01*
X146780224Y-128746537D01*
X146773612Y-128728057D01*
X146768843Y-128709018D01*
X146765963Y-128689603D01*
X146765000Y-128670000D01*
X146765000Y-127870000D01*
X146765963Y-127850397D01*
X146768843Y-127830982D01*
X146773612Y-127811943D01*
X146780224Y-127793463D01*
X146788616Y-127775721D01*
X146798706Y-127758886D01*
X146810398Y-127743121D01*
X146823579Y-127728579D01*
X146838121Y-127715398D01*
X146853886Y-127703706D01*
X146870721Y-127693616D01*
X146888463Y-127685224D01*
X146906943Y-127678612D01*
X146925982Y-127673843D01*
X146945397Y-127670963D01*
X146965000Y-127670000D01*
X147365000Y-127670000D01*
X147384603Y-127670963D01*
X147384603Y-127670963D01*
G37*
D13*
X147165000Y-128270000D03*
D11*
G36*
X149274802Y-127670482D02*
X149284509Y-127671921D01*
X149294028Y-127674306D01*
X149303268Y-127677612D01*
X149312140Y-127681808D01*
X149320557Y-127686853D01*
X149328439Y-127692699D01*
X149335711Y-127699289D01*
X149342301Y-127706561D01*
X149348147Y-127714443D01*
X149353192Y-127722860D01*
X149357388Y-127731732D01*
X149360694Y-127740972D01*
X149363079Y-127750491D01*
X149364518Y-127760198D01*
X149365000Y-127770000D01*
X149365000Y-128770000D01*
X149364518Y-128779802D01*
X149363079Y-128789509D01*
X149360694Y-128799028D01*
X149357388Y-128808268D01*
X149353192Y-128817140D01*
X149348147Y-128825557D01*
X149342301Y-128833439D01*
X149335711Y-128840711D01*
X149328439Y-128847301D01*
X149320557Y-128853147D01*
X149312140Y-128858192D01*
X149303268Y-128862388D01*
X149294028Y-128865694D01*
X149284509Y-128868079D01*
X149274802Y-128869518D01*
X149265000Y-128870000D01*
X149065000Y-128870000D01*
X149055198Y-128869518D01*
X149045491Y-128868079D01*
X149035972Y-128865694D01*
X149026732Y-128862388D01*
X149017860Y-128858192D01*
X149009443Y-128853147D01*
X149001561Y-128847301D01*
X148994289Y-128840711D01*
X148987699Y-128833439D01*
X148981853Y-128825557D01*
X148976808Y-128817140D01*
X148972612Y-128808268D01*
X148969306Y-128799028D01*
X148966921Y-128789509D01*
X148965482Y-128779802D01*
X148965000Y-128770000D01*
X148965000Y-127770000D01*
X148965482Y-127760198D01*
X148966921Y-127750491D01*
X148969306Y-127740972D01*
X148972612Y-127731732D01*
X148976808Y-127722860D01*
X148981853Y-127714443D01*
X148987699Y-127706561D01*
X148994289Y-127699289D01*
X149001561Y-127692699D01*
X149009443Y-127686853D01*
X149017860Y-127681808D01*
X149026732Y-127677612D01*
X149035972Y-127674306D01*
X149045491Y-127671921D01*
X149055198Y-127670482D01*
X149065000Y-127670000D01*
X149265000Y-127670000D01*
X149274802Y-127670482D01*
X149274802Y-127670482D01*
G37*
D24*
X149165000Y-128270000D03*
D11*
G36*
X148454703Y-127670722D02*
X148469264Y-127672882D01*
X148483543Y-127676459D01*
X148497403Y-127681418D01*
X148510710Y-127687712D01*
X148523336Y-127695280D01*
X148535159Y-127704048D01*
X148546066Y-127713934D01*
X148555952Y-127724841D01*
X148564720Y-127736664D01*
X148572288Y-127749290D01*
X148578582Y-127762597D01*
X148583541Y-127776457D01*
X148587118Y-127790736D01*
X148589278Y-127805297D01*
X148590000Y-127820000D01*
X148590000Y-128720000D01*
X148589278Y-128734703D01*
X148587118Y-128749264D01*
X148583541Y-128763543D01*
X148578582Y-128777403D01*
X148572288Y-128790710D01*
X148564720Y-128803336D01*
X148555952Y-128815159D01*
X148546066Y-128826066D01*
X148535159Y-128835952D01*
X148523336Y-128844720D01*
X148510710Y-128852288D01*
X148497403Y-128858582D01*
X148483543Y-128863541D01*
X148469264Y-128867118D01*
X148454703Y-128869278D01*
X148440000Y-128870000D01*
X148140000Y-128870000D01*
X148125297Y-128869278D01*
X148110736Y-128867118D01*
X148096457Y-128863541D01*
X148082597Y-128858582D01*
X148069290Y-128852288D01*
X148056664Y-128844720D01*
X148044841Y-128835952D01*
X148033934Y-128826066D01*
X148024048Y-128815159D01*
X148015280Y-128803336D01*
X148007712Y-128790710D01*
X148001418Y-128777403D01*
X147996459Y-128763543D01*
X147992882Y-128749264D01*
X147990722Y-128734703D01*
X147990000Y-128720000D01*
X147990000Y-127820000D01*
X147990722Y-127805297D01*
X147992882Y-127790736D01*
X147996459Y-127776457D01*
X148001418Y-127762597D01*
X148007712Y-127749290D01*
X148015280Y-127736664D01*
X148024048Y-127724841D01*
X148033934Y-127713934D01*
X148044841Y-127704048D01*
X148056664Y-127695280D01*
X148069290Y-127687712D01*
X148082597Y-127681418D01*
X148096457Y-127676459D01*
X148110736Y-127672882D01*
X148125297Y-127670722D01*
X148140000Y-127670000D01*
X148440000Y-127670000D01*
X148454703Y-127670722D01*
X148454703Y-127670722D01*
G37*
D23*
X148290000Y-128270000D03*
G04 #@! TD*
D11*
G04 #@! TO.C,D104*
G36*
X129431491Y-117355562D02*
X129450989Y-117357805D01*
X129470174Y-117361949D01*
X129488860Y-117367953D01*
X129506868Y-117375759D01*
X129524024Y-117385294D01*
X129540162Y-117396463D01*
X129555128Y-117409161D01*
X129568778Y-117423265D01*
X129580979Y-117438638D01*
X129591615Y-117455134D01*
X129791615Y-117801544D01*
X129800583Y-117819003D01*
X129807796Y-117837256D01*
X129813185Y-117856129D01*
X129816699Y-117875439D01*
X129818303Y-117895000D01*
X129817982Y-117914625D01*
X129815739Y-117934123D01*
X129811595Y-117953308D01*
X129805591Y-117971994D01*
X129797785Y-117990002D01*
X129788250Y-118007158D01*
X129777081Y-118023296D01*
X129764383Y-118038262D01*
X129750279Y-118051912D01*
X129734906Y-118064113D01*
X129718410Y-118074749D01*
X129025590Y-118474749D01*
X129008131Y-118483717D01*
X128989878Y-118490930D01*
X128971005Y-118496319D01*
X128951695Y-118499833D01*
X128932134Y-118501437D01*
X128912509Y-118501116D01*
X128893011Y-118498873D01*
X128873826Y-118494729D01*
X128855140Y-118488725D01*
X128837132Y-118480919D01*
X128819976Y-118471384D01*
X128803838Y-118460215D01*
X128788872Y-118447517D01*
X128775222Y-118433413D01*
X128763021Y-118418040D01*
X128752385Y-118401544D01*
X128552385Y-118055134D01*
X128543417Y-118037675D01*
X128536204Y-118019422D01*
X128530815Y-118000549D01*
X128527301Y-117981239D01*
X128525697Y-117961678D01*
X128526018Y-117942053D01*
X128528261Y-117922555D01*
X128532405Y-117903370D01*
X128538409Y-117884684D01*
X128546215Y-117866676D01*
X128555750Y-117849520D01*
X128566919Y-117833382D01*
X128579617Y-117818416D01*
X128593721Y-117804766D01*
X128609094Y-117792565D01*
X128625590Y-117781929D01*
X129318410Y-117381929D01*
X129335869Y-117372961D01*
X129354122Y-117365748D01*
X129372995Y-117360359D01*
X129392305Y-117356845D01*
X129411866Y-117355241D01*
X129431491Y-117355562D01*
X129431491Y-117355562D01*
G37*
D13*
X129172000Y-117928339D03*
D11*
G36*
X127943991Y-114779137D02*
X127963489Y-114781380D01*
X127982674Y-114785524D01*
X128001360Y-114791528D01*
X128019368Y-114799334D01*
X128036524Y-114808869D01*
X128052662Y-114820038D01*
X128067628Y-114832736D01*
X128081278Y-114846840D01*
X128093479Y-114862213D01*
X128104115Y-114878709D01*
X128304115Y-115225119D01*
X128313083Y-115242578D01*
X128320296Y-115260831D01*
X128325685Y-115279704D01*
X128329199Y-115299014D01*
X128330803Y-115318575D01*
X128330482Y-115338200D01*
X128328239Y-115357698D01*
X128324095Y-115376883D01*
X128318091Y-115395569D01*
X128310285Y-115413577D01*
X128300750Y-115430733D01*
X128289581Y-115446871D01*
X128276883Y-115461837D01*
X128262779Y-115475487D01*
X128247406Y-115487688D01*
X128230910Y-115498324D01*
X127538090Y-115898324D01*
X127520631Y-115907292D01*
X127502378Y-115914505D01*
X127483505Y-115919894D01*
X127464195Y-115923408D01*
X127444634Y-115925012D01*
X127425009Y-115924691D01*
X127405511Y-115922448D01*
X127386326Y-115918304D01*
X127367640Y-115912300D01*
X127349632Y-115904494D01*
X127332476Y-115894959D01*
X127316338Y-115883790D01*
X127301372Y-115871092D01*
X127287722Y-115856988D01*
X127275521Y-115841615D01*
X127264885Y-115825119D01*
X127064885Y-115478709D01*
X127055917Y-115461250D01*
X127048704Y-115442997D01*
X127043315Y-115424124D01*
X127039801Y-115404814D01*
X127038197Y-115385253D01*
X127038518Y-115365628D01*
X127040761Y-115346130D01*
X127044905Y-115326945D01*
X127050909Y-115308259D01*
X127058715Y-115290251D01*
X127068250Y-115273095D01*
X127079419Y-115256957D01*
X127092117Y-115241991D01*
X127106221Y-115228341D01*
X127121594Y-115216140D01*
X127138090Y-115205504D01*
X127830910Y-114805504D01*
X127848369Y-114796536D01*
X127866622Y-114789323D01*
X127885495Y-114783934D01*
X127904805Y-114780420D01*
X127924366Y-114778816D01*
X127943991Y-114779137D01*
X127943991Y-114779137D01*
G37*
D13*
X127684500Y-115351914D03*
D11*
G36*
X129074053Y-116647576D02*
X129083803Y-116648698D01*
X129093395Y-116650769D01*
X129102738Y-116653771D01*
X129111742Y-116657675D01*
X129120320Y-116662442D01*
X129128389Y-116668027D01*
X129135872Y-116674376D01*
X129142697Y-116681427D01*
X129148798Y-116689114D01*
X129154116Y-116697362D01*
X129254116Y-116870568D01*
X129258599Y-116879298D01*
X129262206Y-116888424D01*
X129264901Y-116897861D01*
X129266658Y-116907516D01*
X129267459Y-116917296D01*
X129267299Y-116927109D01*
X129266177Y-116936858D01*
X129264106Y-116946450D01*
X129261104Y-116955793D01*
X129257200Y-116964797D01*
X129252433Y-116973375D01*
X129246848Y-116981444D01*
X129240499Y-116988927D01*
X129233447Y-116995752D01*
X129225761Y-117001853D01*
X129217513Y-117007171D01*
X128351487Y-117507171D01*
X128342758Y-117511654D01*
X128333631Y-117515261D01*
X128324195Y-117517956D01*
X128314540Y-117519712D01*
X128304759Y-117520514D01*
X128294947Y-117520354D01*
X128285197Y-117519232D01*
X128275605Y-117517161D01*
X128266262Y-117514159D01*
X128257258Y-117510255D01*
X128248680Y-117505488D01*
X128240611Y-117499903D01*
X128233128Y-117493554D01*
X128226303Y-117486503D01*
X128220202Y-117478816D01*
X128214884Y-117470568D01*
X128114884Y-117297362D01*
X128110401Y-117288632D01*
X128106794Y-117279506D01*
X128104099Y-117270069D01*
X128102342Y-117260414D01*
X128101541Y-117250634D01*
X128101701Y-117240821D01*
X128102823Y-117231072D01*
X128104894Y-117221480D01*
X128107896Y-117212137D01*
X128111800Y-117203133D01*
X128116567Y-117194555D01*
X128122152Y-117186486D01*
X128128501Y-117179003D01*
X128135553Y-117172178D01*
X128143239Y-117166077D01*
X128151487Y-117160759D01*
X129017513Y-116660759D01*
X129026242Y-116656276D01*
X129035369Y-116652669D01*
X129044805Y-116649974D01*
X129054460Y-116648218D01*
X129064241Y-116647416D01*
X129074053Y-116647576D01*
X129074053Y-116647576D01*
G37*
D24*
X128684500Y-117083965D03*
D11*
G36*
X128571521Y-115821609D02*
X128586145Y-115823291D01*
X128600534Y-115826399D01*
X128614548Y-115830902D01*
X128628054Y-115836757D01*
X128640921Y-115843908D01*
X128653025Y-115852285D01*
X128664250Y-115861808D01*
X128674487Y-115872386D01*
X128683638Y-115883916D01*
X128691615Y-115896288D01*
X128841615Y-116156096D01*
X128848341Y-116169190D01*
X128853751Y-116182880D01*
X128857793Y-116197035D01*
X128860428Y-116211517D01*
X128861631Y-116226188D01*
X128861390Y-116240907D01*
X128859707Y-116255530D01*
X128856600Y-116269919D01*
X128852097Y-116283934D01*
X128846242Y-116297439D01*
X128839091Y-116310306D01*
X128830714Y-116322410D01*
X128821191Y-116333635D01*
X128810613Y-116343872D01*
X128799083Y-116353023D01*
X128786711Y-116361000D01*
X128007289Y-116811000D01*
X127994195Y-116817726D01*
X127980505Y-116823135D01*
X127966351Y-116827178D01*
X127951868Y-116829813D01*
X127937197Y-116831016D01*
X127922479Y-116830775D01*
X127907855Y-116829093D01*
X127893466Y-116825985D01*
X127879452Y-116821482D01*
X127865946Y-116815627D01*
X127853079Y-116808476D01*
X127840975Y-116800099D01*
X127829750Y-116790576D01*
X127819513Y-116779998D01*
X127810362Y-116768468D01*
X127802385Y-116756096D01*
X127652385Y-116496288D01*
X127645659Y-116483194D01*
X127640249Y-116469504D01*
X127636207Y-116455349D01*
X127633572Y-116440867D01*
X127632369Y-116426196D01*
X127632610Y-116411477D01*
X127634293Y-116396854D01*
X127637400Y-116382465D01*
X127641903Y-116368450D01*
X127647758Y-116354945D01*
X127654909Y-116342078D01*
X127663286Y-116329974D01*
X127672809Y-116318749D01*
X127683387Y-116308512D01*
X127694917Y-116299361D01*
X127707289Y-116291384D01*
X128486711Y-115841384D01*
X128499805Y-115834658D01*
X128513495Y-115829249D01*
X128527649Y-115825206D01*
X128542132Y-115822571D01*
X128556803Y-115821368D01*
X128571521Y-115821609D01*
X128571521Y-115821609D01*
G37*
D23*
X128247000Y-116326192D03*
G04 #@! TD*
D11*
G04 #@! TO.C,D103*
G36*
X127274695Y-94242845D02*
X127294005Y-94246359D01*
X127312878Y-94251748D01*
X127331131Y-94258961D01*
X127348590Y-94267929D01*
X128041410Y-94667929D01*
X128057906Y-94678565D01*
X128073279Y-94690766D01*
X128087383Y-94704416D01*
X128100081Y-94719382D01*
X128111250Y-94735520D01*
X128120785Y-94752676D01*
X128128591Y-94770684D01*
X128134595Y-94789370D01*
X128138739Y-94808555D01*
X128140982Y-94828053D01*
X128141303Y-94847678D01*
X128139699Y-94867239D01*
X128136185Y-94886549D01*
X128130796Y-94905422D01*
X128123583Y-94923675D01*
X128114615Y-94941134D01*
X127914615Y-95287544D01*
X127903979Y-95304040D01*
X127891778Y-95319413D01*
X127878128Y-95333517D01*
X127863162Y-95346215D01*
X127847024Y-95357384D01*
X127829868Y-95366919D01*
X127811860Y-95374725D01*
X127793174Y-95380729D01*
X127773989Y-95384873D01*
X127754491Y-95387116D01*
X127734866Y-95387437D01*
X127715305Y-95385833D01*
X127695995Y-95382319D01*
X127677122Y-95376930D01*
X127658869Y-95369717D01*
X127641410Y-95360749D01*
X126948590Y-94960749D01*
X126932094Y-94950113D01*
X126916721Y-94937912D01*
X126902617Y-94924262D01*
X126889919Y-94909296D01*
X126878750Y-94893158D01*
X126869215Y-94876002D01*
X126861409Y-94857994D01*
X126855405Y-94839308D01*
X126851261Y-94820123D01*
X126849018Y-94800625D01*
X126848697Y-94781000D01*
X126850301Y-94761439D01*
X126853815Y-94742129D01*
X126859204Y-94723256D01*
X126866417Y-94705003D01*
X126875385Y-94687544D01*
X127075385Y-94341134D01*
X127086021Y-94324638D01*
X127098222Y-94309265D01*
X127111872Y-94295161D01*
X127126838Y-94282463D01*
X127142976Y-94271294D01*
X127160132Y-94261759D01*
X127178140Y-94253953D01*
X127196826Y-94247949D01*
X127216011Y-94243805D01*
X127235509Y-94241562D01*
X127255134Y-94241241D01*
X127274695Y-94242845D01*
X127274695Y-94242845D01*
G37*
D13*
X127495000Y-94814339D03*
D11*
G36*
X128762195Y-91666420D02*
X128781505Y-91669934D01*
X128800378Y-91675323D01*
X128818631Y-91682536D01*
X128836090Y-91691504D01*
X129528910Y-92091504D01*
X129545406Y-92102140D01*
X129560779Y-92114341D01*
X129574883Y-92127991D01*
X129587581Y-92142957D01*
X129598750Y-92159095D01*
X129608285Y-92176251D01*
X129616091Y-92194259D01*
X129622095Y-92212945D01*
X129626239Y-92232130D01*
X129628482Y-92251628D01*
X129628803Y-92271253D01*
X129627199Y-92290814D01*
X129623685Y-92310124D01*
X129618296Y-92328997D01*
X129611083Y-92347250D01*
X129602115Y-92364709D01*
X129402115Y-92711119D01*
X129391479Y-92727615D01*
X129379278Y-92742988D01*
X129365628Y-92757092D01*
X129350662Y-92769790D01*
X129334524Y-92780959D01*
X129317368Y-92790494D01*
X129299360Y-92798300D01*
X129280674Y-92804304D01*
X129261489Y-92808448D01*
X129241991Y-92810691D01*
X129222366Y-92811012D01*
X129202805Y-92809408D01*
X129183495Y-92805894D01*
X129164622Y-92800505D01*
X129146369Y-92793292D01*
X129128910Y-92784324D01*
X128436090Y-92384324D01*
X128419594Y-92373688D01*
X128404221Y-92361487D01*
X128390117Y-92347837D01*
X128377419Y-92332871D01*
X128366250Y-92316733D01*
X128356715Y-92299577D01*
X128348909Y-92281569D01*
X128342905Y-92262883D01*
X128338761Y-92243698D01*
X128336518Y-92224200D01*
X128336197Y-92204575D01*
X128337801Y-92185014D01*
X128341315Y-92165704D01*
X128346704Y-92146831D01*
X128353917Y-92128578D01*
X128362885Y-92111119D01*
X128562885Y-91764709D01*
X128573521Y-91748213D01*
X128585722Y-91732840D01*
X128599372Y-91718736D01*
X128614338Y-91706038D01*
X128630476Y-91694869D01*
X128647632Y-91685334D01*
X128665640Y-91677528D01*
X128684326Y-91671524D01*
X128703511Y-91667380D01*
X128723009Y-91665137D01*
X128742634Y-91664816D01*
X128762195Y-91666420D01*
X128762195Y-91666420D01*
G37*
D13*
X128982500Y-92237914D03*
D11*
G36*
X127612539Y-93534217D02*
X127622194Y-93535974D01*
X127631631Y-93538669D01*
X127640757Y-93542276D01*
X127649487Y-93546759D01*
X128515513Y-94046759D01*
X128523761Y-94052077D01*
X128531448Y-94058178D01*
X128538499Y-94065003D01*
X128544848Y-94072486D01*
X128550433Y-94080555D01*
X128555200Y-94089133D01*
X128559104Y-94098137D01*
X128562106Y-94107480D01*
X128564177Y-94117072D01*
X128565299Y-94126822D01*
X128565459Y-94136634D01*
X128564657Y-94146415D01*
X128562901Y-94156070D01*
X128560206Y-94165506D01*
X128556599Y-94174633D01*
X128552116Y-94183362D01*
X128452116Y-94356568D01*
X128446798Y-94364816D01*
X128440697Y-94372502D01*
X128433872Y-94379554D01*
X128426389Y-94385903D01*
X128418320Y-94391488D01*
X128409742Y-94396255D01*
X128400738Y-94400159D01*
X128391395Y-94403161D01*
X128381803Y-94405232D01*
X128372054Y-94406354D01*
X128362241Y-94406514D01*
X128352461Y-94405713D01*
X128342806Y-94403956D01*
X128333369Y-94401261D01*
X128324243Y-94397654D01*
X128315513Y-94393171D01*
X127449487Y-93893171D01*
X127441239Y-93887853D01*
X127433552Y-93881752D01*
X127426501Y-93874927D01*
X127420152Y-93867444D01*
X127414567Y-93859375D01*
X127409800Y-93850797D01*
X127405896Y-93841793D01*
X127402894Y-93832450D01*
X127400823Y-93822858D01*
X127399701Y-93813108D01*
X127399541Y-93803296D01*
X127400343Y-93793515D01*
X127402099Y-93783860D01*
X127404794Y-93774424D01*
X127408401Y-93765297D01*
X127412884Y-93756568D01*
X127512884Y-93583362D01*
X127518202Y-93575114D01*
X127524303Y-93567428D01*
X127531128Y-93560376D01*
X127538611Y-93554027D01*
X127546680Y-93548442D01*
X127555258Y-93543675D01*
X127564262Y-93539771D01*
X127573605Y-93536769D01*
X127583197Y-93534698D01*
X127592946Y-93533576D01*
X127602759Y-93533416D01*
X127612539Y-93534217D01*
X127612539Y-93534217D01*
G37*
D24*
X127982500Y-93969965D03*
D11*
G36*
X128124868Y-92708571D02*
X128139350Y-92711206D01*
X128153505Y-92715248D01*
X128167195Y-92720658D01*
X128180289Y-92727384D01*
X128959711Y-93177384D01*
X128972083Y-93185361D01*
X128983613Y-93194512D01*
X128994191Y-93204749D01*
X129003714Y-93215974D01*
X129012091Y-93228078D01*
X129019242Y-93240945D01*
X129025097Y-93254451D01*
X129029600Y-93268465D01*
X129032708Y-93282854D01*
X129034390Y-93297478D01*
X129034631Y-93312196D01*
X129033428Y-93326867D01*
X129030793Y-93341350D01*
X129026750Y-93355504D01*
X129021341Y-93369194D01*
X129014615Y-93382288D01*
X128864615Y-93642096D01*
X128856638Y-93654468D01*
X128847487Y-93665998D01*
X128837250Y-93676576D01*
X128826025Y-93686099D01*
X128813921Y-93694476D01*
X128801054Y-93701627D01*
X128787549Y-93707482D01*
X128773534Y-93711985D01*
X128759145Y-93715092D01*
X128744522Y-93716775D01*
X128729803Y-93717016D01*
X128715132Y-93715813D01*
X128700650Y-93713178D01*
X128686495Y-93709136D01*
X128672805Y-93703726D01*
X128659711Y-93697000D01*
X127880289Y-93247000D01*
X127867917Y-93239023D01*
X127856387Y-93229872D01*
X127845809Y-93219635D01*
X127836286Y-93208410D01*
X127827909Y-93196306D01*
X127820758Y-93183439D01*
X127814903Y-93169933D01*
X127810400Y-93155919D01*
X127807292Y-93141530D01*
X127805610Y-93126906D01*
X127805369Y-93112188D01*
X127806572Y-93097517D01*
X127809207Y-93083034D01*
X127813250Y-93068880D01*
X127818659Y-93055190D01*
X127825385Y-93042096D01*
X127975385Y-92782288D01*
X127983362Y-92769916D01*
X127992513Y-92758386D01*
X128002750Y-92747808D01*
X128013975Y-92738285D01*
X128026079Y-92729908D01*
X128038946Y-92722757D01*
X128052451Y-92716902D01*
X128066466Y-92712399D01*
X128080855Y-92709292D01*
X128095478Y-92707609D01*
X128110197Y-92707368D01*
X128124868Y-92708571D01*
X128124868Y-92708571D01*
G37*
D23*
X128420000Y-93212192D03*
G04 #@! TD*
D11*
G04 #@! TO.C,D101*
G36*
X168140491Y-91429884D02*
X168159989Y-91432127D01*
X168179174Y-91436271D01*
X168197860Y-91442275D01*
X168215868Y-91450081D01*
X168233024Y-91459616D01*
X168249162Y-91470785D01*
X168264128Y-91483483D01*
X168277778Y-91497587D01*
X168289979Y-91512960D01*
X168300615Y-91529456D01*
X168500615Y-91875866D01*
X168509583Y-91893325D01*
X168516796Y-91911578D01*
X168522185Y-91930451D01*
X168525699Y-91949761D01*
X168527303Y-91969322D01*
X168526982Y-91988947D01*
X168524739Y-92008445D01*
X168520595Y-92027630D01*
X168514591Y-92046316D01*
X168506785Y-92064324D01*
X168497250Y-92081480D01*
X168486081Y-92097618D01*
X168473383Y-92112584D01*
X168459279Y-92126234D01*
X168443906Y-92138435D01*
X168427410Y-92149071D01*
X167734590Y-92549071D01*
X167717131Y-92558039D01*
X167698878Y-92565252D01*
X167680005Y-92570641D01*
X167660695Y-92574155D01*
X167641134Y-92575759D01*
X167621509Y-92575438D01*
X167602011Y-92573195D01*
X167582826Y-92569051D01*
X167564140Y-92563047D01*
X167546132Y-92555241D01*
X167528976Y-92545706D01*
X167512838Y-92534537D01*
X167497872Y-92521839D01*
X167484222Y-92507735D01*
X167472021Y-92492362D01*
X167461385Y-92475866D01*
X167261385Y-92129456D01*
X167252417Y-92111997D01*
X167245204Y-92093744D01*
X167239815Y-92074871D01*
X167236301Y-92055561D01*
X167234697Y-92036000D01*
X167235018Y-92016375D01*
X167237261Y-91996877D01*
X167241405Y-91977692D01*
X167247409Y-91959006D01*
X167255215Y-91940998D01*
X167264750Y-91923842D01*
X167275919Y-91907704D01*
X167288617Y-91892738D01*
X167302721Y-91879088D01*
X167318094Y-91866887D01*
X167334590Y-91856251D01*
X168027410Y-91456251D01*
X168044869Y-91447283D01*
X168063122Y-91440070D01*
X168081995Y-91434681D01*
X168101305Y-91431167D01*
X168120866Y-91429563D01*
X168140491Y-91429884D01*
X168140491Y-91429884D01*
G37*
D13*
X167881000Y-92002661D03*
D11*
G36*
X169627991Y-94006309D02*
X169647489Y-94008552D01*
X169666674Y-94012696D01*
X169685360Y-94018700D01*
X169703368Y-94026506D01*
X169720524Y-94036041D01*
X169736662Y-94047210D01*
X169751628Y-94059908D01*
X169765278Y-94074012D01*
X169777479Y-94089385D01*
X169788115Y-94105881D01*
X169988115Y-94452291D01*
X169997083Y-94469750D01*
X170004296Y-94488003D01*
X170009685Y-94506876D01*
X170013199Y-94526186D01*
X170014803Y-94545747D01*
X170014482Y-94565372D01*
X170012239Y-94584870D01*
X170008095Y-94604055D01*
X170002091Y-94622741D01*
X169994285Y-94640749D01*
X169984750Y-94657905D01*
X169973581Y-94674043D01*
X169960883Y-94689009D01*
X169946779Y-94702659D01*
X169931406Y-94714860D01*
X169914910Y-94725496D01*
X169222090Y-95125496D01*
X169204631Y-95134464D01*
X169186378Y-95141677D01*
X169167505Y-95147066D01*
X169148195Y-95150580D01*
X169128634Y-95152184D01*
X169109009Y-95151863D01*
X169089511Y-95149620D01*
X169070326Y-95145476D01*
X169051640Y-95139472D01*
X169033632Y-95131666D01*
X169016476Y-95122131D01*
X169000338Y-95110962D01*
X168985372Y-95098264D01*
X168971722Y-95084160D01*
X168959521Y-95068787D01*
X168948885Y-95052291D01*
X168748885Y-94705881D01*
X168739917Y-94688422D01*
X168732704Y-94670169D01*
X168727315Y-94651296D01*
X168723801Y-94631986D01*
X168722197Y-94612425D01*
X168722518Y-94592800D01*
X168724761Y-94573302D01*
X168728905Y-94554117D01*
X168734909Y-94535431D01*
X168742715Y-94517423D01*
X168752250Y-94500267D01*
X168763419Y-94484129D01*
X168776117Y-94469163D01*
X168790221Y-94455513D01*
X168805594Y-94443312D01*
X168822090Y-94432676D01*
X169514910Y-94032676D01*
X169532369Y-94023708D01*
X169550622Y-94016495D01*
X169569495Y-94011106D01*
X169588805Y-94007592D01*
X169608366Y-94005988D01*
X169627991Y-94006309D01*
X169627991Y-94006309D01*
G37*
D13*
X169368500Y-94579086D03*
D11*
G36*
X168758053Y-92410646D02*
X168767803Y-92411768D01*
X168777395Y-92413839D01*
X168786738Y-92416841D01*
X168795742Y-92420745D01*
X168804320Y-92425512D01*
X168812389Y-92431097D01*
X168819872Y-92437446D01*
X168826697Y-92444497D01*
X168832798Y-92452184D01*
X168838116Y-92460432D01*
X168938116Y-92633638D01*
X168942599Y-92642368D01*
X168946206Y-92651494D01*
X168948901Y-92660931D01*
X168950658Y-92670586D01*
X168951459Y-92680366D01*
X168951299Y-92690179D01*
X168950177Y-92699928D01*
X168948106Y-92709520D01*
X168945104Y-92718863D01*
X168941200Y-92727867D01*
X168936433Y-92736445D01*
X168930848Y-92744514D01*
X168924499Y-92751997D01*
X168917447Y-92758822D01*
X168909761Y-92764923D01*
X168901513Y-92770241D01*
X168035487Y-93270241D01*
X168026758Y-93274724D01*
X168017631Y-93278331D01*
X168008195Y-93281026D01*
X167998540Y-93282782D01*
X167988759Y-93283584D01*
X167978947Y-93283424D01*
X167969197Y-93282302D01*
X167959605Y-93280231D01*
X167950262Y-93277229D01*
X167941258Y-93273325D01*
X167932680Y-93268558D01*
X167924611Y-93262973D01*
X167917128Y-93256624D01*
X167910303Y-93249573D01*
X167904202Y-93241886D01*
X167898884Y-93233638D01*
X167798884Y-93060432D01*
X167794401Y-93051702D01*
X167790794Y-93042576D01*
X167788099Y-93033139D01*
X167786342Y-93023484D01*
X167785541Y-93013704D01*
X167785701Y-93003891D01*
X167786823Y-92994142D01*
X167788894Y-92984550D01*
X167791896Y-92975207D01*
X167795800Y-92966203D01*
X167800567Y-92957625D01*
X167806152Y-92949556D01*
X167812501Y-92942073D01*
X167819553Y-92935248D01*
X167827239Y-92929147D01*
X167835487Y-92923829D01*
X168701513Y-92423829D01*
X168710242Y-92419346D01*
X168719369Y-92415739D01*
X168728805Y-92413044D01*
X168738460Y-92411288D01*
X168748241Y-92410486D01*
X168758053Y-92410646D01*
X168758053Y-92410646D01*
G37*
D24*
X168368500Y-92847035D03*
D11*
G36*
X169130521Y-93100225D02*
X169145145Y-93101907D01*
X169159534Y-93105015D01*
X169173548Y-93109518D01*
X169187054Y-93115373D01*
X169199921Y-93122524D01*
X169212025Y-93130901D01*
X169223250Y-93140424D01*
X169233487Y-93151002D01*
X169242638Y-93162532D01*
X169250615Y-93174904D01*
X169400615Y-93434712D01*
X169407341Y-93447806D01*
X169412751Y-93461496D01*
X169416793Y-93475651D01*
X169419428Y-93490133D01*
X169420631Y-93504804D01*
X169420390Y-93519523D01*
X169418707Y-93534146D01*
X169415600Y-93548535D01*
X169411097Y-93562550D01*
X169405242Y-93576055D01*
X169398091Y-93588922D01*
X169389714Y-93601026D01*
X169380191Y-93612251D01*
X169369613Y-93622488D01*
X169358083Y-93631639D01*
X169345711Y-93639616D01*
X168566289Y-94089616D01*
X168553195Y-94096342D01*
X168539505Y-94101751D01*
X168525351Y-94105794D01*
X168510868Y-94108429D01*
X168496197Y-94109632D01*
X168481479Y-94109391D01*
X168466855Y-94107709D01*
X168452466Y-94104601D01*
X168438452Y-94100098D01*
X168424946Y-94094243D01*
X168412079Y-94087092D01*
X168399975Y-94078715D01*
X168388750Y-94069192D01*
X168378513Y-94058614D01*
X168369362Y-94047084D01*
X168361385Y-94034712D01*
X168211385Y-93774904D01*
X168204659Y-93761810D01*
X168199249Y-93748120D01*
X168195207Y-93733965D01*
X168192572Y-93719483D01*
X168191369Y-93704812D01*
X168191610Y-93690093D01*
X168193293Y-93675470D01*
X168196400Y-93661081D01*
X168200903Y-93647066D01*
X168206758Y-93633561D01*
X168213909Y-93620694D01*
X168222286Y-93608590D01*
X168231809Y-93597365D01*
X168242387Y-93587128D01*
X168253917Y-93577977D01*
X168266289Y-93570000D01*
X169045711Y-93120000D01*
X169058805Y-93113274D01*
X169072495Y-93107865D01*
X169086649Y-93103822D01*
X169101132Y-93101187D01*
X169115803Y-93099984D01*
X169130521Y-93100225D01*
X169130521Y-93100225D01*
G37*
D23*
X168806000Y-93604808D03*
G04 #@! TD*
D27*
G04 #@! TO.C,D301*
X157891000Y-112383000D03*
X155291000Y-112383000D03*
X155291000Y-110883000D03*
X157891000Y-110883000D03*
G04 #@! TD*
D28*
G04 #@! TO.C,MOD101*
X147463000Y-94257000D03*
D29*
X156963000Y-104267000D03*
X156963000Y-102997000D03*
X156963000Y-101727000D03*
X156963000Y-100457000D03*
X156963000Y-99187000D03*
X156963000Y-97917000D03*
X156963000Y-96647000D03*
X156963000Y-95377000D03*
X156963000Y-94107000D03*
X156963000Y-92837000D03*
X156963000Y-91567000D03*
X156963000Y-90297000D03*
X156963000Y-89027000D03*
X156963000Y-87757000D03*
X139963000Y-104267000D03*
X139963000Y-102997000D03*
X139963000Y-101727000D03*
X139963000Y-100457000D03*
X139963000Y-99187000D03*
X139963000Y-97917000D03*
X139963000Y-96647000D03*
X139963000Y-95377000D03*
X139963000Y-94107000D03*
X139963000Y-92837000D03*
X139963000Y-91567000D03*
X139963000Y-90297000D03*
X139963000Y-89027000D03*
D30*
X154178000Y-105267000D03*
X152908000Y-105267000D03*
X151638000Y-105267000D03*
X150368000Y-105267000D03*
X149098000Y-105267000D03*
X147828000Y-105267000D03*
X146558000Y-105267000D03*
X145288000Y-105267000D03*
X144018000Y-105267000D03*
X142748000Y-105267000D03*
D29*
X139963000Y-87757000D03*
G04 #@! TD*
M02*
